<svg width="24" height="25" viewBox="0 0 24 25" fill="none" xmlns="http://www.w3.org/2000/svg">
<path d="M4.6155 19.5C4.15517 19.5 3.77083 19.3458 3.4625 19.0375C3.15417 18.7292 3 18.3448 3 17.8845V7.1155C3 6.65517 3.15417 6.27083 3.4625 5.9625C3.77083 5.65417 4.15517 5.5 4.6155 5.5H8.73075V6.5H4.6155C4.4615 6.5 4.32042 6.56408 4.19225 6.69225C4.06408 6.82042 4 6.9615 4 7.1155V17.8845C4 18.0385 4.06408 18.1796 4.19225 18.3077C4.32042 18.4359 4.4615 18.5 4.6155 18.5H19.3845C19.5385 18.5 19.6796 18.4359 19.8078 18.3077C19.9359 18.1796 20 18.0385 20 17.8845V7.1155C20 6.9615 19.9359 6.82042 19.8078 6.69225C19.6796 6.56408 19.5385 6.5 19.3845 6.5H15.2693V5.5H19.3845C19.8448 5.5 20.2292 5.65417 20.5375 5.9625C20.8458 6.27083 21 6.65517 21 7.1155V17.8845C21 18.3448 20.8458 18.7292 20.5375 19.0375C20.2292 19.3458 19.8448 19.5 19.3845 19.5H4.6155ZM12 15.4L7.69225 11.0923L8.4 10.3845L11.5 13.4845V5.5H12.5V13.4845L15.6 10.3845L16.3077 11.0923L12 15.4Z" fill="#E3E3E3"/>
</svg>
