<svg width="24" height="24" viewBox="0 0 24 24" fill="none" xmlns="http://www.w3.org/2000/svg">
<rect width="24" height="24" rx="4" fill="#EFF5FF" fill-opacity="0.09"/>
<path d="M11 19.9115C9.26533 19.6743 7.83167 18.9009 6.699 17.5913C5.56633 16.2818 5 14.7513 5 13C5 12.0667 5.18458 11.1728 5.55375 10.3183C5.92308 9.46376 6.43083 8.70643 7.077 8.04626L7.7905 8.75951C7.1955 9.31351 6.74833 9.95584 6.449 10.6865C6.14967 11.4173 6 12.1885 6 13C6 14.4667 6.46983 15.7561 7.4095 16.8683C8.34933 17.9804 9.54617 18.6615 11 18.9115V19.9115ZM13 19.95V18.95C14.4372 18.632 15.6298 17.9243 16.578 16.827C17.526 15.7295 18 14.4538 18 13C18 11.3333 17.4167 9.91668 16.25 8.75001C15.0833 7.58334 13.6667 7.00001 12 7.00001H11.3672L12.9673 8.60001L12.2595 9.30776L9.452 6.50001L12.2595 3.69226L12.9673 4.40001L11.3672 6.00001H12C13.9513 6.00001 15.6058 6.67884 16.9635 8.03651C18.3212 9.39418 19 11.0487 19 13C19 14.7475 18.4304 16.2696 17.2913 17.5663C16.1523 18.8631 14.7218 19.6577 13 19.95Z" fill="#E3E3E3"/>
</svg>
