<svg width="25" height="24" viewBox="0 0 25 24" fill="none" xmlns="http://www.w3.org/2000/svg">
<path d="M5.95534 20C5.49501 20 5.11068 19.8458 4.80234 19.5375C4.49401 19.2292 4.33984 18.8448 4.33984 18.3845V5.6155C4.33984 5.15517 4.49401 4.77083 4.80234 4.4625C5.11068 4.15417 5.49501 4 5.95534 4H11.5706V5H5.95534C5.80134 5 5.66026 5.06408 5.53209 5.19225C5.40393 5.32042 5.33984 5.4615 5.33984 5.6155V18.3845C5.33984 18.5385 5.40393 18.6796 5.53209 18.8077C5.66026 18.9359 5.80134 19 5.95534 19H18.7243C18.8783 19 19.0194 18.9359 19.1476 18.8077C19.2758 18.6796 19.3398 18.5385 19.3398 18.3845V12.7692H20.3398V18.3845C20.3398 18.8448 20.1857 19.2292 19.8773 19.5375C19.569 19.8458 19.1847 20 18.7243 20H5.95534ZM10.0783 14.9692L9.37059 14.2615L18.6321 5H14.3398V4H20.3398V10H19.3398V5.70775L10.0783 14.9692Z" fill="#002B31"/>
</svg>
