<svg width="30" height="30" viewBox="0 0 30 30" fill="none" xmlns="http://www.w3.org/2000/svg">
<g clip-path="url(#clip0_463_4610)">
<path d="M5.3125 0.595215H24.6875C27.625 0.595215 30 2.97021 30 5.90771V24.5327C30 27.4702 27.625 29.8452 24.6875 29.8452H5.3125C2.375 29.8452 0 27.4702 0 24.5327V5.90771C0 2.97021 2.375 0.595215 5.3125 0.595215Z" fill="#470137"/>
<path d="M15.774 8.2828L12.024 14.4703L16.024 21.0328C16.049 21.0828 16.0615 21.1328 16.049 21.1828C16.0365 21.2328 15.9865 21.1953 15.9115 21.2078H13.049C12.849 21.2078 12.7115 21.1953 12.624 21.0703C12.3615 20.5453 12.0865 20.0328 11.824 19.5078C11.5615 18.9953 11.274 18.4703 10.974 17.9328C10.674 17.3953 10.374 16.8578 10.074 16.3078H10.049C9.78655 16.8453 9.49904 17.3828 9.21154 17.9203C8.92404 18.4578 8.63655 18.9953 8.36155 19.5203C8.07404 20.0453 7.78654 20.5828 7.49904 21.0953C7.44904 21.2203 7.34904 21.2328 7.21154 21.2328H4.46154C4.41154 21.2328 4.37404 21.2578 4.37404 21.1953C4.36154 21.1453 4.37404 21.0953 4.39904 21.0578L8.28655 14.6828L4.49904 8.2703C4.46154 8.2203 4.44904 8.1703 4.47404 8.1453C4.49904 8.1078 4.54904 8.0953 4.59904 8.0953H7.43654C7.49904 8.0953 7.56154 8.1078 7.61155 8.1203C7.66155 8.1453 7.69904 8.1828 7.73655 8.2328C7.97405 8.7703 8.24905 9.3078 8.53655 9.8453C8.83655 10.3828 9.12404 10.9078 9.43654 11.4328C9.73655 11.9578 10.0115 12.4828 10.274 13.0203H10.299C10.5615 12.4703 10.8365 11.9328 11.1115 11.4078C11.3865 10.8828 11.674 10.3578 11.9615 9.8328C12.249 9.3078 12.524 8.7703 12.799 8.2578C12.8115 8.2078 12.8365 8.1578 12.874 8.1328C12.924 8.1078 12.974 8.0953 13.0365 8.1078H15.674C15.7365 8.0953 15.799 8.1328 15.8115 8.1953C15.824 8.2078 15.799 8.2578 15.774 8.2828ZM21.549 21.4703C20.624 21.4828 19.699 21.2953 18.8615 20.9078C18.074 20.5453 17.424 19.9453 16.974 19.2078C16.5115 18.4453 16.2865 17.4953 16.2865 16.3578C16.274 15.4328 16.5115 14.5203 16.974 13.7203C17.449 12.9078 18.1365 12.2328 18.9615 11.7828C19.8365 11.2953 20.8865 11.0578 22.124 11.0578C22.1865 11.0578 22.274 11.0578 22.3865 11.0703C22.499 11.0828 22.624 11.0828 22.774 11.0953V7.1453C22.774 7.0578 22.8115 7.0078 22.899 7.0078H25.4365C25.499 6.9953 25.549 7.0453 25.5615 7.0953V19.0203C25.5615 19.2453 25.574 19.4953 25.5865 19.7703C25.6115 20.0328 25.624 20.2828 25.6365 20.4953C25.6365 20.5828 25.599 20.6578 25.5115 20.6953C24.8615 20.9703 24.174 21.1703 23.474 21.2953C22.8365 21.4078 22.199 21.4703 21.549 21.4703ZM22.774 18.9703V13.4703C22.6615 13.4453 22.549 13.4203 22.4365 13.4078C22.299 13.3953 22.1615 13.3828 22.024 13.3828C21.5365 13.3828 21.049 13.4828 20.6115 13.7078C20.1865 13.9203 19.824 14.2328 19.549 14.6328C19.274 15.0328 19.1365 15.5703 19.1365 16.2203C19.124 16.6578 19.199 17.0953 19.349 17.5078C19.474 17.8453 19.6615 18.1453 19.9115 18.3953C20.149 18.6203 20.4365 18.7953 20.7615 18.8953C21.099 19.0078 21.449 19.0578 21.799 19.0578C21.9865 19.0578 22.1615 19.0453 22.324 19.0328C22.4865 19.0453 22.624 19.0203 22.774 18.9703Z" fill="#FF61F6"/>
</g>
<defs>
<clipPath id="clip0_463_4610">
<rect width="30" height="29.256" fill="white" transform="translate(0 0.592285)"/>
</clipPath>
</defs>
</svg>
