<svg width="20" height="20" viewBox="0 0 20 20" fill="none" xmlns="http://www.w3.org/2000/svg">
<path d="M0 0H20V20H0V0Z" fill="white" fill-opacity="0.01"/>
<path d="M9.00042 5.9998L11.5004 3.4998C12.1671 2.85444 13.0607 2.49698 13.9885 2.50451C14.9164 2.51204 15.8041 2.88397 16.4602 3.54007C17.1163 4.19616 17.4882 5.08386 17.4957 6.01169C17.5032 6.93952 17.1458 7.83314 16.5004 8.4998L14.0004 10.9998M6.00042 8.9998L3.50042 11.4998C3.16332 11.8261 2.89452 12.2163 2.70971 12.6475C2.5249 13.0788 2.42775 13.5425 2.42394 14.0117C2.42014 14.4809 2.50974 14.9461 2.68752 15.3803C2.86531 15.8145 3.12773 16.209 3.4595 16.5407C3.79126 16.8725 4.18574 17.1349 4.61993 17.3127C5.05413 17.4905 5.51936 17.5801 5.98853 17.5763C6.4577 17.5725 6.92143 17.4753 7.35268 17.2905C7.78393 17.1057 8.17409 16.8369 8.50042 16.4998L11.0004 13.9998" stroke="white" stroke-width="1.25" stroke-linecap="square" stroke-linejoin="round"/>
<path d="M8 12L12 8" stroke="white" stroke-width="1.25"/>
</svg>
