<svg width="20" height="20" viewBox="0 0 20 20" fill="none" xmlns="http://www.w3.org/2000/svg">
<path d="M11.5 10C11.5 10.3978 11.342 10.7794 11.0607 11.0607C10.7794 11.342 10.3978 11.5 10 11.5C9.60218 11.5 9.22064 11.342 8.93934 11.0607C8.65804 10.7794 8.5 10.3978 8.5 10C8.5 9.60218 8.65804 9.22064 8.93934 8.93934C9.22064 8.65804 9.60218 8.5 10 8.5C10.3978 8.5 10.7794 8.65804 11.0607 8.93934C11.342 9.22064 11.5 9.60218 11.5 10ZM5 10C5 10.197 4.9612 10.392 4.88582 10.574C4.81044 10.756 4.69995 10.9214 4.56066 11.0607C4.42137 11.1999 4.25601 11.3104 4.07403 11.3858C3.89204 11.4612 3.69698 11.5 3.5 11.5C3.30302 11.5 3.10796 11.4612 2.92597 11.3858C2.74399 11.3104 2.57863 11.1999 2.43934 11.0607C2.30005 10.9214 2.18956 10.756 2.11418 10.574C2.0388 10.392 2 10.197 2 10C2 9.60218 2.15804 9.22064 2.43934 8.93934C2.72064 8.65804 3.10218 8.5 3.5 8.5C3.89782 8.5 4.27936 8.65804 4.56066 8.93934C4.84196 9.22064 5 9.60218 5 10ZM18 10C18 10.3978 17.842 10.7794 17.5607 11.0607C17.2794 11.342 16.8978 11.5 16.5 11.5C16.1022 11.5 15.7206 11.342 15.4393 11.0607C15.158 10.7794 15 10.3978 15 10C15 9.60218 15.158 9.22064 15.4393 8.93934C15.7206 8.65804 16.1022 8.5 16.5 8.5C16.8978 8.5 17.2794 8.65804 17.5607 8.93934C17.842 9.22064 18 9.60218 18 10Z" fill="white"/>
</svg>
