<svg width="20" height="31" viewBox="0 0 20 31" fill="none" xmlns="http://www.w3.org/2000/svg">
<g clip-path="url(#clip0_463_4602)">
<path d="M5 30.2202C7.76 30.2202 10 27.9802 10 25.2202V20.2202H5C2.24 20.2202 0 22.4602 0 25.2202C0 27.9802 2.24 30.2202 5 30.2202Z" fill="#0ACF83"/>
<path d="M0 15.2202C0 12.4602 2.24 10.2202 5 10.2202H10V20.2202H5C2.24 20.2202 0 17.9802 0 15.2202Z" fill="#A259FF"/>
<path d="M0 5.22021C0 2.46021 2.24 0.220215 5 0.220215H10V10.2202H5C2.24 10.2202 0 7.98022 0 5.22021Z" fill="#F24E1E"/>
<path d="M10 0.220215H15C17.76 0.220215 20 2.46021 20 5.22021C20 7.98022 17.76 10.2202 15 10.2202H10V0.220215Z" fill="#FF7262"/>
<path d="M20 15.2202C20 17.9802 17.76 20.2202 15 20.2202C12.24 20.2202 10 17.9802 10 15.2202C10 12.4602 12.24 10.2202 15 10.2202C17.76 10.2202 20 12.4602 20 15.2202Z" fill="#1ABCFE"/>
</g>
<defs>
<clipPath id="clip0_463_4602">
<rect width="20.004" height="30" fill="white" transform="translate(-0.00195312 0.220215)"/>
</clipPath>
</defs>
</svg>
