<svg width="30" height="31" viewBox="0 0 30 31" fill="none" xmlns="http://www.w3.org/2000/svg">
<g clip-path="url(#clip0_463_4627)">
<path d="M27.2804 0.220215H2.71957C1.21758 0.220215 0 1.43779 0 2.93979V27.5006C0 29.0026 1.21758 30.2202 2.71957 30.2202H27.2804C28.7824 30.2202 30 29.0026 30 27.5006V2.93979C30 1.43779 28.7824 0.220215 27.2804 0.220215Z" fill="#DC395F"/>
<path d="M10.0252 9.65922C11.0225 9.65922 11.8579 8.87758 11.8579 7.85313C11.8579 6.82938 11.0225 6.04785 10.0252 6.04785C9.02793 6.04785 8.19273 6.82938 8.19273 7.85313C8.19273 8.87746 9.02793 9.65922 10.0252 9.65922ZM6.22527 19.3295C6.11758 19.7877 6.06355 20.2825 6.06355 20.6861C6.06355 22.2764 6.92594 23.3322 8.75863 23.3322C10.2786 23.3322 11.5108 22.4296 12.398 20.9721L11.8563 23.1463H14.8744L16.5994 16.2277C17.0307 14.476 17.8661 13.5667 19.1329 13.5667C20.13 13.5667 20.7498 14.1869 20.7498 15.2106C20.7498 15.5072 20.7229 15.8303 20.6151 16.1808L19.7256 19.3609C19.5909 19.8191 19.5372 20.2776 19.5372 20.7085C19.5372 22.2182 20.4263 23.3225 22.2859 23.3225C23.8761 23.3225 25.1426 22.2988 25.8434 19.8462L24.6577 19.3885C24.0647 21.0316 23.5526 21.3286 23.1483 21.3286C22.744 21.3286 22.5284 21.0593 22.5284 20.5206C22.5284 20.278 22.5825 20.0089 22.6632 19.6847L23.5258 16.5865C23.7413 15.859 23.8223 15.2139 23.8223 14.6212C23.8223 12.3034 22.4207 11.0938 20.7229 11.0938C19.1329 11.0938 17.5157 12.5281 16.7073 14.0376L17.3001 11.3282H12.6918L12.0449 13.7146H14.2011L12.8733 19.0302C11.8307 21.348 9.91551 21.3856 9.67516 21.3318C9.28047 21.2427 9.02805 21.0929 9.02805 20.58C9.02805 20.2841 9.08195 19.8591 9.21672 19.3466L11.2382 11.3282H6.11758L5.4707 13.7146H7.59965L6.22527 19.3295Z" fill="white"/>
</g>
<defs>
<clipPath id="clip0_463_4627">
<rect width="30" height="30" fill="white" transform="translate(0 0.220215)"/>
</clipPath>
</defs>
</svg>
