<?xml version="1.0" encoding="utf-8"?>
<!-- Generator: Adobe Illustrator 26.0.2, SVG Export Plug-In . SVG Version: 6.00 Build 0)  -->
<svg version="1.1" id="Layer_1" xmlns="http://www.w3.org/2000/svg" xmlns:xlink="http://www.w3.org/1999/xlink" x="0px" y="0px"
	 viewBox="0 0 512 512" style="enable-background:new 0 0 512 512;" xml:space="preserve">
<style type="text/css">
	.st0{fill:#20808D;}
	.st1{fill-rule:evenodd;clip-rule:evenodd;fill:#FFFFFF;}
</style>
<g>
	<path class="st0" d="M395.6,512H116.4C52.1,512,0,459.9,0,395.6V116.4C0,52.1,52.1,0,116.4,0h279.2C459.9,0,512,52.1,512,116.4
		v279.2C512,459.9,459.9,512,395.6,512z"/>
	<path class="st1" d="M147.1,82.1l99.2,91.3l0,0v-91h19.1v91.3l99.5-91.6V186h40.8v150.3h-40.8v92.6l-99.5-87.6v88.5h-19.1v-86.9
		l-99.2,86.9v-93.5h-40.8V186h40.8V82.1z M231.5,205.2H125.5v112h21.7v-35.5L231.5,205.2z M166.6,290.2v97l79.7-70.3V218
		L166.6,290.2z M266,316.3V218l79.7,72.5v45.8l0,0v50.2L266,316.3z M364.9,317.2h21.3v-112H281.1l83.8,75.9V317.2z M345.4,186v-59.9
		L280.2,186H345.4z M231.8,186h-65.6v-59.9L231.8,186z"/>
</g>
</svg>
