<svg width="30" height="28" viewBox="0 0 30 28" fill="none" xmlns="http://www.w3.org/2000/svg">
<g clip-path="url(#clip0_463_4616)">
<path fill-rule="evenodd" clip-rule="evenodd" d="M6.09563 10.3994L14.9687 27.7666L0.0546875 10.3994H6.09563Z" fill="#EA6C00"/>
<path fill-rule="evenodd" clip-rule="evenodd" d="M23.8438 10.3994L14.9708 27.7666L29.8848 10.3994H23.8438Z" fill="#EA6C00"/>
<path fill-rule="evenodd" clip-rule="evenodd" d="M6.0957 10.3994H23.8418L14.9688 27.7666L6.0957 10.3994Z" fill="#FDAD00"/>
<path fill-rule="evenodd" clip-rule="evenodd" d="M14.9688 0.774902L6.56272 1.66347L6.0957 10.3998L14.9688 0.774902Z" fill="#FDD231"/>
<path fill-rule="evenodd" clip-rule="evenodd" d="M14.9687 0.774902L23.3748 1.66347L23.8418 10.3998L14.9687 0.774902Z" fill="#FDD231"/>
<path fill-rule="evenodd" clip-rule="evenodd" d="M29.8848 10.3994L23.3768 1.66309L23.8438 10.3994H29.8848Z" fill="#FDAD00"/>
<path fill-rule="evenodd" clip-rule="evenodd" d="M0.0546875 10.3994L6.56265 1.66309L6.09563 10.3994H0.0546875Z" fill="#FDAD00"/>
<path fill-rule="evenodd" clip-rule="evenodd" d="M14.9688 0.774902L6.0957 10.3998H23.8418L14.9688 0.774902Z" fill="#FEEEB7"/>
</g>
<defs>
<clipPath id="clip0_463_4616">
<rect width="30" height="27.156" fill="white" transform="translate(0 0.64209)"/>
</clipPath>
</defs>
</svg>
