<svg width="24" height="25" viewBox="0 0 24 25" fill="none" xmlns="http://www.w3.org/2000/svg">
<path d="M6.6155 9.5H15V7.5C15 6.66667 14.7083 5.95833 14.125 5.375C13.5417 4.79167 12.8333 4.5 12 4.5C11.1667 4.5 10.4583 4.79167 9.875 5.375C9.29167 5.95833 9 6.66667 9 7.5H8C8 6.38583 8.38817 5.44067 9.1645 4.6645C9.94067 3.88817 10.8858 3.5 12 3.5C13.1142 3.5 14.0593 3.88817 14.8355 4.6645C15.6118 5.44067 16 6.38583 16 7.5V9.5H17.3845C17.8288 9.5 18.2092 9.65817 18.5255 9.9745C18.8418 10.2908 19 10.6712 19 11.1155V19.8845C19 20.3288 18.8418 20.7092 18.5255 21.0255C18.2092 21.3418 17.8288 21.5 17.3845 21.5H6.6155C6.17117 21.5 5.79083 21.3418 5.4745 21.0255C5.15817 20.7092 5 20.3288 5 19.8845V11.1155C5 10.6712 5.15817 10.2908 5.4745 9.9745C5.79083 9.65817 6.17117 9.5 6.6155 9.5ZM12 17C12.4218 17 12.7773 16.8554 13.0663 16.5663C13.3554 16.2773 13.5 15.9218 13.5 15.5C13.5 15.0782 13.3554 14.7228 13.0663 14.4338C12.7773 14.1446 12.4218 14 12 14C11.5782 14 11.2228 14.1446 10.9338 14.4338C10.6446 14.7228 10.5 15.0782 10.5 15.5C10.5 15.9218 10.6446 16.2773 10.9338 16.5663C11.2228 16.8554 11.5782 17 12 17Z" fill="white"/>
</svg>
