<svg width="239" height="237" viewBox="0 0 239 237" fill="none" xmlns="http://www.w3.org/2000/svg">
<path d="M66.7018 107.165V121.591H52.2148" stroke="white" stroke-width="4.33867" stroke-linejoin="round"/>
<path d="M74.9793 105.103H64.7557L50.1445 119.53V160.747H106.023V115.408M170.179 74.1904V88.6165H184.666" stroke="white" stroke-width="4.33867" stroke-linejoin="round"/>
<path d="M151.55 74.1904H172.287L186.733 88.6165V127.773H130.855V115.408M99.8112 49.4599V63.886H85.3242" stroke="white" stroke-width="4.33867" stroke-linejoin="round"/>
<path d="M85.3242 61.8252V105.103H141.202V49.4599H97.7416L85.3242 61.8252Z" stroke="white" stroke-width="4.33867" stroke-linejoin="round"/>
<path d="M108.09 72.1297H120.507M108.09 82.4341H120.507" stroke="white" stroke-width="4.33867" stroke-linecap="round" stroke-linejoin="round"/>
<path d="M137.066 181.357V166.931H151.553" stroke="white" stroke-width="4.33867" stroke-linejoin="round"/>
<path d="M97.7461 171.051V183.416H139.137L153.624 168.99V138.077" stroke="white" stroke-width="4.33867" stroke-linejoin="round"/>
<path d="M163.7 94.3672L152.752 105.29M152.752 94.3672L163.7 105.29M83.256 127.774H73.5912L84.1459 138.078H72.9082M132.801 153.714C132.97 152.913 132.977 152.088 132.822 151.284C132.668 150.481 132.355 149.716 131.902 149.034C131.448 148.352 130.864 147.767 130.181 147.311C129.499 146.856 128.733 146.54 127.927 146.381C127.121 146.223 126.292 146.225 125.487 146.388C124.682 146.551 123.918 146.872 123.238 147.331C122.559 147.79 121.977 148.379 121.528 149.064C121.078 149.749 120.77 150.515 120.62 151.319C120.322 152.919 120.669 154.572 121.587 155.919C122.505 157.265 123.919 158.197 125.522 158.512C127.125 158.828 128.789 158.501 130.152 157.602C131.514 156.704 132.466 155.307 132.801 153.714Z" stroke="white" stroke-width="4.33867" stroke-linecap="round" stroke-linejoin="round"/>
</svg>
