<svg width="25" height="25" viewBox="0 0 25 25" fill="none" xmlns="http://www.w3.org/2000/svg">
<g clip-path="url(#clip0_296_1283)">
<g clip-path="url(#clip1_296_1283)">
<g clip-path="url(#clip2_296_1283)">
<path d="M12.0234 3.5332V3.00621H8.89954C8.52215 2.99829 8.14732 3.06998 7.79948 3.2166C7.44596 3.36646 7.12683 3.58706 6.86172 3.86482C6.59026 4.14797 6.37686 4.48152 6.23354 4.84666C5.93778 5.59461 5.93778 6.42708 6.23354 7.17503C6.37686 7.54017 6.59026 7.87372 6.86172 8.15687C7.13022 8.4374 7.44882 8.65782 7.79948 8.80409C8.15014 8.95237 8.52384 9.0245 8.89954 9.01549H12.0234V3.5332Z" stroke="#F8FAFC" stroke-width="1.00188"/>
<path d="M12.023 15.0282H8.87011C8.11168 15.0282 7.38532 14.7116 6.84931 14.1475C6.3123 13.5845 6.01174 12.82 6.01174 12.0225C6.00885 11.2332 6.3086 10.4727 6.84931 9.89756C7.38532 9.3335 8.11168 9.01691 8.87011 9.01691H12.023V9.5439V15.0282ZM12.023 15.0282V15.5562V15.5552V17.8795C12.0255 18.7109 11.7071 19.5112 11.1344 20.1137C10.5653 20.7069 9.79384 21.0395 8.98933 21.0395H8.84105C8.46382 21.0303 8.09224 20.9458 7.74813 20.7909C7.40403 20.6361 7.09435 20.414 6.83729 20.1378C6.3083 19.5767 6.01174 18.8203 6.01174 18.0338C6.00937 17.2532 6.30418 16.501 6.83629 15.9299C7.09334 15.6536 7.40302 15.4316 7.74713 15.2767C8.09123 15.1219 8.46282 15.0374 8.84005 15.0282H12.023Z" stroke="#F8FAFC" stroke-width="1.00188"/>
<path d="M15.1764 9.01691C15.9348 9.01691 16.6612 9.3335 17.1972 9.89756C17.7379 10.4727 18.0376 11.2332 18.0347 12.0225C18.0347 12.82 17.7342 13.5845 17.1972 14.1475C16.9378 14.4239 16.6249 14.6446 16.2775 14.796C15.93 14.9474 15.5554 15.0264 15.1764 15.0282H14.8818C14.5028 15.0264 14.1282 14.9474 13.7807 14.796C13.4333 14.6446 13.1204 14.4239 12.861 14.1475C12.3203 13.5724 12.0206 12.8119 12.0235 12.0225C12.0235 11.2251 12.324 10.4606 12.861 9.89756C13.1204 9.62118 13.4333 9.40055 13.7807 9.24914C14.1282 9.09772 14.5028 9.0187 14.8818 9.01691H15.1764Z" stroke="#F8FAFC" stroke-width="1.00188"/>
<path d="M12.0234 3.5332V3.00621H15.1473C15.5247 2.99824 15.8995 3.06993 16.2474 3.21661C16.598 3.36489 16.9166 3.5843 17.1851 3.86483C17.4566 4.14798 17.67 4.48153 17.8133 4.84667C18.109 5.59464 18.109 6.42707 17.8133 7.17504C17.6696 7.53999 17.4563 7.87347 17.1851 8.15688C16.9166 8.43741 16.598 8.65782 16.2474 8.8041C15.8967 8.95238 15.523 9.02451 15.1473 9.0155H12.0234V3.5332Z" stroke="#F8FAFC" stroke-width="1.00188"/>
</g>
</g>
</g>
<g clip-path="url(#clip3_296_1283)">
<g clip-path="url(#clip4_296_1283)">
<g clip-path="url(#clip5_296_1283)">
<path d="M12.0234 3.5332V3.00621H8.89954C8.52215 2.99829 8.14732 3.06998 7.79948 3.2166C7.44596 3.36646 7.12683 3.58706 6.86172 3.86482C6.59026 4.14797 6.37686 4.48152 6.23354 4.84666C5.93778 5.59461 5.93778 6.42708 6.23354 7.17503C6.37686 7.54017 6.59026 7.87372 6.86172 8.15687C7.13022 8.4374 7.44882 8.65782 7.79948 8.80409C8.15014 8.95237 8.52384 9.0245 8.89954 9.01549H12.0234V3.5332Z" stroke="#F8FAFC" stroke-width="1.00188"/>
<path d="M12.023 15.0282H8.87011C8.11168 15.0282 7.38532 14.7116 6.84931 14.1475C6.3123 13.5845 6.01174 12.82 6.01174 12.0225C6.00885 11.2332 6.3086 10.4727 6.84931 9.89756C7.38532 9.3335 8.11168 9.01691 8.87011 9.01691H12.023V9.5439V15.0282ZM12.023 15.0282V15.5562V15.5552V17.8795C12.0255 18.7109 11.7071 19.5112 11.1344 20.1137C10.5653 20.7069 9.79384 21.0395 8.98933 21.0395H8.84105C8.46382 21.0303 8.09224 20.9458 7.74813 20.7909C7.40403 20.6361 7.09435 20.414 6.83729 20.1378C6.3083 19.5767 6.01174 18.8203 6.01174 18.0338C6.00937 17.2532 6.30418 16.501 6.83629 15.9299C7.09334 15.6536 7.40302 15.4316 7.74713 15.2767C8.09123 15.1219 8.46282 15.0374 8.84005 15.0282H12.023Z" stroke="#F8FAFC" stroke-width="1.00188"/>
<path d="M15.1764 9.01691C15.9348 9.01691 16.6612 9.3335 17.1972 9.89756C17.7379 10.4727 18.0376 11.2332 18.0347 12.0225C18.0347 12.82 17.7342 13.5845 17.1972 14.1475C16.9378 14.4239 16.6249 14.6446 16.2775 14.796C15.93 14.9474 15.5554 15.0264 15.1764 15.0282H14.8818C14.5028 15.0264 14.1282 14.9474 13.7807 14.796C13.4333 14.6446 13.1204 14.4239 12.861 14.1475C12.3203 13.5724 12.0206 12.8119 12.0235 12.0225C12.0235 11.2251 12.324 10.4606 12.861 9.89756C13.1204 9.62118 13.4333 9.40055 13.7807 9.24914C14.1282 9.09772 14.5028 9.0187 14.8818 9.01691H15.1764Z" stroke="#F8FAFC" stroke-width="1.00188"/>
<path d="M12.0234 3.5332V3.00621H15.1473C15.5247 2.99824 15.8995 3.06993 16.2474 3.21661C16.598 3.36489 16.9166 3.5843 17.1851 3.86483C17.4566 4.14798 17.67 4.48153 17.8133 4.84667C18.109 5.59464 18.109 6.42707 17.8133 7.17504C17.6696 7.53999 17.4563 7.87347 17.1851 8.15688C16.9166 8.43741 16.598 8.65782 16.2474 8.8041C15.8967 8.95238 15.523 9.02451 15.1473 9.0155H12.0234V3.5332Z" stroke="#F8FAFC" stroke-width="1.00188"/>
</g>
</g>
</g>
<defs>
<clipPath id="clip0_296_1283">
<rect width="25" height="25" fill="white"/>
</clipPath>
<clipPath id="clip1_296_1283">
<rect width="24.0451" height="25.434" fill="white"/>
</clipPath>
<clipPath id="clip2_296_1283">
<rect width="24.0451" height="24.0451" fill="white"/>
</clipPath>
<clipPath id="clip3_296_1283">
<rect width="25" height="25" fill="white"/>
</clipPath>
<clipPath id="clip4_296_1283">
<rect width="24.0451" height="25.434" fill="white"/>
</clipPath>
<clipPath id="clip5_296_1283">
<rect width="24.0451" height="24.0451" fill="white"/>
</clipPath>
</defs>
</svg>
