<svg width="18" height="18" viewBox="0 0 18 18" fill="none" xmlns="http://www.w3.org/2000/svg">
<g clip-path="url(#clip0_296_1087)">
<g clip-path="url(#clip1_296_1087)">
<g clip-path="url(#clip2_296_1087)">
<path d="M9.32842 2.66233V2.2829H7.07923C6.80751 2.2772 6.53763 2.32881 6.28719 2.43438C6.03265 2.54228 5.80288 2.70111 5.612 2.9011C5.41655 3.10497 5.2629 3.34513 5.15971 3.60802C4.94676 4.14655 4.94676 4.74593 5.15971 5.28445C5.2629 5.54735 5.41655 5.78751 5.612 5.99138C5.80532 6.19336 6.03471 6.35205 6.28719 6.45737C6.53966 6.56413 6.80873 6.61607 7.07923 6.60958H9.32842V2.66233Z" stroke="#F8FAFC" stroke-width="0.721354"/>
<path d="M9.32814 10.9387H7.05804C6.51197 10.9387 5.98899 10.7108 5.60307 10.3047C5.21642 9.89925 5.00001 9.34886 5.00001 8.77466C4.99794 8.2063 5.21375 7.65875 5.60307 7.24467C5.98899 6.83854 6.51197 6.6106 7.05804 6.6106H9.32814V6.99003V10.9387ZM9.32814 10.9387V11.3189V11.3182V12.9917C9.32989 13.5903 9.10071 14.1665 8.6883 14.6003C8.27857 15.0274 7.72313 15.2668 7.14388 15.2668H7.03712C6.76551 15.2602 6.49797 15.1994 6.25022 15.0879C6.00246 14.9764 5.77949 14.8165 5.59441 14.6176C5.21354 14.2137 5.00001 13.669 5.00001 13.1028C4.99831 12.5408 5.21057 11.9991 5.59369 11.5879C5.77877 11.389 6.00174 11.2292 6.2495 11.1177C6.49725 11.0062 6.76479 10.9453 7.0364 10.9387H9.32814Z" stroke="#F8FAFC" stroke-width="0.721354"/>
<path d="M11.5982 6.6106C12.1443 6.6106 12.6673 6.83854 13.0532 7.24467C13.4425 7.65875 13.6583 8.2063 13.6563 8.77466C13.6563 9.34886 13.4399 9.89925 13.0532 10.3047C12.8665 10.5036 12.6412 10.6625 12.391 10.7715C12.1409 10.8805 11.8711 10.9374 11.5982 10.9387H11.3862C11.1133 10.9374 10.8435 10.8805 10.5934 10.7715C10.3432 10.6625 10.1179 10.5036 9.93119 10.3047C9.54188 9.89056 9.32606 9.34302 9.32814 8.77466C9.32814 8.20046 9.54455 7.65007 9.93119 7.24467C10.1179 7.04567 10.3432 6.88682 10.5934 6.7778C10.8435 6.66878 11.1133 6.61189 11.3862 6.6106H11.5982Z" stroke="#F8FAFC" stroke-width="0.721354"/>
<path d="M9.32812 2.66233V2.2829H11.5773C11.849 2.27716 12.1189 2.32878 12.3694 2.43439C12.6218 2.54115 12.8512 2.69912 13.0445 2.9011C13.24 3.10497 13.3936 3.34513 13.4968 3.60803C13.7097 4.14657 13.7097 4.74592 13.4968 5.28446C13.3934 5.54722 13.2398 5.78733 13.0445 5.99138C12.8512 6.19336 12.6218 6.35206 12.3694 6.45738C12.1169 6.56414 11.8478 6.61608 11.5773 6.60958H9.32812V2.66233Z" stroke="#F8FAFC" stroke-width="0.721354"/>
</g>
</g>
</g>
<defs>
<clipPath id="clip0_296_1087">
<rect width="17.3125" height="17.3125" fill="white" transform="translate(0.671875 0.121094)"/>
</clipPath>
<clipPath id="clip1_296_1087">
<rect width="17.3125" height="17.3125" fill="white" transform="translate(0.671875 0.120422)"/>
</clipPath>
<clipPath id="clip2_296_1087">
<rect width="17.3125" height="17.3125" fill="white" transform="translate(0.671875 0.119751)"/>
</clipPath>
</defs>
</svg>
