<svg width="19" height="18" viewBox="0 0 19 18" fill="none" xmlns="http://www.w3.org/2000/svg">
<g clip-path="url(#clip0_296_1078)">
<g clip-path="url(#clip1_296_1078)">
<g clip-path="url(#clip2_296_1078)">
<path fill-rule="evenodd" clip-rule="evenodd" d="M9.37565 1.56116C5.39161 1.56116 2.16211 4.78056 2.16211 8.75306C2.16211 11.9299 4.22879 14.6249 7.09545 15.5756C7.45613 15.642 7.58741 15.4198 7.58741 15.2294C7.58741 15.0591 7.58164 14.6061 7.57804 14.0067C5.57123 14.4409 5.14779 13.0422 5.14779 13.0422C4.8203 12.212 4.34709 11.9905 4.34709 11.9905C3.6921 11.5447 4.39686 11.5534 4.39686 11.5534C5.12038 11.6039 5.50126 12.2942 5.50126 12.2942C6.14471 13.3935 7.18995 13.0761 7.6004 12.8915C7.66676 12.4276 7.85287 12.1102 8.05918 11.9306C6.45777 11.7496 4.77341 11.1321 4.77341 8.37651C4.77341 7.59168 5.05474 6.94895 5.51569 6.44689C5.44139 6.26511 5.19396 5.53365 5.58638 4.54396C5.58638 4.54396 6.19232 4.35063 7.5701 5.28118C8.15863 5.12105 8.76573 5.03931 9.37565 5.03808C9.9888 5.04097 10.6056 5.12032 11.1819 5.28046C12.559 4.34991 13.1635 4.54324 13.1635 4.54324C13.5573 5.53293 13.3092 6.26439 13.2356 6.44617C13.6973 6.94823 13.9772 7.59096 13.9772 8.37579C13.9772 11.1386 12.2899 11.7467 10.6835 11.9249C10.9424 12.1463 11.1725 12.5849 11.1725 13.2565C11.1725 14.2173 11.1639 14.9928 11.1639 15.2287C11.1639 15.4213 11.2937 15.6449 11.6602 15.5749C14.524 14.6227 16.5892 11.9292 16.5892 8.75234C16.5892 4.78056 13.359 1.56116 9.37565 1.56116Z" fill="#F8FAFC"/>
</g>
</g>
</g>
<defs>
<clipPath id="clip0_296_1078">
<rect width="17.3125" height="17.3125" fill="white" transform="translate(0.71875 0.121094)"/>
</clipPath>
<clipPath id="clip1_296_1078">
<rect width="17.3125" height="17.3125" fill="white" transform="translate(0.71875 0.120422)"/>
</clipPath>
<clipPath id="clip2_296_1078">
<rect width="17.3125" height="17.3125" fill="white" transform="translate(0.71875 0.119751)"/>
</clipPath>
</defs>
</svg>
