<svg width="1248" height="724" viewBox="0 0 1248 724" fill="none" xmlns="http://www.w3.org/2000/svg">
<g clip-path="url(#clip0_227_1762)">
<g clip-path="url(#clip1_227_1762)">
<g clip-path="url(#clip2_227_1762)">
<rect width="1" height="676" transform="translate(23.5 24)" fill="#14181F"/>
<rect width="1" height="676" transform="translate(48.5 24)" fill="#14181F"/>
<rect width="1" height="676" transform="translate(73.5 24)" fill="#14181F"/>
<rect width="1" height="676" transform="translate(98.5 24)" fill="#14181F"/>
<rect width="1" height="676" transform="translate(123.5 24)" fill="#14181F"/>
<rect width="1" height="676" transform="translate(148.5 24)" fill="#14181F"/>
<rect width="1" height="676" transform="translate(173.5 24)" fill="#14181F"/>
<rect width="1" height="676" transform="translate(198.5 24)" fill="#14181F"/>
<rect width="1" height="676" transform="translate(223.5 24)" fill="#14181F"/>
<rect width="1" height="676" transform="translate(248.5 24)" fill="#14181F"/>
<rect width="1" height="676" transform="translate(273.5 24)" fill="#14181F"/>
<rect width="1" height="676" transform="translate(298.5 24)" fill="#14181F"/>
<rect width="1" height="676" transform="translate(323.5 24)" fill="#14181F"/>
<rect width="1" height="676" transform="translate(348.5 24)" fill="#14181F"/>
<rect width="1" height="676" transform="translate(373.5 24)" fill="#14181F"/>
<rect width="1" height="676" transform="translate(398.5 24)" fill="#14181F"/>
<rect width="1" height="676" transform="translate(423.5 24)" fill="#14181F"/>
<rect width="1" height="676" transform="translate(448.5 24)" fill="#14181F"/>
<rect width="1" height="676" transform="translate(473.5 24)" fill="#14181F"/>
<rect width="1" height="676" transform="translate(498.5 24)" fill="#14181F"/>
<rect width="1" height="676" transform="translate(523.5 24)" fill="#14181F"/>
<rect width="1" height="676" transform="translate(548.5 24)" fill="#14181F"/>
<rect width="1" height="676" transform="translate(573.5 24)" fill="#14181F"/>
<rect width="1" height="676" transform="translate(598.5 24)" fill="#14181F"/>
<rect width="1" height="676" transform="translate(623.5 24)" fill="#14181F"/>
<rect width="1" height="676" transform="translate(648.5 24)" fill="#14181F"/>
<rect width="1" height="676" transform="translate(673.5 24)" fill="#14181F"/>
<rect width="1" height="676" transform="translate(698.5 24)" fill="#14181F"/>
<rect width="1" height="676" transform="translate(723.5 24)" fill="#14181F"/>
<rect width="1" height="676" transform="translate(748.5 24)" fill="#14181F"/>
<rect width="1" height="676" transform="translate(773.5 24)" fill="#14181F"/>
<rect width="1" height="676" transform="translate(798.5 24)" fill="#14181F"/>
<rect width="1" height="676" transform="translate(823.5 24)" fill="#14181F"/>
<rect width="1" height="676" transform="translate(848.5 24)" fill="#14181F"/>
<rect width="1" height="676" transform="translate(873.5 24)" fill="#14181F"/>
<rect width="1" height="676" transform="translate(898.5 24)" fill="#14181F"/>
<rect width="1" height="676" transform="translate(923.5 24)" fill="#14181F"/>
<rect width="1" height="676" transform="translate(948.5 24)" fill="#14181F"/>
<rect width="1" height="676" transform="translate(973.5 24)" fill="#14181F"/>
<rect width="1" height="676" transform="translate(998.5 24)" fill="#14181F"/>
<rect width="1" height="676" transform="translate(1023.5 24)" fill="#14181F"/>
<rect width="1" height="676" transform="translate(1048.5 24)" fill="#14181F"/>
<rect width="1" height="676" transform="translate(1073.5 24)" fill="#14181F"/>
<rect width="1" height="676" transform="translate(1098.5 24)" fill="#14181F"/>
<rect width="1" height="676" transform="translate(1123.5 24)" fill="#14181F"/>
<rect width="1" height="676" transform="translate(1148.5 24)" fill="#14181F"/>
<rect width="1" height="676" transform="translate(1173.5 24)" fill="#14181F"/>
<rect width="1" height="676" transform="translate(1198.5 24)" fill="#14181F"/>
<rect width="1" height="676" transform="translate(1223.5 24)" fill="#14181F"/>
<rect x="24.5" y="24.5" width="1199" height="675" stroke="#14181F"/>
</g>
<g clip-path="url(#clip3_227_1762)">
<rect width="1200" height="1" transform="translate(24 24)" fill="#14181F"/>
<rect width="1200" height="1" transform="translate(24 49)" fill="#14181F"/>
<rect width="1200" height="1" transform="translate(24 74)" fill="#14181F"/>
<rect width="1200" height="1" transform="translate(24 99)" fill="#14181F"/>
<rect width="1200" height="1" transform="translate(24 124)" fill="#14181F"/>
<rect width="1200" height="1" transform="translate(24 149)" fill="#14181F"/>
<rect width="1200" height="1" transform="translate(24 174)" fill="#14181F"/>
<rect width="1200" height="1" transform="translate(24 199)" fill="#14181F"/>
<rect width="1200" height="1" transform="translate(24 224)" fill="#14181F"/>
<rect width="1200" height="1" transform="translate(24 249)" fill="#14181F"/>
<rect width="1200" height="1" transform="translate(24 274)" fill="#14181F"/>
<rect width="1200" height="1" transform="translate(24 299)" fill="#14181F"/>
<rect width="1200" height="1" transform="translate(24 324)" fill="#14181F"/>
<rect width="1200" height="1" transform="translate(24 349)" fill="#14181F"/>
<rect width="1200" height="1" transform="translate(24 374)" fill="#14181F"/>
<rect width="1200" height="1" transform="translate(24 399)" fill="#14181F"/>
<rect width="1200" height="1" transform="translate(24 424)" fill="#14181F"/>
<rect width="1200" height="1" transform="translate(24 449)" fill="#14181F"/>
<rect width="1200" height="1" transform="translate(24 474)" fill="#14181F"/>
<rect width="1200" height="1" transform="translate(24 499)" fill="#14181F"/>
<rect width="1200" height="1" transform="translate(24 524)" fill="#14181F"/>
<rect width="1200" height="1" transform="translate(24 549)" fill="#14181F"/>
<rect width="1200" height="1" transform="translate(24 574)" fill="#14181F"/>
<rect width="1200" height="1" transform="translate(24 599)" fill="#14181F"/>
<rect width="1200" height="1" transform="translate(24 624)" fill="#14181F"/>
<rect width="1200" height="1" transform="translate(24 649)" fill="#14181F"/>
<rect width="1200" height="1" transform="translate(24 674)" fill="#14181F"/>
<rect x="24.5" y="24.5" width="1199" height="675" stroke="#14181F"/>
</g>
</g>
<g clip-path="url(#clip4_227_1762)">
<rect width="15" height="1" transform="translate(17 24)" fill="#14181F"/>
<rect width="1" height="15" transform="translate(24 17)" fill="#14181F"/>
</g>
<g clip-path="url(#clip5_227_1762)">
<rect width="15" height="1" transform="translate(17 699)" fill="#14181F"/>
<rect width="1" height="15" transform="translate(24 692)" fill="#14181F"/>
</g>
<g clip-path="url(#clip6_227_1762)">
<rect width="15" height="1" transform="translate(1216 24)" fill="#14181F"/>
<rect width="1" height="15" transform="translate(1223 17)" fill="#14181F"/>
</g>
<g clip-path="url(#clip7_227_1762)">
<rect width="15" height="1" transform="translate(1216 699)" fill="#14181F"/>
<rect width="1" height="15" transform="translate(1223 692)" fill="#14181F"/>
</g>
<rect x="0.5" y="0.5" width="1247" height="723" stroke="#14181F"/>
</g>
<defs>
<clipPath id="clip0_227_1762">
<rect width="1248" height="724" fill="white"/>
</clipPath>
<clipPath id="clip1_227_1762">
<rect width="1200" height="676" fill="white" transform="translate(24 24)"/>
</clipPath>
<clipPath id="clip2_227_1762">
<rect width="1200" height="676" fill="white" transform="translate(24 24)"/>
</clipPath>
<clipPath id="clip3_227_1762">
<rect width="1200" height="676" fill="white" transform="translate(24 24)"/>
</clipPath>
<clipPath id="clip4_227_1762">
<rect width="15" height="15" fill="white" transform="translate(17 17)"/>
</clipPath>
<clipPath id="clip5_227_1762">
<rect width="15" height="15" fill="white" transform="translate(17 692)"/>
</clipPath>
<clipPath id="clip6_227_1762">
<rect width="15" height="15" fill="white" transform="translate(1216 17)"/>
</clipPath>
<clipPath id="clip7_227_1762">
<rect width="15" height="15" fill="white" transform="translate(1216 692)"/>
</clipPath>
</defs>
</svg>
