<svg width="25" height="25" viewBox="0 0 25 25" fill="none" xmlns="http://www.w3.org/2000/svg">
<path fill-rule="evenodd" clip-rule="evenodd" d="M4.57812 6.66037C4.57812 5.62078 5.42236 4.77802 6.46378 4.77802C6.96389 4.77802 7.4435 4.97634 7.79713 5.32935C8.15075 5.68236 8.34942 6.16114 8.34942 6.66037C8.34942 7.69997 7.5052 8.54273 6.46378 8.54273C5.42236 8.54273 4.57812 7.69997 4.57812 6.66037ZM21.0742 14.576C21.1067 12.5382 19.7141 10.7526 17.7271 10.2842C16.3956 9.99802 15.0077 10.3733 14.003 11.2913V10.896C14.003 10.6361 13.7919 10.4254 13.5316 10.4254H11.1745C10.9142 10.4254 10.7031 10.6361 10.7031 10.896V20.3078C10.7031 20.5676 10.9142 20.7783 11.1745 20.7783H13.5316C13.7919 20.7783 14.003 20.5676 14.003 20.3078V14.9995C13.9797 14.0543 14.6396 13.2289 15.5681 13.0419C16.1209 12.9466 16.6875 13.102 17.114 13.4659C17.5404 13.8297 17.7825 14.3643 17.7743 14.9242V20.3078C17.7743 20.5676 17.9853 20.7783 18.2457 20.7783H20.6028C20.8631 20.7783 21.0742 20.5676 21.0742 20.3078V14.576ZM8.34677 10.897V20.3088C8.34677 20.5687 8.1357 20.7794 7.87535 20.7794H5.51828C5.25793 20.7794 5.04688 20.5687 5.04688 20.3088V10.897C5.04688 10.6371 5.25793 10.4265 5.51828 10.4265H7.87535C8.1357 10.4265 8.34677 10.6371 8.34677 10.897Z" fill="white"/>
</svg>
