<svg width="35" height="35" viewBox="0 0 35 35" fill="none" xmlns="http://www.w3.org/2000/svg">
<path d="M9.91602 30.1865C9.31445 30.1865 8.79954 29.9723 8.37128 29.5438C7.94277 29.1155 7.72852 28.6006 7.72852 27.999V15.749C7.72852 15.1475 7.94277 14.6324 8.37128 14.2039C8.79954 13.7757 9.31445 13.5615 9.91602 13.5615H12.1035V10.6449C12.1035 9.13791 12.6261 7.86187 13.6712 6.81673C14.7164 5.77159 15.9924 5.24902 17.4993 5.24902C19.0063 5.24902 20.2823 5.77159 21.3275 6.81673C22.3726 7.86187 22.8952 9.13791 22.8952 10.6449V13.5615H25.0827C25.6842 13.5615 26.1993 13.7757 26.6278 14.2039C27.0561 14.6324 27.2702 15.1475 27.2702 15.749V27.999C27.2702 28.6006 27.0561 29.1155 26.6278 29.5438C26.1993 29.9723 25.6842 30.1865 25.0827 30.1865H9.91602ZM17.4993 23.8428C18.0584 23.8428 18.5263 23.6544 18.903 23.2777C19.2797 22.9009 19.4681 22.4331 19.4681 21.874C19.4681 21.315 19.2797 20.8471 18.903 20.4704C18.5263 20.0936 18.0584 19.9053 17.4993 19.9053C16.9403 19.9053 16.4724 20.0936 16.0957 20.4704C15.719 20.8471 15.5306 21.315 15.5306 21.874C15.5306 22.4331 15.719 22.9009 16.0957 23.2777C16.4724 23.6544 16.9403 23.8428 17.4993 23.8428ZM13.1243 13.5615H21.8743V10.6449C21.8743 9.42958 21.449 8.39659 20.5983 7.5459C19.7476 6.6952 18.7146 6.26986 17.4993 6.26986C16.2841 6.26986 15.2511 6.6952 14.4004 7.5459C13.5497 8.39659 13.1243 9.42958 13.1243 10.6449V13.5615Z" fill="white"/>
</svg>
