<svg width="200" height="45" viewBox="0 0 200 45" fill="none" xmlns="http://www.w3.org/2000/svg">
<g clip-path="url(#clip0_228_1753)">
<path d="M191.908 15.4983C191.295 15.4983 190.737 15.3566 190.236 15.0734C189.743 14.7811 189.349 14.3882 189.051 13.8948C188.754 13.3923 188.605 12.8259 188.605 12.1954C188.605 11.565 188.754 11.0031 189.051 10.5097C189.349 10.0072 189.743 9.61437 190.236 9.33113C190.737 9.03877 191.295 8.89258 191.908 8.89258C192.522 8.89258 193.074 9.03877 193.567 9.33113C194.068 9.61437 194.468 10.0072 194.765 10.5097C195.062 11.0031 195.211 11.565 195.211 12.1954C195.211 12.8259 195.062 13.3923 194.765 13.8948C194.468 14.3882 194.068 14.7811 193.567 15.0734C193.074 15.3566 192.522 15.4983 191.908 15.4983ZM191.908 15.0186C192.419 15.0186 192.883 14.8999 193.302 14.6623C193.72 14.4156 194.05 14.0821 194.292 13.6619C194.542 13.2325 194.668 12.7436 194.668 12.1954C194.668 11.6473 194.542 11.163 194.292 10.7427C194.05 10.3133 193.72 9.97983 193.302 9.74228C192.883 9.49559 192.419 9.37225 191.908 9.37225C191.406 9.37225 190.946 9.49559 190.528 9.74228C190.11 9.97983 189.776 10.3133 189.525 10.7427C189.283 11.163 189.163 11.6473 189.163 12.1954C189.163 12.7436 189.283 13.2325 189.525 13.6619C189.776 14.0821 190.11 14.4156 190.528 14.6623C190.946 14.8999 191.406 15.0186 191.908 15.0186ZM190.57 13.9908V10.359H192.062C192.48 10.359 192.796 10.4504 193.009 10.6331C193.232 10.8158 193.343 11.0762 193.343 11.4142C193.343 11.6609 193.269 11.862 193.121 12.0172C192.982 12.1635 192.786 12.264 192.535 12.3188V12.3462C192.767 12.3827 192.931 12.4832 193.023 12.6477C193.125 12.803 193.191 12.9766 193.218 13.1685C193.256 13.3603 193.279 13.5339 193.288 13.6892C193.307 13.8354 193.349 13.9223 193.413 13.9497V13.9908H192.661C192.596 13.9451 192.558 13.8492 192.549 13.7029C192.54 13.5568 192.522 13.4014 192.494 13.237C192.475 13.0634 192.419 12.9172 192.326 12.7984C192.233 12.6796 192.071 12.6203 191.838 12.6203H191.323V13.9908H190.57ZM191.323 12.0172H191.88C192.104 12.0172 192.284 11.9808 192.424 11.9077C192.564 11.8345 192.633 11.6883 192.633 11.4691C192.633 11.2589 192.564 11.1219 192.424 11.0579C192.284 10.994 192.108 10.962 191.895 10.962H191.323V12.0172Z" fill="#B3FF51"/>
<path d="M11.967 25.6168H9.44089V31.3652H6.08984V13.3211H11.967C15.6016 13.3211 19.03 15.6154 19.03 19.4819C19.03 23.3227 15.6016 25.6168 11.967 25.6168ZM9.44089 22.5236H11.967C13.5136 22.5236 15.55 21.3894 15.55 19.4819C15.55 17.5486 13.5136 16.4144 11.967 16.4144H9.44089V22.5236ZM29.8576 18.4765V21.3121H25.4755C23.8773 21.3121 23.3876 22.0854 23.3876 23.632V31.3652H20.2943V23.5031C20.2943 20.3067 21.8667 18.4765 25.4755 18.4765H29.8576ZM29.9927 24.9209C29.9927 20.8223 32.7251 18.09 36.8237 18.09C40.9222 18.09 42.5977 20.3841 43.4484 23.168L45.9488 31.3652H42.7267L42.0822 29.535C40.8707 30.927 39.0405 31.7518 36.8237 31.7518C32.7251 31.7518 29.9927 29.0194 29.9927 24.9209ZM33.2149 24.9209C33.2149 27.2408 34.6584 28.7874 36.8237 28.7874C38.989 28.7874 40.4324 27.2408 40.4324 24.9209C40.4324 22.6009 38.989 21.0543 36.8237 21.0543C34.6584 21.0543 33.2149 22.6009 33.2149 24.9209ZM49.5252 31.7518L43.4933 18.4765H46.8443L49.5252 24.3538L52.206 18.4765H55.557L49.5252 31.7518ZM64.8449 26.3902H67.8092C67.8092 29.3545 65.515 31.7518 61.6485 31.7518C57.3953 31.7518 54.6629 29.0194 54.6629 24.9209C54.6629 20.8223 57.2664 18.09 61.1845 18.09C64.9995 18.09 67.1648 20.7449 67.1648 23.3742V23.5547L58.813 27.5759C59.4574 28.3234 60.437 28.7874 61.6485 28.7874C63.8911 28.7874 64.8449 27.679 64.8449 26.3902ZM57.885 24.8435L63.7106 22.0596C63.2209 21.441 62.2156 21.0543 61.1845 21.0543C59.2255 21.0543 57.9108 22.5494 57.885 24.8435ZM78.728 26.3902H81.6928C81.6928 29.3545 79.3984 31.7518 75.5318 31.7518C71.2785 31.7518 68.5461 29.0194 68.5461 24.9209C68.5461 20.8223 71.1496 18.09 75.0681 18.09C78.8831 18.09 81.0479 20.7449 81.0479 23.3742V23.5547L72.6962 27.5759C73.3407 28.3234 74.3201 28.7874 75.5318 28.7874C77.7745 28.7874 78.728 27.679 78.728 26.3902ZM71.7682 24.8435L77.5939 22.0596C77.104 21.441 76.0988 21.0543 75.0681 21.0543C73.1087 21.0543 71.794 22.5494 71.7682 24.8435ZM95.576 24.8951V31.3652H92.4823V24.8951C92.4823 22.3431 91.2194 21.0543 89.131 21.0543C87.0434 21.0543 85.7804 22.3431 85.7804 24.8951V31.3652H82.6868V24.8951C82.6868 20.5645 85.3677 18.09 89.131 18.09C92.8951 18.09 95.576 20.5645 95.576 24.8951ZM102.481 31.3652L104.543 13.0634L112.019 25.3075L119.494 13.0634L121.556 31.3652H118.205L117.225 22.8845L112.019 31.6229L106.811 22.8845L105.832 31.3652H102.481ZM122.04 24.9209C122.04 20.8223 124.772 18.09 128.871 18.09C132.969 18.09 134.645 20.3841 135.496 23.168L137.996 31.3652H134.774L134.13 29.535C132.918 30.927 131.088 31.7518 128.871 31.7518C124.772 31.7518 122.04 29.0194 122.04 24.9209ZM125.262 24.9209C125.262 27.2408 126.706 28.7874 128.871 28.7874C131.036 28.7874 132.48 27.2408 132.48 24.9209C132.48 22.6009 131.036 21.0543 128.871 21.0543C126.706 21.0543 125.262 22.6009 125.262 24.9209ZM151.461 24.8951V31.3652H148.368V24.8951C148.368 22.3431 147.105 21.0543 145.016 21.0543C142.929 21.0543 141.666 22.3431 141.666 24.8951V31.3652H138.572V24.8951C138.572 20.5645 141.253 18.09 145.016 18.09C148.78 18.09 151.461 20.5645 151.461 24.8951ZM162.651 23.4515C162.651 22.1627 161.671 21.0543 159.351 21.0543C157.031 21.0543 155.948 22.6267 155.948 24.9209C155.948 27.0346 157.392 28.7874 159.712 28.7874C161.8 28.7874 162.676 27.679 162.676 26.3902H165.641C165.641 29.3545 163.604 31.7518 159.712 31.7518C155.588 31.7518 152.727 29.0194 152.727 24.9209C152.727 20.8481 155.227 18.09 159.351 18.09C163.476 18.09 165.615 20.4872 165.615 23.4515H162.651ZM179.787 24.9209V31.3652H176.694V24.9209C176.694 22.6009 175.663 21.0543 173.524 21.0543C171.41 21.0543 169.992 22.6009 169.992 24.9209V31.3652H166.899V13.2696H169.992V19.0179C171.049 18.3477 172.338 18.09 173.549 18.09C177.596 18.09 179.787 20.8223 179.787 24.9209ZM181.562 31.3652V18.4765H184.655V31.3652H181.562ZM180.918 14.61C180.918 13.2954 181.794 12.4189 183.109 12.4189C184.423 12.4189 185.3 13.2954 185.3 14.61C185.3 15.9246 184.423 16.801 183.109 16.801C181.794 16.801 180.918 15.9246 180.918 14.61Z" fill="#FFB41F"/>
</g>
<defs>
<clipPath id="clip0_228_1753">
<rect width="200" height="45" fill="white"/>
</clipPath>
</defs>
</svg>
