<svg width="25" height="26" viewBox="0 0 25 26" fill="none" xmlns="http://www.w3.org/2000/svg">
<path fill-rule="evenodd" clip-rule="evenodd" d="M7.1875 3.19922H17.8125C20.0562 3.19922 21.875 5.01797 21.875 7.26172V17.8867C21.875 20.1305 20.0562 21.9492 17.8125 21.9492H7.1875C4.94375 21.9492 3.125 20.1305 3.125 17.8867V7.26172C3.125 5.01797 4.94375 3.19922 7.1875 3.19922Z" stroke="white" stroke-width="1.11111" stroke-miterlimit="10"/>
<path fill-rule="evenodd" clip-rule="evenodd" d="M16.1488 5.54297H14.091L15.8059 8.55625L12.0332 5.54297H9.97539L11.8617 9.22617L7.91719 5.54297H5.85938L7.91719 10.2305L5.85938 19.6055H7.91719L11.8617 9.56094L9.97539 19.6055H12.0332L15.8063 8.89102L14.091 19.6055H16.1488L19.9219 7.88672L16.1488 5.54297Z" fill="white"/>
</svg>
