<svg width="164" height="153" viewBox="0 0 164 153" fill="none" xmlns="http://www.w3.org/2000/svg">
<path d="M128.537 25.1432H33.7373M128.537 25.1432V2.47361H33.7373V25.1432M128.537 25.1432V47.8127M33.7373 25.1432V47.8127M42.0632 13.8084H56.4893M128.537 47.8127H33.7373M128.537 47.8127V70.4823H33.7373V47.8127M42.0632 36.478H56.4893M42.0632 59.1475H56.4893M11.1501 139.192H17.3327M69.1224 139.192H75.305M127.074 139.192H133.257M81.1373 73.5942V114.812M140.222 116.172V94.2029H24.2985V116.172M45.7521 127.857H2.82422V150.526H45.7521V127.857ZM103.704 127.857H60.7759V150.526H103.704V127.857ZM161.676 127.857H118.748V150.526H161.676V127.857Z" stroke="white" stroke-width="4.33867" stroke-linecap="round" stroke-linejoin="round"/>
</svg>
