<svg width="18" height="18" viewBox="0 0 18 18" fill="none" xmlns="http://www.w3.org/2000/svg">
<g clip-path="url(#clip0_296_1097)">
<g clip-path="url(#clip1_296_1097)">
<g clip-path="url(#clip2_296_1097)">
<path d="M7.57055 4.71425C7.63593 4.70572 7.70235 4.71013 7.76603 4.72723L12.6179 6.02784C12.6833 6.04327 12.7449 6.07168 12.7991 6.11138C12.8533 6.15108 12.899 6.20125 12.9335 6.25893C12.9679 6.31661 12.9905 6.38062 12.9998 6.44717C13.009 6.51373 13.0049 6.58146 12.9875 6.64637C12.9701 6.71127 12.9398 6.77203 12.8985 6.82503C12.8573 6.87804 12.8057 6.92221 12.747 6.95494C12.6884 6.98767 12.6237 7.00829 12.5569 7.01557C12.4901 7.02285 12.4225 7.01665 12.3582 6.99733L7.50563 5.69818C7.39338 5.66794 7.29509 5.59974 7.22746 5.5052C7.15984 5.41065 7.12706 5.29559 7.13472 5.1796C7.14237 5.06361 7.18998 4.95385 7.26944 4.86901C7.3489 4.78417 7.45531 4.72948 7.57055 4.71425ZM6.829 6.88769C6.94127 6.8205 7.07534 6.79979 7.20266 6.82998L12.0552 8.12986C12.119 8.14691 12.1787 8.17635 12.2311 8.2165C12.2835 8.25665 12.3274 8.30673 12.3605 8.36387C12.3935 8.421 12.4149 8.48409 12.4236 8.54951C12.4322 8.61494 12.4279 8.68142 12.4108 8.74518C12.3938 8.80893 12.3643 8.8687 12.3242 8.92107C12.284 8.97345 12.234 9.0174 12.1768 9.05043C12.1197 9.08345 12.0566 9.10489 11.9912 9.11354C11.9258 9.12218 11.8593 9.11786 11.7955 9.1008L6.94153 7.8002C6.84812 7.77223 6.76488 7.71766 6.70197 7.64317C6.63906 7.56867 6.59921 7.47747 6.58727 7.38069C6.57534 7.28392 6.59184 7.18577 6.63477 7.09822C6.67769 7.01067 6.74518 6.93752 6.829 6.88769ZM6.25768 8.98322C6.17146 9.03279 6.10191 9.10686 6.05784 9.19601C6.01377 9.28517 5.99717 9.38541 6.01016 9.48401C6.02314 9.58262 6.06511 9.67515 6.13076 9.74986C6.1964 9.82457 6.28276 9.87811 6.37887 9.90367L9.61414 10.77C9.67785 10.7873 9.74436 10.7919 9.80983 10.7834C9.87531 10.7749 9.93846 10.7536 9.99565 10.7206C10.0528 10.6876 10.1029 10.6436 10.1431 10.5912C10.1832 10.5388 10.2126 10.4789 10.2295 10.4151C10.2634 10.2864 10.2451 10.1494 10.1785 10.0341C10.1119 9.91887 10.0023 9.83463 9.87383 9.7998L6.63856 8.93273C6.50992 8.89848 6.37295 8.91663 6.25768 8.98322Z" fill="#F8FAFC"/>
<path fill-rule="evenodd" clip-rule="evenodd" d="M4.48597 13.7322L10.9565 15.4649C11.4284 15.5911 11.9311 15.5248 12.3541 15.2805C12.7771 15.0362 13.0857 14.6339 13.2122 14.1621L15.3799 6.07427C15.4425 5.84062 15.4584 5.59692 15.4268 5.3571C15.3952 5.11728 15.3167 4.88603 15.1957 4.67656C15.0748 4.46709 14.9137 4.28351 14.7218 4.1363C14.5298 3.98908 14.3108 3.88113 14.0771 3.81859L7.60726 2.0859C7.13549 1.95963 6.63288 2.02585 6.20991 2.27C5.78693 2.51416 5.47821 2.91626 5.35159 3.38795L3.18392 11.4758C3.05743 11.9476 3.12354 12.4504 3.36771 12.8736C3.61189 13.2967 4.01412 13.6056 4.48597 13.7322ZM4.1325 12.0622C4.11822 11.9532 4.12557 11.8424 4.15414 11.7362L6.32037 3.64619C6.34883 3.54004 6.39792 3.44054 6.46483 3.35336C6.53175 3.26619 6.61518 3.19304 6.71037 3.13812C6.80556 3.08319 6.91063 3.04755 7.01959 3.03323C7.12855 3.01892 7.23927 3.0262 7.34541 3.05468L13.8167 4.78809C13.9229 4.81656 14.0225 4.86566 14.1098 4.93262C14.197 4.99957 14.2703 5.08306 14.3253 5.17831C14.3803 5.27357 14.4159 5.37872 14.4303 5.48777C14.4447 5.59681 14.4374 5.70762 14.4089 5.81386L12.2412 13.9038C12.1838 14.1181 12.0436 14.3007 11.8515 14.4116C11.6594 14.5225 11.4312 14.5526 11.2169 14.4954L4.74637 12.7612C4.58636 12.7183 4.44264 12.6289 4.33338 12.5044C4.22413 12.3799 4.15422 12.2265 4.1325 12.0622Z" fill="#F8FAFC"/>
</g>
</g>
</g>
<defs>
<clipPath id="clip0_296_1097">
<rect width="17.3125" height="17.3125" fill="white" transform="translate(0.625 0.121094)"/>
</clipPath>
<clipPath id="clip1_296_1097">
<rect width="17.3125" height="17.3125" fill="white" transform="translate(0.625 0.120422)"/>
</clipPath>
<clipPath id="clip2_296_1097">
<rect width="17.3125" height="17.3125" fill="white" transform="translate(0.625 0.119751)"/>
</clipPath>
</defs>
</svg>
