<svg width="477" height="70" viewBox="0 0 477 70" fill="none" xmlns="http://www.w3.org/2000/svg">
<path d="M18.8658 42.8667H12.2152V58H3.39312V10.4962H18.8658C28.4344 10.4962 37.4601 16.536 37.4601 26.7154C37.4601 36.8269 28.4344 42.8667 18.8658 42.8667ZM12.2152 34.7232H18.8658C22.9375 34.7232 28.2987 31.7372 28.2987 26.7154C28.2987 21.6257 22.9375 18.6397 18.8658 18.6397H12.2152V34.7232ZM65.9656 24.0688V31.5336H54.429C50.2215 31.5336 48.9321 33.5695 48.9321 37.6413V58H40.7886V37.3019C40.7886 28.887 44.9282 24.0688 54.429 24.0688H65.9656ZM66.3214 41.0344C66.3214 30.2442 73.5148 23.0508 84.3049 23.0508C95.0951 23.0508 99.5061 29.0906 101.746 36.4197L108.328 58H99.8455L98.1489 53.1818C94.9593 56.8463 90.1411 59.0179 84.3049 59.0179C73.5148 59.0179 66.3214 51.8245 66.3214 41.0344ZM74.8042 41.0344C74.8042 47.142 78.6045 51.2138 84.3049 51.2138C90.0054 51.2138 93.8057 47.142 93.8057 41.0344C93.8057 34.9268 90.0054 30.855 84.3049 30.855C78.6045 30.855 74.8042 34.9268 74.8042 41.0344ZM117.744 59.0179L101.864 24.0688H110.686L117.744 39.5414L124.801 24.0688H133.624L117.744 59.0179ZM158.075 44.9025H165.879C165.879 52.7067 159.84 59.0179 149.66 59.0179C138.463 59.0179 131.27 51.8245 131.27 41.0344C131.27 30.2442 138.124 23.0508 148.439 23.0508C158.482 23.0508 164.183 30.0406 164.183 36.9626V37.4377L142.195 48.0242C143.892 49.9922 146.471 51.2138 149.66 51.2138C155.564 51.2138 158.075 48.2957 158.075 44.9025ZM139.752 40.8308L155.089 33.5016C153.8 31.8729 151.153 30.855 148.439 30.855C143.281 30.855 139.82 34.791 139.752 40.8308ZM194.625 44.9025H202.429C202.429 52.7067 196.39 59.0179 186.21 59.0179C175.013 59.0179 167.819 51.8245 167.819 41.0344C167.819 30.2442 174.674 23.0508 184.989 23.0508C195.032 23.0508 200.733 30.0406 200.733 36.9626V37.4377L178.745 48.0242C180.442 49.9922 183.021 51.2138 186.21 51.2138C192.114 51.2138 194.625 48.2957 194.625 44.9025ZM176.302 40.8308L191.639 33.5016C190.35 31.8729 187.703 30.855 184.989 30.855C179.831 30.855 176.37 34.791 176.302 40.8308ZM238.979 40.9665V58H230.836V40.9665C230.836 34.2481 227.51 30.855 222.014 30.855C216.517 30.855 213.191 34.2481 213.191 40.9665V58H205.048V40.9665C205.048 29.5656 212.106 23.0508 222.014 23.0508C231.921 23.0508 238.979 29.5656 238.979 40.9665ZM257.158 58L262.587 9.81763L282.267 42.0523L301.947 9.81763L307.376 58H298.554L295.975 35.6732L282.267 58.6786L268.559 35.6732L265.98 58H257.158ZM308.651 41.0344C308.651 30.2442 315.844 23.0508 326.634 23.0508C337.424 23.0508 341.836 29.0906 344.075 36.4197L350.658 58H342.175L340.478 53.1818C337.289 56.8463 332.471 59.0179 326.634 59.0179C315.844 59.0179 308.651 51.8245 308.651 41.0344ZM317.134 41.0344C317.134 47.142 320.934 51.2138 326.634 51.2138C332.335 51.2138 336.135 47.142 336.135 41.0344C336.135 34.9268 332.335 30.855 326.634 30.855C320.934 30.855 317.134 34.9268 317.134 41.0344ZM386.106 40.9665V58H377.963V40.9665C377.963 34.2481 374.638 30.855 369.141 30.855C363.644 30.855 360.319 34.2481 360.319 40.9665V58H352.175V40.9665C352.175 29.5656 359.233 23.0508 369.141 23.0508C379.049 23.0508 386.106 29.5656 386.106 40.9665ZM415.565 37.1662C415.565 33.7731 412.986 30.855 406.879 30.855C400.771 30.855 397.921 34.9946 397.921 41.0344C397.921 46.5991 401.721 51.2138 407.829 51.2138C413.326 51.2138 415.633 48.2957 415.633 44.9025H423.437C423.437 52.7067 418.076 59.0179 407.829 59.0179C396.971 59.0179 389.438 51.8245 389.438 41.0344C389.438 30.3121 396.021 23.0508 406.879 23.0508C417.737 23.0508 423.369 29.362 423.369 37.1662H415.565ZM460.68 41.0344V58H452.536V41.0344C452.536 34.9268 449.822 30.855 444.189 30.855C438.625 30.855 434.892 34.9268 434.892 41.0344V58H426.749V10.3605H434.892V25.4939C437.674 23.7294 441.068 23.0508 444.257 23.0508C454.912 23.0508 460.68 30.2442 460.68 41.0344ZM465.353 58V24.0688H473.496V58H465.353ZM463.656 13.8894C463.656 10.4284 465.964 8.12106 469.425 8.12106C472.886 8.12106 475.193 10.4284 475.193 13.8894C475.193 17.3504 472.886 19.6577 469.425 19.6577C465.964 19.6577 463.656 17.3504 463.656 13.8894Z" fill="#FFB41F"/>
</svg>
