<svg width="1340" height="101" viewBox="0 0 1340 101" fill="none" xmlns="http://www.w3.org/2000/svg">
<path d="M138.746 71.2166H78.5147C75.7696 71.2166 74.3163 69.7633 74.3163 66.8567V56.5221C74.3163 53.6155 75.7696 52.1622 78.5147 52.1622H99.1839C109.357 52.1622 117.431 47.9638 117.431 35.53C117.431 24.065 109.357 18.8977 99.1839 18.8977H64.6276V105.773C64.6276 108.68 63.1743 110.133 60.2677 110.133H4.88078C2.13565 110.133 0.682349 108.68 0.682349 105.773V4.20324C0.682349 1.45811 2.13565 0.00481204 4.88078 0.00481204H142.944C164.098 0.00481204 180.73 13.246 180.73 36.1759C180.73 59.2672 162.483 71.2166 138.746 71.2166ZM382.9 110.133H327.674C323.637 110.133 319.923 108.841 317.016 105.773L268.412 55.8762C266.635 54.0999 265.666 52.8081 265.666 49.9015V44.8957C265.666 42.1506 266.958 40.6973 269.865 40.6973H291.987C302.161 40.6973 307.328 36.6603 307.328 29.7168C307.328 22.7732 302.161 18.8977 291.987 18.8977H255.978V105.773C255.978 108.68 254.524 110.133 251.618 110.133H196.231C193.324 110.133 191.871 108.68 191.871 105.773V4.20324C191.871 1.45811 193.324 0.00481204 196.231 0.00481204H337.363C356.902 0.00481204 371.596 11.4698 371.596 28.102C371.596 46.349 357.386 56.6836 340.108 59.2672L384.676 104.966C385.483 105.611 385.806 106.742 385.806 107.549C385.806 108.841 384.837 110.133 382.9 110.133ZM612.149 110.133H544.49C540.776 110.133 538.192 109.002 536.093 106.903L473.601 42.1506L424.189 91.0784H497.5C500.406 91.0784 501.86 92.5317 501.86 95.4383V105.773C501.86 108.68 500.406 110.133 497.5 110.133H390.763C388.986 110.133 387.695 109.002 387.695 107.388C387.695 106.742 388.018 105.611 388.986 104.804L490.233 3.07289C492.171 1.13516 494.432 0.00481204 497.015 0.00481204H507.673C510.579 0.00481204 512.84 1.13516 514.778 3.07289L614.571 104.481C615.54 105.45 615.863 106.742 615.863 107.549C615.863 109.002 614.733 110.133 612.149 110.133ZM787.719 5.33358L686.472 106.903C684.534 109.002 682.273 110.133 679.69 110.133H669.032C666.126 110.133 663.865 109.002 661.927 106.903L562.295 5.49507C561.165 4.5262 560.842 3.39585 560.842 2.58847C560.842 1.13516 561.972 0.00481204 564.556 0.00481204H632.215C635.929 0.00481204 638.513 1.13516 640.612 3.23437L703.266 67.9871L768.341 3.23437C770.602 1.13516 773.186 0.00481204 776.738 0.00481204H785.942C787.719 0.00481204 789.01 1.13516 789.01 2.74994C789.01 3.39585 788.687 4.36472 787.719 5.33358ZM945.972 59.5902H868.786C865.879 59.5902 864.426 58.1369 864.426 55.3918V44.8957C864.426 42.1506 865.879 40.6973 868.786 40.6973H945.972C948.717 40.6973 950.17 41.6661 950.17 43.6039V56.6836C950.17 58.6213 948.717 59.5902 945.972 59.5902ZM947.587 110.133H834.229C803.71 110.133 781.264 87.0415 781.264 55.0688C781.264 23.4191 802.418 0.00481204 834.229 0.00481204H947.102C950.009 0.00481204 951.462 1.45811 951.462 4.20324V14.5378C951.462 17.4444 950.009 18.8977 947.102 18.8977H872.015C857.966 18.8977 852.961 24.2265 852.961 44.0883V61.6894C852.961 83.6504 858.774 91.0784 872.015 91.0784H947.587C950.493 91.0784 951.947 92.5317 951.947 95.4383V105.773C951.947 108.68 950.493 110.133 947.587 110.133ZM1128.58 59.5902H1051.39C1048.49 59.5902 1047.03 58.1369 1047.03 55.3918V44.8957C1047.03 42.1506 1048.49 40.6973 1051.39 40.6973H1128.58C1131.33 40.6973 1132.78 41.6661 1132.78 43.6039V56.6836C1132.78 58.6213 1131.33 59.5902 1128.58 59.5902ZM1130.2 110.133H1016.84C986.319 110.133 963.873 87.0415 963.873 55.0688C963.873 23.4191 985.027 0.00481204 1016.84 0.00481204H1129.71C1132.62 0.00481204 1134.07 1.45811 1134.07 4.20324V14.5378C1134.07 17.4444 1132.62 18.8977 1129.71 18.8977H1054.62C1040.58 18.8977 1035.57 24.2265 1035.57 44.0883V61.6894C1035.57 83.6504 1041.38 91.0784 1054.62 91.0784H1130.2C1133.1 91.0784 1134.56 92.5317 1134.56 95.4383V105.773C1134.56 108.68 1133.1 110.133 1130.2 110.133ZM1335.41 110.133H1324.27C1317.81 110.133 1313.93 109.487 1306.83 106.903L1178.13 58.7828V105.773C1178.13 108.68 1176.68 110.133 1173.77 110.133H1152.94C1150.03 110.133 1148.58 108.68 1148.58 105.773V4.20324C1148.58 1.45811 1150.03 0.00481204 1152.94 0.00481204H1172.8C1179.91 0.00481204 1183.14 0.327774 1190.08 3.07289L1310.22 49.4171V4.20324C1310.22 1.45811 1311.67 0.00481204 1314.58 0.00481204H1335.41C1338.32 0.00481204 1339.77 1.45811 1339.77 4.20324V105.773C1339.77 108.68 1338.32 110.133 1335.41 110.133Z" fill="white"/>
</svg>
