<svg xmlns="http://www.w3.org/2000/svg" width="1345" height="240" viewBox="0 0 1345 240" fill="none">
  <defs>
    <linearGradient id="animatedGradient" x1="0%" y1="0%" x2="100%" y2="0%">
      <stop offset="0%" stop-color="#1A1A1A">
        <animate attributeName="offset" values="0;1;0" dur="6s" repeatCount="indefinite" />
      </stop>
      <stop offset="10%" stop-color="#003DCC">
        <animate attributeName="offset" values="0.1;1;0.1" dur="6s" repeatCount="indefinite" />
      </stop>
      <stop offset="25%" stop-color="#0B0B61">
        <animate attributeName="offset" values="0.25;1;0.25" dur="6s" repeatCount="indefinite" />
      </stop>
      <stop offset="40%" stop-color="#37FF00">
        <animate attributeName="offset" values="0.4;1;0.4" dur="6s" repeatCount="indefinite" />
      </stop>
      <stop offset="55%" stop-color="#B30000">
        <animate attributeName="offset" values="0.55;1;0.55" dur="6s" repeatCount="indefinite" />
      </stop>
      <stop offset="70%" stop-color="#222222">
        <animate attributeName="offset" values="0.7;1;0.7" dur="6s" repeatCount="indefinite" />
      </stop>
      <stop offset="85%" stop-color="#FFB41F">
        <animate attributeName="offset" values="0.85;1;0.85" dur="6s" repeatCount="indefinite" />
      </stop>
      <stop offset="95%" stop-color="#330000">
        <animate attributeName="offset" values="0.95;1;0.95" dur="6s" repeatCount="indefinite" />
      </stop>
      <stop offset="100%" stop-color="#99008C">
        <animate attributeName="offset" values="1;0;1" dur="6s" repeatCount="indefinite" />
      </stop>
    </linearGradient>
  </defs>

  <path
    d="M678.57 232.327L678.56 232.319L678.551 232.311L562.877 137.883L562.284 137.399L561.661 137.846L429.163 232.976L429.145 232.989L429.128 233.002C424.431 236.697 419.055 238.404 411.518 238.404H391.889C389.904 238.404 388.666 237.987 387.944 237.429C387.262 236.901 386.93 236.161 386.93 235.192C386.93 233.451 387.792 231.617 389.699 230.014L540.747 120.864L541.796 120.106L540.798 119.282L408.654 10.1143C408.654 10.1139 408.653 10.1134 408.652 10.113C406.705 8.48656 405.858 6.63953 405.858 5.26549C405.858 4.17394 406.326 3.14502 407.317 2.36557C408.322 1.57458 409.925 1 412.219 1H522.986C529.037 1 534.08 3.00815 538.833 6.74645C538.836 6.74878 538.839 6.7511 538.842 6.75343L625.405 77.9993L625.996 78.4858L626.62 78.0423L726.871 6.78264L726.891 6.76851L726.91 6.75343C731.638 3.03271 737.029 1 744.168 1H763.798C765.94 1 767.147 1.49659 767.815 2.10132C768.465 2.69058 768.757 3.52352 768.757 4.56344C768.757 6.02964 768.192 7.76704 766.105 8.96092L766.059 8.98735L766.016 9.01853L647.538 94.6705L646.49 95.4278L647.486 96.2516L808.378 229.293L808.405 229.315L808.434 229.336C810.611 230.893 811.171 232.689 811.171 234.139C811.171 235.43 810.685 236.439 809.73 237.157C808.737 237.902 807.138 238.404 804.809 238.404H694.394C688.344 238.404 683.313 236.398 678.57 232.327ZM256.236 238.404H114.622C73.2466 238.404 44.8986 227.741 26.8812 208.876C8.85562 190.002 1 162.741 1 129.18V7.37173C1 5.06842 1.57464 3.51501 2.51679 2.53654C3.45267 1.56459 4.90578 1 7.0105 1H105.859C108.35 1 109.98 1.58347 110.991 2.56183C111.997 3.53372 112.571 5.06832 112.571 7.37173V129.18C112.571 153.337 117.497 172.996 128.478 186.631C139.492 200.306 156.464 207.758 180.17 207.758H256.236C279.786 207.758 297.009 199.855 308.319 185.977C319.601 172.133 324.887 152.481 324.887 129.18V7.37173C324.887 5.06832 325.461 3.53372 326.466 2.56183C327.478 1.58347 329.107 1 331.599 1H363.497C365.988 1 367.617 1.58345 368.628 2.5618C369.633 3.5337 370.207 5.06832 370.207 7.37173V129.18C370.207 159.703 361.153 186.99 342.441 206.639C323.739 226.279 295.28 238.404 256.236 238.404ZM1088.73 238.404H947.123C905.748 238.404 877.4 227.741 859.383 208.876C841.357 190.002 833.501 162.741 833.501 129.18V7.37173C833.501 5.0684 834.076 3.51498 835.018 2.53651C835.954 1.56458 837.407 1 839.511 1H938.36C940.852 1 942.481 1.58345 943.492 2.5618C944.497 3.5337 945.071 5.06832 945.071 7.37173V129.18C945.071 153.337 949.997 172.996 960.979 186.631C971.993 200.306 988.964 207.758 1012.67 207.758H1088.73C1112.28 207.758 1129.51 199.855 1140.82 185.977C1152.1 172.133 1157.38 152.481 1157.38 129.18V7.37173C1157.38 5.06864 1157.96 3.53414 1158.96 2.56217C1159.98 1.58356 1161.61 1 1164.1 1H1196C1198.49 1 1200.12 1.58356 1201.13 2.56149C1202.13 3.53311 1202.71 5.0676 1202.71 7.37173V129.18C1202.71 159.703 1193.65 186.99 1174.94 206.639C1156.24 226.279 1127.78 238.404 1088.73 238.404ZM1336.74 238.404H1245.26C1243.15 238.404 1241.69 237.839 1240.75 236.899C1239.81 235.958 1239.25 234.493 1239.25 232.384V7.37173C1239.25 5.0687 1239.82 3.51522 1240.76 2.53663C1241.7 1.5645 1243.15 1 1245.26 1H1336.74C1339.05 1 1340.59 1.57504 1341.56 2.5492C1342.53 3.52381 1343.1 5.06752 1343.1 7.37173V232.384C1343.1 234.493 1342.54 235.949 1341.57 236.886C1340.59 237.829 1339.05 238.404 1336.74 238.404Z"
    stroke="url(#animatedGradient)"
    stroke-width="2"
    fill="none"
  />
</svg>
