<svg width="1346" height="240" viewBox="0 0 1346 240" fill="none" xmlns="http://www.w3.org/2000/svg">
<path d="M679.539 232.327L679.529 232.319L679.52 232.311L563.846 137.883L563.252 137.399L562.63 137.846L430.131 232.976L430.114 232.989L430.096 233.002C425.4 236.697 420.024 238.404 412.487 238.404H392.857C390.872 238.404 389.634 237.987 388.913 237.429C388.231 236.901 387.899 236.161 387.899 235.192C387.899 233.451 388.761 231.617 390.668 230.014L541.716 120.864L542.764 120.106L541.767 119.282L409.623 10.1143C409.622 10.1139 409.622 10.1134 409.621 10.113C407.673 8.48656 406.827 6.63953 406.827 5.26549C406.827 4.17394 407.295 3.14502 408.286 2.36557C409.291 1.57458 410.893 1 413.188 1H523.955C530.005 1 535.048 3.00815 539.802 6.74647C539.805 6.74879 539.808 6.75111 539.811 6.75343L626.374 77.9993L626.965 78.4858L627.589 78.0423L727.84 6.78264L727.86 6.76851L727.879 6.75342C732.607 3.03271 737.997 1 745.137 1H764.766C766.909 1 768.116 1.49659 768.784 2.10131C769.434 2.69058 769.726 3.52351 769.726 4.56344C769.726 6.02964 769.161 7.76704 767.074 8.96092L767.028 8.98735L766.984 9.01853L648.506 94.6705L647.459 95.4278L648.455 96.2516L809.347 229.293L809.374 229.315L809.402 229.336C811.58 230.893 812.139 232.689 812.139 234.139C812.139 235.43 811.654 236.439 810.698 237.157C809.706 237.902 808.107 238.404 805.778 238.404H695.362C689.313 238.404 684.282 236.398 679.539 232.327ZM257.204 238.404H115.591C74.2153 238.404 45.8673 227.741 27.8499 208.876C9.82437 190.002 1.96875 162.741 1.96875 129.18V7.37173C1.96875 5.06842 2.54339 3.51501 3.48554 2.53654C4.42142 1.56459 5.87453 1 7.97925 1H106.827C109.319 1 110.948 1.58347 111.96 2.56183C112.965 3.53372 113.539 5.06832 113.539 7.37173V129.18C113.539 153.337 118.465 172.996 129.447 186.631C140.461 200.306 157.432 207.758 181.139 207.758H257.204C280.755 207.758 297.978 199.855 309.287 185.977C320.57 172.133 325.856 152.481 325.856 129.18V7.37173C325.856 5.06832 326.43 3.53372 327.435 2.56183C328.447 1.58347 330.076 1 332.567 1H364.465C366.957 1 368.585 1.58345 369.597 2.5618C370.602 3.5337 371.176 5.06832 371.176 7.37173V129.18C371.176 159.703 362.122 186.99 343.41 206.639C324.708 226.279 296.249 238.404 257.204 238.404ZM1089.7 238.404H948.092C906.716 238.404 878.369 227.741 860.351 208.876C842.326 190.002 834.47 162.741 834.47 129.18V7.37173C834.47 5.0684 835.045 3.51498 835.987 2.53651C836.923 1.56458 838.375 1 840.48 1H939.329C941.82 1 943.449 1.58345 944.461 2.5618C945.466 3.5337 946.04 5.06832 946.04 7.37173V129.18C946.04 153.337 950.966 172.996 961.947 186.631C972.961 200.306 989.933 207.758 1013.64 207.758H1089.7C1113.25 207.758 1130.48 199.855 1141.78 185.977C1153.07 172.133 1158.35 152.481 1158.35 129.18V7.37173C1158.35 5.06865 1158.93 3.53415 1159.93 2.56218C1160.95 1.58356 1162.58 1 1165.07 1H1196.97C1199.46 1 1201.09 1.58356 1202.1 2.56149C1203.1 3.53311 1203.67 5.0676 1203.67 7.37173V129.18C1203.67 159.703 1194.62 186.99 1175.91 206.639C1157.21 226.279 1128.75 238.404 1089.7 238.404ZM1337.71 238.404H1246.22C1244.12 238.404 1242.66 237.839 1241.72 236.899C1240.78 235.958 1240.21 234.493 1240.21 232.384V7.37173C1240.21 5.06871 1240.79 3.51522 1241.73 2.53663C1242.67 1.56449 1244.12 1 1246.22 1H1337.71C1340.01 1 1341.55 1.57503 1342.53 2.54921C1343.5 3.52381 1344.07 5.06753 1344.07 7.37173V232.384C1344.07 234.493 1343.51 235.949 1342.54 236.886C1341.56 237.829 1340.01 238.404 1337.71 238.404Z" fill="white" stroke="#D2D2D2" stroke-width="2"/>
</svg>
