<svg width="80" height="80" viewBox="0 0 80 80" fill="none" xmlns="http://www.w3.org/2000/svg">
<path d="M58.4395 42.4639L55.8409 40.3214L53.6713 42.8782M56.0554 41.5998C56.5026 43.9345 56.0916 46.3521 54.8981 48.4078C53.7046 50.4635 51.8088 52.0191 49.5595 52.7882M35.4896 30.8676L36.8925 33.9288L33.8589 35.3662M35.711 33.3969C33.5708 32.3589 31.1273 32.1307 28.8318 32.7543C26.5364 33.378 24.5443 34.8114 23.2236 36.7898M29.9749 35.2904V46.4576M29.9749 23.5908V32.5127M49.5595 23.1484V46.4576" stroke="white" stroke-width="1.1057" stroke-linecap="round" stroke-linejoin="round"/>
<path d="M52.1913 47.0033H17.3081M62.2263 47.0033H56.1866M39.7664 47.1002V57.0653M53.0348 26.6176H54.3132M43.1529 50.0507H44.4313M20.5903 50.0507H21.8687M33.2223 26.6176H34.4938M20.5903 26.6176H21.8687M62.2258 23.1484H17.3076V57.0653H62.2258V23.1484Z" stroke="white" stroke-width="1.1057" stroke-linecap="round" stroke-linejoin="round"/>
</svg>
