<svg width="80" height="80" viewBox="0 0 80 80" fill="none" xmlns="http://www.w3.org/2000/svg">
<path d="M57.0431 27.5023V21.4258L52.3615 16.6953H17.2032L12.5215 21.3771V41.8779L17.2032 46.6084H41.645" stroke="white" stroke-width="1.50358" stroke-linecap="round" stroke-linejoin="round"/>
<path fill-rule="evenodd" clip-rule="evenodd" d="M28.286 50.0859L23.1125 61.1371C23.0738 61.2198 23.0517 61.3093 23.0476 61.4005C23.0435 61.4917 23.0574 61.583 23.0885 61.6694C23.1196 61.7552 23.1674 61.8342 23.2291 61.9014C23.2907 61.9691 23.365 62.0235 23.4478 62.0624C23.5306 62.1008 23.6202 62.1232 23.7114 62.1269C23.8027 62.1312 23.8939 62.1174 23.9798 62.0864C24.0658 62.055 24.1447 62.0075 24.2122 61.9456C24.2796 61.8843 24.3342 61.8096 24.373 61.7269L29.822 50.0859H28.286Z" fill="white"/>
<path d="M57.1441 45.7823C57.1441 45.5979 57.0705 45.4209 56.9404 45.2905C56.8097 45.16 56.6327 45.0867 56.4481 45.0867C56.2636 45.0867 56.0871 45.16 55.9564 45.2905C55.8257 45.4209 55.7527 45.5979 55.7527 45.7823H57.1441ZM58.7649 48.6206L58.5761 49.2905C58.5825 49.2922 58.5884 49.2939 58.5943 49.2954L58.7649 48.6206ZM64.0449 49.9563L64.4817 49.4143C64.4039 49.3517 64.3132 49.3066 64.2161 49.2822L64.0449 49.9563ZM66.7511 61.4346V62.13H68.142V61.4346H66.7511ZM48.1352 40.3076L48.8309 40.311V40.3076H48.1352ZM59.8081 37.4345L60.5041 37.4568V37.4345H59.8081ZM59.718 40.3145L59.0231 40.293V40.3263L59.718 40.3145ZM53.9719 46.2137L53.9671 46.9093H53.9788L53.9719 46.2137ZM39.5996 61.4346V62.13H40.9909V61.4346H39.5996ZM43.697 49.9702L43.528 49.2954C43.4294 49.3202 43.3375 49.3662 43.2588 49.4303L43.697 49.9702ZM48.984 48.6415L49.1537 49.3163C49.1663 49.3132 49.1789 49.3097 49.1912 49.3058L48.984 48.6415ZM51.7665 45.7858C51.7656 45.6013 51.6914 45.4247 51.5604 45.2949C51.4293 45.1651 51.2519 45.0927 51.0674 45.0937C50.8829 45.0946 50.7064 45.1687 50.5766 45.2998C50.4468 45.431 50.3743 45.6083 50.3752 45.7928L51.7665 45.7858ZM62.3335 57.7407C62.3335 57.5562 62.2604 57.3791 62.1297 57.249C61.9991 57.1183 61.8225 57.0447 61.638 57.0447C61.4535 57.0447 61.2764 57.1183 61.1457 57.249C61.0156 57.3791 60.942 57.5562 60.942 57.7407H62.3335ZM60.942 61.4346V62.13H62.3335V61.4346H60.942ZM45.5544 61.4346V62.13H46.9457V61.4346H45.5544ZM46.9457 57.7407C46.9457 57.5562 46.8724 57.3791 46.742 57.249C46.6115 57.1183 46.4345 57.0447 46.2501 57.0447C46.0655 57.0447 45.8886 57.1183 45.7582 57.249C45.6277 57.3791 45.5544 57.5562 45.5544 57.7407H46.9457ZM55.7527 45.7823C55.7527 47.1604 56.4972 48.055 57.1884 48.5761C57.5953 48.8802 58.0487 49.1168 58.5313 49.2766L58.5601 49.2857L58.5703 49.2884C58.5719 49.2888 58.5735 49.2893 58.5751 49.2898L58.7649 48.6206L58.9548 47.9514H58.9559L58.9569 47.9521C58.9361 47.9459 58.9153 47.9389 58.8951 47.9312C58.5836 47.8198 58.2903 47.6627 58.0252 47.4651C57.5591 47.1131 57.1441 46.5886 57.1441 45.7823H55.7527ZM58.5943 49.2954L63.8743 50.631L64.2151 49.2815L58.9351 47.9458L58.5943 49.2954ZM63.6087 50.4989C64.2764 51.0359 65.094 51.799 65.7372 52.5573C66.0593 52.9364 66.3244 53.2989 66.5052 53.6196C66.6951 53.9562 66.7511 54.1738 66.7511 54.2831H68.142C68.142 53.8148 67.9473 53.3439 67.7169 52.9357C67.4769 52.5114 67.1532 52.0752 66.798 51.6571C66.0887 50.8203 65.2049 49.9966 64.4817 49.4143L63.6087 50.4989ZM66.7511 54.2831V61.4346H68.142V54.2831H66.7511ZM48.8309 40.3076V37.4345H47.4396V40.3076H48.8309ZM48.8309 37.4345C48.8309 36.071 49.3735 34.7632 50.337 33.7997L49.3534 32.8161C48.7468 33.4227 48.2656 34.1428 47.9374 34.9354C47.6092 35.7279 47.4402 36.5774 47.4403 37.4352H48.8316L48.8309 37.4345ZM50.337 33.7997C51.3009 32.8356 52.6084 32.2938 53.9719 32.2937V30.9023C53.114 30.9023 52.2645 31.0712 51.4719 31.3995C50.6794 31.7277 49.9592 32.2088 49.3527 32.8154L50.337 33.7997ZM53.9719 32.2937C55.3351 32.2937 56.6433 32.8356 57.6071 33.7997L58.5911 32.8161C57.9841 32.2095 57.2641 31.7284 56.4716 31.4002C55.6791 31.0719 54.8295 30.903 53.9719 30.903V32.2943V32.2937ZM57.6071 33.7997C58.5713 34.7638 59.1127 36.0712 59.1127 37.4345H60.5041C60.5041 36.5767 60.3351 35.7273 60.0071 34.9347C59.6785 34.1421 59.1975 33.422 58.5911 32.8154L57.6071 33.7997ZM59.1132 37.413L59.0231 40.293L60.4135 40.3368L60.5041 37.4568L59.1132 37.413ZM59.0231 40.3263C59.0343 40.9999 58.9116 41.669 58.6631 42.295L59.9569 42.8084C60.2732 42.0117 60.4279 41.1603 60.4135 40.3034L59.0231 40.3263ZM58.6631 42.295C58.4151 42.9211 58.0449 43.4923 57.5751 43.975L58.5713 44.9462C59.1697 44.3319 59.6412 43.6054 59.9569 42.8084L58.6631 42.295ZM57.5751 43.975C57.1052 44.4578 56.5441 44.8427 55.9244 45.1076L56.4711 46.3869C57.2599 46.0499 57.9729 45.5603 58.5713 44.9462L57.5751 43.975ZM55.9244 45.1076C55.3052 45.3719 54.6396 45.5117 53.9655 45.518L53.9788 46.9093C54.8359 46.9013 55.6828 46.7237 56.4711 46.3869L55.9244 45.1076ZM53.9767 45.518C52.6044 45.5083 51.2919 44.9546 50.3272 43.9785L49.3381 44.9566C50.5616 46.1947 52.2263 46.8969 53.9671 46.9093L53.9767 45.518ZM50.3272 43.9785C49.3628 43.0022 48.8242 41.6833 48.8309 40.311L47.4403 40.3041C47.4319 42.045 48.1144 43.7182 49.3381 44.9566L50.3272 43.9785ZM40.9909 61.4346L40.9916 54.297H39.6003L39.5996 61.4346H40.9909ZM40.9916 54.297C40.9916 54.1892 41.0472 53.9716 41.2385 53.6351C41.4201 53.3142 41.6865 52.951 42.0101 52.5712C42.6549 51.813 43.473 51.0491 44.136 50.51L43.2588 49.4303C42.5443 50.0112 41.6615 50.8335 40.9498 51.6703C40.5951 52.0877 40.2688 52.5246 40.0281 52.9483C39.7972 53.3562 39.6003 53.8271 39.6003 54.297H40.9916ZM43.8668 50.645L49.1537 49.3163L48.8149 47.9667L43.528 49.2954L43.8668 50.645ZM49.1912 49.3058C49.9411 49.0722 50.5961 48.6041 51.0598 47.9702L49.937 47.1493C49.649 47.5423 49.2426 47.8325 48.7774 47.9771L49.1912 49.3058ZM51.0598 47.9702C51.5232 47.3365 51.7709 46.5708 51.7665 45.7858L50.3752 45.7928C50.3783 46.2802 50.2247 46.7558 49.937 47.1493L51.0598 47.9702ZM60.942 57.7407V61.4346H62.3335V57.7407H60.942ZM46.9457 61.4346V57.7407H45.5544V61.4346H46.9457Z" fill="white"/>
<mask id="mask0_1_532" style="mask-type:luminance" maskUnits="userSpaceOnUse" x="20" y="25" width="12" height="16">
<path fill-rule="evenodd" clip-rule="evenodd" d="M28.2134 36.5389C29.3378 35.981 30.2406 35.0595 30.7752 33.9239C31.3098 32.7883 31.4448 31.5053 31.1584 30.2833C30.8719 29.0612 30.1807 27.972 29.1971 27.1923C28.2135 26.4125 26.9952 25.9883 25.74 25.9883C24.4849 25.9883 23.2666 26.4125 22.2829 27.1923C21.2994 27.972 20.6082 29.0612 20.3217 30.2833C20.0352 31.5053 20.1703 32.7883 20.7049 33.9239C21.2395 35.0595 22.1423 35.981 23.2666 36.5389V39.2811L24.5028 40.8269H26.9765L28.2134 39.2811V36.5389Z" fill="white"/>
</mask>
<g mask="url(#mask0_1_532)">
<path d="M28.2134 36.5406L27.5943 35.2947L26.8221 35.678V36.5406H28.2134ZM23.2667 36.5406H24.658V35.678L23.8858 35.2947L23.2667 36.5406ZM23.2667 39.2829H21.8754V39.7712L22.1801 40.1524L23.2667 39.2829ZM24.5028 40.8286L23.4162 41.6982L23.8343 42.2199H24.5028V40.8286ZM26.9766 40.8286V42.2199H27.6451L28.0625 41.6982L26.9766 40.8286ZM28.2134 39.2829L29.2994 40.1524L29.6047 39.7712V39.2829H28.2134ZM29.9136 31.5542C29.9139 32.3318 29.6969 33.094 29.287 33.755C28.8773 34.4159 28.291 34.9492 27.5943 35.2947L28.8326 37.7865C29.9932 37.2105 30.9698 36.3217 31.6524 35.2204C32.3351 34.1192 32.6966 32.8492 32.6962 31.5535L29.9136 31.5542ZM25.7397 27.3803C26.8467 27.3803 27.9084 27.82 28.6911 28.6028C29.4739 29.3856 29.9136 30.4471 29.9136 31.5542L32.6962 31.5535C32.6962 27.7107 29.5818 24.5977 25.7397 24.5977V27.3803ZM21.5658 31.5542C21.5658 30.4471 22.0056 29.3856 22.7883 28.6028C23.571 27.82 24.6327 27.3803 25.7397 27.3803V24.5977C21.8976 24.5977 18.7832 27.7114 18.7832 31.5542H21.5658ZM23.8858 35.2947C23.189 34.9491 22.602 34.4157 22.1922 33.7547C21.7824 33.0936 21.5654 32.3319 21.5658 31.5542H18.7832C18.7828 32.8499 19.1444 34.1192 19.827 35.2204C20.5096 36.3217 21.4862 37.2105 22.6468 37.7865L23.8858 35.2947ZM24.6573 39.2829L24.658 36.5406H21.8747L21.8754 39.2829H24.6573ZM25.5894 39.9597L24.3526 38.414L22.1801 40.1524L23.4162 41.6982L25.5894 39.9597ZM25.7397 39.438H24.5028V42.2199L25.7397 42.2206V39.438ZM26.9766 39.438H25.7397V42.2206L26.9766 42.2199V39.438ZM27.1268 38.414L25.89 39.9597L28.0625 41.6982L29.2994 40.1524L27.1268 38.414ZM26.8221 36.5406V39.2829H29.6047V36.5406H26.8221Z" fill="white"/>
</g>
<path d="M28.5221 31.938C28.5221 31.2 28.2289 30.4922 27.707 29.9704C27.1852 29.4486 26.4774 29.1554 25.7394 29.1554M32.8504 31.2424H34.0872M17.3916 31.2424H18.6285M30.7676 26.2149L31.6421 25.3398M19.8368 25.3398L20.7112 26.2142M25.7394 22.8945V24.1314" stroke="white" stroke-width="1.50358" stroke-linecap="round"/>
<path d="M23.5752 37.5039H27.9036" stroke="white" stroke-width="1.50358"/>
<path d="M52.1738 26.3711H38.2607M47.3042 29.8493H38.2607M43.5616 34.0233L39.9164 37.6685L38.2607 36.0128" stroke="white" stroke-width="1.50358" stroke-linecap="round" stroke-linejoin="round"/>
</svg>
