<svg width="80" height="80" viewBox="0 0 80 80" fill="none" xmlns="http://www.w3.org/2000/svg">
<path d="M44.4913 37.4753H32.0525M48.6375 32.638H32.0525M48.6375 41.6216H32.0525M44.4913 46.459H32.0525M54.3869 24.1105L50.068 28.4295M24.4509 54.2956L28.7631 49.9764M39.654 18.1261V24.3455M39.654 60.2797V54.0603M60.3853 38.8574H54.8568M18.2315 39.5485H24.4509M55.0089 23.5646C55.2685 23.8229 55.5768 24.0271 55.9164 24.1652C56.2555 24.3033 56.6189 24.3726 56.985 24.369C57.3517 24.3655 57.7135 24.2892 58.0499 24.1446C58.3864 24 58.691 23.7899 58.9453 23.5267C59.2001 23.2634 59.3999 22.9521 59.5334 22.6109C59.6664 22.2698 59.7305 21.9055 59.722 21.5393C59.713 21.1731 59.6319 20.8123 59.4825 20.4779C59.3331 20.1434 59.1185 19.842 58.8521 19.5911C58.3228 19.0935 57.6187 18.8244 56.8928 18.8416C56.1665 18.8588 55.4767 19.1613 54.9718 19.6834C54.4664 20.2054 54.1877 20.9054 54.1946 21.6317C54.2015 22.358 54.4939 23.0523 55.0089 23.5646ZM24.2989 54.1435C24.0375 53.8913 23.729 53.6932 23.391 53.5607C23.053 53.4277 22.6922 53.3631 22.3292 53.37C21.9661 53.3764 21.608 53.4548 21.2752 53.5999C20.9423 53.7451 20.6413 53.9544 20.3893 54.2156C20.1373 54.4768 19.9394 54.7856 19.8066 55.1236C19.6739 55.4617 19.609 55.8224 19.6158 56.1854C19.6224 56.5483 19.7006 56.9064 19.8457 57.2391C19.9909 57.5724 20.2001 57.8733 20.4615 58.125C20.9896 58.6341 21.6981 58.9122 22.4313 58.899C23.1645 58.8852 23.8623 58.5811 24.3712 58.0529C24.88 57.5247 25.1583 56.8164 25.1447 56.0831C25.1312 55.3499 24.8269 54.6521 24.2989 54.1435ZM39.7023 17.435C40.0653 17.4286 40.4235 17.3507 40.7564 17.2059C41.0893 17.061 41.3904 16.852 41.6425 16.5907C41.8946 16.3295 42.0928 16.0212 42.2258 15.6833C42.3588 15.3455 42.4239 14.9848 42.4175 14.6218C42.411 14.2588 42.3331 13.9006 42.1883 13.5677C42.0434 13.2348 41.8344 12.9337 41.5731 12.6816C41.3119 12.4294 41.0036 12.2312 40.6657 12.0983C40.3279 11.9653 39.9672 11.9002 39.6042 11.9067C38.8711 11.9197 38.1732 12.2234 37.664 12.751C37.1548 13.2786 36.8761 13.9868 36.8891 14.7199C36.9021 15.453 37.2058 16.1509 37.7334 16.6601C38.261 17.1693 38.9692 17.448 39.7023 17.435ZM39.6056 60.9711C39.2394 60.9721 38.8771 61.0463 38.5398 61.1888C38.2025 61.3319 37.8969 61.5401 37.6408 61.8018C37.3847 62.0635 37.1831 62.3734 37.0478 62.7136C36.9124 63.0537 36.8461 63.4177 36.8525 63.7838C36.859 64.1499 36.9381 64.5112 37.0854 64.8466C37.2326 65.1819 37.445 65.4844 37.7102 65.7372C37.9754 65.9893 38.2881 66.187 38.6302 66.3173C38.9724 66.4481 39.337 66.5096 39.703 66.4979C40.4292 66.4752 41.1172 66.1673 41.6181 65.6413C42.1191 65.1152 42.3928 64.4126 42.38 63.6863C42.3672 62.9599 42.069 62.2675 41.5497 61.7594C41.0305 61.2513 40.3321 60.9679 39.6056 60.9711ZM61.0762 38.9058C61.0777 39.272 61.1519 39.6343 61.2944 39.9715C61.437 40.3089 61.6452 40.6144 61.9069 40.8706C62.1686 41.1267 62.4785 41.3283 62.8192 41.4636C63.1593 41.599 63.5233 41.6653 63.8894 41.6588C64.2555 41.6524 64.6168 41.5733 64.9517 41.4261C65.287 41.2788 65.5901 41.0664 65.8423 40.8012C66.095 40.536 66.2921 40.2232 66.4229 39.8812C66.5532 39.5391 66.6147 39.1744 66.6036 38.8084C66.5808 38.0822 66.273 37.3942 65.7464 36.8932C65.2203 36.3922 64.5183 36.1186 63.7919 36.1314C63.0656 36.1441 62.3731 36.4424 61.865 36.9617C61.357 37.4809 61.0735 38.1793 61.0762 38.9058ZM17.5405 39.5001C17.5341 39.1371 17.4562 38.779 17.3113 38.446C17.1664 38.1132 16.9574 37.812 16.6962 37.5599C16.435 37.3078 16.1266 37.1096 15.7888 36.9766C15.451 36.8436 15.0902 36.7785 14.7273 36.785C14.3643 36.7914 14.0061 36.8693 13.6732 37.0142C13.3403 37.159 13.0392 37.368 12.787 37.6293C12.5349 37.8905 12.3367 38.1989 12.2038 38.5367C12.0708 38.8745 12.0057 39.2352 12.0122 39.5982C12.0251 40.3313 12.3289 41.0292 12.8564 41.5384C13.384 42.0476 14.0923 42.3263 14.8254 42.3134C15.5585 42.3003 16.2564 41.9966 16.7656 41.4691C17.2748 40.9414 17.5535 40.2332 17.5405 39.5001Z" stroke="white" stroke-width="1.10567" stroke-linecap="round" stroke-linejoin="round"/>
</svg>
