<svg width="135" height="52" viewBox="0 0 135 52" fill="none" xmlns="http://www.w3.org/2000/svg">
<path d="M129.905 20.0905C129.081 18.5986 127.307 17.4671 125.38 17.4671C123.684 17.4671 122.193 18.1614 122.193 19.9615C122.193 21.4773 124.07 22.5055 126.024 23.7659C128.157 25.1024 130.368 26.7463 130.368 29.601C130.368 33.3286 126.744 35.6155 122.554 35.6155C120.831 35.6155 119.033 35.2816 117.002 34.5105L117.335 29.549C118.313 31.5293 120.139 33.0964 122.836 33.0964C124.918 33.0964 126.46 32.0946 126.46 30.3457C126.46 28.8547 125.199 27.9298 123.659 27.005C120.419 25.052 118.364 23.4824 118.364 20.6558C118.364 16.4133 121.911 15 125.586 15C127.719 15 129.057 15.386 130.418 15.386L129.905 20.0905ZM111.938 24.5362C111.474 25.3082 110.885 26.3603 110.523 27.1331C110.216 28.5977 110.061 30.5524 110.061 32.7104C110.061 33.6104 110.216 34.8179 110.626 35.2295H105.255C106.205 34.3303 106.591 28.8051 106.541 27.0562C105.821 24.5635 104.843 22.1724 103.352 19.2673C102.404 17.4432 101.297 15.719 100.603 15.386C101.81 15.2843 103.352 15.2066 104.099 15.2066C105.434 15.2066 105.796 15.386 106.619 17.1861C107.901 20.0913 108.853 22.2741 109.419 23.8948C110.782 21.7608 111.732 20.2962 112.966 18.2911C113.275 17.8027 113.532 17.1861 113.532 16.5943C113.532 16.1307 113.454 15.6174 113.249 15.386H118.57C117.542 15.6174 112.914 22.8923 111.938 24.5362ZM93.2508 20.04L90.0647 26.9529H95.256L93.2508 20.04ZM99.4976 35.4089C97.7999 35.4089 97.6726 35.3585 96.3097 30.6804L95.8221 28.958C95.0005 29.3432 93.5335 29.5234 91.1953 29.5234H88.8307L88.4191 30.397C87.8281 31.7095 87.0314 33.2492 87.0314 34.3311C87.0314 34.5882 87.057 34.87 87.1603 35.2304H73.1254C73.923 34.3311 74.18 31.4268 74.5652 26.1562L74.642 24.8974C74.8479 21.8897 75.0041 19.5763 74.9768 17.958C74.9512 16.6216 74.8223 15.7728 74.4627 15.3876H79.8871C79.1151 15.9794 78.8316 19.1656 78.4729 24.4362L78.3696 25.695C78.2407 27.6488 77.9845 29.6531 77.9845 31.607C77.9845 32.5054 78.344 32.7112 79.2705 32.7112C82.5592 32.7112 83.3832 32.6343 84.8726 31.6318C85.7974 29.9349 86.8528 27.8009 87.8794 25.5909L89.2696 22.6352C90.5796 19.859 91.864 17.0307 91.864 16.4918C91.864 16.1051 91.7615 15.7463 91.6086 15.386H95.9262C95.9262 15.386 97.6735 21.8641 98.0594 23.251L98.9066 26.3876C100.371 31.6574 101.298 34.227 102.532 35.2295C101.502 35.3585 100.037 35.4089 99.4976 35.4089ZM64.5157 35.6155C59.4005 35.6155 56.4441 31.4003 56.4441 26.6711C56.4441 20.0913 60.0162 15 66.8283 15C68.9615 15 69.9649 15.386 71.6856 15.386L71.1724 20.45C70.1955 18.6763 68.6011 17.4679 66.4688 17.4679C62.228 17.4679 60.5055 22.0443 60.5055 25.9768C60.5055 30.2432 62.8966 32.5814 66.0828 32.5814C67.8052 32.5814 69.321 32.1186 71.8667 30.3457C70.8385 33.6369 68.4474 35.6155 64.5157 35.6155ZM46.7806 17.8027C46.2921 17.8027 45.6995 17.8027 45.2383 17.8539C45.0838 18.7019 44.9548 20.1673 44.7746 22.5311L44.6713 23.9205C44.93 23.9725 45.2631 23.999 45.5722 23.999C48.0385 23.999 49.7362 22.5063 49.7362 20.2458C49.7362 18.7019 48.6567 17.8027 46.7806 17.8027ZM53.9505 36.0784C52.4859 36.0784 52.1256 35.8461 51.6379 35.1775L46.0855 27.4662C45.6483 26.8752 45.3144 26.3868 44.6209 26.3868H44.492L44.3903 27.8778C44.2605 29.9085 44.1837 31.5293 44.1837 32.7368C44.2093 34.0733 44.3639 34.8948 44.7242 35.2295H39.3519C40.1223 34.5353 40.4041 32.2219 40.8421 26.1553L40.9198 24.8965C41.1256 21.9154 41.2802 19.6012 41.2537 17.9829C41.2273 16.5687 41.0744 15.6943 40.6876 15.386H48.0129C50.4031 15.386 53.6935 15.7984 53.6935 19.6788C53.6935 22.865 51.5594 24.6139 48.9129 25.4354C49.17 25.6677 49.632 26.2587 49.9155 26.619L53.9505 31.9657C56.4697 35.2816 56.6747 35.4353 57.5756 35.8982C56.4441 36.0263 54.9283 36.0784 53.9505 36.0784ZM28.9173 20.04L25.7022 26.9529H30.92L28.9173 20.04ZM35.1615 35.4089C33.4664 35.4089 33.3374 35.3585 31.9754 30.6804L31.4869 28.958C30.6629 29.3432 29.1983 29.5234 26.8593 29.5234H24.4947L24.0839 30.397C23.6723 31.3235 22.6698 33.2261 22.6954 34.3311C22.6954 34.5882 22.721 34.8452 22.8243 35.2304H18.0694C19.4315 33.8683 21.1539 30.7069 23.5442 25.5917L24.9327 22.6361C26.1915 19.9631 27.5288 16.9299 27.5288 16.4927C27.5288 16.1059 27.4271 15.7472 27.2717 15.3868H31.591C31.591 15.3868 32.72 19.6797 33.7234 23.2518L34.5714 26.3884C36.0368 31.6582 36.9617 34.2278 38.1957 35.2304C37.0906 35.3585 35.7021 35.4089 35.1615 35.4089ZM10.6912 17.7771C10.3052 17.7771 9.79198 17.7771 9.30349 17.8291C9.09769 19.2168 8.96876 20.5533 8.86711 22.0179C8.86711 22.0179 8.78942 23.2766 8.78942 23.2254H9.30349C11.8227 23.2254 14.1369 22.3518 14.1369 20.04C14.1369 18.7019 13.0311 17.7771 10.6912 17.7771ZM10.0498 25.6421H8.63653L8.43073 28.5721C8.32824 29.8581 8.27617 30.9367 8.25055 32.2219C8.25055 32.4029 8.81587 32.788 10.1515 32.788C12.9277 32.788 14.7535 31.4003 14.7535 29.1118C14.7535 26.5669 12.6707 25.6421 10.0498 25.6421ZM10.3581 35.2295H3.41797C4.2924 34.4576 4.52382 31.4508 4.90897 26.1553L4.98583 24.9222C5.19246 21.9145 5.34618 19.6012 5.32056 17.9829C5.29494 16.5943 5.14039 15.6943 4.75444 15.386H12.517C14.3675 15.386 18.0694 15.4893 18.0694 19.3441C18.0694 21.9145 15.6783 23.508 13.4939 24.075C16.5784 24.3833 18.8918 25.8735 18.8918 29.0605C18.891 32.5045 15.6527 35.2295 10.3581 35.2295Z" fill="white" fill-opacity="0.5"/>
</svg>
