<svg width="166" height="52" viewBox="0 0 166 52" fill="none" xmlns="http://www.w3.org/2000/svg">
<path d="M96.3949 17.7961C99.1504 17.3311 102.202 17.488 105.068 17.1625C105.05 18.3484 104.51 19.5052 104.237 20.6853L104.504 20.8597L111.468 20.8132L110.695 23.7488L103.481 23.8651C102.493 26.7949 101.737 29.8352 100.894 32.8348C100.906 33.6021 101.516 34.0497 102.15 34.3811C104.347 34.3811 106.922 34.7183 108.852 33.9567L107.94 37.3051L95.9531 37.3982C94.3195 37.1424 92.6513 35.6426 92.3256 34.1195L92.3952 31.9629C93.7847 27.2833 95.0404 22.5106 96.3949 17.7961ZM68.5904 21.1678C70.7646 24.2197 72.7642 27.3123 74.572 30.5212C71.1949 32.9278 67.765 35.2182 64.3524 37.4912L64.3581 37.6656L69.9737 37.5726L76.3337 33.2999C77.2867 34.6369 78.2052 36.0088 78.717 37.5376L89.5121 37.4272C89.2795 37.3691 89.0876 37.09 88.9015 36.9563L83.6467 28.3587L94.308 21.098L94.296 20.9236L87.867 21.1329C86.2626 23.1094 83.8265 24.086 81.8097 25.5393C80.9257 24.0976 79.7108 22.7896 79.4901 21.0922L68.5904 21.1678ZM138.331 20.726L138.459 21.5573L134.593 35.7995L133.651 37.2063H143.853L143.638 36.0669L146.138 26.4403C146.243 25.8822 146.714 25.3184 147.266 25.0684C149.388 25.0975 152.544 24.3883 154.492 25.5393L155.747 20.7608C152.556 21.255 148.242 19.3192 146.4 22.685C146.097 22.1327 146.266 21.4003 146.219 20.7318L138.331 20.726ZM37.6585 15L17.1089 15.0872L17.1438 16.6858L11.8713 35.2938L10.418 37.9504L32.3743 37.9388C34.3624 37.9853 36.0599 37.3632 36.9667 35.7937C37.6236 33.4859 38.8095 31.3117 38.5421 28.7423C38.2224 27.7424 37.4667 26.8182 36.5191 26.2136C37.4492 25.952 38.3735 25.6206 39.106 24.9115C40.6639 22.9408 41.1406 20.4644 41.2045 18.0345C40.8557 16.5463 39.2688 15.2558 37.6585 15ZM26.5379 18.8018L31.9267 18.8483C32.6766 19.2552 32.4034 20.3016 32.229 20.8597C31.7581 21.9816 31.7872 23.4756 30.6885 24.2255L24.5033 24.2429L26.5379 18.8018ZM23.422 28.0157L29.148 27.9924C29.9386 28.3296 29.741 29.4051 29.5258 30.0038C28.7992 31.3059 29.6363 33.3057 28.09 34.0265L21.8583 34.0207C22.1199 32.0326 22.8988 30.0038 23.422 28.0157ZM61.9692 21.2724L43.9484 21.3306L42.6753 24.3708C47.0177 23.743 51.7147 24.1615 56.063 24.0511C56.4408 24.2255 56.6385 24.5975 56.6792 24.9812C56.5048 25.5044 56.5513 26.1962 55.9235 26.4868L44.0646 26.7484L42.0009 27.7134C40.3151 29.4457 39.9489 31.678 39.8035 34.0091C39.9023 35.3636 40.8615 36.6017 42.1056 37.311C44.8668 38.1306 48.7384 37.7295 52.0054 37.6365C52.7553 37.4504 53.2494 36.7064 53.604 36.1076C53.8772 36.5959 54.0807 37.1424 54.2435 37.6656L62.725 37.7004L62.4516 36.5611L64.9457 27.3414C65.3352 26.1497 65.7126 24.4813 64.8642 23.4175C64.2943 22.3479 63.0967 21.6677 61.9692 21.2724ZM55.2724 29.7189L54.0167 34.1893L53.4703 34.6136L49.186 34.6834C47.3432 33.6719 49.1279 31.6257 49.2906 30.1666L49.9882 29.7364L55.2724 29.7189ZM132.454 20.8946L116.188 20.8132C114.962 21.0399 113.852 21.7491 113.096 22.8013C111.968 26.295 110.916 29.8294 110.282 33.5149C110.567 35.2182 111.939 36.8924 113.811 37.2819L131.669 37.2354L133.059 33.7998L132.169 34.1719L119.927 34.2649L119.287 33.9625C118.305 32.829 119.473 31.6663 119.601 30.5154L134.332 30.2828C134.733 27.9459 136.366 25.6265 135.168 23.1094C134.669 22.1037 133.541 21.1852 132.454 20.8946ZM122.048 23.9116L125.996 23.8476C126.361 23.9407 126.78 24.2836 126.908 24.6673C126.879 25.4986 126.716 26.3008 126.385 27.0681L120.583 27.167C121.083 26.0799 120.903 24.5859 122.048 23.9116Z" fill="white" fill-opacity="0.5"/>
</svg>
