<svg width="98" height="36" viewBox="0 0 98 36" fill="none" xmlns="http://www.w3.org/2000/svg">
<g id="baxter.svg" clip-path="url(#clip0_1_485)">
<path id="Vector" d="M57.4223 12.0706C59.2627 11.76 61.301 11.8648 63.215 11.6474C63.2031 12.4394 62.8421 13.2121 62.6599 14.0002L62.8383 14.1167L67.4896 14.0856L66.9732 16.0463L62.155 16.1239C61.4951 18.0807 60.9902 20.1113 60.4274 22.1147C60.4351 22.6271 60.8429 22.9261 61.2661 23.1474C62.7335 23.1474 64.4534 23.3726 65.7425 22.864L65.1329 25.1003L57.1273 25.1624C56.0362 24.9916 54.9221 23.9899 54.7046 22.9727L54.751 21.5323C55.679 18.4069 56.5177 15.2193 57.4223 12.0706ZM38.8523 14.3225C40.3044 16.3608 41.6399 18.4263 42.8472 20.5694C40.5917 22.1768 38.301 23.7065 36.0218 25.2245L36.0256 25.341L39.7761 25.2789L44.0238 22.4253C44.6603 23.3182 45.2738 24.2345 45.6156 25.2556L52.8255 25.1818C52.6701 25.143 52.542 24.9566 52.4177 24.8673L48.908 19.1251L56.0285 14.2759L56.0205 14.1594L51.7267 14.2992C50.6552 15.6192 49.0282 16.2715 47.6811 17.2421C47.0907 16.2792 46.2793 15.4057 46.132 14.272L38.8523 14.3225ZM85.4305 14.0274L85.516 14.5826L82.9341 24.0947L82.3053 25.0343H89.1189L88.9754 24.2733L90.645 17.8439C90.7148 17.4712 91.0294 17.0946 91.3981 16.9276C92.8153 16.947 94.9234 16.4734 96.224 17.2421L97.0626 14.0507C94.9311 14.3807 92.0503 13.0878 90.8195 15.3358C90.6177 14.9669 90.7302 14.4778 90.6991 14.0313L85.4305 14.0274ZM18.1934 10.2031L4.46876 10.2614L4.49204 11.3291L0.970626 23.7569L0 25.5313L14.6642 25.5235C15.992 25.5546 17.1257 25.1391 17.7314 24.0908C18.1701 22.5495 18.9622 21.0974 18.7836 19.3814C18.57 18.7136 18.0653 18.0963 17.4324 17.6925C18.0536 17.5178 18.671 17.2964 19.1602 16.8228C20.2007 15.5066 20.519 13.8527 20.5617 12.2298C20.3288 11.2359 19.2689 10.374 18.1934 10.2031ZM10.7662 12.7423L14.3653 12.7733C14.8661 13.0451 14.6836 13.744 14.5671 14.1167C14.2527 14.866 14.2721 15.8638 13.5383 16.3646L9.40732 16.3763L10.7662 12.7423ZM8.68515 18.8961L12.5094 18.8805C13.0375 19.1057 12.9055 19.824 12.7618 20.2239C12.2765 21.0936 12.8356 22.4291 11.8028 22.9106L7.64078 22.9067C7.8155 21.5789 8.33572 20.2239 8.68515 18.8961ZM34.4301 14.3924L22.3943 14.4312L21.544 16.4617C24.4442 16.0424 27.5813 16.3219 30.4854 16.2482C30.7378 16.3646 30.8698 16.6131 30.897 16.8694C30.7805 17.2188 30.8116 17.6808 30.3923 17.8749L22.472 18.0497L21.0937 18.6942C19.9677 19.8512 19.7231 21.342 19.6261 22.8989C19.6921 23.8036 20.3327 24.6305 21.1635 25.1042C23.0077 25.6516 25.5935 25.3837 27.7754 25.3216C28.2763 25.1973 28.6063 24.7004 28.8431 24.3005C29.0256 24.6266 29.1615 24.9916 29.2702 25.341L34.9349 25.3643L34.7523 24.6033L36.418 18.4457C36.6782 17.6498 36.9302 16.5355 36.3636 15.825C35.983 15.1106 35.1831 14.6563 34.4301 14.3924ZM29.9574 20.0336L29.1188 23.0193L28.7538 23.3027L25.8924 23.3493C24.6617 22.6737 25.8536 21.3071 25.9623 20.3326L26.4282 20.0453L29.9574 20.0336ZM81.5054 14.14L70.642 14.0856C69.8229 14.2371 69.0814 14.7107 68.5768 15.4134C67.8234 17.7468 67.1209 20.1074 66.6974 22.5689C66.8877 23.7065 67.8042 24.8246 69.0541 25.0848L80.9813 25.0537L81.9093 22.7592L81.3151 23.0076L73.1388 23.0698L72.7114 22.8678C72.0554 22.1108 72.8357 21.3343 72.9213 20.5655L82.7595 20.4102C83.0273 18.8495 84.1184 17.3004 83.3185 15.6192C82.9847 14.9475 82.2316 14.3341 81.5054 14.14ZM74.5556 16.155L77.192 16.1123C77.4364 16.1744 77.7161 16.4035 77.8016 16.6597C77.7821 17.2149 77.6735 17.7507 77.4521 18.2632L73.5773 18.3292C73.9111 17.6032 73.791 16.6054 74.5556 16.155Z" fill="white" fill-opacity="0.5"/>
</g>
<defs>
<clipPath id="clip0_1_485">
<rect width="97.0626" height="35.5896" fill="white" transform="translate(0 0.0859375)"/>
</clipPath>
</defs>
</svg>
