<svg width="139" height="52" viewBox="0 0 139 52" fill="none" xmlns="http://www.w3.org/2000/svg">
<path d="M129.32 21.1086H128.034V16.078H126.37V15H130.985V16.078H129.32V21.1086Z" fill="white" fill-opacity="0.5"/>
<path d="M134.503 21.1086L133.029 16.3239H132.99C133.047 17.3073 133.066 17.9503 133.066 18.2718V21.1086H131.912V15H133.671L135.109 19.6713H135.128L136.66 15H138.418V21.1086H137.208V18.234C137.208 18.1016 137.208 17.9314 137.208 17.7612C137.208 17.591 137.227 17.1182 137.264 16.3428H137.227L135.694 21.1086H134.503Z" fill="white" fill-opacity="0.5"/>
<path d="M10.0424 19.7867C8.34027 19.7867 7.01643 20.4297 6.07082 21.7158C5.12521 23.0018 4.67132 24.7795 4.67132 27.0679C4.67132 31.8338 6.46798 34.2167 10.0424 34.2167C11.5365 34.2167 13.3709 33.8385 15.4891 33.082V36.8833C13.7303 37.6209 11.7823 37.9803 9.60744 37.9803C6.50581 37.9803 4.12286 37.0347 2.4775 35.1434C0.832139 33.2522 0 30.5477 0 27.0112C0 24.7795 0.397157 22.8316 1.21038 21.1673C2.02361 19.503 3.17725 18.217 4.69023 17.3281C6.20321 16.4392 7.98093 15.9854 10.0235 15.9854C12.1038 15.9854 14.1841 16.496 16.2834 17.4983L14.8461 21.2051C14.0518 20.8269 13.2386 20.4865 12.4253 20.2028C11.6121 19.938 10.8178 19.7867 10.0424 19.7867Z" fill="white" fill-opacity="0.5"/>
<path d="M34.5545 29.5078C34.5545 32.1744 33.8548 34.2548 32.4552 35.7489C31.0558 37.2429 29.0889 37.9994 26.5925 37.9994C25.0228 37.9994 23.6421 37.659 22.4318 36.9592C21.2403 36.2784 20.3136 35.276 19.6705 33.99C19.0276 32.704 18.7061 31.21 18.7061 29.4889C18.7061 26.8223 19.4058 24.742 20.8053 23.2668C22.2048 21.7916 24.1528 21.0352 26.687 21.0352C28.2568 21.0352 29.6373 21.3756 30.8477 22.0564C32.0391 22.7372 32.9658 23.7207 33.6089 24.9878C34.233 26.2928 34.5545 27.7868 34.5545 29.5078ZM23.245 29.5078C23.245 31.1343 23.5097 32.3447 24.0393 33.1768C24.5688 34.009 25.4388 34.425 26.6302 34.425C27.8218 34.425 28.6728 34.009 29.2023 33.1957C29.7318 32.3636 29.9777 31.1532 29.9777 29.5268C29.9777 27.9003 29.713 26.6899 29.1834 25.8767C28.6539 25.0635 27.8028 24.6663 26.5925 24.6663C25.401 24.6663 24.5499 25.0635 24.0204 25.8767C23.4908 26.6899 23.245 27.8814 23.245 29.5078Z" fill="white" fill-opacity="0.5"/>
<path d="M47.3758 21.0547C47.981 21.0547 48.4916 21.0925 48.8888 21.1871L48.5484 25.3667C48.189 25.2721 47.7541 25.2154 47.2246 25.2154C45.8061 25.2154 44.6903 25.5747 43.896 26.3123C43.1016 27.0498 42.7045 28.0711 42.7045 29.3761V37.6975H38.2412V21.3573H41.6265L42.2884 24.0996H42.5154C43.026 23.1917 43.7068 22.4353 44.5768 21.8868C45.4089 21.3384 46.3546 21.0547 47.3758 21.0547Z" fill="white" fill-opacity="0.5"/>
<path d="M58.7235 34.4434C59.4989 34.4434 60.4445 34.2732 61.5225 33.9328V37.2613C60.4067 37.7531 59.045 37.9989 57.4186 37.9989C55.6408 37.9989 54.3358 37.5451 53.5226 36.6372C52.7094 35.7295 52.2933 34.3867 52.2933 32.5711V24.7036H50.1562V22.8124L52.6148 21.3184L53.9009 17.8574H56.7566V21.3373H61.3712V24.7036H56.7945V32.59C56.7945 33.233 56.9646 33.687 57.324 33.9896C57.6833 34.2921 58.1561 34.4434 58.7235 34.4434Z" fill="white" fill-opacity="0.5"/>
<path d="M72.2437 38.0001C69.6148 38.0001 67.5534 37.2814 66.0783 35.8252C64.6032 34.3689 63.8467 32.3075 63.8467 29.6597C63.8467 26.9175 64.5275 24.7993 65.9081 23.3052C67.2698 21.8112 69.1799 21.0547 71.5817 21.0547C73.889 21.0547 75.6857 21.7166 76.9716 23.0216C78.2579 24.3454 78.901 26.161 78.901 28.4683V30.6243H68.3666C68.4234 31.8914 68.7827 32.8748 69.5014 33.5935C70.2012 34.3121 71.1846 34.6526 72.4517 34.6526C73.4352 34.6526 74.3619 34.558 75.2507 34.35C76.1396 34.1419 77.0473 33.8204 77.9933 33.3665V36.8275C77.2178 37.2246 76.3854 37.5083 75.4966 37.6975C74.6077 37.9055 73.5297 38.0001 72.2437 38.0001ZM71.6196 24.2319C70.6739 24.2319 69.9364 24.5345 69.3879 25.1398C68.8584 25.7449 68.5369 26.596 68.4612 27.6929H74.7212C74.7022 26.596 74.4186 25.7449 73.8512 25.1398C73.2838 24.5345 72.5652 24.2319 71.6196 24.2319Z" fill="white" fill-opacity="0.5"/>
<path d="M85.8995 29.3553L80.6419 21.3555H85.7106L88.8881 26.5563L92.0839 21.3555H97.1151L91.8002 29.3553L97.3797 37.7146H92.311L88.8689 32.1165L85.4077 37.7146H80.3398L85.8995 29.3553Z" fill="white" fill-opacity="0.5"/>
<path d="M113.303 37.7148L111.752 32.6274H103.96L102.409 37.7148H97.5293L105.057 16.2305H110.598L118.182 37.6958H113.303V37.7148ZM110.674 28.8071C109.237 24.1925 108.442 21.5826 108.253 20.9774C108.064 20.3722 107.95 19.8994 107.875 19.5401C107.553 20.7883 106.627 23.871 105.113 28.8071H110.674Z" fill="white" fill-opacity="0.5"/>
<path d="M120.869 37.7159V16.3262H125.409V37.7159H120.869Z" fill="white" fill-opacity="0.5"/>
</svg>
