<svg xmlns="http://www.w3.org/2000/svg" width="120" height="31" viewBox="0 0 120 31" fill="none">
  <g clip-path="url(#clip0_1_1551)">
    <path d="M112.114 10.5195H110.999V6.15819H109.556V5.22363H113.557V6.15819H112.114V10.5195Z" fill="white" fill-opacity="0.5"/>
    <path d="M116.606 10.5195L115.328 6.37134H115.295C115.344 7.22393 115.36 7.78139 115.36 8.06011V10.5195H114.36V5.22363H115.885L117.131 9.27341H117.148L118.476 5.22363H120.001V10.5195H118.951V8.02732C118.951 7.91255 118.951 7.76499 118.951 7.61743C118.951 7.46987 118.968 7.05997 119 6.38774H118.968L117.639 10.5195H116.606Z" fill="white" fill-opacity="0.5"/>
    <path d="M8.70623 9.3732C7.23056 9.3732 6.08287 9.93066 5.26307 11.0456C4.44328 12.1605 4.04978 13.7017 4.04978 15.6856C4.04978 19.8174 5.60739 21.8832 8.70623 21.8832C10.0015 21.8832 11.5919 21.5553 13.4282 20.8995V24.1951C11.9034 24.8345 10.2147 25.146 8.32913 25.146C5.64018 25.146 3.5743 24.3263 2.14786 22.6866C0.721419 21.0471 0 18.7024 0 15.6364C0 13.7017 0.344313 12.0129 1.04934 10.5701C1.75436 9.12727 2.7545 8.01235 4.06618 7.24174C5.37784 6.47114 6.91903 6.07764 8.68979 6.07764C10.4934 6.07764 12.2969 6.52032 14.1168 7.3893L12.8708 10.6029C12.1821 10.275 11.4771 9.97985 10.7721 9.73391C10.0671 9.50437 9.37843 9.3732 8.70623 9.3732Z" fill="white" fill-opacity="0.5"/>
    <path d="M29.9565 17.8009C29.9565 20.1127 29.3499 21.9163 28.1366 23.2116C26.9233 24.5068 25.2181 25.1627 23.0539 25.1627C21.693 25.1627 20.4961 24.8675 19.4468 24.2609C18.4139 23.6706 17.6105 22.8016 17.053 21.6867C16.4955 20.5718 16.2168 19.2766 16.2168 17.7845C16.2168 15.4727 16.8234 13.6692 18.0368 12.3903C19.25 11.1114 20.9388 10.4556 23.1358 10.4556C24.4967 10.4556 25.6936 10.7507 26.7429 11.3409C27.7758 11.9312 28.5793 12.7838 29.1368 13.8823C29.6778 15.0136 29.9565 16.3089 29.9565 17.8009ZM20.1518 17.8009C20.1518 19.211 20.3813 20.2603 20.8404 20.9817C21.2995 21.7031 22.0537 22.0638 23.0866 22.0638C24.1196 22.0638 24.8574 21.7031 25.3165 20.9981C25.7756 20.2767 25.9887 19.2274 25.9887 17.8173C25.9887 16.4072 25.7592 15.3579 25.3001 14.6529C24.841 13.9479 24.1032 13.6035 23.0539 13.6035C22.021 13.6035 21.2831 13.9479 20.824 14.6529C20.365 15.3579 20.1518 16.3909 20.1518 17.8009Z" fill="white" fill-opacity="0.5"/>
    <path d="M41.072 10.4727C41.5967 10.4727 42.0394 10.5054 42.3837 10.5874L42.0886 14.2109C41.7771 14.129 41.3999 14.0798 40.9409 14.0798C39.7112 14.0798 38.7438 14.3913 38.0552 15.0307C37.3666 15.6701 37.0223 16.5555 37.0223 17.6869V24.901H33.1528V10.735H36.0877L36.6615 13.1124H36.8583C37.301 12.3254 37.8912 11.6696 38.6454 11.1941C39.3668 10.7186 40.1867 10.4727 41.072 10.4727Z" fill="white" fill-opacity="0.5"/>
    <path d="M50.9098 22.0808C51.582 22.0808 52.4017 21.9333 53.3363 21.6382V24.5238C52.369 24.9501 51.1885 25.1632 49.7784 25.1632C48.2372 25.1632 47.1059 24.7698 46.4009 23.9827C45.6959 23.1958 45.3351 22.0316 45.3351 20.4577V13.637H43.4824V11.9974L45.6139 10.7021L46.7288 7.70166H49.2046V10.7185H53.2051V13.637H49.2374V20.474C49.2374 21.0315 49.3849 21.425 49.6964 21.6874C50.008 21.9496 50.4178 22.0808 50.9098 22.0808Z" fill="white" fill-opacity="0.5"/>
    <path d="M62.6318 25.1634C60.3527 25.1634 58.5656 24.5403 57.2867 23.2779C56.0079 22.0153 55.3521 20.2282 55.3521 17.9328C55.3521 15.5554 55.9423 13.719 57.1392 12.4238C58.3197 11.1285 59.9756 10.4727 62.0579 10.4727C64.0582 10.4727 65.6158 11.0465 66.7306 12.1779C67.8458 13.3255 68.4033 14.8995 68.4033 16.8998V18.769H59.2706C59.3198 19.8675 59.6313 20.7201 60.2544 21.3431C60.861 21.9661 61.7136 22.2613 62.8121 22.2613C63.6647 22.2613 64.4681 22.1793 65.2387 21.999C66.0093 21.8186 66.7963 21.5398 67.6164 21.1464V24.1468C66.9441 24.4911 66.2225 24.7371 65.4519 24.901C64.6813 25.0814 63.7467 25.1634 62.6318 25.1634ZM62.0907 13.2272C61.2709 13.2272 60.6315 13.4895 60.156 14.0142C59.6969 14.5388 59.4182 15.2766 59.3526 16.2276H64.7797C64.7632 15.2766 64.5173 14.5388 64.0255 14.0142C63.5335 13.4895 62.9105 13.2272 62.0907 13.2272Z" fill="white" fill-opacity="0.5"/>
    <path d="M74.4703 17.6693L69.9123 10.7339H74.3065L77.0612 15.2427L79.8318 10.7339H84.1936L79.5859 17.6693L84.423 24.9163H80.0287L77.0446 20.0631L74.044 24.9163H69.6504L74.4703 17.6693Z" fill="white" fill-opacity="0.5"/>
    <path d="M98.2274 24.9163L96.8829 20.5058H90.1278L88.7832 24.9163H84.5527L91.0785 6.29053H95.8825L102.457 24.8998H98.2274V24.9163ZM95.9481 17.1938C94.7023 13.1932 94.0135 10.9306 93.8498 10.4059C93.6853 9.88122 93.5872 9.47132 93.5216 9.1598C93.2431 10.2419 92.4396 12.9145 91.1275 17.1938H95.9481Z" fill="white" fill-opacity="0.5"/>
    <path d="M104.787 24.9168V6.37305H108.723V24.9168H104.787Z" fill="white" fill-opacity="0.5"/>
  </g>
  <defs>
    <clipPath id="clip0_1_1551">
      <rect width="120" height="31" fill="white"/>
    </clipPath>
  </defs>
</svg>