<svg width="135" height="52" viewBox="0 0 135 52" fill="none" xmlns="http://www.w3.org/2000/svg">
<mask id="mask0_488_4773" style="mask-type:luminance" maskUnits="userSpaceOnUse" x="7" y="13" width="121" height="27">
<path d="M127.418 13H7.41797V39.064H127.418V13Z" fill="white"/>
</mask>
<g mask="url(#mask0_488_4773)">
<path d="M121.058 34.0701C121.058 32.3143 122.483 30.8896 124.238 30.8896C125.994 30.8896 127.418 32.3143 127.418 34.0701C127.418 35.8261 125.994 37.2499 124.238 37.2499C122.483 37.2499 121.058 35.8261 121.058 34.0701Z" fill="white" fill-opacity="0.5"/>
<path d="M19.6247 25.6474C19.6247 23.6329 19.2355 22.1383 18.457 21.1646C17.6774 20.192 16.4968 19.706 14.9092 19.706H13.2205V32.025H14.5126C16.2759 32.025 17.5679 31.5022 18.3908 30.4531C19.2125 29.4059 19.6247 27.8037 19.6247 25.6474ZM25.6471 25.4374C25.6471 29.1077 24.6607 31.9358 22.6875 33.9208C20.7144 35.9067 17.9407 36.8997 14.3652 36.8997H7.41797V14.9077H14.8503C18.2977 14.9077 20.9592 15.8105 22.8347 17.6152C24.7094 19.4209 25.6471 22.0268 25.6471 25.4374ZM44.8913 36.8996H50.4194V14.8153H44.8913V36.8996ZM58.1855 28.662C58.1855 30.07 58.3695 31.144 58.7369 31.882C59.105 32.6211 59.7214 32.9901 60.5883 32.9901C61.446 32.9901 62.0525 32.6211 62.406 31.882C62.7593 31.144 62.9351 30.07 62.9351 28.662C62.9351 27.2612 62.7565 26.2048 62.3986 25.4916C62.0397 24.7764 61.4277 24.4185 60.5599 24.4185C59.7113 24.4185 59.105 24.7747 58.7367 25.4833C58.3696 26.1928 58.1855 27.252 58.1855 28.662ZM68.5617 28.662C68.5617 31.3446 67.8586 33.4375 66.4487 34.9375C65.0399 36.4384 63.0676 37.1895 60.5322 37.1895C58.1009 37.1895 56.1654 36.4219 54.7288 34.8868C53.2904 33.3518 52.5717 31.2775 52.5717 28.6621C52.5717 25.9876 53.2758 23.9095 54.6856 22.428C56.0954 20.9462 58.0723 20.2054 60.6177 20.2054C62.1906 20.2054 63.5821 20.5488 64.7876 21.2343C65.9941 21.9198 66.9256 22.9019 67.5799 24.1812C68.2351 25.4585 68.5617 26.953 68.5617 28.662ZM70.7572 36.8996H76.2864V20.4953H70.7572V36.8996ZM70.757 18.5111H76.2864V14.8145H70.757V18.5111ZM87.4878 32.7156C88.2342 32.7156 89.1231 32.5259 90.1603 32.1496V36.2771C89.4153 36.6046 88.7061 36.8393 88.0329 36.9783C87.359 37.1191 86.5685 37.189 85.6641 37.189C83.8078 37.189 82.4695 36.7225 81.6478 35.791C80.8295 34.8598 80.4193 33.4297 80.4193 31.4999V24.7374H78.4831V20.4968H80.4193V16.3076L85.9908 15.3386V20.4967H89.5183V24.7375H85.9908V31.1225C85.9908 32.1845 86.4905 32.7156 87.4878 32.7156ZM100.284 32.7156C101.031 32.7156 101.92 32.5259 102.957 32.1496V36.2771C102.213 36.6046 101.503 36.8393 100.829 36.9783C100.154 37.1191 99.3671 37.189 98.4607 37.189C96.6044 37.189 95.2661 36.7225 94.4458 35.791C93.6261 34.8598 93.2159 33.4297 93.2159 31.4999V24.7374H91.2783V20.4968H93.2159V16.2442L98.7861 15.3386V20.4967H102.316V24.7375H98.7861V31.1225C98.7861 32.1845 99.2858 32.7156 100.284 32.7156ZM109.933 26.6636C110.008 25.7655 110.265 25.1073 110.703 24.6869C111.143 24.2671 111.686 24.0573 112.336 24.0573C113.045 24.0573 113.608 24.2929 114.026 24.7677C114.446 25.2398 114.665 25.8722 114.683 26.6636H109.933ZM117.73 22.1394C116.416 20.8511 114.552 20.2059 112.139 20.2059C109.604 20.2059 107.653 20.9467 106.285 22.4284C104.918 23.9101 104.235 26.0358 104.235 28.8061C104.235 31.4886 104.974 33.5575 106.448 35.0097C107.924 36.4619 109.995 37.1889 112.663 37.1889C113.944 37.1889 115.046 37.1015 115.971 36.9276C116.889 36.7556 117.778 36.4444 118.64 35.9953L117.791 32.2985C117.164 32.5545 116.568 32.7513 116.004 32.881C115.191 33.0698 114.299 33.1645 113.326 33.1645C112.261 33.1645 111.419 32.9041 110.803 32.3832C110.186 31.8615 109.858 31.1417 109.82 30.2251H119.702V27.7063C119.702 25.2831 119.045 23.4269 117.73 22.1394ZM32.9845 26.6636C33.06 25.7655 33.3169 25.1073 33.7549 24.6869C34.1938 24.2671 34.7376 24.0573 35.3884 24.0573C36.0951 24.0573 36.6584 24.2929 37.0772 24.7677C37.4976 25.2398 37.7157 25.8722 37.7351 26.6636H32.9845ZM40.7822 22.1394C39.4671 20.8511 37.6034 20.2059 35.1905 20.2059C32.6542 20.2059 30.7041 20.9467 29.3374 22.4284C27.9708 23.9101 27.2862 26.0358 27.2862 28.8061C27.2862 31.4886 28.0242 33.5575 29.5003 35.0097C30.9746 36.4619 33.0462 37.1889 35.7142 37.1889C36.9952 37.1889 38.0978 37.1015 39.0216 36.9276C39.9401 36.7556 40.8292 36.4444 41.6923 35.9953L40.842 32.2985C40.2152 32.5545 39.6189 32.7513 39.0565 32.881C38.2414 33.0698 37.3496 33.1645 36.3776 33.1645C35.3128 33.1645 34.4709 32.9041 33.8542 32.3832C33.2367 31.8615 32.9091 31.1417 32.8715 30.2251H42.7534V27.7063C42.7534 25.2831 42.0964 23.4269 40.7822 22.1394Z" fill="white" fill-opacity="0.5"/>
</g>
</svg>
