<svg width="98" height="33" viewBox="0 0 98 33" fill="none" xmlns="http://www.w3.org/2000/svg">
<g id="deloitte.svg" clip-path="url(#clip0_1_493)">
<g id="Clip path group">
<mask id="mask0_1_493" style="mask-type:luminance" maskUnits="userSpaceOnUse" x="0" y="5" width="98" height="22">
<g id="a">
<path id="Vector" d="M97.2589 5.78906H0.196289V26.8711H97.2589V5.78906Z" fill="white"/>
</g>
</mask>
<g mask="url(#mask0_1_493)">
<g id="Group">
<path id="Vector_2" d="M92.1143 22.8264C92.1143 21.4062 93.2669 20.2539 94.6867 20.2539C96.107 20.2539 97.2586 21.4062 97.2586 22.8264C97.2586 24.2467 96.107 25.3984 94.6867 25.3984C93.2669 25.3984 92.1143 24.2467 92.1143 22.8264Z" fill="white" fill-opacity="0.5"/>
<path id="Vector_3" d="M10.0698 16.0162C10.0698 14.3868 9.75498 13.1779 9.12528 12.3902C8.49465 11.6035 7.53976 11.2105 6.25557 11.2105H4.88973V21.1748H5.93483C7.36105 21.1748 8.40614 20.7519 9.07171 19.9033C9.73634 19.0563 10.0698 17.7603 10.0698 16.0162ZM14.941 15.8464C14.941 18.8151 14.1431 21.1026 12.5471 22.7082C10.9512 24.3145 8.7077 25.1177 5.81561 25.1177H0.196289V7.32929H6.20798C8.99642 7.32929 11.1492 8.0596 12.6662 9.51933C14.1826 10.9798 14.941 13.0877 14.941 15.8464ZM30.5068 25.1176H34.9782V7.25456H30.5068V25.1176ZM41.2599 18.4546C41.2599 19.5934 41.4087 20.4621 41.7059 21.0591C42.0036 21.6569 42.5022 21.9554 43.2034 21.9554C43.8972 21.9554 44.3878 21.6569 44.6736 21.0591C44.9594 20.4621 45.1016 19.5934 45.1016 18.4546C45.1016 17.3216 44.9572 16.467 44.6677 15.8902C44.3773 15.3117 43.8823 15.0222 43.1804 15.0222C42.494 15.0222 42.0036 15.3103 41.7058 15.8834C41.4088 16.4574 41.2599 17.3141 41.2599 18.4546ZM49.6527 18.4546C49.6527 20.6244 49.084 22.3172 47.9436 23.5305C46.8041 24.7446 45.2088 25.352 43.158 25.352C41.1914 25.352 39.6259 24.7312 38.4639 23.4895C37.3005 22.248 36.7191 20.5701 36.7191 18.4547C36.7191 16.2914 37.2886 14.6105 38.429 13.4121C39.5693 12.2136 41.1683 11.6144 43.2272 11.6144C44.4994 11.6144 45.6249 11.8921 46.6 12.4467C47.5759 13.0011 48.3293 13.7955 48.8586 14.8302C49.3886 15.8634 49.6527 17.0723 49.6527 18.4546ZM51.4286 25.1176H55.9009V11.8489H51.4286V25.1176ZM51.4284 10.2439H55.9009V7.25391H51.4284V10.2439ZM64.9612 21.7333C65.5649 21.7333 66.2839 21.5799 67.1229 21.2755V24.6141C66.5202 24.879 65.9466 25.0688 65.4021 25.1812C64.857 25.2952 64.2176 25.3517 63.4861 25.3517C61.9846 25.3517 60.9021 24.9744 60.2375 24.2209C59.5756 23.4677 59.2438 22.311 59.2438 20.75V15.2801H57.6777V11.8501H59.2438V8.46162L63.7504 7.67785V11.85H66.6036V15.2802H63.7504V20.4447C63.7504 21.3038 64.1545 21.7333 64.9612 21.7333ZM75.3118 21.7333C75.9156 21.7333 76.6345 21.5799 77.4735 21.2755V24.6141C76.8714 24.879 76.2972 25.0688 75.7521 25.1812C75.2065 25.2952 74.5698 25.3517 73.8367 25.3517C72.3352 25.3517 71.2527 24.9744 70.5892 24.2209C69.9262 23.4677 69.5944 22.311 69.5944 20.75V15.2801H68.0272V11.8501H69.5944V8.41034L74.0999 7.67785V11.85H76.9547V15.2802H74.0999V20.4447C74.0999 21.3038 74.504 21.7333 75.3118 21.7333ZM83.1163 16.8381C83.1772 16.1117 83.385 15.5794 83.7392 15.2393C84.0951 14.8998 84.5344 14.73 85.0597 14.73C85.6333 14.73 86.0885 14.9206 86.4268 15.3046C86.7668 15.6865 86.944 16.198 86.9582 16.8381H83.1163ZM89.4226 13.1787C88.3599 12.1367 86.8518 11.6148 84.9007 11.6148C82.8498 11.6148 81.2716 12.214 80.1655 13.4125C79.0599 14.6109 78.5072 16.3304 78.5072 18.5711C78.5072 20.7409 79.1049 22.4143 80.2976 23.5889C81.4909 24.7635 83.1662 25.3516 85.3241 25.3516C86.3605 25.3516 87.2522 25.2809 87.9996 25.1403C88.7426 25.0011 89.4615 24.7494 90.1591 24.3862L89.472 21.3959C88.9653 21.603 88.4827 21.7622 88.027 21.8671C87.3689 22.0198 86.6473 22.0964 85.8609 22.0964C84.9989 22.0964 84.3183 21.8858 83.8199 21.4645C83.3208 21.0425 83.0554 20.4603 83.0247 19.7189H91.0178V17.6815C91.0178 15.7216 90.4865 14.2201 89.4226 13.1787ZM20.8759 16.8381C20.937 16.1117 21.1448 15.5794 21.499 15.2393C21.854 14.8998 22.2939 14.73 22.8203 14.73C23.392 14.73 23.8476 14.9206 24.1863 15.3046C24.5264 15.6865 24.7028 16.198 24.7185 16.8381H20.8759ZM27.1831 13.1787C26.1194 12.1367 24.6119 11.6148 22.6603 11.6148C20.6087 11.6148 19.0314 12.214 17.926 13.4125C16.8205 14.6109 16.2668 16.3304 16.2668 18.5711C16.2668 20.7409 16.8638 22.4143 18.0577 23.5889C19.2502 24.7635 20.9258 25.3516 23.0839 25.3516C24.12 25.3516 25.0118 25.2809 25.7591 25.1403C26.502 25.0011 27.2211 24.7494 27.9193 24.3862L27.2315 21.3959C26.7245 21.603 26.2422 21.7622 25.7873 21.8671C25.128 22.0198 24.4066 22.0964 23.6204 22.0964C22.7592 22.0964 22.0782 21.8858 21.5794 21.4645C21.0799 21.0425 20.8149 20.4603 20.7845 19.7189H28.7776V17.6815C28.7776 15.7216 28.2461 14.2201 27.1831 13.1787Z" fill="white" fill-opacity="0.5"/>
</g>
</g>
</g>
</g>
<defs>
<clipPath id="clip0_1_493">
<rect width="97.0626" height="31.5454" fill="white" transform="translate(0.196289 0.707031)"/>
</clipPath>
</defs>
</svg>
