<svg width="160" height="52" viewBox="0 0 160 52" fill="none" xmlns="http://www.w3.org/2000/svg">
<path d="M48.538 18.6239C48.4694 18.4085 48.377 18.2156 48.261 18.0451C48.1474 17.8723 48.0114 17.7255 47.8528 17.6048C47.694 17.4817 47.513 17.3881 47.3094 17.3242C47.1082 17.2603 46.8868 17.2283 46.6454 17.2283C46.2358 17.2283 45.8664 17.3337 45.5374 17.5444C45.2082 17.7551 44.9478 18.064 44.7562 18.4712C44.5668 18.8761 44.472 19.372 44.472 19.9592C44.472 20.5487 44.568 21.047 44.7596 21.4542C44.9514 21.8614 45.2142 22.1703 45.548 22.381C45.8818 22.5917 46.2618 22.6971 46.688 22.6971C47.0832 22.6971 47.4278 22.6166 47.7214 22.4556C48.0172 22.2946 48.2458 22.0674 48.4066 21.7738C48.57 21.4779 48.6518 21.1299 48.6518 20.7298L48.9358 20.783H46.8548V19.8775H49.7136V20.7049C49.7136 21.3157 49.5832 21.846 49.3228 22.2958C49.0648 22.7433 48.7074 23.0889 48.2504 23.3327C47.7958 23.5766 47.275 23.6985 46.688 23.6985C46.0298 23.6985 45.4522 23.547 44.955 23.244C44.4602 22.9409 44.0744 22.5112 43.7974 21.9549C43.5204 21.3962 43.3818 20.7333 43.3818 19.9663C43.3818 19.3862 43.4624 18.8654 43.6234 18.4038C43.7842 17.9421 44.0104 17.5503 44.3016 17.2283C44.5952 16.904 44.9396 16.6566 45.335 16.4862C45.7326 16.3133 46.1672 16.2269 46.6382 16.2269C47.0312 16.2269 47.397 16.2849 47.7356 16.4009C48.0764 16.5169 48.3794 16.6815 48.6446 16.8945C48.9122 17.1076 49.1334 17.3609 49.3086 17.6545C49.4838 17.9457 49.6022 18.2688 49.6638 18.6239H48.538ZM51.1064 23.5991V16.3264H55.666V17.271H52.2038V19.4869H55.4282V20.4279H52.2038V22.6545H55.7088V23.5991H51.1064ZM62.1328 23.5991H59.7784V16.3264H62.2072C62.9198 16.3264 63.5318 16.4719 64.0432 16.7631C64.5546 17.052 64.9464 17.4675 65.2186 18.0096C65.4932 18.5494 65.6306 19.1969 65.6306 19.9521C65.6306 20.7096 65.492 21.3607 65.2152 21.9052C64.9404 22.4497 64.5428 22.8687 64.022 23.1623C63.501 23.4535 62.8714 23.5991 62.1328 23.5991ZM60.8756 22.6403H62.0724C62.6264 22.6403 63.0868 22.5361 63.4538 22.3278C63.8206 22.1171 64.0954 21.8129 64.2776 21.4151C64.4598 21.015 64.551 20.5273 64.551 19.9521C64.551 19.3815 64.4598 18.8974 64.2776 18.4996C64.0976 18.1019 63.829 17.8001 63.4714 17.5941C63.114 17.3881 62.6702 17.2852 62.1398 17.2852H60.8756V22.6403ZM66.9098 23.5991V18.1445H67.9716V23.5991H66.9098ZM67.4462 17.3029C67.2614 17.3029 67.1028 17.2414 66.9702 17.1183C66.84 16.9928 66.775 16.8436 66.775 16.6708C66.775 16.4956 66.84 16.3465 66.9702 16.2234C67.1028 16.0979 67.2614 16.0352 67.4462 16.0352C67.6308 16.0352 67.7882 16.0979 67.9184 16.2234C68.051 16.3465 68.1172 16.4956 68.1172 16.6708C68.1172 16.8436 68.051 16.9928 67.9184 17.1183C67.7882 17.2414 67.6308 17.3029 67.4462 17.3029ZM71.687 25.7582C71.2538 25.7582 70.881 25.7014 70.5684 25.5877C70.2584 25.4741 70.005 25.3237 69.8084 25.1367C69.612 24.9497 69.4652 24.7449 69.3682 24.5224L70.2808 24.146C70.3448 24.2501 70.43 24.3602 70.5364 24.4762C70.6454 24.5946 70.7922 24.6952 70.9768 24.7781C71.1638 24.8609 71.4042 24.9023 71.6978 24.9023C72.1002 24.9023 72.4328 24.8041 72.6956 24.6076C72.9584 24.4135 73.0898 24.1033 73.0898 23.6772V22.6048H73.0222C72.9584 22.7208 72.866 22.8498 72.7452 22.9918C72.627 23.1339 72.4636 23.257 72.2552 23.3612C72.0468 23.4653 71.7758 23.5174 71.442 23.5174C71.0112 23.5174 70.6228 23.4168 70.2772 23.2156C69.934 23.012 69.6618 22.7125 69.4604 22.3171C69.2616 21.9194 69.1622 21.4305 69.1622 20.8505C69.1622 20.2705 69.2604 19.7733 69.457 19.359C69.6558 18.9447 69.928 18.6275 70.2736 18.4073C70.6194 18.1848 71.0112 18.0735 71.4492 18.0735C71.7876 18.0735 72.0612 18.1303 72.2694 18.244C72.4778 18.3552 72.64 18.4854 72.756 18.6346C72.8744 18.7837 72.9654 18.9151 73.0294 19.0288H73.1076V18.1445H74.148V23.7198C74.148 24.1886 74.039 24.5733 73.8212 24.8739C73.6034 25.1746 73.3088 25.3971 72.937 25.5416C72.5678 25.686 72.151 25.7582 71.687 25.7582ZM71.6764 22.6367C71.9818 22.6367 72.2398 22.5657 72.4506 22.4237C72.6636 22.2792 72.8246 22.0733 72.9334 21.8058C73.0448 21.5359 73.1004 21.2127 73.1004 20.8363C73.1004 20.4693 73.046 20.1462 72.937 19.8668C72.8282 19.5875 72.6684 19.3697 72.4576 19.2134C72.247 19.0548 71.9866 18.9755 71.6764 18.9755C71.3568 18.9755 71.0904 19.0584 70.8774 19.2241C70.6644 19.3874 70.5034 19.61 70.3944 19.8917C70.288 20.1734 70.2346 20.4883 70.2346 20.8363C70.2346 21.1938 70.289 21.5075 70.398 21.7773C70.5068 22.0472 70.6678 22.2579 70.881 22.4094C71.0964 22.561 71.3616 22.6367 71.6764 22.6367ZM75.572 23.5991V18.1445H76.6338V23.5991H75.572ZM76.1082 17.3029C75.9236 17.3029 75.765 17.2414 75.6324 17.1183C75.5022 16.9928 75.437 16.8436 75.437 16.6708C75.437 16.4956 75.5022 16.3465 75.6324 16.2234C75.765 16.0979 75.9236 16.0352 76.1082 16.0352C76.2928 16.0352 76.4504 16.0979 76.5806 16.2234C76.713 16.3465 76.7794 16.4956 76.7794 16.6708C76.7794 16.8436 76.713 16.9928 76.5806 17.1183C76.4504 17.2414 76.2928 17.3029 76.1082 17.3029ZM80.6084 18.1445V18.9968H77.629V18.1445H80.6084ZM78.428 16.8377H79.4898V21.9975C79.4898 22.2035 79.5206 22.3585 79.5822 22.4627C79.6436 22.5645 79.723 22.6344 79.82 22.6722C79.9194 22.7077 80.0272 22.7255 80.1432 22.7255C80.2284 22.7255 80.303 22.7196 80.367 22.7077C80.4308 22.6959 80.4806 22.6864 80.516 22.6793L80.7078 23.5565C80.6462 23.5801 80.5586 23.6038 80.445 23.6275C80.3314 23.6535 80.1894 23.6677 80.019 23.6701C79.7396 23.6748 79.4792 23.6251 79.2376 23.521C78.9962 23.4168 78.8008 23.2558 78.6518 23.038C78.5026 22.8202 78.428 22.5468 78.428 22.2177V16.8377ZM83.3702 23.7198C83.0246 23.7198 82.7122 23.6559 82.4328 23.5281C82.1534 23.3978 81.932 23.2096 81.7688 22.9634C81.6078 22.7172 81.5272 22.4154 81.5272 22.0579C81.5272 21.7501 81.5864 21.4968 81.7048 21.2979C81.8232 21.0991 81.983 20.9416 82.1842 20.8256C82.3854 20.7096 82.6104 20.622 82.859 20.5629C83.1076 20.5037 83.3608 20.4587 83.6188 20.4279C83.9456 20.39 84.2108 20.3593 84.4144 20.3356C84.618 20.3095 84.7658 20.2681 84.8582 20.2113C84.9506 20.1545 84.9968 20.0621 84.9968 19.9343V19.9094C84.9968 19.5993 84.9092 19.359 84.734 19.1886C84.5612 19.0181 84.303 18.9329 83.9598 18.9329C83.6022 18.9329 83.3206 19.0122 83.1146 19.1708C82.911 19.3271 82.7702 19.5011 82.692 19.6928L81.6942 19.4656C81.8126 19.1341 81.9854 18.8666 82.2126 18.663C82.4422 18.457 82.7062 18.3079 83.0046 18.2156C83.3028 18.1209 83.6166 18.0735 83.9456 18.0735C84.1634 18.0735 84.3942 18.0996 84.638 18.1516C84.8842 18.2014 85.1138 18.2937 85.327 18.4286C85.5424 18.5636 85.7188 18.7565 85.856 19.0075C85.9934 19.256 86.062 19.5792 86.062 19.9769V23.5991H85.0252V22.8533H84.9826C84.9138 22.9907 84.8108 23.1256 84.6736 23.2582C84.5362 23.3907 84.3598 23.5008 84.1444 23.5884C83.929 23.676 83.671 23.7198 83.3702 23.7198ZM83.6012 22.8675C83.8946 22.8675 84.1456 22.8095 84.354 22.6935C84.5646 22.5775 84.7244 22.426 84.8334 22.239C84.9446 22.0496 85.0002 21.8472 85.0002 21.6318V20.9286C84.9624 20.9665 84.889 21.002 84.78 21.0352C84.6736 21.0659 84.5516 21.0932 84.4144 21.1168C84.277 21.1381 84.1432 21.1583 84.013 21.1772C83.8828 21.1938 83.774 21.208 83.6864 21.2198C83.4804 21.2459 83.2922 21.2897 83.1218 21.3512C82.9536 21.4128 82.8186 21.5015 82.7168 21.6175C82.6174 21.7312 82.5678 21.8827 82.5678 22.0721C82.5678 22.3349 82.6648 22.5337 82.859 22.6687C83.053 22.8013 83.3004 22.8675 83.6012 22.8675ZM88.538 16.3264V23.5991H87.4762V16.3264H88.538ZM48.538 31.8239C48.4694 31.6085 48.377 31.4156 48.261 31.2451C48.1474 31.0723 48.0114 30.9255 47.8528 30.8048C47.694 30.6817 47.513 30.5881 47.3094 30.5242C47.1082 30.4603 46.8868 30.4283 46.6454 30.4283C46.2358 30.4283 45.8664 30.5337 45.5374 30.7444C45.2082 30.9551 44.9478 31.264 44.7562 31.6712C44.5668 32.0761 44.472 32.5721 44.472 33.1591C44.472 33.7487 44.568 34.2471 44.7596 34.6543C44.9514 35.0615 45.2142 35.3703 45.548 35.5811C45.8818 35.7917 46.2618 35.8971 46.688 35.8971C47.0832 35.8971 47.4278 35.8167 47.7214 35.6557C48.0172 35.4947 48.2458 35.2673 48.4066 34.9739C48.57 34.6779 48.6518 34.3299 48.6518 33.9297L48.9358 33.9831H46.8548V33.0775H49.7136V33.9049C49.7136 34.5157 49.5832 35.0461 49.3228 35.4959C49.0648 35.9433 48.7074 36.2889 48.2504 36.5327C47.7958 36.7767 47.275 36.8985 46.688 36.8985C46.0298 36.8985 45.4522 36.7471 44.955 36.4439C44.4602 36.1409 44.0744 35.7113 43.7974 35.1549C43.5204 34.5963 43.3818 33.9333 43.3818 33.1663C43.3818 32.5863 43.4624 32.0655 43.6234 31.6038C43.7842 31.1421 44.0104 30.7503 44.3016 30.4283C44.5952 30.104 44.9396 29.8566 45.335 29.6862C45.7326 29.5133 46.1672 29.4269 46.6382 29.4269C47.0312 29.4269 47.397 29.4849 47.7356 29.6009C48.0764 29.7169 48.3794 29.8815 48.6446 30.0945C48.9122 30.3076 49.1334 30.5609 49.3086 30.8545C49.4838 31.1457 49.6022 31.4688 49.6638 31.8239H48.538ZM51.1064 36.7991V29.5264H55.666V30.471H52.2038V32.6869H55.4282V33.6279H52.2038V35.8545H55.7088V36.7991H51.1064ZM62.4248 36.7991V29.5264H65.0172C65.5806 29.5264 66.0482 29.6234 66.4198 29.8175C66.7938 30.0117 67.0732 30.2804 67.2578 30.6237C67.4426 30.9646 67.5348 31.3587 67.5348 31.8062C67.5348 32.2513 67.4414 32.6431 67.2544 32.9817C67.0696 33.3179 66.7904 33.5795 66.4162 33.7665C66.0446 33.9535 65.577 34.0469 65.0136 34.0469H63.0498V33.1023H64.9142C65.2692 33.1023 65.558 33.0515 65.7806 32.9497C66.0056 32.8479 66.17 32.6999 66.2742 32.5057C66.3784 32.3117 66.4304 32.0785 66.4304 31.8062C66.4304 31.5316 66.3772 31.2936 66.2706 31.0924C66.1666 30.8912 66.002 30.7373 65.777 30.6308C65.5546 30.5219 65.2622 30.4674 64.9 30.4674H63.5222V36.7991H62.4248ZM66.015 33.5179L67.8118 36.7991H66.5618L64.8006 33.5179H66.015ZM71.0674 36.9091C70.53 36.9091 70.0672 36.7943 69.6788 36.5647C69.293 36.3327 68.9946 36.0071 68.784 35.5881C68.5756 35.1667 68.4714 34.6731 68.4714 34.1073C68.4714 33.5487 68.5756 33.0563 68.784 32.6301C68.9946 32.2039 69.2882 31.8713 69.6646 31.6322C70.0434 31.3931 70.4862 31.2735 70.9928 31.2735C71.3006 31.2735 71.5988 31.3244 71.8876 31.4262C72.1766 31.528 72.4358 31.6878 72.6654 31.9056C72.895 32.1235 73.0762 32.4063 73.2088 32.7543C73.3412 33.0999 73.4076 33.5203 73.4076 34.0151V34.3915H69.0716V33.5959H72.367C72.367 33.3167 72.3102 33.0693 72.1966 32.8537C72.083 32.6359 71.9232 32.4643 71.7172 32.3389C71.5136 32.2133 71.2746 32.1507 71 32.1507C70.7016 32.1507 70.4412 32.2241 70.2186 32.3709C69.9984 32.5153 69.828 32.7047 69.7072 32.9391C69.589 33.1711 69.5298 33.4231 69.5298 33.6955V34.3169C69.5298 34.6815 69.5936 34.9915 69.7214 35.2473C69.8518 35.5029 70.0328 35.6983 70.2648 35.8331C70.4968 35.9657 70.7678 36.0321 71.078 36.0321C71.2792 36.0321 71.4628 36.0037 71.6284 35.9469C71.7942 35.8877 71.9374 35.8001 72.0582 35.6841C72.1788 35.5681 72.2712 35.4249 72.3352 35.2543L73.3402 35.4355C73.2596 35.7313 73.1152 35.9907 72.9068 36.2131C72.701 36.4333 72.4416 36.6049 72.1292 36.7281C71.819 36.8489 71.4652 36.9091 71.0674 36.9091ZM75.6474 33.5605V36.7991H74.5856V31.3445H75.6048V32.2323H75.6724C75.7978 31.9435 75.9942 31.7115 76.2618 31.5363C76.5316 31.3611 76.8714 31.2735 77.281 31.2735C77.6526 31.2735 77.9782 31.3516 78.2576 31.5079C78.5368 31.6618 78.7536 31.8914 78.9074 32.1969C79.0612 32.5023 79.1382 32.8799 79.1382 33.3297V36.7991H78.0764V33.4575C78.0764 33.0621 77.9734 32.7531 77.7674 32.5307C77.5616 32.3057 77.2786 32.1933 76.9188 32.1933C76.6726 32.1933 76.4536 32.2465 76.2618 32.3531C76.0724 32.4597 75.922 32.6159 75.8108 32.8219C75.702 33.0255 75.6474 33.2717 75.6474 33.5605ZM82.913 36.9091C82.3756 36.9091 81.9128 36.7943 81.5246 36.5647C81.1386 36.3327 80.8404 36.0071 80.6296 35.5881C80.4214 35.1667 80.3172 34.6731 80.3172 34.1073C80.3172 33.5487 80.4214 33.0563 80.6296 32.6301C80.8404 32.2039 81.134 31.8713 81.5104 31.6322C81.8892 31.3931 82.3318 31.2735 82.8386 31.2735C83.1462 31.2735 83.4446 31.3244 83.7334 31.4262C84.0222 31.528 84.2814 31.6878 84.511 31.9056C84.7408 32.1235 84.9218 32.4063 85.0544 32.7543C85.187 33.0999 85.2532 33.5203 85.2532 34.0151V34.3915H80.9174V33.5959H84.2128C84.2128 33.3167 84.156 33.0693 84.0424 32.8537C83.9288 32.6359 83.769 32.4643 83.563 32.3389C83.3594 32.2133 83.1202 32.1507 82.8456 32.1507C82.5474 32.1507 82.2868 32.2241 82.0644 32.3709C81.8442 32.5153 81.6738 32.7047 81.553 32.9391C81.4346 33.1711 81.3754 33.4231 81.3754 33.6955V34.3169C81.3754 34.6815 81.4394 34.9915 81.5672 35.2473C81.6974 35.5029 81.8786 35.6983 82.1106 35.8331C82.3426 35.9657 82.6136 36.0321 82.9238 36.0321C83.125 36.0321 83.3084 36.0037 83.4742 35.9469C83.6398 35.8877 83.7832 35.8001 83.9038 35.6841C84.0246 35.5681 84.117 35.4249 84.1808 35.2543L85.1858 35.4355C85.1054 35.7313 84.961 35.9907 84.7526 36.2131C84.5466 36.4333 84.2874 36.6049 83.9748 36.7281C83.6648 36.8489 83.3108 36.9091 82.913 36.9091ZM87.6042 36.7991L85.999 31.3445H87.0964L88.1652 35.3503H88.2184L89.291 31.3445H90.3882L91.4536 35.3325H91.5068L92.5686 31.3445H93.666L92.0644 36.7991H90.9812L89.8734 32.8609H89.7916L88.6836 36.7991H87.6042ZM96.261 36.9199C95.9152 36.9199 95.6028 36.8559 95.3234 36.7281C95.044 36.5979 94.8228 36.4097 94.6594 36.1635C94.4984 35.9173 94.4178 35.6153 94.4178 35.2579C94.4178 34.9501 94.477 34.6969 94.5954 34.4979C94.7138 34.2991 94.8736 34.1417 95.0748 34.0257C95.276 33.9097 95.501 33.8221 95.7496 33.7629C95.9982 33.7037 96.2514 33.6587 96.5094 33.6279C96.8362 33.5901 97.1014 33.5593 97.305 33.5357C97.5086 33.5095 97.6566 33.4681 97.7488 33.4113C97.8412 33.3545 97.8874 33.2621 97.8874 33.1343V33.1095C97.8874 32.7993 97.7998 32.5591 97.6246 32.3885C97.4518 32.2181 97.1936 32.1329 96.8504 32.1329C96.493 32.1329 96.2112 32.2123 96.0052 32.3709C95.8016 32.5271 95.6608 32.7011 95.5826 32.8929L94.5848 32.6655C94.7032 32.3341 94.876 32.0667 95.1032 31.863C95.3328 31.657 95.5968 31.5079 95.8952 31.4156C96.1934 31.3209 96.5072 31.2735 96.8362 31.2735C97.054 31.2735 97.2848 31.2996 97.5286 31.3516C97.7748 31.4014 98.0046 31.4937 98.2176 31.6286C98.433 31.7636 98.6094 31.9565 98.7468 32.2075C98.884 32.4561 98.9526 32.7793 98.9526 33.1769V36.7991H97.9158V36.0533H97.8732C97.8044 36.1907 97.7014 36.3257 97.5642 36.4581C97.4268 36.5907 97.2504 36.7009 97.035 36.7885C96.8196 36.8761 96.5616 36.9199 96.261 36.9199ZM96.4918 36.0675C96.7852 36.0675 97.0362 36.0095 97.2446 35.8935C97.4552 35.7775 97.615 35.6261 97.724 35.4391C97.8352 35.2497 97.8908 35.0473 97.8908 34.8317V34.1287C97.853 34.1665 97.7796 34.2021 97.6708 34.2351C97.5642 34.2659 97.4422 34.2931 97.305 34.3169C97.1676 34.3381 97.0338 34.3583 96.9036 34.3773C96.7734 34.3937 96.6646 34.4081 96.577 34.4199C96.371 34.4459 96.1828 34.4897 96.0124 34.5513C95.8442 34.6127 95.7094 34.7015 95.6076 34.8175C95.508 34.9313 95.4584 35.0827 95.4584 35.2721C95.4584 35.5349 95.5554 35.7337 95.7496 35.8687C95.9436 36.0013 96.191 36.0675 96.4918 36.0675ZM100.452 36.7991V29.5264H101.514V32.2287H101.578C101.639 32.1151 101.728 31.9837 101.844 31.8346C101.96 31.6854 102.121 31.5552 102.327 31.444C102.533 31.3303 102.805 31.2735 103.144 31.2735C103.584 31.2735 103.977 31.3848 104.323 31.6073C104.669 31.8299 104.94 32.1507 105.136 32.5697C105.335 32.9887 105.434 33.4929 105.434 34.0825C105.434 34.6719 105.336 35.1775 105.14 35.5989C104.943 36.0179 104.673 36.3411 104.33 36.5683C103.987 36.7931 103.595 36.9057 103.155 36.9057C102.823 36.9057 102.552 36.8499 102.341 36.7387C102.133 36.6275 101.97 36.4973 101.851 36.3481C101.733 36.1989 101.642 36.0663 101.578 35.9503H101.489V36.7991H100.452ZM101.493 34.0719C101.493 34.4553 101.548 34.7915 101.66 35.0803C101.771 35.3691 101.932 35.5953 102.142 35.7587C102.353 35.9197 102.611 36.0001 102.917 36.0001C103.234 36.0001 103.499 35.9161 103.712 35.7479C103.925 35.5775 104.086 35.3467 104.195 35.0555C104.306 34.7643 104.362 34.4365 104.362 34.0719C104.362 33.7119 104.307 33.3889 104.199 33.1023C104.092 32.8159 103.931 32.5899 103.716 32.4241C103.503 32.2583 103.236 32.1755 102.917 32.1755C102.609 32.1755 102.348 32.2549 102.135 32.4135C101.925 32.5721 101.765 32.7935 101.656 33.0775C101.547 33.3615 101.493 33.6931 101.493 34.0719ZM107.688 29.5264V36.7991H106.627V29.5264H107.688ZM111.468 36.9091C110.93 36.9091 110.468 36.7943 110.079 36.5647C109.693 36.3327 109.395 36.0071 109.184 35.5881C108.976 35.1667 108.872 34.6731 108.872 34.1073C108.872 33.5487 108.976 33.0563 109.184 32.6301C109.395 32.2039 109.689 31.8713 110.065 31.6322C110.444 31.3931 110.887 31.2735 111.393 31.2735C111.701 31.2735 111.999 31.3244 112.288 31.4262C112.577 31.528 112.836 31.6878 113.066 31.9056C113.295 32.1235 113.477 32.4063 113.609 32.7543C113.742 33.0999 113.808 33.5203 113.808 34.0151V34.3915H109.472V33.5959H112.767C112.767 33.3167 112.711 33.0693 112.597 32.8537C112.483 32.6359 112.324 32.4643 112.118 32.3389C111.914 32.2133 111.675 32.1507 111.4 32.1507C111.102 32.1507 110.842 32.2241 110.619 32.3709C110.399 32.5153 110.228 32.7047 110.108 32.9391C109.989 33.1711 109.93 33.4231 109.93 33.6955V34.3169C109.93 34.6815 109.994 34.9915 110.122 35.2473C110.252 35.5029 110.433 35.6983 110.665 35.8331C110.897 35.9657 111.168 36.0321 111.478 36.0321C111.68 36.0321 111.863 36.0037 112.029 35.9469C112.195 35.8877 112.338 35.8001 112.459 35.6841C112.579 35.5681 112.672 35.4249 112.736 35.2543L113.74 35.4355C113.66 35.7313 113.516 35.9907 113.307 36.2131C113.101 36.4333 112.842 36.6049 112.53 36.7281C112.219 36.8489 111.865 36.9091 111.468 36.9091ZM117.718 36.7991V29.5264H122.277V30.471H118.815V32.6869H122.04V33.6279H118.815V35.8545H122.32V36.7991H117.718ZM124.72 33.5605V36.7991H123.658V31.3445H124.677V32.2323H124.745C124.87 31.9435 125.067 31.7115 125.334 31.5363C125.604 31.3611 125.944 31.2735 126.353 31.2735C126.725 31.2735 127.05 31.3516 127.33 31.5079C127.609 31.6618 127.826 31.8914 127.98 32.1969C128.134 32.5023 128.21 32.8799 128.21 33.3297V36.7991H127.149V33.4575C127.149 33.0621 127.046 32.7531 126.84 32.5307C126.634 32.3057 126.351 32.1933 125.991 32.1933C125.745 32.1933 125.526 32.2465 125.334 32.3531C125.145 32.4597 124.994 32.6159 124.883 32.8219C124.774 33.0255 124.72 33.2717 124.72 33.5605ZM131.985 36.9091C131.448 36.9091 130.985 36.7943 130.597 36.5647C130.211 36.3327 129.913 36.0071 129.702 35.5881C129.494 35.1667 129.389 34.6731 129.389 34.1073C129.389 33.5487 129.494 33.0563 129.702 32.6301C129.913 32.2039 130.206 31.8713 130.583 31.6322C130.961 31.3931 131.404 31.2735 131.911 31.2735C132.219 31.2735 132.517 31.3244 132.806 31.4262C133.094 31.528 133.354 31.6878 133.583 31.9056C133.813 32.1235 133.994 32.4063 134.127 32.7543C134.259 33.0999 134.326 33.5203 134.326 34.0151V34.3915H129.99V33.5959H133.285C133.285 33.3167 133.228 33.0693 133.115 32.8537C133.001 32.6359 132.841 32.4643 132.635 32.3389C132.432 32.2133 132.192 32.1507 131.918 32.1507C131.62 32.1507 131.359 32.2241 131.137 32.3709C130.916 32.5153 130.746 32.7047 130.625 32.9391C130.507 33.1711 130.448 33.4231 130.448 33.6955V34.3169C130.448 34.6815 130.512 34.9915 130.639 35.2473C130.77 35.5029 130.951 35.6983 131.183 35.8331C131.415 35.9657 131.686 36.0321 131.996 36.0321C132.197 36.0321 132.381 36.0037 132.546 35.9469C132.712 35.8877 132.855 35.8001 132.976 35.6841C133.097 35.5681 133.189 35.4249 133.253 35.2543L134.258 35.4355C134.178 35.7313 134.033 35.9907 133.825 36.2131C133.619 36.4333 133.36 36.6049 133.047 36.7281C132.737 36.8489 132.383 36.9091 131.985 36.9091ZM135.504 36.7991V31.3445H136.53V32.2111H136.587C136.686 31.9175 136.861 31.6866 137.112 31.5185C137.366 31.3481 137.652 31.2629 137.972 31.2629C138.038 31.2629 138.116 31.2652 138.206 31.27C138.298 31.2747 138.371 31.2806 138.423 31.2877V32.3033C138.38 32.2915 138.304 32.2785 138.195 32.2643C138.086 32.2477 137.978 32.2395 137.869 32.2395C137.618 32.2395 137.394 32.2927 137.198 32.3993C137.003 32.5035 136.85 32.6491 136.736 32.8361C136.622 33.0207 136.565 33.2313 136.565 33.4681V36.7991H135.504ZM141.433 38.9581C141 38.9581 140.627 38.9013 140.315 38.7877C140.004 38.6741 139.751 38.5237 139.555 38.3367C139.358 38.1497 139.211 37.9449 139.114 37.7223L140.027 37.3459C140.091 37.4501 140.176 37.5603 140.283 37.6763C140.391 37.7947 140.538 37.8953 140.723 37.9781C140.91 38.0609 141.15 38.1023 141.444 38.1023C141.846 38.1023 142.179 38.0041 142.442 37.8077C142.704 37.6135 142.836 37.3033 142.836 36.8773V35.8047H142.768C142.704 35.9207 142.612 36.0499 142.491 36.1919C142.373 36.3339 142.21 36.4571 142.001 36.5611C141.793 36.6653 141.522 36.7175 141.188 36.7175C140.757 36.7175 140.369 36.6169 140.023 36.4155C139.68 36.2119 139.408 35.9125 139.207 35.5171C139.008 35.1195 138.908 34.6305 138.908 34.0505C138.908 33.4705 139.007 32.9733 139.203 32.5591C139.402 32.1447 139.674 31.8275 140.02 31.6073C140.365 31.3848 140.757 31.2735 141.195 31.2735C141.534 31.2735 141.807 31.3303 142.016 31.444C142.224 31.5552 142.386 31.6854 142.502 31.8346C142.62 31.9837 142.712 32.1151 142.775 32.2287H142.854V31.3445H143.894V36.9199C143.894 37.3885 143.785 37.7733 143.567 38.0739C143.35 38.3747 143.055 38.5971 142.683 38.7415C142.314 38.8859 141.897 38.9581 141.433 38.9581ZM141.422 35.8367C141.728 35.8367 141.986 35.7657 142.197 35.6237C142.41 35.4793 142.571 35.2733 142.68 35.0057C142.791 34.7359 142.846 34.4127 142.846 34.0363C142.846 33.6693 142.792 33.3463 142.683 33.0669C142.574 32.7875 142.414 32.5697 142.204 32.4135C141.993 32.2549 141.733 32.1755 141.422 32.1755C141.103 32.1755 140.837 32.2583 140.623 32.4241C140.41 32.5875 140.249 32.8099 140.141 33.0917C140.034 33.3735 139.981 33.6883 139.981 34.0363C139.981 34.3937 140.035 34.7075 140.144 34.9773C140.253 35.2473 140.414 35.4579 140.627 35.6095C140.842 35.7609 141.108 35.8367 141.422 35.8367ZM145.989 38.8445C145.831 38.8445 145.686 38.8315 145.556 38.8055C145.426 38.7819 145.329 38.7557 145.265 38.7273L145.521 37.8573C145.715 37.9095 145.887 37.9319 146.039 37.9249C146.19 37.9177 146.324 37.8609 146.44 37.7543C146.559 37.6479 146.663 37.4739 146.753 37.2323L146.884 36.8701L144.888 31.3445H146.025L147.406 35.5775H147.463L148.844 31.3445H149.984L147.736 37.5271C147.632 37.8111 147.5 38.0515 147.339 38.2479C147.178 38.4469 146.986 38.5959 146.763 38.6955C146.541 38.7949 146.283 38.8445 145.989 38.8445Z" fill="white" fill-opacity="0.5"/>
<path fill-rule="evenodd" clip-rule="evenodd" d="M38.418 26.5C38.418 18.5047 31.9134 12 23.918 12C15.9234 12 9.41797 18.5047 9.41797 26.5C9.41797 34.5222 15.9234 41 23.918 41C31.9134 41 38.418 34.5222 38.418 26.5ZM37.727 26.5C37.727 34.1328 31.5508 40.3084 23.918 40.3084C16.2859 40.3084 10.1031 34.1328 10.1031 26.5C10.1031 18.8672 16.2859 12.6844 23.918 12.6844C31.5508 12.6844 37.727 18.9078 37.727 26.5ZM36.8476 26.5C36.8476 21.9151 34.511 17.1758 29.4962 15.6583C28.4565 15.3364 27.577 15.1349 26.5628 15.1349C24.2406 15.1349 24.1601 16.4573 23.0726 16.4573C22.4752 16.4573 22.0721 16.0208 22.0721 15.4974C22.0721 14.5781 23.1596 13.8531 24.8851 13.8531C26.4961 13.8531 27.738 14.2555 27.9729 14.37L28.0128 14.2555C27.577 14.088 26.0531 13.5638 23.9252 13.5638C19.2997 13.5638 14.6003 15.9404 13.0836 20.9153C12.7609 21.955 12.5529 22.8482 12.5529 23.8487C12.5529 26.1846 13.8753 26.2919 13.8753 27.3794C13.8785 27.507 13.856 27.6339 13.809 27.7526C13.7621 27.8713 13.6918 27.9793 13.6022 28.0702C13.5126 28.1611 13.4056 28.233 13.2876 28.2816C13.1696 28.3302 13.043 28.3545 12.9154 28.3531C11.9961 28.3531 11.2711 27.299 11.2711 25.5329C11.2711 23.9292 11.6734 22.68 11.7474 22.4451L11.6336 22.4052C11.506 22.8888 10.9825 24.3787 10.9825 26.5065C10.9825 31.1654 13.3591 35.8648 18.3333 37.3888C19.3802 37.7106 20.2661 37.905 21.2666 37.905C23.6026 37.905 23.67 36.542 24.7575 36.542C25.3281 36.542 25.7711 36.9856 25.7711 37.5424C25.7711 38.4292 24.7169 39.1542 22.9515 39.1542C21.3471 39.1542 20.0588 38.751 19.863 38.6706L19.8232 38.7916C20.2661 38.986 21.7966 39.4362 23.9252 39.4362C28.5435 39.4362 33.2828 37.0994 34.7662 32.0846C35.0888 31.0849 35.2832 30.1656 35.2832 29.1919C35.2832 26.8284 33.9608 26.7414 33.9608 25.6612C33.9608 25.0638 34.3638 24.6607 34.9206 24.6607C35.8472 24.6607 36.5722 25.7482 36.5722 27.5135C36.5722 29.0846 36.169 30.3266 36.0886 30.6021L36.2096 30.6419C36.364 30.1583 36.8476 28.6685 36.8476 26.5ZM31.9808 30.3534C31.9808 32.1586 30.4234 34.0524 28.1273 34.0524C25.3614 34.0524 23.9513 31.7157 23.9513 29.6284C23.9513 26.695 25.9523 25.4524 26.7984 25.0101C26.6317 24.8788 26.4944 24.7141 26.3953 24.5266C25.4216 25.2109 24.5494 25.8156 22.6963 26.8625C22.6159 28.145 22.502 29.5479 22.1729 30.5208C21.4878 32.5682 20.0849 34.0516 18.239 34.0516C16.6817 34.0516 15.9161 32.9242 15.9161 31.7156C15.9161 30.8362 16.4331 29.7089 17.3661 28.8628C18.5341 27.8159 19.8166 27.1779 21.582 26.2513C21.6226 26.0164 21.6625 25.775 21.7031 25.4865C21.2601 25.8888 20.6221 26.057 20.0921 26.057C19.2526 26.057 18.5609 25.332 18.4065 24.5737C17.2791 24.4925 16.4331 23.687 16.3932 22.4052C16.3932 21.4852 16.7557 20.6797 17.3661 20.6797C17.601 20.6797 17.6888 20.8747 17.6888 21.0422C17.6888 21.1966 17.4807 21.7273 17.4807 22.237C17.4807 22.7677 17.7286 23.4456 18.3666 23.4456C18.3666 21.3576 19.8971 18.6657 21.7031 18.6657C22.8979 18.6657 23.0661 19.5523 23.0661 19.9547C23.0661 21.8477 21.1796 23.9291 19.6484 24.4461C19.689 24.6135 19.8565 25.0565 20.3401 25.0565C20.9375 25.0565 21.6625 24.4859 22.025 24.043C22.1794 23.2107 22.7906 22.0021 23.5961 22.0021C23.918 22.0021 24.0724 22.237 24.0724 22.5263C24.0724 23.1237 23.4344 23.8893 22.945 24.4055C22.8721 24.8043 22.8338 25.2086 22.8305 25.6141C24.2341 24.768 24.9591 24.3315 25.9987 23.5667C25.919 23.2839 25.919 22.9555 25.919 22.6401C25.919 20.7602 27.1674 18.6657 28.8117 18.6657C29.7448 18.6657 30.2154 19.3174 30.2154 20.0424C30.2154 21.4054 29.0466 22.5995 27.4096 23.8552C27.5364 24.1771 27.7315 24.4526 28.0468 24.6201C28.0867 24.5403 28.6109 24.4526 29.0473 24.4526C29.5302 24.4526 30.2146 24.5802 30.2146 25.0638C30.2146 25.6206 29.4498 25.7482 28.8516 25.7482C28.5297 25.7888 28.0062 25.6677 28.0062 25.6677C27.1268 25.9026 25.4354 26.9161 25.4354 29.4812C25.4354 31.2125 26.5229 32.817 28.2143 32.817C29.4968 32.817 30.5372 31.857 30.5778 30.3664C30.5778 29.4065 30.1748 28.393 29.2148 28.393C28.7312 28.393 28.2948 28.7555 28.2948 29.2789C28.2549 30.0844 28.8523 30.1656 28.8523 30.6825C28.8523 31.045 28.5768 31.2125 28.2948 31.2125C27.49 31.2125 26.8789 30.407 26.8789 29.4072C26.8789 28.1987 27.9323 27.1982 29.2953 27.1982C31.0672 27.1779 31.9808 28.7083 31.9808 30.3534ZM29.0198 20.2302C29.0198 20.0352 28.9799 19.7872 28.7312 19.7872C28.1338 19.7872 27.1739 21.0763 27.1739 22.7206C28.3687 21.6737 29.0198 20.787 29.0198 20.2302ZM21.9046 20.062C21.9046 19.8677 21.7901 19.7865 21.6219 19.7865C20.7765 19.7865 19.5817 21.9956 19.5817 23.318C20.9041 22.593 21.9046 20.9545 21.9046 20.0627V20.062ZM21.4276 27.5803C19.6223 28.4604 17.3263 30.0307 17.3263 31.7562C17.3263 32.3942 17.6482 32.7966 18.2456 32.7966C20.0109 32.7966 21.0984 29.9909 21.4283 27.581L21.4276 27.5803Z" fill="white" fill-opacity="0.5"/>
</svg>
