<svg width="163" height="46" viewBox="0 0 163 46" fill="none" xmlns="http://www.w3.org/2000/svg">
<g id="ge.svg" clip-path="url(#clip0_1_502)">
<path id="Vector" d="M45.6238 15.06C45.5451 14.8128 45.4391 14.5914 45.306 14.3959C45.1756 14.1976 45.0196 14.0292 44.8376 13.8907C44.6554 13.7494 44.4478 13.6421 44.2142 13.5688C43.9834 13.4955 43.7293 13.4588 43.4524 13.4588C42.9824 13.4588 42.5586 13.5797 42.1812 13.8214C41.8035 14.0632 41.5047 14.4176 41.2849 14.8848C41.0676 15.3492 40.9588 15.9183 40.9588 16.5919C40.9588 17.2682 41.069 17.84 41.2888 18.3072C41.5088 18.7744 41.8103 19.1288 42.1933 19.3706C42.5763 19.6123 43.0123 19.7332 43.5013 19.7332C43.9547 19.7332 44.35 19.6408 44.6869 19.4561C45.0263 19.2714 45.2885 19.0107 45.473 18.6739C45.6605 18.3343 45.7543 17.9351 45.7543 17.476L46.0802 17.5371H43.6926V16.4982H46.9726V17.4475C46.9726 18.1483 46.823 18.7567 46.5242 19.2728C46.2282 19.7861 45.8181 20.1827 45.2938 20.4624C44.7722 20.7422 44.1747 20.8821 43.5013 20.8821C42.7461 20.8821 42.0834 20.7083 41.513 20.3606C40.9453 20.0129 40.5026 19.5199 40.1848 18.8816C39.867 18.2406 39.708 17.4801 39.708 16.6C39.708 15.9346 39.8005 15.337 39.9852 14.8074C40.1697 14.2777 40.4292 13.8282 40.7633 13.4588C41.1002 13.0867 41.4953 12.8028 41.9489 12.6073C42.4051 12.409 42.9037 12.3099 43.4441 12.3099C43.895 12.3099 44.3147 12.3764 44.7032 12.5095C45.0942 12.6426 45.4418 12.8314 45.7461 13.0758C46.0531 13.3203 46.3069 13.6109 46.5079 13.9477C46.7089 14.2818 46.8448 14.6525 46.9154 15.06H45.6238ZM48.5705 20.768V12.4239H53.8018V13.5077H49.8296V16.05H53.529V17.1297H49.8296V19.6843H53.8509V20.768H48.5705ZM61.2213 20.768H58.52V12.4239H61.3066C62.1242 12.4239 62.8264 12.591 63.4131 12.9251C63.9998 13.2564 64.4493 13.7331 64.7616 14.3551C65.0767 14.9744 65.2343 15.7173 65.2343 16.5838C65.2343 17.4529 65.0753 18.1999 64.7577 18.8246C64.4425 19.4493 63.9863 19.9301 63.3888 20.2669C62.791 20.601 62.0687 20.768 61.2213 20.768ZM59.7789 19.668H61.152C61.7876 19.668 62.3158 19.5485 62.7369 19.3094C63.1577 19.0677 63.473 18.7187 63.682 18.2624C63.8911 17.8033 63.9957 17.2438 63.9957 16.5838C63.9957 15.9292 63.8911 15.3737 63.682 14.9174C63.4755 14.4611 63.1673 14.1148 62.7571 13.8784C62.347 13.6421 61.8378 13.524 61.2293 13.524H59.7789V19.668ZM66.702 20.768V14.51H67.9202V20.768H66.702ZM67.3174 13.5444C67.1054 13.5444 66.9234 13.4737 66.7713 13.3325C66.6219 13.1885 66.5473 13.0174 66.5473 12.8191C66.5473 12.6181 66.6219 12.447 66.7713 12.3058C66.9234 12.1618 67.1054 12.0898 67.3174 12.0898C67.5292 12.0898 67.7098 12.1618 67.8592 12.3058C68.0113 12.447 68.0872 12.6181 68.0872 12.8191C68.0872 13.0174 68.0113 13.1885 67.8592 13.3325C67.7098 13.4737 67.5292 13.5444 67.3174 13.5444ZM72.1829 23.2452C71.6859 23.2452 71.2582 23.18 70.8995 23.0496C70.5439 22.9192 70.2531 22.7467 70.0276 22.5322C69.8022 22.3176 69.6338 22.0827 69.5225 21.8273L70.5696 21.3955C70.643 21.515 70.7407 21.6413 70.8628 21.7744C70.9879 21.9102 71.1563 22.0256 71.3681 22.1207C71.5826 22.2157 71.8585 22.2633 72.1953 22.2633C72.657 22.2633 73.0386 22.1506 73.3401 21.9251C73.6416 21.7024 73.7924 21.3466 73.7924 20.8577V19.6272H73.7148C73.6416 19.7603 73.5356 19.9084 73.397 20.0713C73.2614 20.2343 73.0739 20.3755 72.8348 20.4951C72.5957 20.6146 72.2848 20.6743 71.9018 20.6743C71.4076 20.6743 70.9619 20.5589 70.5654 20.328C70.1717 20.0944 69.8594 19.7508 69.6283 19.2972C69.4002 18.8409 69.2862 18.28 69.2862 17.6145C69.2862 16.9491 69.3989 16.3787 69.6244 15.9034C69.8525 15.428 70.1648 15.064 70.5613 14.8115C70.9581 14.5561 71.4076 14.4285 71.9101 14.4285C72.2983 14.4285 72.6122 14.4936 72.8511 14.624C73.0902 14.7517 73.2763 14.9011 73.4094 15.0722C73.5452 15.2433 73.6496 15.3941 73.7231 15.5244H73.8128V14.51H75.0065V20.9065C75.0065 21.4443 74.8814 21.8857 74.6315 22.2307C74.3816 22.5756 74.0436 22.831 73.6171 22.9967C73.1935 23.1623 72.7153 23.2452 72.1829 23.2452ZM72.1708 19.6639C72.5211 19.6639 72.8172 19.5824 73.059 19.4194C73.3034 19.2538 73.4881 19.0175 73.6129 18.7105C73.7407 18.4009 73.8045 18.0301 73.8045 17.5983C73.8045 17.1772 73.7421 16.8065 73.6171 16.486C73.4922 16.1655 73.3089 15.9156 73.067 15.7363C72.8254 15.5543 72.5266 15.4633 72.1708 15.4633C71.8041 15.4633 71.4984 15.5584 71.2541 15.7485C71.0097 15.936 70.825 16.1913 70.6999 16.5145C70.5778 16.8377 70.5166 17.199 70.5166 17.5983C70.5166 18.0084 70.579 18.3683 70.704 18.6779C70.8289 18.9876 71.0136 19.2293 71.2582 19.4031C71.5053 19.577 71.8096 19.6639 72.1708 19.6639ZM76.6402 20.768V14.51H77.8584V20.768H76.6402ZM77.2554 13.5444C77.0436 13.5444 76.8617 13.4737 76.7095 13.3325C76.5601 13.1885 76.4853 13.0174 76.4853 12.8191C76.4853 12.6181 76.5601 12.447 76.7095 12.3058C76.8617 12.1618 77.0436 12.0898 77.2554 12.0898C77.4672 12.0898 77.648 12.1618 77.7974 12.3058C77.9493 12.447 78.0255 12.6181 78.0255 12.8191C78.0255 13.0174 77.9493 13.1885 77.7974 13.3325C77.648 13.4737 77.4672 13.5444 77.2554 13.5444ZM82.4186 14.51V15.4878H79.0002V14.51H82.4186ZM79.917 13.0106H81.1352V18.9305C81.1352 19.1668 81.1705 19.3447 81.2412 19.4643C81.3116 19.5811 81.4027 19.6612 81.514 19.7046C81.6281 19.7454 81.7517 19.7658 81.8848 19.7658C81.9826 19.7658 82.0682 19.759 82.1416 19.7454C82.2148 19.7318 82.2719 19.7209 82.3125 19.7128L82.5326 20.7191C82.4619 20.7463 82.3614 20.7735 82.2311 20.8006C82.1007 20.8305 81.9378 20.8468 81.7423 20.8495C81.4218 20.8549 81.123 20.7979 80.8458 20.6784C80.5689 20.5589 80.3447 20.3742 80.1737 20.1243C80.0025 19.8744 79.917 19.5607 79.917 19.1831V13.0106ZM85.5872 20.9065C85.1907 20.9065 84.8323 20.8332 84.5117 20.6865C84.1912 20.5371 83.9371 20.3212 83.7499 20.0387C83.5652 19.7563 83.4727 19.4099 83.4727 18.9998C83.4727 18.6467 83.5406 18.3561 83.6765 18.1279C83.8123 17.8997 83.9956 17.7191 84.2265 17.586C84.4573 17.4529 84.7155 17.3524 85.0007 17.2845C85.2859 17.2166 85.5764 17.165 85.8724 17.1297C86.2474 17.0863 86.5516 17.0509 86.7852 17.0238C87.0188 16.9939 87.1884 16.9464 87.2944 16.8812C87.4004 16.816 87.4534 16.71 87.4534 16.5634V16.5349C87.4534 16.179 87.3529 15.9033 87.1519 15.7078C86.9537 15.5122 86.6574 15.4144 86.2637 15.4144C85.8534 15.4144 85.5303 15.5054 85.2939 15.6874C85.0604 15.8667 84.8988 16.0663 84.8091 16.2863L83.6643 16.0256C83.8001 15.6453 83.9984 15.3384 84.2591 15.1048C84.5225 14.8685 84.8254 14.6974 85.1677 14.5914C85.5099 14.4828 85.8699 14.4285 86.2474 14.4285C86.4972 14.4285 86.7621 14.4584 87.0418 14.5181C87.3242 14.5752 87.5877 14.6811 87.8323 14.8359C88.0794 14.9907 88.2818 15.2121 88.4392 15.5C88.5968 15.7852 88.6755 16.156 88.6755 16.6123V20.768H87.486V19.9124H87.4371C87.3582 20.07 87.24 20.2248 87.0826 20.3769C86.925 20.529 86.7226 20.6553 86.4754 20.7558C86.2283 20.8563 85.9323 20.9065 85.5872 20.9065ZM85.8522 19.9287C86.1889 19.9287 86.4768 19.8622 86.7159 19.7291C86.9576 19.596 87.1409 19.4222 87.2659 19.2076C87.3935 18.9903 87.4573 18.758 87.4573 18.5109V17.7042C87.414 17.7476 87.3297 17.7884 87.2047 17.8264C87.0826 17.8617 86.9426 17.893 86.7852 17.9201C86.6276 17.9446 86.4741 17.9676 86.3247 17.9894C86.1753 18.0084 86.0505 18.0247 85.95 18.0383C85.7136 18.0681 85.4977 18.1184 85.3022 18.189C85.1092 18.2596 84.9543 18.3615 84.8375 18.4946C84.7235 18.625 84.6666 18.7988 84.6666 19.0161C84.6666 19.3176 84.7779 19.5457 85.0007 19.7006C85.2233 19.8527 85.5071 19.9287 85.8522 19.9287ZM91.5163 12.4239V20.768H90.2981V12.4239H91.5163ZM45.6238 30.2045C45.5451 29.9573 45.4391 29.736 45.306 29.5404C45.1756 29.3421 45.0196 29.1737 44.8376 29.0352C44.6554 28.894 44.4478 28.7867 44.2142 28.7133C43.9834 28.64 43.7293 28.6033 43.4524 28.6033C42.9824 28.6033 42.5586 28.7242 42.1812 28.9659C41.8035 29.2077 41.5047 29.5621 41.2849 30.0293C41.0676 30.4938 40.9588 31.0629 40.9588 31.7363C40.9588 32.4128 41.069 32.9846 41.2888 33.4518C41.5088 33.919 41.8103 34.2733 42.1933 34.5151C42.5763 34.7567 43.0123 34.8777 43.5013 34.8777C43.9547 34.8777 44.35 34.7854 44.6869 34.6007C45.0263 34.416 45.2885 34.1551 45.473 33.8185C45.6605 33.4789 45.7543 33.0796 45.7543 32.6204L46.0802 32.6817H43.6926V31.6427H46.9726V32.592C46.9726 33.2928 46.823 33.9013 46.5242 34.4174C46.2282 34.9307 45.8181 35.3272 45.2938 35.6069C44.7722 35.8868 44.1747 36.0266 43.5013 36.0266C42.7461 36.0266 42.0834 35.8529 41.513 35.505C40.9453 35.1574 40.5026 34.6645 40.1848 34.0261C39.867 33.3853 39.708 32.6246 39.708 31.7446C39.708 31.0791 39.8005 30.4816 39.9852 29.9519C40.1697 29.4222 40.4292 28.9727 40.7633 28.6033C41.1002 28.2312 41.4953 27.9474 41.9489 27.7518C42.4051 27.5535 42.9037 27.4544 43.4441 27.4544C43.895 27.4544 44.3147 27.5209 44.7032 27.654C45.0942 27.7871 45.4418 27.9759 45.7461 28.2203C46.0531 28.4648 46.3069 28.7554 46.5079 29.0922C46.7089 29.4263 46.8448 29.7971 46.9154 30.2045H45.6238ZM48.5705 35.9125V27.5685H53.8018V28.6522H49.8296V31.1946H53.529V32.2742H49.8296V34.8288H53.8509V35.9125H48.5705ZM61.5563 35.9125V27.5685H64.5306C65.177 27.5685 65.7135 27.6798 66.1398 27.9025C66.5689 28.1253 66.8894 28.4336 67.1012 28.8274C67.3133 29.2185 67.4191 29.6708 67.4191 30.1841C67.4191 30.6948 67.3119 31.1443 67.0973 31.5328C66.8853 31.9185 66.565 32.2187 66.1357 32.4332C65.7093 32.6478 65.1728 32.7549 64.5264 32.7549H62.2733V31.6712H64.4124C64.8197 31.6712 65.151 31.6129 65.4064 31.4961C65.6646 31.3793 65.8532 31.2095 65.9727 30.9867C66.0923 30.7641 66.152 30.4965 66.152 30.1841C66.152 29.8691 66.0909 29.5961 65.9686 29.3652C65.8493 29.1343 65.6604 28.9578 65.4023 28.8356C65.1471 28.7106 64.8117 28.6481 64.3961 28.6481H62.8153V35.9125H61.5563ZM65.6754 32.148L67.7369 35.9125H66.3027L64.2821 32.148H65.6754ZM71.472 36.0388C70.8555 36.0388 70.3245 35.907 69.8789 35.6436C69.4363 35.3774 69.0939 35.0039 68.8523 34.5232C68.6132 34.0397 68.4936 33.4734 68.4936 32.8242C68.4936 32.1833 68.6132 31.6184 68.8523 31.1294C69.0939 30.6404 69.4307 30.2588 69.8626 29.9845C70.2972 29.7102 70.8052 29.573 71.3865 29.573C71.7396 29.573 72.0817 29.6314 72.4131 29.7482C72.7446 29.865 73.042 30.0483 73.3055 30.2982C73.5689 30.5482 73.7768 30.8726 73.9289 31.2719C74.0808 31.6684 74.157 32.1507 74.157 32.7184V33.1503H69.1822V32.2375H72.9631C72.9631 31.9171 72.8979 31.6333 72.7676 31.3859C72.6373 31.1361 72.4539 30.9392 72.2176 30.7953C71.984 30.6512 71.7098 30.5794 71.3947 30.5794C71.0524 30.5794 70.7536 30.6636 70.4982 30.832C70.2456 30.9977 70.0501 31.215 69.9115 31.4839C69.7759 31.7501 69.7079 32.0392 69.7079 32.3518V33.0647C69.7079 33.483 69.7811 33.8387 69.9278 34.1321C70.0774 34.4254 70.285 34.6496 70.5512 34.8042C70.8174 34.9564 71.1283 35.0326 71.4842 35.0326C71.715 35.0326 71.9257 35 72.1157 34.9348C72.3059 34.8669 72.4702 34.7664 72.6088 34.6333C72.7472 34.5002 72.8532 34.3359 72.9266 34.1402L74.0797 34.3481C73.9872 34.6874 73.8215 34.9851 73.5824 35.2402C73.3463 35.4929 73.0487 35.6897 72.6903 35.8311C72.3344 35.9697 71.9284 36.0388 71.472 36.0388ZM76.7267 32.1969V35.9125H75.5085V29.6545H76.6779V30.673H76.7554C76.8993 30.3417 77.1246 30.0755 77.4316 29.8745C77.7412 29.6735 78.131 29.573 78.601 29.573C79.0273 29.573 79.4009 29.6626 79.7215 29.8419C80.0418 30.0184 80.2905 30.2819 80.467 30.6324C80.6434 30.9828 80.7318 31.416 80.7318 31.9321V35.9125H79.5136V32.0787C79.5136 31.625 79.3954 31.2705 79.159 31.0154C78.9229 30.7572 78.5982 30.6283 78.1854 30.6283C77.903 30.6283 77.6517 30.6893 77.4316 30.8116C77.2143 30.9339 77.0418 31.1131 76.9142 31.3495C76.7894 31.583 76.7267 31.8655 76.7267 32.1969ZM85.0626 36.0388C84.4461 36.0388 83.9151 35.907 83.4697 35.6436C83.0269 35.3774 82.6847 35.0039 82.4429 34.5232C82.204 34.0397 82.0845 33.4734 82.0845 32.8242C82.0845 32.1833 82.204 31.6184 82.4429 31.1294C82.6847 30.6404 83.0216 30.2588 83.4534 29.9845C83.888 29.7102 84.3958 29.573 84.9773 29.573C85.3302 29.573 85.6726 29.6314 86.0039 29.7482C86.3352 29.865 86.6326 30.0483 86.8961 30.2982C87.1597 30.5482 87.3674 30.8726 87.5195 31.2719C87.6716 31.6684 87.7476 32.1507 87.7476 32.7184V33.1503H82.7731V32.2375H86.5539C86.5539 31.9171 86.4888 31.6333 86.3584 31.3859C86.2281 31.1361 86.0448 30.9392 85.8084 30.7953C85.5748 30.6512 85.3004 30.5794 84.9853 30.5794C84.6432 30.5794 84.3442 30.6636 84.089 30.832C83.8364 30.9977 83.6409 31.215 83.5023 31.4839C83.3665 31.7501 83.2985 32.0392 83.2985 32.3518V33.0647C83.2985 33.483 83.372 33.8387 83.5186 34.1321C83.668 34.4254 83.8759 34.6496 84.142 34.8042C84.4082 34.9564 84.7191 35.0326 85.075 35.0326C85.3059 35.0326 85.5163 35 85.7065 34.9348C85.8965 34.8669 86.061 34.7664 86.1994 34.6333C86.338 34.5002 86.444 34.3359 86.5172 34.1402L87.6703 34.3481C87.578 34.6874 87.4123 34.9851 87.1732 35.2402C86.9369 35.4929 86.6395 35.6897 86.2809 35.8311C85.9252 35.9697 85.5191 36.0388 85.0626 36.0388ZM90.4449 35.9125L88.6033 29.6545H89.8623L91.0886 34.2503H91.1496L92.3802 29.6545H93.639L94.8614 34.2299H94.9224L96.1406 29.6545H97.3997L95.5622 35.9125H94.3194L93.0484 31.3942H92.9546L91.6833 35.9125H90.4449ZM100.377 36.0511C99.9802 36.0511 99.6218 35.9777 99.3013 35.8311C98.9807 35.6817 98.7269 35.4658 98.5394 35.1833C98.3547 34.9009 98.2622 34.5544 98.2622 34.1443C98.2622 33.7912 98.3302 33.5007 98.466 33.2724C98.6019 33.0443 98.7852 32.8637 99.016 32.7306C99.2469 32.5975 99.505 32.497 99.7902 32.4291C100.075 32.3612 100.366 32.3095 100.662 32.2742C101.037 32.2308 101.341 32.1955 101.575 32.1684C101.808 32.1383 101.978 32.0909 102.084 32.0257C102.19 31.9605 102.243 31.8545 102.243 31.7079V31.6794C102.243 31.3235 102.142 31.0479 101.941 30.8522C101.743 30.6567 101.447 30.559 101.053 30.559C100.643 30.559 100.32 30.6501 100.083 30.832C99.8499 31.0112 99.6884 31.2109 99.5986 31.4309L98.4539 31.17C98.5897 30.7898 98.7879 30.483 99.0486 30.2493C99.312 30.013 99.6149 29.8419 99.9573 29.736C100.299 29.6273 100.659 29.573 101.037 29.573C101.287 29.573 101.552 29.6029 101.831 29.6626C102.114 29.7197 102.377 29.8256 102.622 29.9804C102.869 30.1352 103.071 30.3566 103.229 30.6446C103.386 30.9298 103.465 31.3006 103.465 31.7568V35.9125H102.276V35.0569H102.227C102.148 35.2145 102.03 35.3694 101.872 35.5213C101.715 35.6734 101.512 35.7999 101.265 35.9004C101.018 36.0009 100.722 36.0511 100.377 36.0511ZM100.642 35.0732C100.978 35.0732 101.266 35.0066 101.505 34.8735C101.747 34.7405 101.93 34.5667 102.055 34.3522C102.183 34.1349 102.247 33.9027 102.247 33.6553V32.8488C102.203 32.8921 102.119 32.933 101.994 32.9708C101.872 33.0062 101.732 33.0374 101.575 33.0647C101.417 33.089 101.264 33.1122 101.114 33.134C100.965 33.1528 100.84 33.1693 100.74 33.1829C100.503 33.2127 100.287 33.2629 100.092 33.3336C99.8988 33.4041 99.7441 33.5059 99.6273 33.639C99.5131 33.7696 99.4561 33.9433 99.4561 34.1606C99.4561 34.4621 99.5674 34.6902 99.7902 34.8451C100.013 34.9972 100.297 35.0732 100.642 35.0732ZM105.186 35.9125V27.5685H106.404V30.6689H106.477C106.548 30.5385 106.65 30.3878 106.783 30.2167C106.916 30.0456 107.1 29.8962 107.337 29.7686C107.573 29.6382 107.885 29.573 108.274 29.573C108.779 29.573 109.23 29.7007 109.626 29.956C110.023 30.2113 110.334 30.5794 110.559 31.0601C110.788 31.5408 110.902 32.1193 110.902 32.7958C110.902 33.472 110.789 34.0521 110.564 34.5355C110.338 35.0163 110.028 35.3871 109.635 35.6478C109.241 35.9057 108.791 36.0349 108.286 36.0349C107.906 36.0349 107.595 35.9708 107.353 35.8433C107.114 35.7157 106.927 35.5663 106.791 35.3951C106.655 35.2239 106.55 35.0718 106.477 34.9387H106.375V35.9125H105.186ZM106.379 32.7836C106.379 33.2235 106.443 33.6092 106.571 33.9405C106.698 34.2719 106.883 34.5314 107.125 34.7189C107.367 34.9036 107.663 34.9958 108.013 34.9958C108.377 34.9958 108.681 34.8995 108.926 34.7065C109.17 34.511 109.355 34.2462 109.48 33.9121C109.608 33.578 109.671 33.2019 109.671 32.7836C109.671 32.3706 109.609 32 109.484 31.6712C109.362 31.3426 109.177 31.0833 108.93 30.8931C108.685 30.7028 108.38 30.6078 108.013 30.6078C107.66 30.6078 107.361 30.6989 107.117 30.8809C106.875 31.0629 106.692 31.3169 106.567 31.6427C106.442 31.9685 106.379 32.349 106.379 32.7836ZM113.488 27.5685V35.9125H112.27V27.5685H113.488ZM117.824 36.0388C117.207 36.0388 116.676 35.907 116.231 35.6436C115.788 35.3774 115.446 35.0039 115.204 34.5232C114.965 34.0397 114.846 33.4734 114.846 32.8242C114.846 32.1833 114.965 31.6184 115.204 31.1294C115.446 30.6404 115.783 30.2588 116.214 29.9845C116.649 29.7102 117.157 29.573 117.738 29.573C118.091 29.573 118.434 29.6314 118.765 29.7482C119.097 29.865 119.394 30.0483 119.657 30.2982C119.921 30.5482 120.129 30.8726 120.281 31.2719C120.433 31.6684 120.509 32.1507 120.509 32.7184V33.1503H115.534V32.2375H119.315C119.315 31.9171 119.25 31.6333 119.119 31.3859C118.989 31.1361 118.806 30.9392 118.569 30.7953C118.336 30.6512 118.062 30.5794 117.746 30.5794C117.404 30.5794 117.105 30.6636 116.85 30.832C116.597 30.9977 116.402 31.215 116.263 31.4839C116.128 31.7501 116.06 32.0392 116.06 32.3518V33.0647C116.06 33.483 116.133 33.8387 116.28 34.1321C116.429 34.4254 116.637 34.6496 116.903 34.8042C117.169 34.9564 117.48 35.0326 117.836 35.0326C118.067 35.0326 118.278 35 118.468 34.9348C118.658 34.8669 118.822 34.7664 118.961 34.6333C119.099 34.5002 119.205 34.3359 119.278 34.1402L120.431 34.3481C120.339 34.6874 120.173 34.9851 119.934 35.2402C119.698 35.4929 119.401 35.6897 119.042 35.8311C118.686 35.9697 118.28 36.0388 117.824 36.0388ZM124.995 35.9125V27.5685H130.226V28.6522H126.253V31.1946H129.953V32.2742H126.253V34.8288H130.275V35.9125H124.995ZM133.028 32.1969V35.9125H131.81V29.6545H132.979V30.673H133.057C133.2 30.3417 133.426 30.0755 133.733 29.8745C134.043 29.6735 134.432 29.573 134.902 29.573C135.329 29.573 135.702 29.6626 136.023 29.8419C136.343 30.0184 136.592 30.2819 136.768 30.6324C136.945 30.9828 137.033 31.416 137.033 31.9321V35.9125H135.815V32.0787C135.815 31.625 135.697 31.2705 135.46 31.0154C135.224 30.7572 134.899 30.6283 134.487 30.6283C134.204 30.6283 133.953 30.6893 133.733 30.8116C133.515 30.9339 133.343 31.1131 133.215 31.3495C133.091 31.583 133.028 31.8655 133.028 32.1969ZM141.364 36.0388C140.747 36.0388 140.216 35.907 139.771 35.6436C139.328 35.3774 138.986 35.0039 138.744 34.5232C138.505 34.0397 138.386 33.4734 138.386 32.8242C138.386 32.1833 138.505 31.6184 138.744 31.1294C138.986 30.6404 139.323 30.2588 139.755 29.9845C140.189 29.7102 140.697 29.573 141.278 29.573C141.632 29.573 141.974 29.6314 142.305 29.7482C142.636 29.865 142.934 30.0483 143.197 30.2982C143.461 30.5482 143.669 30.8726 143.821 31.2719C143.973 31.6684 144.049 32.1507 144.049 32.7184V33.1503H139.074V32.2375H142.855C142.855 31.9171 142.79 31.6333 142.66 31.3859C142.529 31.1361 142.346 30.9392 142.11 30.7953C141.876 30.6512 141.602 30.5794 141.286 30.5794C140.944 30.5794 140.646 30.6636 140.39 30.832C140.138 30.9977 139.942 31.215 139.803 31.4839C139.668 31.7501 139.6 32.0392 139.6 32.3518V33.0647C139.6 33.483 139.673 33.8387 139.82 34.1321C139.969 34.4254 140.177 34.6496 140.443 34.8042C140.709 34.9564 141.02 35.0326 141.376 35.0326C141.607 35.0326 141.818 35 142.008 34.9348C142.198 34.8669 142.362 34.7664 142.501 34.6333C142.639 34.5002 142.745 34.3359 142.819 34.1402L143.971 34.3481C143.879 34.6874 143.714 34.9851 143.474 35.2402C143.238 35.4929 142.941 35.6897 142.582 35.8311C142.226 35.9697 141.82 36.0388 141.364 36.0388ZM145.401 35.9125V29.6545H146.578V30.6487H146.643C146.757 30.3118 146.958 30.047 147.246 29.8541C147.537 29.6585 147.865 29.5608 148.232 29.5608C148.308 29.5608 148.398 29.5635 148.501 29.5689C148.607 29.5744 148.69 29.5812 148.75 29.5893V30.7545C148.701 30.7409 148.614 30.726 148.489 30.7097C148.364 30.6907 148.239 30.6813 148.114 30.6813C147.826 30.6813 147.569 30.7423 147.344 30.8646C147.121 30.9842 146.945 31.1512 146.814 31.3657C146.684 31.5775 146.619 31.8192 146.619 32.0909V35.9125H145.401ZM152.204 38.3896C151.707 38.3896 151.279 38.3244 150.92 38.1941C150.564 38.0638 150.274 37.8912 150.048 37.6767C149.823 37.4621 149.655 37.2271 149.543 36.9717L150.59 36.5399C150.663 36.6595 150.761 36.7859 150.884 36.919C151.008 37.0548 151.177 37.1702 151.389 37.2652C151.603 37.3602 151.879 37.4077 152.216 37.4077C152.677 37.4077 153.059 37.2951 153.361 37.0697C153.662 36.8469 153.813 36.491 153.813 36.0023V34.7717H153.735C153.662 34.9047 153.556 35.053 153.418 35.2159C153.282 35.3788 153.094 35.5202 152.856 35.6395C152.616 35.759 152.305 35.8189 151.923 35.8189C151.428 35.8189 150.983 35.7035 150.586 35.4724C150.192 35.2388 149.88 34.8953 149.649 34.4417C149.421 33.9855 149.307 33.4245 149.307 32.759C149.307 32.0936 149.42 31.5232 149.645 31.0479C149.873 30.5725 150.185 30.2086 150.582 29.956C150.979 29.7007 151.428 29.573 151.931 29.573C152.319 29.573 152.633 29.6382 152.872 29.7686C153.111 29.8962 153.297 30.0456 153.43 30.2167C153.566 30.3878 153.67 30.5385 153.744 30.6689H153.833V29.6545H155.027V36.0511C155.027 36.5888 154.902 37.0303 154.652 37.3751C154.402 37.7203 154.064 37.9754 153.638 38.1411C153.214 38.3068 152.736 38.3896 152.204 38.3896ZM152.191 34.8084C152.542 34.8084 152.838 34.7269 153.079 34.564C153.324 34.3983 153.509 34.162 153.634 33.855C153.761 33.5454 153.825 33.1746 153.825 32.7428C153.825 32.3217 153.763 31.9511 153.638 31.6305C153.513 31.31 153.329 31.0601 153.088 30.8809C152.846 30.6989 152.547 30.6078 152.191 30.6078C151.825 30.6078 151.519 30.7028 151.275 30.8931C151.03 31.0805 150.845 31.3357 150.721 31.659C150.598 31.9823 150.537 32.3435 150.537 32.7428C150.537 33.1528 150.6 33.5128 150.724 33.8224C150.85 34.1322 151.034 34.3738 151.279 34.5477C151.526 34.7214 151.83 34.8084 152.191 34.8084ZM157.431 38.2593C157.249 38.2593 157.083 38.2443 156.934 38.2145C156.784 38.1874 156.673 38.1574 156.6 38.1248L156.893 37.1266C157.116 37.1865 157.314 37.2122 157.488 37.2042C157.662 37.1959 157.815 37.1308 157.948 37.0085C158.084 36.8864 158.204 36.6868 158.307 36.4096L158.458 35.994L156.168 29.6545H157.472L159.057 34.511H159.122L160.707 29.6545H162.014L159.435 36.7478C159.316 37.0736 159.164 37.3494 158.979 37.5748C158.794 37.8031 158.574 37.974 158.319 38.0883C158.064 38.2024 157.768 38.2593 157.431 38.2593Z" fill="white" fill-opacity="0.5"/>
<path id="Vector_2" fill-rule="evenodd" clip-rule="evenodd" d="M34.0123 24.097C34.0123 14.9239 26.5495 7.46094 17.3763 7.46094C8.20398 7.46094 0.740234 14.9239 0.740234 24.097C0.740234 33.3009 8.20398 40.733 17.3763 40.733C26.5495 40.733 34.0123 33.3009 34.0123 24.097ZM33.2195 24.097C33.2195 32.8542 26.1335 39.9395 17.3763 39.9395C8.61988 39.9395 1.52629 32.8542 1.52629 24.097C1.52629 15.3398 8.61988 8.24616 17.3763 8.24616C26.1335 8.24616 33.2195 15.3863 33.2195 24.097ZM32.2106 24.097C32.2106 18.8367 29.5297 13.3992 23.7762 11.6582C22.5833 11.2889 21.5744 11.0576 20.4107 11.0576C17.7464 11.0576 17.6541 12.5749 16.4064 12.5749C15.721 12.5749 15.2585 12.0741 15.2585 11.4735C15.2585 10.4188 16.5062 9.58702 18.4859 9.58702C20.3342 9.58702 21.759 10.0487 22.0285 10.1801L22.0743 10.0487C21.5744 9.85653 19.8259 9.25513 17.3846 9.25513C12.0777 9.25513 6.68595 11.9818 4.94582 17.6896C4.57568 18.8824 4.33694 19.9072 4.33694 21.0551C4.33694 23.7351 5.85415 23.8582 5.85415 25.1059C5.85784 25.2523 5.83201 25.3979 5.77818 25.5341C5.72434 25.6703 5.64362 25.7942 5.54082 25.8985C5.43802 26.0027 5.31526 26.0852 5.17987 26.141C5.04449 26.1968 4.89927 26.2247 4.75285 26.2231C3.69812 26.2231 2.86632 25.0136 2.86632 22.9874C2.86632 21.1474 3.32798 19.7142 3.41281 19.4447L3.28222 19.399C3.13582 19.9538 2.53526 21.6631 2.53526 24.1045C2.53526 29.4496 5.26191 34.8413 10.9689 36.5898C12.17 36.959 13.1865 37.1821 14.3344 37.1821C17.0144 37.1821 17.0918 35.6183 18.3395 35.6183C18.9941 35.6183 19.5024 36.1272 19.5024 36.7661C19.5024 37.7835 18.2929 38.6153 16.2675 38.6153C14.4267 38.6153 12.9486 38.1527 12.724 38.0604L12.6783 38.1993C13.1865 38.4223 14.9424 38.9388 17.3846 38.9388C22.6832 38.9388 28.1206 36.2578 29.8225 30.5042C30.1927 29.3573 30.4157 28.3026 30.4157 27.1854C30.4157 24.4738 28.8985 24.374 28.8985 23.1346C28.8985 22.4492 29.3609 21.9867 29.9997 21.9867C31.0628 21.9867 31.8946 23.2344 31.8946 25.2598C31.8946 27.0623 31.432 28.4872 31.3397 28.8033L31.4786 28.849C31.6557 28.2942 32.2106 26.5849 32.2106 24.097ZM26.6268 28.518C26.6268 30.5892 24.84 32.7619 22.2057 32.7619C19.0324 32.7619 17.4145 30.081 17.4145 27.6862C17.4145 24.3207 19.7103 22.895 20.681 22.3876C20.4898 22.237 20.3323 22.048 20.2185 21.8328C19.1014 22.618 18.1008 23.3117 15.9747 24.5129C15.8823 25.9843 15.7518 27.5939 15.3741 28.7101C14.5881 31.0591 12.9785 32.761 10.8608 32.761C9.07406 32.761 8.19568 31.4675 8.19568 30.0809C8.19568 29.072 8.78875 27.7785 9.85928 26.8078C11.1993 25.6067 12.6708 24.8747 14.6962 23.8117C14.7428 23.5422 14.7885 23.2652 14.8351 22.9341C14.3269 23.3958 13.5949 23.5887 12.9869 23.5887C12.0236 23.5887 11.2301 22.7569 11.0529 21.8869C9.75946 21.7937 8.78875 20.8696 8.74299 19.399C8.74299 18.3434 9.15889 17.4193 9.85928 17.4193C10.1288 17.4193 10.2294 17.643 10.2294 17.8352C10.2294 18.0123 9.99069 18.6212 9.99069 19.206C9.99069 19.8149 10.2752 20.5926 11.0072 20.5926C11.0072 18.197 12.7631 15.1085 14.8351 15.1085C16.2059 15.1085 16.3989 16.1258 16.3989 16.5875C16.3989 18.7593 14.2346 21.1474 12.4778 21.7405C12.5244 21.9326 12.7165 22.4408 13.2713 22.4408C13.9567 22.4408 14.7885 21.7862 15.2044 21.278C15.3816 20.3231 16.0828 18.9365 17.0069 18.9365C17.3763 18.9365 17.5534 19.206 17.5534 19.5379C17.5534 20.2233 16.8214 21.1017 16.26 21.6939C16.1764 22.1514 16.1324 22.6154 16.1286 23.0805C17.7389 22.1098 18.5707 21.609 19.7635 20.7315C19.672 20.4071 19.672 20.0303 19.672 19.6685C19.672 17.5116 21.1044 15.1085 22.9909 15.1085C24.0614 15.1085 24.6014 15.8563 24.6014 16.6881C24.6014 18.2519 23.2604 19.6219 21.3822 21.0626C21.5278 21.4319 21.7515 21.748 22.1134 21.9401C22.1591 21.8486 22.7605 21.748 23.2613 21.748C23.8152 21.748 24.6004 21.8944 24.6004 22.4492C24.6004 23.088 23.723 23.2344 23.0367 23.2344C22.6673 23.281 22.0668 23.1421 22.0668 23.1421C21.0578 23.4116 19.1172 24.5744 19.1172 27.5173C19.1172 29.5037 20.3649 31.3445 22.3055 31.3445C23.7769 31.3445 24.9706 30.2431 25.0171 28.533C25.0171 27.4317 24.5548 26.2688 23.4534 26.2688C22.8986 26.2688 22.3978 26.6847 22.3978 27.2853C22.3521 28.2094 23.0375 28.3026 23.0375 28.8956C23.0375 29.3115 22.7214 29.5037 22.3978 29.5037C21.4746 29.5037 20.7733 28.5795 20.7733 27.4325C20.7733 26.0459 21.9819 24.898 23.5457 24.898C25.5786 24.8747 26.6268 26.6306 26.6268 28.518ZM23.2296 16.9035C23.2296 16.6798 23.1839 16.3953 22.8986 16.3953C22.2132 16.3953 21.1119 17.8743 21.1119 19.7608C22.4827 18.5597 23.2296 17.5424 23.2296 16.9035ZM15.0664 16.7106C15.0664 16.4876 14.9349 16.3945 14.7419 16.3945C13.7721 16.3945 12.4013 18.929 12.4013 20.4462C13.9185 19.6144 15.0664 17.7345 15.0664 16.7114V16.7106ZM14.519 25.3364C12.4478 26.3462 9.81353 28.1478 9.81353 30.1275C9.81353 30.8595 10.1828 31.3211 10.8683 31.3211C12.8937 31.3211 14.1414 28.1021 14.5199 25.3372L14.519 25.3364Z" fill="white" fill-opacity="0.5"/>
</g>
<defs>
<clipPath id="clip0_1_502">
<rect width="161.771" height="117.284" fill="white" transform="translate(0.740234 -34.5469)"/>
</clipPath>
</defs>
</svg>
