<svg width="135" height="52" viewBox="0 0 135 52" fill="none" xmlns="http://www.w3.org/2000/svg">
<path d="M24.1385 33.2329H26.3702V32.5998H21.0879V33.2353H23.349V38.0899H24.1385V33.2329ZM30.3546 38.0923H31.1221V35.8752C31.1221 34.587 30.3521 34.0224 29.2521 34.0224C28.5579 34.0224 27.9493 34.2937 27.5826 34.8633V32.5998H26.8175V38.0923H27.5826V36.281C27.5826 35.0441 28.3526 34.5553 29.1348 34.5553C29.8583 34.5553 30.3546 34.9464 30.3546 35.9095V38.0923ZM34.2778 34.5528C33.4956 34.5528 32.9407 34.939 32.8209 35.7995H35.6393C35.6198 34.8975 34.9451 34.5528 34.2778 34.5528ZM32.7892 36.3323C32.8674 37.1243 33.3269 37.7061 34.2338 37.7061C34.8987 37.7061 35.3729 37.4616 35.5465 36.9092H36.358C36.2064 37.865 35.258 38.2219 34.2803 38.2219C32.8503 38.2219 32.029 37.4396 32.029 36.2003C32.029 34.7826 32.8796 34.0224 34.2998 34.0224C35.6833 34.0224 36.4509 34.7704 36.4509 36.1001V36.3323H32.7892ZM65.923 34.7386C66.0574 34.7386 66.2358 34.7533 66.4947 34.7997V34.1104C66.3874 34.103 66.2822 34.0884 66.0229 34.0884C65.2948 34.0884 64.8133 34.482 64.5099 34.9513L64.4855 34.169H63.7522C63.7792 34.4819 63.7937 34.7581 63.7937 35.0613V38.0923H64.5589V36.1954C64.5589 35.2299 65.0064 34.7386 65.923 34.7386ZM89.1469 34.7386C89.2887 34.7386 89.46 34.7533 89.7216 34.7997V34.1104C89.6164 34.103 89.5087 34.0884 89.2498 34.0884C88.9445 34.0868 88.644 34.1657 88.3787 34.3172C88.1135 34.4687 87.8927 34.6874 87.739 34.9513L87.7146 34.169H86.9787C87.0034 34.4819 87.0153 34.7581 87.0153 35.0613V38.0923H87.7831V36.1954C87.7831 35.2299 88.2302 34.7386 89.1469 34.7386ZM52.078 37.5203L50.8287 34.1715H49.9633L51.528 38.0899H52.5595L53.8769 34.7826L55.2605 38.0899H56.2479L57.8002 34.169H56.9936L55.7593 37.5203L54.3902 34.1715H53.398L52.078 37.5203ZM41.9532 33.2109H40.3863V35.3888H42.007C43.0092 35.3888 43.366 34.9781 43.366 34.2449C43.366 33.6166 43.014 33.2109 41.9532 33.2109ZM42.0754 35.9975H40.3863V38.0923L39.5919 38.0972V32.6071L41.9458 32.5998C43.6423 32.5973 44.2191 33.3087 44.2191 34.2375C44.2191 35.2617 43.542 35.9975 42.073 35.9975M47.0693 34.5528C46.0035 34.5528 45.4462 35.2006 45.4462 36.1246C45.4462 37.0094 46.0035 37.6939 47.0693 37.6939C48.1399 37.6939 48.707 37.0094 48.707 36.1246C48.707 35.2006 48.1766 34.5528 47.0693 34.5528ZM47.0693 38.2219C45.4878 38.2219 44.6298 37.4616 44.6298 36.1246C44.6298 34.8633 45.4878 34.0224 47.0693 34.0224C48.6924 34.0224 49.5137 34.7997 49.5137 36.1246C49.5137 37.4616 48.663 38.2219 47.0693 38.2219ZM60.5158 34.5528C59.7338 34.5528 59.1618 34.939 59.054 35.7995H61.8702C61.8553 34.8975 61.1855 34.5528 60.5158 34.5528ZM59.0174 36.3323C59.0982 37.1243 59.5625 37.7061 60.472 37.7061C61.132 37.7061 61.6012 37.4616 61.7797 36.9092H62.5815C62.4348 37.865 61.4864 38.2219 60.5038 38.2219C59.0738 38.2219 58.2548 37.4396 58.2548 36.2003C58.2548 34.7826 59.1079 34.0224 60.533 34.0224C61.9166 34.0224 62.6717 34.7704 62.6717 36.1001V36.3323H59.0174ZM92.408 34.5528C91.6256 34.5528 91.0513 34.939 90.9413 35.7995H93.7598C93.7448 34.8975 93.0751 34.5528 92.408 34.5528ZM90.9069 36.3323C90.9877 37.1243 91.4472 37.7061 92.3616 37.7061C93.0212 37.7061 93.4908 37.4616 93.6644 36.9092H94.471C94.3244 37.865 93.3759 38.2219 92.393 38.2219C90.9608 38.2219 90.1444 37.4396 90.1444 36.2003C90.1444 34.7826 91 34.0224 92.4226 34.0224C93.8062 34.0224 94.5638 34.7704 94.5638 36.1001V36.3323H90.9069ZM76.5317 33.0324C76.7393 33.0324 76.996 33.0691 77.375 33.14V32.5827C77.0484 32.5213 76.7169 32.491 76.385 32.4922C75.2629 32.4922 74.906 33.0789 74.906 34.0077V34.169H73.9429V34.7068H74.906V38.0899H75.6734V34.7044H77.25V34.169H75.6734V33.8562C75.6734 33.2402 75.93 33.0324 76.5317 33.0324ZM71.1196 34.5528C70.0589 34.5528 69.4868 35.2006 69.4868 36.1246C69.4868 37.0045 70.0589 37.6939 71.1196 37.6939C72.1807 37.6939 72.7621 37.007 72.7621 36.1246C72.7621 35.2006 72.2271 34.5528 71.1196 34.5528ZM71.1196 38.2219C69.531 38.2219 68.6753 37.4616 68.6753 36.1246C68.6753 34.8633 69.5407 34.0224 71.1196 34.0224C72.7501 34.0224 73.5639 34.7997 73.5639 36.1246C73.5639 37.4616 72.7037 38.2219 71.1196 38.2219ZM104.549 35.0026C104.446 34.7131 104.255 34.463 104.004 34.2873C103.751 34.1115 103.451 34.0189 103.143 34.0224C102.846 34.0258 102.554 34.1064 102.297 34.2564C102.04 34.4063 101.826 34.6205 101.677 34.8779L101.638 34.169H100.914C100.934 34.4668 100.942 34.7653 100.939 35.0637V38.0899H101.709V36.1954C101.709 35.0295 102.376 34.5528 102.972 34.5528C103.613 34.5528 103.936 35.0026 103.936 36.0757V38.0923H104.696V36.1979C104.696 34.8193 105.566 34.5553 105.942 34.5553C106.715 34.5553 106.932 35.0784 106.932 36.1148V38.0947H107.7V35.8166C107.7 34.521 107.008 34.0249 106.062 34.0249C105.742 34.0241 105.429 34.116 105.16 34.2895C104.891 34.463 104.678 34.7107 104.547 35.0026M110.614 38.2219C112.09 38.2219 112.789 37.8014 112.789 36.9679C112.789 36.3861 112.447 36.1001 111.716 35.951L110.421 35.6968C109.841 35.577 109.589 35.4524 109.589 35.1541C109.589 34.7581 110.047 34.5577 110.729 34.5577C111.281 34.5577 111.794 34.6921 111.848 35.1884H112.64C112.64 34.2595 111.613 34.0224 110.751 34.0224C109.724 34.0224 108.827 34.3866 108.827 35.2446C108.827 35.863 109.289 36.1246 109.887 36.2468L111.117 36.5083C111.557 36.5988 111.985 36.6892 111.985 37.0461C111.985 37.4616 111.557 37.7061 110.707 37.7061C110.012 37.7061 109.509 37.5105 109.44 36.9679H108.617C108.678 37.8796 109.516 38.2219 110.614 38.2219ZM82.6034 33.2109H81.2763V37.4739H82.7231C84.5834 37.4739 85.0256 36.4643 85.0256 35.3424C85.0256 33.9369 84.5542 33.2109 82.6034 33.2109ZM82.8282 38.0899H80.4696V32.5998H82.7916C84.9134 32.5998 85.857 33.5775 85.857 35.3375C85.857 37.1048 84.7618 38.0899 82.8282 38.0899ZM98.8512 36.3568C98.8512 37.3028 98.3207 37.7061 97.3726 37.7061C96.6366 37.7061 96.3261 37.3956 96.3261 36.9557C96.3261 36.0806 97.8687 36.171 98.4527 36.171H98.8512V36.3568ZM98.9245 38.0923H99.6358C99.6118 37.8405 99.6014 37.5875 99.604 37.3345V35.4084C99.604 34.4624 98.8317 34.0224 97.7269 34.0224C96.8641 34.0224 95.8838 34.2619 95.791 35.2006H96.6048C96.649 34.807 97.0377 34.5528 97.7291 34.5528C98.4041 34.5528 98.8538 34.7997 98.8538 35.5012V35.6479H98.4112C97.529 35.6479 95.5145 35.5819 95.5145 36.9557C95.5145 37.7159 96.1869 38.2219 97.1769 38.2219C97.9394 38.2219 98.4333 38.1314 98.8733 37.5448L98.9223 38.0899" fill="white" fill-opacity="0.5"/>
<path d="M106.862 21.9225H111.702L109.257 18.0824L106.862 21.9225ZM98.8686 27.9406V26.2711L100.555 26.0755C101.14 26.0022 101.386 25.4693 101.46 25.3422L105.669 18.4979C106.011 17.9602 105.676 17.4859 105.231 17.4395L103.024 17.1755V15.4913H112.611C113.149 15.4913 113.491 15.8555 113.711 16.1758L119.316 24.7311C119.756 25.418 120.098 25.9533 120.661 26.0315L122.418 26.2271V27.9406H111.636V26.2515L113.005 26.0804C113.665 26.0071 114.202 25.7138 113.665 24.9071L113.151 24.1249H105.493L104.906 25.0782C104.54 25.6649 104.906 26.0071 105.469 26.0804L106.842 26.2515V27.9406H98.8686ZM89.8172 25.5426H86.632V17.8624H89.8172C92.8482 17.8624 94.1192 18.5737 94.1192 21.7025C94.1192 24.8558 92.8482 25.5426 89.8172 25.5426ZM91.7239 15.4913H79.387V17.178L80.9319 17.3368C81.5111 17.4224 81.7385 17.8355 81.7385 18.3977V25.1027C81.7385 25.5695 81.5477 26.0071 81.0344 26.0804L79.3795 26.2931V27.9357L91.7239 27.9406C97.3948 27.9406 99.844 25.176 99.844 21.5314C99.844 18.2559 97.3948 15.4938 91.7212 15.4938M12.418 27.9406H22.396V26.2735L20.6873 26.078C20.2889 26.0315 19.9027 25.7846 19.9027 24.9535V22.9491H27.583V24.8558C27.583 25.418 27.4852 25.9557 26.8252 26.0315L25.0872 26.2271V27.9406H35.0677V26.2271L33.3077 26.0315C32.963 25.9826 32.572 25.7138 32.572 25.0049V18.5199C32.572 17.8624 32.814 17.4199 33.3297 17.3711L35.0652 17.1755V15.4913H25.0897V17.1535L26.8252 17.3735C27.4119 17.4468 27.583 17.9113 27.583 18.5199V20.4534H19.9052V18.4979C19.9052 17.7622 20.1984 17.4224 20.7118 17.3735L22.3984 17.178V15.4913H12.4424V17.178L14.1046 17.3735C14.7646 17.4468 14.9357 17.9357 14.9137 18.5737V24.8802C14.9137 25.5891 14.7157 26.0071 14.0826 26.078L12.418 26.2735V27.9406ZM45.7326 17.3979C42.8971 17.3979 41.2789 18.449 41.2789 21.6756C41.2789 24.9535 42.8946 26.0071 45.7326 26.0071C48.5705 26.0071 50.1839 24.9535 50.1839 21.6756C50.1839 18.449 48.5705 17.3979 45.7326 17.3979ZM35.5566 21.6512C35.5566 17.7402 38.7098 15 45.7546 15C52.7528 15 55.9035 17.7426 55.9035 21.6536C55.9035 25.6624 52.7506 28.383 45.7546 28.383C38.7123 28.383 35.5566 25.6649 35.5566 21.6536M56.4636 27.9406H64.4371V26.2735L62.7261 26.078C62.2345 26.0315 61.9412 25.616 61.9412 25.0538V18.7179L68.5703 27.4493C68.7903 27.745 69.2034 27.9406 69.597 27.9406H75.8595V18.5004C75.8595 18.0555 75.977 17.4493 76.6176 17.3711L78.3555 17.1755V15.4913H70.3794V17.1535L72.115 17.3711C72.726 17.4444 72.8727 17.9602 72.8727 18.5468V24.7116L66.2922 16.0266C66.1784 15.8605 66.0254 15.7248 65.8469 15.6314C65.6684 15.5381 65.4698 15.49 65.2681 15.4913H56.4636V17.178L58.1256 17.3711C58.7123 17.4615 58.9323 17.7548 58.9323 18.5737V24.8802C58.9323 25.6306 58.7317 25.9875 58.1013 26.078L56.4636 26.2735V27.9406Z" fill="white" fill-opacity="0.5"/>
</svg>
