<svg width="98" height="51" viewBox="0 0 98 51" fill="none" xmlns="http://www.w3.org/2000/svg">
<g id="honda.svg" clip-path="url(#clip0_1_480)">
<path id="Vector" d="M11.2797 31.1692H13.2489V30.6105H8.58789V31.1714H10.583V35.455H11.2797V31.1692ZM16.7647 35.4571H17.442V33.5008C17.442 32.3641 16.7625 31.8659 15.7919 31.8659C15.1794 31.8659 14.6423 32.1053 14.3187 32.6079V30.6105H13.6436V35.4571H14.3187V33.8588C14.3187 32.7674 14.9982 32.3361 15.6884 32.3361C16.3268 32.3361 16.7647 32.6812 16.7647 33.531V35.4571ZM20.2265 32.3339C19.5363 32.3339 19.0467 32.6747 18.941 33.4339H21.4279C21.4107 32.638 20.8153 32.3339 20.2265 32.3339ZM18.9129 33.9041C18.982 34.603 19.3875 35.1163 20.1877 35.1163C20.7744 35.1163 21.1928 34.9006 21.3459 34.4131H22.062C21.9283 35.2565 21.0914 35.5714 20.2287 35.5714C18.9669 35.5714 18.2422 34.8812 18.2422 33.7877C18.2422 32.5367 18.9927 31.8659 20.2459 31.8659C21.4667 31.8659 22.144 32.5259 22.144 33.6992V33.9041H18.9129ZM48.1499 32.4978C48.2684 32.4978 48.4259 32.5108 48.6543 32.5518V31.9435C48.5596 31.937 48.4668 31.9241 48.238 31.9241C47.5956 31.9241 47.1707 32.2714 46.9029 32.6855L46.8814 31.9953H46.2344C46.2581 32.2714 46.271 32.5151 46.271 32.7826V35.4571H46.9462V33.7833C46.9462 32.9314 47.341 32.4978 48.1499 32.4978ZM68.6423 32.4978C68.7674 32.4978 68.9186 32.5108 69.1494 32.5518V31.9435C69.0566 31.937 68.9615 31.9241 68.7331 31.9241C68.4637 31.9227 68.1986 31.9923 67.9645 32.126C67.7304 32.2597 67.5357 32.4526 67.4 32.6855L67.3785 31.9953H66.7291C66.7509 32.2714 66.7615 32.5151 66.7615 32.7826V35.4571H67.4389V33.7833C67.4389 32.9314 67.8334 32.4978 68.6423 32.4978ZM35.9332 34.9524L34.8308 31.9974H34.0672L35.4479 35.455H36.3581L37.5205 32.5367L38.7414 35.455H39.6126L40.9824 31.9953H40.2706L39.1815 34.9524L37.9735 31.9974H37.0979L35.9332 34.9524ZM26.9992 31.1498H25.6166V33.0716H27.0466C27.931 33.0716 28.2458 32.7092 28.2458 32.0622C28.2458 31.5078 27.9352 31.1498 26.9992 31.1498ZM27.107 33.6087H25.6166V35.4571L24.9156 35.4614V30.617L26.9927 30.6105C28.4896 30.6084 28.9986 31.2361 28.9986 32.0557C28.9986 32.9594 28.4011 33.6087 27.1049 33.6087M31.5136 32.3339C30.5731 32.3339 30.0814 32.9055 30.0814 33.7208C30.0814 34.5016 30.5731 35.1055 31.5136 35.1055C32.4583 35.1055 32.9587 34.5016 32.9587 33.7208C32.9587 32.9055 32.4906 32.3339 31.5136 32.3339ZM31.5136 35.5714C30.118 35.5714 29.361 34.9006 29.361 33.7208C29.361 32.6079 30.118 31.8659 31.5136 31.8659C32.9457 31.8659 33.6705 32.5518 33.6705 33.7208C33.6705 34.9006 32.9198 35.5714 31.5136 35.5714ZM43.3786 32.3339C42.6886 32.3339 42.1838 32.6747 42.0887 33.4339H44.5737C44.5605 32.638 43.9696 32.3339 43.3786 32.3339ZM42.0564 33.9041C42.1277 34.603 42.5374 35.1163 43.34 35.1163C43.9224 35.1163 44.3364 34.9006 44.4938 34.4131H45.2013C45.0719 35.2565 44.235 35.5714 43.368 35.5714C42.1062 35.5714 41.3835 34.8812 41.3835 33.7877C41.3835 32.5367 42.1363 31.8659 43.3938 31.8659C44.6147 31.8659 45.2809 32.5259 45.2809 33.6992V33.9041H42.0564ZM71.5198 32.3339C70.8295 32.3339 70.3227 32.6747 70.2257 33.4339H72.7127C72.6994 32.638 72.1085 32.3339 71.5198 32.3339ZM70.1953 33.9041C70.2666 34.603 70.672 35.1163 71.4789 35.1163C72.0609 35.1163 72.4753 34.9006 72.6285 34.4131H73.3403C73.2108 35.2565 72.3739 35.5714 71.5066 35.5714C70.2428 35.5714 69.5225 34.8812 69.5225 33.7877C69.5225 32.5367 70.2775 31.8659 71.5327 31.8659C72.7536 31.8659 73.4221 32.5259 73.4221 33.6992V33.9041H70.1953ZM57.5108 30.9923C57.694 30.9923 57.9205 31.0247 58.2549 31.0872V30.5955C57.9667 30.5413 57.6742 30.5146 57.3814 30.5157C56.3913 30.5157 56.0763 31.0333 56.0763 31.8529V31.9953H55.2265V32.4698H56.0763V35.455H56.7534V32.4676H58.1447V31.9953H56.7534V31.7192C56.7534 31.1756 56.9799 30.9923 57.5108 30.9923ZM52.7352 32.3339C51.7993 32.3339 51.2945 32.9055 51.2945 33.7208C51.2945 34.4973 51.7993 35.1055 52.7352 35.1055C53.6715 35.1055 54.1846 34.4994 54.1846 33.7208C54.1846 32.9055 53.7125 32.3339 52.7352 32.3339ZM52.7352 35.5714C51.3335 35.5714 50.5784 34.9006 50.5784 33.7208C50.5784 32.6079 51.342 31.8659 52.7352 31.8659C54.174 31.8659 54.8921 32.5518 54.8921 33.7208C54.8921 34.9006 54.1331 35.5714 52.7352 35.5714ZM82.233 32.7308C82.1423 32.4753 81.9739 32.2547 81.7517 32.0996C81.5292 31.9445 81.2641 31.8628 80.9927 31.8659C80.7302 31.8689 80.4727 31.94 80.2459 32.0723C80.0191 32.2046 79.8306 32.3937 79.6989 32.6208L79.6642 31.9953H79.0257C79.0432 32.258 79.0504 32.5214 79.0471 32.7847V35.455H79.7266V33.7833C79.7266 32.7545 80.3156 32.3339 80.8418 32.3339C81.407 32.3339 81.6916 32.7308 81.6916 33.6777V35.4571H82.3625V33.7855C82.3625 32.569 83.1304 32.3361 83.4625 32.3361C84.1439 32.3361 84.3361 32.7977 84.3361 33.7122V35.4592H85.0132V33.449C85.0132 32.3059 84.4028 31.868 83.5682 31.868C83.2859 31.8673 83.0092 31.9485 82.7718 32.1016C82.5345 32.2547 82.3466 32.4732 82.2307 32.7308M87.5844 35.5714C88.8871 35.5714 89.5038 35.2004 89.5038 34.4649C89.5038 33.9516 89.2021 33.6992 88.557 33.5676L87.414 33.3433C86.9026 33.2377 86.6804 33.1277 86.6804 32.8645C86.6804 32.5151 87.0839 32.3382 87.6857 32.3382C88.173 32.3382 88.626 32.4568 88.6735 32.8947H89.3724C89.3724 32.0751 88.4665 31.8659 87.7052 31.8659C86.7993 31.8659 86.0076 32.1872 86.0076 32.9443C86.0076 33.49 86.4153 33.7208 86.9436 33.8286L88.0287 34.0594C88.417 34.1392 88.7943 34.2191 88.7943 34.5339C88.7943 34.9006 88.417 35.1163 87.6662 35.1163C87.0538 35.1163 86.6095 34.9438 86.549 34.4649H85.8221C85.8762 35.2694 86.6157 35.5714 87.5844 35.5714ZM62.8684 31.1498H61.6974V34.9114H62.974C64.6155 34.9114 65.0057 34.0206 65.0057 33.0306C65.0057 31.7904 64.5898 31.1498 62.8684 31.1498ZM63.0668 35.455H60.9856V30.6105H63.0345C64.9067 30.6105 65.7393 31.4733 65.7393 33.0263C65.7393 34.5857 64.773 35.455 63.0668 35.455ZM77.2053 33.9257C77.2053 34.7604 76.7371 35.1163 75.9005 35.1163C75.2511 35.1163 74.9771 34.8424 74.9771 34.4542C74.9771 33.682 76.3383 33.7618 76.8537 33.7618H77.2053V33.9257ZM77.27 35.4571H77.8976C77.8764 35.2349 77.8672 35.0117 77.8695 34.7885V33.0888C77.8695 32.2541 77.1881 31.8659 76.2132 31.8659C75.4519 31.8659 74.5869 32.0772 74.505 32.9055H75.2231C75.262 32.5582 75.6051 32.3339 76.2152 32.3339C76.8107 32.3339 77.2076 32.5518 77.2076 33.1708V33.3002H76.817C76.0385 33.3002 74.261 33.242 74.261 34.4542C74.261 35.1249 74.8543 35.5714 75.7279 35.5714C76.4007 35.5714 76.8365 35.4916 77.2247 34.974L77.268 35.455" fill="white" fill-opacity="0.5"/>
<path id="Vector_2" d="M84.2737 21.1865H88.5441L86.3873 17.798L84.2737 21.1865ZM77.2205 26.4968V25.0236L78.7088 24.851C79.2245 24.7863 79.442 24.3161 79.5067 24.204L83.2212 18.1646C83.523 17.6901 83.2275 17.2717 82.8349 17.2307L80.8874 16.9978V15.5117H89.3467C89.8211 15.5117 90.1232 15.833 90.3173 16.1156L95.2629 23.6647C95.6512 24.2708 95.9533 24.7432 96.4495 24.8122L98.0001 24.9848V26.4968H88.486V25.0063L89.694 24.8553C90.2764 24.7906 90.7508 24.5318 90.2764 23.82L89.8234 23.1298H83.0657L82.548 23.971C82.2245 24.4887 82.548 24.7906 83.0443 24.8553L84.2565 25.0063V26.4968H77.2205ZM69.2336 24.3808H66.4231V17.6039H69.2336C71.9081 17.6039 73.0296 18.2315 73.0296 20.9923C73.0296 23.7747 71.9081 24.3808 69.2336 24.3808ZM70.916 15.5117H60.0302V16.9999L61.3933 17.1401C61.9044 17.2156 62.1051 17.5801 62.1051 18.0762V23.9926C62.1051 24.4046 61.9368 24.7906 61.4838 24.8553L60.0236 25.043V26.4924L70.916 26.4968C75.92 26.4968 78.0812 24.0573 78.0812 20.8414C78.0812 17.9511 75.92 15.5138 70.9137 15.5138M0.9375 26.4968H9.74197V25.0258L8.2343 24.8532C7.88273 24.8122 7.54192 24.5944 7.54192 23.861V22.0924H14.3189V23.7747C14.3189 24.2708 14.2326 24.7453 13.6503 24.8122L12.1167 24.9848V26.4968H20.9233V24.9848L19.3704 24.8122C19.0662 24.7691 18.7211 24.5318 18.7211 23.9063V18.1841C18.7211 17.6039 18.9347 17.2135 19.3898 17.1703L20.9212 16.9978V15.5117H12.1189V16.9784L13.6503 17.1725C14.1679 17.2372 14.3189 17.647 14.3189 18.1841V19.8902H7.5441V18.1646C7.5441 17.5154 7.8029 17.2156 8.25586 17.1725L9.74412 16.9999V15.5117H0.959069V16.9999L2.42576 17.1725C3.00812 17.2372 3.15911 17.6686 3.1397 18.2315V23.7963C3.1397 24.4218 2.96499 24.7906 2.40635 24.8532L0.9375 25.0258V26.4968ZM30.3339 17.194C27.8319 17.194 26.404 18.1215 26.404 20.9686C26.404 23.861 27.8297 24.7906 30.3339 24.7906C32.8381 24.7906 34.2617 23.861 34.2617 20.9686C34.2617 18.1215 32.8381 17.194 30.3339 17.194ZM21.3547 20.947C21.3547 17.496 24.1371 15.0781 30.3533 15.0781C36.5285 15.0781 39.3086 17.4982 39.3086 20.9492C39.3086 24.4865 36.5265 26.8871 30.3533 26.8871C24.1393 26.8871 21.3547 24.4887 21.3547 20.9492M39.8028 26.4968H46.8386V25.0258L45.3288 24.8532C44.895 24.8122 44.6362 24.4455 44.6362 23.9495V18.3588L50.4857 26.0632C50.6798 26.3242 51.0443 26.4968 51.3916 26.4968H56.9176V18.1668C56.9176 17.7742 57.0212 17.2393 57.5864 17.1703L59.12 16.9978V15.5117H52.0819V16.9784L53.6135 17.1703C54.1526 17.235 54.282 17.6901 54.282 18.2078V23.6475L48.4754 15.984C48.3751 15.8374 48.24 15.7177 48.0825 15.6353C47.9251 15.5529 47.7498 15.5105 47.5718 15.5117H39.8028V16.9999L41.2693 17.1703C41.787 17.2501 41.9811 17.5089 41.9811 18.2315V23.7963C41.9811 24.4585 41.8042 24.7734 41.2479 24.8532L39.8028 25.0258V26.4968Z" fill="white" fill-opacity="0.5"/>
</g>
<defs>
<clipPath id="clip0_1_480">
<rect width="97.0626" height="50.9579" fill="white" transform="translate(0.9375)"/>
</clipPath>
</defs>
</svg>
