<svg width="201" height="52" viewBox="0 0 201 52" fill="none" xmlns="http://www.w3.org/2000/svg">
<path fill-rule="evenodd" clip-rule="evenodd" d="M130.868 32.5081C130.629 32.5035 130.391 32.5485 130.168 32.6406C129.946 32.7327 129.743 32.8701 129.572 33.0446C129.401 33.2192 129.265 33.4274 129.172 33.6572C129.08 33.887 129.032 34.1337 129.032 34.3829C129.032 34.6321 129.08 34.8788 129.172 35.1086C129.265 35.3384 129.401 35.5466 129.572 35.7211C129.743 35.8957 129.946 36.033 130.168 36.1251C130.391 36.2172 130.629 36.2623 130.868 36.2577C131.105 36.2574 131.34 36.2085 131.558 36.1139C131.777 36.0193 131.975 35.8807 132.142 35.7062C132.309 35.5316 132.441 35.3245 132.531 35.0967C132.621 34.8689 132.667 34.6249 132.666 34.3786C132.666 34.133 132.619 33.8898 132.529 33.6629C132.439 33.4359 132.307 33.2297 132.14 33.0561C131.973 32.8824 131.775 32.7446 131.556 32.6506C131.338 32.5566 131.105 32.5081 130.868 32.5081ZM130.868 36.0322C130.66 36.0324 130.453 35.9898 130.26 35.9067C130.068 35.8236 129.893 35.7018 129.745 35.5481C129.598 35.3945 129.481 35.2121 129.402 35.0114C129.323 34.8106 129.282 34.5957 129.283 34.3786C129.284 34.1624 129.325 33.9481 129.404 33.7484C129.484 33.5487 129.601 33.3672 129.748 33.2145C129.895 33.0618 130.07 32.9407 130.262 32.8584C130.455 32.7759 130.66 32.7338 130.868 32.7344C131.076 32.7344 131.281 32.7768 131.473 32.8595C131.665 32.9421 131.839 33.0632 131.986 33.216C132.133 33.3687 132.249 33.55 132.328 33.7494C132.408 33.9489 132.449 34.1627 132.448 34.3786C132.45 34.5952 132.41 34.8099 132.331 35.0104C132.252 35.2108 132.135 35.393 131.988 35.5467C131.842 35.7003 131.668 35.8222 131.475 35.9055C131.283 35.9888 131.077 36.0319 130.868 36.0322Z" fill="white" fill-opacity="0.5"/>
<path fill-rule="evenodd" clip-rule="evenodd" d="M131.793 33.887C131.793 33.7101 131.718 33.524 131.567 33.4353C131.415 33.3419 131.246 33.3327 131.076 33.3327H130.198V35.428H130.444V34.4616H130.897L131.472 35.428H131.765L131.156 34.4616C131.515 34.4511 131.793 34.2992 131.793 33.887ZM130.821 34.2597H130.443V33.5188H131.018C131.269 33.5188 131.543 33.5582 131.543 33.8823C131.544 34.309 131.104 34.2597 130.821 34.2597ZM120.303 23.7568L123.988 19.6642C124.202 19.3637 124.308 19.1533 124.308 18.9732C124.308 18.6727 124.06 18.5524 123.278 18.5524H122.349V15.9686H132.412V18.5524H131.09C129.563 18.5524 129.279 18.7923 127.148 21.5865L121.319 28.1348V32.1309C121.319 33.1532 121.815 33.5129 123.236 33.5129H125.437V36.0059H111.342V33.5129H113.542C114.962 33.5129 115.459 33.1532 115.459 32.1309V28.1348L108.594 20.2342C107.459 18.8528 107.615 18.5524 104.457 18.5524V15.9686H117.204V18.5524H116.296C115.373 18.5524 114.981 18.7326 114.981 19.0928C114.981 19.3939 115.265 19.6339 115.443 19.8739L118.917 23.812C119.329 24.2585 119.833 24.3163 120.303 23.7568ZM34.7763 15.9679H37.8512V23.1776H35.0114C34.7598 21.7365 33.8927 21.1756 33.102 20.4196C31.6755 19.056 28.586 17.9206 25.9876 17.9206C22.634 17.9206 19.8037 19.0027 19.8037 20.5938C19.8037 25.0106 38.9832 21.4958 38.9832 29.8469C38.9832 34.2026 34.8749 36.6358 27.497 36.6358C24.9428 36.6358 21.0779 35.8113 18.7974 34.5517C18.0826 34.1223 17.7792 34.958 17.6452 36.0053H14.4926V28.555H17.3444C17.9732 30.4478 18.8398 30.8377 19.6368 31.5892C21.0197 32.9113 24.3114 33.8731 27.3301 33.8422C31.8815 33.7956 33.4464 32.7607 33.4464 31.2584C33.4464 29.7568 31.8986 29.3959 26.911 28.5852L22.6763 27.8639C17.8974 27.1125 14.418 26.0014 14.418 22.0362C14.418 17.9206 18.8196 15.3368 25.7791 15.3368C28.7118 15.3368 31.1654 15.7444 33.5204 17.129C34.1727 17.5702 34.7845 17.6228 34.7763 15.9679ZM94.7853 28.0389L94.8465 20.0257C94.8465 18.9745 94.3207 18.6142 92.8179 18.6142H91.0525V16.1211H102.284V18.6142H100.82C99.3168 18.6142 98.7909 18.9751 98.7909 20.0257V36.1578L94.3949 36.1217L80.1589 22.0987V32.2827C80.1589 33.3045 80.6848 33.6943 82.1869 33.6943H84.1413V36.1578H72.4768V33.6943H74.4093C75.9121 33.6943 76.4379 33.3038 76.4379 32.2827V20.0257C76.4379 18.9745 75.9121 18.6142 74.4093 18.6142H72.4768V16.1211H82.5619L94.7853 28.0389ZM57.1641 15.1855C48.213 15.1855 42.6099 19.3019 42.6099 25.91C42.6099 32.3998 48.1353 36.4846 56.8911 36.4846C66.191 36.4846 71.6007 32.4596 71.6007 25.58C71.6014 19.392 65.7637 15.1855 57.1641 15.1855ZM56.9606 33.8718C52.006 33.8718 49.1579 30.8975 49.1579 25.7601C49.1579 20.7437 52.1299 17.7693 57.2083 17.7693C62.0802 17.7693 64.9282 20.8042 64.9282 25.9712C64.9282 31.0178 62.0385 33.8718 56.9606 33.8718Z" fill="white" fill-opacity="0.5"/>
<path d="M141.671 36.578V15H146.233V32.8166H155.484V36.578H141.671ZM163.067 15V36.578H158.505V15H163.067ZM170.719 15L175.935 31.3942H176.135L181.36 15H186.418L178.979 36.578H173.1L165.651 15H170.719Z" fill="white" fill-opacity="0.5"/>
</svg>
