<svg xmlns="http://www.w3.org/2000/svg" width="120" height="60" viewBox="0 0 120 60" fill="none">
  <path fill-rule="evenodd" clip-rule="evenodd" d="M80.8143 34.5984C80.6481 34.5952 80.4831 34.6264 80.3285 34.6903C80.1739 34.7542 80.0332 34.8496 79.9145 34.9707C79.7961 35.0919 79.7017 35.2363 79.6374 35.3958C79.573 35.5553 79.54 35.7265 79.54 35.8994C79.54 36.0723 79.573 36.2436 79.6374 36.403C79.7017 36.5625 79.7961 36.707 79.9145 36.8281C80.0332 36.9493 80.1739 37.0446 80.3285 37.1085C80.4831 37.1724 80.6481 37.2037 80.8143 37.2005C80.9788 37.2003 81.1413 37.1664 81.293 37.1007C81.4448 37.035 81.5825 36.9389 81.6984 36.8178C81.8143 36.6966 81.9058 36.5529 81.9681 36.3948C82.0308 36.2367 82.0625 36.0674 82.0617 35.8965C82.0617 35.726 82.0295 35.5572 81.9668 35.3997C81.9042 35.2422 81.8126 35.0992 81.6967 34.9786C81.5809 34.8581 81.4431 34.7625 81.2918 34.6972C81.1405 34.632 80.9784 34.5984 80.8143 34.5984ZM80.8143 37.044C80.6695 37.0441 80.526 37.0146 80.3924 36.9569C80.2588 36.8993 80.1372 36.8147 80.0349 36.7081C79.9326 36.6015 79.8518 36.4749 79.7969 36.3356C79.7417 36.1963 79.7137 36.0471 79.7141 35.8965C79.7145 35.7464 79.7429 35.5977 79.7982 35.4591C79.8534 35.3205 79.9347 35.1946 80.0369 35.0886C80.1388 34.9826 80.26 34.8986 80.3937 34.8414C80.5273 34.7842 80.6699 34.755 80.8143 34.7554C80.9586 34.7554 81.1009 34.7848 81.2341 34.8422C81.3673 34.8996 81.4881 34.9836 81.5899 35.0896C81.6918 35.1956 81.7726 35.3214 81.8275 35.4598C81.8827 35.5982 81.9112 35.7466 81.9108 35.8965C81.9116 36.0468 81.884 36.1958 81.8291 36.3349C81.7743 36.474 81.6934 36.6004 81.5916 36.7071C81.4897 36.8137 81.3689 36.8983 81.2353 36.9561C81.1021 37.0139 80.959 37.0438 80.8143 37.044Z" fill="white" fill-opacity="0.5"/>
  <path fill-rule="evenodd" clip-rule="evenodd" d="M81.4561 35.5556C81.4561 35.4329 81.4041 35.3037 81.2994 35.2421C81.1942 35.1774 81.0767 35.171 80.9588 35.171H80.3493V36.6251H80.52V35.9544H80.8346L81.2338 36.6251H81.4367L81.0144 35.9544C81.2635 35.9471 81.4561 35.8417 81.4561 35.5556ZM80.7819 35.8143H80.5196V35.3001H80.9188C81.0924 35.3001 81.2829 35.3275 81.2829 35.5524C81.2833 35.8485 80.9781 35.8143 80.7819 35.8143ZM73.4825 28.5255L76.04 25.6852C76.188 25.4767 76.2619 25.3307 76.2619 25.2057C76.2619 24.9972 76.0895 24.9137 75.5472 24.9137H74.9023V23.1206H81.8858V24.9137H80.9682C79.9085 24.9137 79.7118 25.0802 78.233 27.0193L74.1876 31.5637V34.3369C74.1876 35.0464 74.532 35.296 75.5179 35.296H77.0454V37.0261H67.2635V35.296H68.7905C69.7757 35.296 70.1208 35.0464 70.1208 34.3369V31.5637L65.3563 26.0808C64.5687 25.1222 64.6775 24.9137 62.4854 24.9137V23.1206H71.3316V24.9137H70.7019C70.061 24.9137 69.7893 25.0387 69.7893 25.2887C69.7893 25.4977 69.9864 25.6642 70.1097 25.8308L72.5204 28.5638C72.8066 28.8736 73.1563 28.9138 73.4825 28.5255ZM14.1283 23.1201H16.2623V28.1235H14.2915C14.1169 27.1234 13.5151 26.7342 12.9664 26.2095C11.9764 25.2632 9.83237 24.4752 8.02915 24.4752C5.70177 24.4752 3.73758 25.2262 3.73758 26.3304C3.73758 29.3956 17.0479 26.9564 17.0479 32.7519C17.0479 35.7746 14.1967 37.4633 9.07662 37.4633C7.30408 37.4633 4.62186 36.8911 3.03928 36.0169C2.54319 35.719 2.33264 36.2989 2.23965 37.0257H0.0517588V31.8553H2.03087C2.4673 33.1689 3.06867 33.4395 3.62178 33.961C4.58153 34.8785 6.8659 35.546 8.96082 35.5246C12.1194 35.4922 13.2054 34.774 13.2054 33.7315C13.2054 32.6894 12.1313 32.4389 8.66998 31.8763L5.73117 31.3757C2.41467 30.8543 0 30.0832 0 27.3314C0 24.4752 3.05463 22.6821 7.88441 22.6821C9.91967 22.6821 11.6224 22.965 13.2568 23.9258C13.7094 24.232 14.134 24.2685 14.1283 23.1201ZM55.7736 31.4971L55.8161 25.9362C55.8161 25.2066 55.4511 24.9566 54.4082 24.9566H53.1831V23.2264H60.9777V24.9566H59.9616C58.9184 24.9566 58.5534 25.207 58.5534 25.9362V37.1315L55.5027 37.1065L45.6231 27.3748V34.4423C45.6231 35.1514 45.988 35.4219 47.0305 35.4219H48.3868V37.1315H40.2918V35.4219H41.633C42.6759 35.4219 43.0408 35.1509 43.0408 34.4423V25.9362C43.0408 25.2066 42.6759 24.9566 41.633 24.9566H40.2918V23.2264H47.2907L55.7736 31.4971ZM29.6651 22.5771C23.4532 22.5771 19.5647 25.4338 19.5647 30.0197C19.5647 34.5235 23.3993 37.3583 29.4756 37.3583C35.9296 37.3583 39.6839 34.5651 39.6839 29.7907C39.6843 25.4963 35.6331 22.5771 29.6651 22.5771ZM29.5239 35.5451C26.0854 35.5451 24.1089 33.481 24.1089 29.9157C24.1089 26.4344 26.1714 24.3703 29.6958 24.3703C33.0768 24.3703 35.0533 26.4764 35.0533 30.0622C35.0533 33.5645 33.0478 35.5451 29.5239 35.5451Z" fill="white" fill-opacity="0.5"/>
  <path d="M88.3115 37.4226V22.4478H91.4777V34.8122H97.8975V37.4226H88.3115ZM103.16 22.4478V37.4226H99.9944V22.4478H103.16ZM108.471 22.4478L112.09 33.8251H112.229L115.855 22.4478H119.365L114.203 37.4226H110.123L104.954 22.4478H108.471Z" fill="white" fill-opacity="0.5"/>
</svg>