<svg width="393" height="52" viewBox="0 0 393 52" fill="none" xmlns="http://www.w3.org/2000/svg">
<path d="M9.41797 16.6791V22.3718H14.9479V36.1431H22.7958V22.3718H28.1634V16.6791H9.41797ZM33.6257 16.6791L26.1981 36.1431H33.7069L37.665 24.5814L41.704 36.1431H49.2944L41.7856 16.6791H33.6257ZM47.5594 16.6791V22.3718H53.1033V36.1431H60.9376V22.3718H66.3184V16.6791H47.5594ZM71.6997 16.6791L64.3399 36.1431H71.8486L75.8065 24.5814L79.8461 36.1431H87.4495L79.9272 16.6787L71.6997 16.6791Z" fill="white" fill-opacity="0.5"/>
<path d="M99.9167 36.652H97.9678L105.375 16.2884H107.364L114.771 36.652H112.823L106.439 18.7045H106.3L99.9167 36.652ZM101.319 28.8466H111.421V30.5171H101.319V28.8466ZM124.227 36.652H118.262V16.2884H124.586C126.527 16.2884 128.188 16.6927 129.567 17.5014C130.953 18.3101 132.013 19.4702 132.749 20.9816C133.484 22.4929 133.852 24.3059 133.852 26.4205C133.852 28.5549 133.475 30.3878 132.719 31.919C131.97 33.4437 130.876 34.6136 129.438 35.429C128.006 36.2443 126.269 36.652 124.227 36.652ZM120.121 34.9815H124.118C125.868 34.9815 127.333 34.6368 128.513 33.9474C129.693 33.258 130.578 32.2737 131.168 30.9943C131.758 29.715 132.053 28.1903 132.053 26.4205C132.046 24.6639 131.755 23.1525 131.178 21.8864C130.608 20.6203 129.759 19.6492 128.633 18.973C127.512 18.2969 126.127 17.9588 124.476 17.9588H120.121V34.9815ZM137.432 16.2884L143.796 34.2358H143.974L150.338 16.2884H152.287L144.879 36.652H142.891L135.483 16.2884H137.432ZM154.057 36.652H152.108L159.516 16.2884H161.504L168.912 36.652H166.963L160.58 18.7045H160.441L154.057 36.652ZM155.459 28.8466H165.561V30.5171H155.459V28.8466ZM188.261 16.2884V36.652H186.452L174.421 19.5994H174.262V36.652H172.402V16.2884H174.202L186.273 33.3608H186.432V16.2884H188.261ZM209.625 22.652H207.755C207.616 21.956 207.364 21.3129 206.999 20.723C206.642 20.1264 206.191 19.6061 205.647 19.1619C205.104 18.7178 204.487 18.3731 203.798 18.1278C203.108 17.8826 202.362 17.7599 201.561 17.7599C200.274 17.7599 199.101 18.0947 198.041 18.7642C196.986 19.4337 196.142 20.4181 195.505 21.7173C194.875 23.0099 194.561 24.5942 194.561 26.4702C194.561 28.3594 194.875 29.9503 195.505 31.2429C196.142 32.5355 196.986 33.5165 198.041 34.186C199.101 34.8489 200.274 35.1804 201.561 35.1804C202.362 35.1804 203.108 35.0577 203.798 34.8125C204.487 34.5672 205.104 34.2259 205.647 33.7883C206.191 33.3442 206.642 32.8239 206.999 32.2273C207.364 31.6306 207.616 30.9844 207.755 30.2883H209.625C209.459 31.223 209.147 32.0947 208.69 32.9034C208.239 33.7055 207.662 34.4081 206.96 35.0113C206.263 35.6146 205.461 36.0852 204.554 36.4233C203.645 36.7613 202.648 36.9304 201.561 36.9304C199.85 36.9304 198.333 36.5028 197.006 35.6477C195.681 34.786 194.64 33.5729 193.884 32.0085C193.135 30.4441 192.761 28.598 192.761 26.4702C192.761 24.3423 193.135 22.4962 193.884 20.9318C194.64 19.3674 195.681 18.1577 197.006 17.3025C198.333 16.4408 199.85 16.0099 201.561 16.0099C202.648 16.0099 203.645 16.179 204.554 16.5171C205.461 16.8485 206.263 17.3191 206.96 17.929C207.662 18.5322 208.239 19.2349 208.69 20.0369C209.147 20.839 209.459 21.7107 209.625 22.652ZM213.992 36.652V16.2884H225.805V17.9588H215.852V25.625H225.178V27.2954H215.852V34.9815H226.003V36.652H213.992ZM236.583 36.652H230.617V16.2884H236.941C238.883 16.2884 240.544 16.6927 241.922 17.5014C243.308 18.3101 244.368 19.4702 245.104 20.9816C245.84 22.4929 246.208 24.3059 246.208 26.4205C246.208 28.5549 245.83 30.3878 245.074 31.919C244.325 33.4437 243.232 34.6136 241.793 35.429C240.361 36.2443 238.624 36.652 236.583 36.652ZM232.477 34.9815H236.474C238.224 34.9815 239.688 34.6368 240.869 33.9474C242.048 33.258 242.933 32.2737 243.523 30.9943C244.113 29.715 244.408 28.1903 244.408 26.4205C244.402 24.6639 244.11 23.1525 243.533 21.8864C242.963 20.6203 242.114 19.6492 240.988 18.973C239.867 18.2969 238.482 17.9588 236.831 17.9588H232.477V34.9815ZM269.646 21.3793C269.534 20.2457 269.033 19.3442 268.145 18.6747C267.257 18.0052 266.14 17.6705 264.794 17.6705C263.846 17.6705 263.011 17.8329 262.289 18.1577C261.573 18.4825 261.009 18.9333 260.598 19.51C260.194 20.08 259.992 20.7296 259.992 21.4588C259.992 21.9958 260.108 22.4664 260.34 22.8707C260.571 23.2751 260.883 23.6231 261.274 23.9148C261.672 24.1998 262.109 24.445 262.587 24.6506C263.071 24.8561 263.558 25.0284 264.048 25.1676L266.196 25.7841C266.846 25.9631 267.495 26.1917 268.145 26.4702C268.795 26.7486 269.388 27.0999 269.925 27.5241C270.468 27.9418 270.903 28.4555 271.227 29.0653C271.559 29.6685 271.725 30.3944 271.725 31.2429C271.725 32.33 271.443 33.3077 270.879 34.1761C270.316 35.0445 269.507 35.7339 268.453 36.2443C267.399 36.7481 266.136 37 264.665 37C263.279 37 262.076 36.7713 261.056 36.3139C260.035 35.8499 259.233 35.2102 258.649 34.3949C258.066 33.5796 257.738 32.6349 257.665 31.5611H259.574C259.64 32.3631 259.906 33.0426 260.369 33.5994C260.833 34.1563 261.436 34.5805 262.179 34.8722C262.922 35.1572 263.75 35.2997 264.665 35.2997C265.679 35.2997 266.581 35.1307 267.369 34.7926C268.165 34.4479 268.788 33.9706 269.239 33.3608C269.696 32.7443 269.925 32.0284 269.925 31.2131C269.925 30.5237 269.745 29.947 269.388 29.483C269.03 29.0123 268.53 28.6179 267.887 28.2997C267.25 27.9815 266.511 27.6998 265.669 27.4545L263.233 26.7387C261.635 26.2613 260.396 25.6018 259.514 24.76C258.633 23.9181 258.192 22.8442 258.192 21.5384C258.192 20.4446 258.483 19.4835 259.067 18.6548C259.657 17.8196 260.452 17.17 261.453 16.706C262.46 16.2353 263.591 16 264.844 16C266.11 16 267.23 16.232 268.204 16.6961C269.179 17.1601 269.951 17.7997 270.521 18.6151C271.098 19.4238 271.406 20.3452 271.446 21.3793H269.646ZM274.29 16.2884H276.437L282.473 25.9531H282.652L288.687 16.2884H290.835L283.487 27.8324V36.652H281.638V27.8324L274.29 16.2884ZM305.384 21.3793C305.272 20.2457 304.771 19.3442 303.883 18.6747C302.995 18.0052 301.878 17.6705 300.533 17.6705C299.584 17.6705 298.749 17.8329 298.027 18.1577C297.311 18.4825 296.747 18.9333 296.336 19.51C295.932 20.08 295.73 20.7296 295.73 21.4588C295.73 21.9958 295.846 22.4664 296.078 22.8707C296.31 23.2751 296.621 23.6231 297.012 23.9148C297.41 24.1998 297.848 24.445 298.325 24.6506C298.809 24.8561 299.296 25.0284 299.786 25.1676L301.934 25.7841C302.584 25.9631 303.233 26.1917 303.883 26.4702C304.533 26.7486 305.126 27.0999 305.663 27.5241C306.206 27.9418 306.641 28.4555 306.965 29.0653C307.297 29.6685 307.463 30.3944 307.463 31.2429C307.463 32.33 307.181 33.3077 306.617 34.1761C306.054 35.0445 305.245 35.7339 304.191 36.2443C303.138 36.7481 301.874 37 300.403 37C299.018 37 297.814 36.7713 296.794 36.3139C295.773 35.8499 294.971 35.2102 294.387 34.3949C293.804 33.5796 293.476 32.6349 293.403 31.5611H295.312C295.379 32.3631 295.644 33.0426 296.107 33.5994C296.572 34.1563 297.175 34.5805 297.917 34.8722C298.66 35.1572 299.489 35.2997 300.403 35.2997C301.418 35.2997 302.319 35.1307 303.107 34.7926C303.903 34.4479 304.526 33.9706 304.977 33.3608C305.434 32.7443 305.663 32.0284 305.663 31.2131C305.663 30.5237 305.484 29.947 305.126 29.483C304.768 29.0123 304.268 28.6179 303.625 28.2997C302.988 27.9815 302.249 27.6998 301.407 27.4545L298.971 26.7387C297.374 26.2613 296.134 25.6018 295.252 24.76C294.371 23.9181 293.93 22.8442 293.93 21.5384C293.93 20.4446 294.221 19.4835 294.805 18.6548C295.395 17.8196 296.19 17.17 297.192 16.706C298.199 16.2353 299.329 16 300.582 16C301.848 16 302.968 16.232 303.943 16.6961C304.917 17.1601 305.69 17.7997 306.26 18.6151C306.837 19.4238 307.145 20.3452 307.185 21.3793H305.384ZM310.704 17.9588V16.2884H325.47V17.9588H319.016V36.652H317.158V17.9588H310.704ZM329.656 36.652V16.2884H341.468V17.9588H331.515V25.625H340.842V27.2954H331.515V34.9815H341.667V36.652H329.656ZM346.281 16.2884H348.428L355.816 34.027H355.995L363.383 16.2884H365.531V36.652H363.781V20.2159H363.622L356.751 36.652H355.061L348.19 20.2159H348.031V36.652H346.281V16.2884ZM382.001 21.3793C381.889 20.2457 381.388 19.3442 380.5 18.6747C379.612 18.0052 378.495 17.6705 377.15 17.6705C376.202 17.6705 375.366 17.8329 374.644 18.1577C373.928 18.4825 373.364 18.9333 372.953 19.51C372.549 20.08 372.347 20.7296 372.347 21.4588C372.347 21.9958 372.463 22.4664 372.695 22.8707C372.927 23.2751 373.238 23.6231 373.629 23.9148C374.027 24.1998 374.465 24.445 374.942 24.6506C375.426 24.8561 375.913 25.0284 376.404 25.1676L378.551 25.7841C379.201 25.9631 379.85 26.1917 380.5 26.4702C381.15 26.7486 381.743 27.0999 382.28 27.5241C382.823 27.9418 383.258 28.4555 383.582 29.0653C383.914 29.6685 384.08 30.3944 384.08 31.2429C384.08 32.33 383.798 33.3077 383.234 34.1761C382.671 35.0445 381.862 35.7339 380.808 36.2443C379.755 36.7481 378.492 37 377.02 37C375.635 37 374.431 36.7713 373.411 36.3139C372.39 35.8499 371.588 35.2102 371.004 34.3949C370.421 33.5796 370.093 32.6349 370.02 31.5611H371.929C371.996 32.3631 372.261 33.0426 372.724 33.5994C373.189 34.1563 373.792 34.5805 374.534 34.8722C375.277 35.1572 376.106 35.2997 377.02 35.2997C378.035 35.2997 378.936 35.1307 379.724 34.7926C380.52 34.4479 381.143 33.9706 381.594 33.3608C382.051 32.7443 382.28 32.0284 382.28 31.2131C382.28 30.5237 382.101 29.947 381.743 29.483C381.385 29.0123 380.885 28.6179 380.242 28.2997C379.605 27.9815 378.866 27.6998 378.024 27.4545L375.588 26.7387C373.991 26.2613 372.751 25.6018 371.87 24.76C370.988 23.9181 370.547 22.8442 370.547 21.5384C370.547 20.4446 370.839 19.4835 371.422 18.6548C372.012 17.8196 372.807 17.17 373.809 16.706C374.816 16.2353 375.946 16 377.199 16C378.465 16 379.585 16.232 380.56 16.6961C381.534 17.1601 382.307 17.7997 382.877 18.6151C383.454 19.4238 383.762 20.3452 383.802 21.3793H382.001Z" fill="white" fill-opacity="0.5"/>
</svg>
