<svg width="206" height="52" viewBox="0 0 206 52" fill="none" xmlns="http://www.w3.org/2000/svg">
<path d="M12.418 15.7358V21.9913H18.4948V37.1244H27.1186V21.9913H33.017V15.7358H12.418ZM39.0194 15.7358L30.8573 37.1244H39.1086L43.4581 24.4195L47.8964 37.1244H56.2374L47.9861 15.7358H39.0194ZM54.3309 15.7358V21.9913H60.4229V37.1244H69.0319V21.9913H74.9447V15.7358H54.3309ZM80.8582 15.7358L72.7706 37.1244H81.0218L85.371 24.4195L89.8101 37.1244H98.1653L89.8992 15.7354L80.8582 15.7358Z" fill="white" fill-opacity="0.5"/>
<path d="M110.805 37.6831V15.306H125.883V19.2067H115.536V24.5388H125.107V28.4394H115.536V33.7824H125.927V37.6831H110.805ZM129.644 37.6831V15.306H134.376V33.7824H143.969V37.6831H129.644ZM151.538 15.306L156.051 22.9326H156.226L160.76 15.306H166.103L159.274 26.4945L166.256 37.6831H160.814L156.226 30.0456H156.051L151.462 37.6831H146.042L153.046 26.4945L146.173 15.306H151.538ZM181.236 21.7416C181.148 20.8602 180.773 20.1755 180.111 19.6874C179.448 19.1994 178.548 18.9553 177.412 18.9553C176.64 18.9553 175.988 19.0646 175.456 19.2832C174.924 19.4944 174.517 19.7894 174.232 20.1682C173.955 20.547 173.817 20.9768 173.817 21.4575C173.802 21.8581 173.886 22.2078 174.068 22.5064C174.258 22.8051 174.517 23.0637 174.844 23.2822C175.172 23.4935 175.551 23.6792 175.981 23.8395C176.41 23.9924 176.869 24.1235 177.357 24.2328L179.367 24.7136C180.344 24.9321 181.24 25.2234 182.056 25.5877C182.871 25.9519 183.578 26.3998 184.175 26.9316C184.773 27.4634 185.235 28.0898 185.563 28.811C185.898 29.5321 186.069 30.3588 186.076 31.2912C186.069 32.6607 185.719 33.848 185.027 34.8532C184.343 35.8511 183.352 36.6269 182.056 37.1805C180.766 37.7268 179.211 38 177.39 38C175.583 38 174.01 37.7232 172.67 37.1696C171.337 36.616 170.295 35.7965 169.545 34.7112C168.802 33.6185 168.412 32.2673 168.376 30.6575H172.954C173.005 31.4078 173.22 32.0342 173.599 32.5368C173.984 33.0321 174.498 33.4073 175.139 33.6622C175.788 33.9099 176.519 34.0338 177.335 34.0338C178.137 34.0338 178.833 33.9172 179.423 33.6841C180.02 33.451 180.482 33.1269 180.81 32.7116C181.138 32.2965 181.301 31.8193 181.301 31.2803C181.301 30.7777 181.152 30.3552 180.854 30.0128C180.563 29.6705 180.132 29.3791 179.564 29.1387C179.003 28.8984 178.315 28.6798 177.499 28.4831L175.063 27.8713C173.176 27.4123 171.686 26.6949 170.594 25.7187C169.501 24.7427 168.958 23.4279 168.965 21.7744C168.958 20.4195 169.319 19.2358 170.048 18.2233C170.783 17.2108 171.792 16.4204 173.074 15.8523C174.356 15.2841 175.813 15 177.444 15C179.105 15 180.555 15.2841 181.793 15.8523C183.039 16.4204 184.008 17.2108 184.7 18.2233C185.392 19.2358 185.748 20.4086 185.77 21.7416H181.236ZM193.99 15.306V37.6831H189.259V15.306H193.99Z" fill="white" fill-opacity="0.5"/>
</svg>
