<svg xmlns="http://www.w3.org/2000/svg" width="120" height="56" viewBox="0 0 120 56" fill="none">
  <path d="M0 21.0437V25.1329H3.97233V35.0253H9.60965V25.1329H13.4653V21.0437H0ZM17.3891 21.0437L12.0536 35.0253H17.4474L20.2906 26.7202L23.1919 35.0253H28.6443L23.2505 21.0437H17.3891ZM27.398 21.0437V25.1329H31.3803V35.0253H37.008V25.1329H40.8731V21.0437H27.398ZM44.7387 21.0437L39.4519 35.0253H44.8456L47.6887 26.7202L50.5904 35.0253H56.0522L50.6487 21.0435L44.7387 21.0437Z" fill="white" fill-opacity="0.5"/>
  <path d="M64.3145 35.3912V20.7635H74.171V23.3133H67.4071V26.7989H73.664V29.3487H67.4071V32.8413H74.1997V35.3912H64.3145ZM76.6297 35.3912V20.7635H79.7227V32.8413H85.9936V35.3912H76.6297ZM90.9414 20.7635L93.8914 25.7489H94.0058L96.9697 20.7635H100.462L95.9984 28.0773L100.562 35.3912H97.0053L94.0058 30.3987H93.8914L90.8914 35.3912H87.3488L91.9271 28.0773L87.4345 20.7635H90.9414ZM110.355 24.9704C110.297 24.3942 110.052 23.9467 109.619 23.6276C109.186 23.3086 108.597 23.149 107.855 23.149C107.35 23.149 106.924 23.2205 106.576 23.3633C106.229 23.5014 105.962 23.6943 105.776 23.9419C105.595 24.1895 105.505 24.4704 105.505 24.7847C105.495 25.0466 105.55 25.2751 105.669 25.4703C105.793 25.6656 105.962 25.8346 106.176 25.9775C106.391 26.1156 106.638 26.237 106.919 26.3417C107.2 26.4417 107.5 26.5274 107.819 26.5989L109.133 26.9131C109.771 27.056 110.357 27.2464 110.891 27.4845C111.424 27.7226 111.886 28.0154 112.276 28.363C112.667 28.7106 112.969 29.1201 113.183 29.5916C113.402 30.063 113.514 30.6034 113.519 31.2129C113.514 32.1081 113.285 32.8842 112.833 33.5413C112.386 34.1937 111.738 34.7008 110.891 35.0626C110.047 35.4198 109.031 35.5983 107.841 35.5983C106.66 35.5983 105.631 35.4174 104.755 35.0555C103.884 34.6937 103.203 34.158 102.712 33.4485C102.227 32.7342 101.972 31.851 101.948 30.7986H104.941C104.974 31.2891 105.114 31.6986 105.362 32.0271C105.614 32.3509 105.95 32.5961 106.369 32.7628C106.793 32.9247 107.271 33.0056 107.805 33.0056C108.329 33.0056 108.784 32.9294 109.169 32.7771C109.56 32.6247 109.862 32.4128 110.076 32.1414C110.291 31.87 110.397 31.5581 110.397 31.2057C110.397 30.8772 110.3 30.601 110.105 30.3772C109.914 30.1534 109.633 29.963 109.262 29.8058C108.895 29.6487 108.445 29.5058 107.912 29.3773L106.319 28.9773C105.086 28.6773 104.112 28.2083 103.398 27.5702C102.684 26.9322 102.329 26.0727 102.334 24.9918C102.329 24.1061 102.565 23.3324 103.041 22.6705C103.522 22.0087 104.181 21.492 105.019 21.1206C105.857 20.7492 106.81 20.5635 107.876 20.5635C108.962 20.5635 109.91 20.7492 110.719 21.1206C111.533 21.492 112.167 22.0087 112.619 22.6705C113.071 23.3324 113.304 24.099 113.319 24.9704H110.355ZM118.692 20.7635V35.3912H115.599V20.7635H118.692Z" fill="white" fill-opacity="0.5"/>
</svg>