<svg width="122" height="51" viewBox="0 0 122 51" fill="none" xmlns="http://www.w3.org/2000/svg">
<g id="tatamotors.svg">
<path id="Vector" d="M103.66 19.9727C102.482 19.9727 101.344 20.0677 100.554 20.1674V31.2922H102.578V26.6838H103.613C103.861 26.6838 104.109 26.6876 104.306 26.7851C104.99 26.9894 105.337 27.4824 105.583 28.6378C105.879 30.0392 106.186 30.9909 106.33 31.2924H108.401C108.202 30.8424 107.903 29.5906 107.552 28.1941C107.258 27.0894 106.817 26.2798 105.98 25.9831V25.9364C107.062 25.5887 108.012 24.5874 108.012 23.1337C108.012 22.1789 107.653 21.3719 107.062 20.8683C106.427 20.3172 105.539 20.0203 104.306 19.973H103.66V19.9727ZM114.248 19.9727C111.832 19.9727 110.3 21.3717 110.3 23.1646C110.3 24.8056 111.486 25.7974 113.306 26.4423C114.739 26.9374 115.283 27.4352 115.283 28.2796C115.283 29.1749 114.546 29.821 113.259 29.821C112.225 29.821 111.244 29.473 110.604 29.0814L110.16 30.7629C110.752 31.162 111.983 31.5102 113.165 31.5102C116.024 31.5102 117.346 29.922 117.346 28.1315C117.346 26.5417 116.421 25.5542 114.497 24.8072C113.022 24.2538 112.371 23.8568 112.371 23.009C112.371 22.3156 112.914 21.6155 114.193 21.6155C115.227 21.6155 116.025 21.9696 116.42 22.1604L116.91 20.5255C116.314 20.2349 115.432 19.9727 114.248 19.9727ZM73.6485 19.9884C70.5687 20.0322 68.4481 22.4378 68.4481 25.835C68.4481 29.0854 70.4414 31.4871 73.563 31.4871H73.6485C76.6848 31.4407 78.9035 29.312 78.9035 25.6481C78.9035 22.4354 76.9967 19.9884 73.734 19.9884H73.6485ZM93.5237 19.9884C90.4387 20.0322 88.3156 22.4378 88.3156 25.835C88.3156 29.0854 90.3042 31.4871 93.4302 31.4871H93.5241C96.5503 31.4407 98.7634 29.312 98.7634 25.6481C98.7634 22.4354 96.8702 19.9884 93.6176 19.9884H93.5237ZM4.36133 20.1363V23.406H7.53756V31.3157H12.0451V23.406H15.128V20.1363H4.36133ZM18.2654 20.1363L13.9992 31.3157H18.312L20.5854 24.6751L22.9052 31.3157H27.2649L22.9521 20.1363H18.2654ZM26.2684 20.1363V23.406H29.4526V31.3157H33.9523V23.406H37.0428V20.1363H26.2684ZM40.1337 20.1363L35.9063 31.3157H40.2192L42.4925 24.6751L44.8127 31.3157H49.1798L44.8593 20.1361L40.1337 20.1363ZM55.3846 20.1363L54.6917 31.3157H56.5989L56.8325 26.8548C56.8899 25.2832 56.9493 23.4875 57.0039 22.0438H57.0585C57.3481 23.4317 57.7562 24.995 58.2182 26.3877L59.6665 31.1987H61.2313L62.9128 26.3332C63.3752 24.9429 63.8355 23.4315 64.244 22.0436C64.244 23.5497 64.3545 25.2858 64.4154 26.738L64.5944 31.3157H66.6264L65.9881 20.1363H63.3175L61.7527 24.5894C61.3491 25.9237 60.9472 27.3098 60.6552 28.5287H60.593C60.3079 27.2564 59.9599 25.9277 59.5574 24.6516L58.1018 20.1363H55.3846ZM79.4406 20.1674V21.8879H82.656V31.3002H84.6876V21.8879H87.8561V20.1674H79.4406ZM103.862 21.5298H104.306C105.34 21.6733 105.98 22.2241 105.98 23.336C105.98 24.2799 105.34 24.9846 104.306 25.1343C104.109 25.1343 103.958 25.1811 103.761 25.1811H102.578V21.6308C102.772 21.5786 103.225 21.5298 103.862 21.5298ZM73.6485 21.6155C75.6871 21.6155 76.7234 23.6124 76.7234 25.6949C76.7234 28.045 75.6408 29.8523 73.6485 29.8523C71.7048 29.8523 70.5656 27.9968 70.5656 25.7806C70.5656 23.5652 71.612 21.6155 73.6485 21.6155ZM93.5237 21.6155C95.555 21.6155 96.591 23.6124 96.591 25.6949C96.591 28.045 95.5091 29.8523 93.5237 29.8523C91.57 29.8523 90.4408 27.9968 90.4408 25.7806C90.4408 23.5652 91.4823 21.6155 93.5237 21.6155Z" fill="white" fill-opacity="0.5"/>
</g>
</svg>
