<svg width="249" height="52" viewBox="0 0 249 52" fill="none" xmlns="http://www.w3.org/2000/svg">
<path d="M209.368 15C207.02 15 204.752 15.1895 203.176 15.3882V37.5653H207.211V28.3786H209.275C209.77 28.3786 210.264 28.3861 210.656 28.5805C212.019 28.9877 212.711 29.9706 213.201 32.2737C213.793 35.0675 214.404 36.9646 214.691 37.5657H218.819C218.422 36.6686 217.827 34.1732 217.127 31.3894C216.541 29.1871 215.661 27.5733 213.993 26.9817V26.8887C216.151 26.1955 218.044 24.1994 218.044 21.3015C218.044 19.3981 217.328 17.7894 216.15 16.7854C214.883 15.6869 213.115 15.0949 210.656 15.0008H209.368V15ZM230.474 15C225.659 15 222.606 17.789 222.606 21.3632C222.606 24.6344 224.969 26.6114 228.597 27.8971C231.454 28.884 232.538 29.8764 232.538 31.5598C232.538 33.3445 231.069 34.6324 228.503 34.6324C226.443 34.6324 224.487 33.9388 223.211 33.1581L222.326 36.5101C223.505 37.3059 225.961 38 228.317 38C234.016 38 236.651 34.8339 236.651 31.2646C236.651 28.0953 234.808 26.1267 230.971 24.6376C228.032 23.5343 226.734 22.743 226.734 21.0528C226.734 19.6706 227.815 18.2749 230.366 18.2749C232.427 18.2749 234.019 18.9809 234.804 19.3611L235.782 16.1021C234.594 15.5228 232.836 15 230.474 15ZM149.541 15.0314C143.401 15.1188 139.174 19.9142 139.174 26.6865C139.174 33.1661 143.148 37.9539 149.37 37.9539H149.541C155.594 37.8613 160.017 33.6178 160.017 26.3139C160.017 19.9094 156.215 15.0314 149.711 15.0314H149.541ZM189.162 15.0314C183.012 15.1188 178.78 19.9142 178.78 26.6865C178.78 33.1661 182.744 37.9539 188.975 37.9539H189.162C195.195 37.8613 199.607 33.6178 199.607 26.3139C199.607 19.9094 195.833 15.0314 189.349 15.0314H189.162ZM11.418 15.3262V21.8443H17.7497V37.6122H26.7354V21.8443H32.8812V15.3262H11.418ZM39.1355 15.3262L30.6309 37.6122H39.2284L43.7604 24.3742L48.3849 37.6122H57.0758L48.4783 15.3262H39.1355ZM55.0893 15.3262V21.8443H61.437V37.6122H70.4071V21.8443H76.5679V15.3262H55.0893ZM82.7296 15.3262L74.3024 37.6122H82.9001L87.4318 24.3742L92.0571 37.6122H100.763L92.1499 15.3258L82.7296 15.3262ZM113.132 15.3262L111.751 37.6122H115.553L116.018 28.7195C116.133 25.5864 116.251 22.0068 116.36 19.1287H116.469C117.046 21.8955 117.86 25.0119 118.781 27.7882L121.668 37.379H124.787L128.139 27.6797C129.061 24.9082 129.979 21.8951 130.793 19.1284C130.793 22.1307 131.013 25.5916 131.135 28.4867L131.492 37.6122H135.542L134.27 15.3262H128.946L125.827 24.2034C125.022 26.8633 124.221 29.6265 123.639 32.0564H123.515C122.947 29.5201 122.253 26.8713 121.45 24.3274L118.549 15.3262H113.132ZM161.087 15.3882V18.818H167.497V37.5812H171.547V18.818H177.863V15.3882H161.087ZM209.772 18.1041H210.656C212.717 18.3901 213.993 19.4882 213.993 21.7048C213.993 23.5864 212.718 24.9913 210.656 25.2896C210.264 25.2896 209.963 25.383 209.57 25.383H207.211V18.3055C207.599 18.2014 208.501 18.1041 209.772 18.1041ZM149.541 18.2749C153.605 18.2749 155.671 22.2558 155.671 26.4072C155.671 31.0921 153.512 34.6948 149.541 34.6948C145.666 34.6948 143.395 30.996 143.395 26.578C143.395 22.1617 145.481 18.2749 149.541 18.2749ZM189.162 18.2749C193.211 18.2749 195.276 22.2558 195.276 26.4072C195.276 31.0921 193.12 34.6948 189.162 34.6948C185.267 34.6948 183.016 30.996 183.016 26.578C183.016 22.1617 185.092 18.2749 189.162 18.2749Z" fill="white" fill-opacity="0.5"/>
</svg>
