<svg width="29" height="17" viewBox="0 0 29 17" fill="none" xmlns="http://www.w3.org/2000/svg">
<path d="M27.9886 14.2367C23.3531 16.2432 19.7514 17.6618 15.2393 14.7625C13.0856 13.3785 12.136 11.0828 12.8954 8.56415C14.2773 3.98076 19.9231 9.20284 17.1897 11.8685C12.1788 16.7553 5.44281 10.6655 3.52407 5.8116C2.96492 4.39708 2.35522 2.7776 1.95783 1.32388C1.61314 0.0629251 1.60766 1.65046 1.54791 2.15026C1.43722 3.07618 1.08586 3.87565 0.977646 4.78074C0.788295 6.36451 1.1251 4.87795 1.17187 4.14874C1.30606 2.05698 0.945303 0.219049 3.36261 1.68167C3.84907 1.97601 6.45507 3.28122 6.06219 3.41639C4.94831 3.79961 3.84053 4.82911 2.78486 5.12469C1.3398 5.52931 0.643689 6.20768 2.38389 4.80648C2.9517 4.34929 3.53346 4.00476 4.10817 3.58355C5.05528 2.8894 3.64553 3.58232 3.54509 3.70607C3.25336 4.06552 2.31336 4.40935 3.15798 3.7903C3.37543 3.63092 4.34349 3.1269 4.02394 3.19643C3.01498 3.41597 1.90661 4.71255 2.12207 3.94199C2.30313 3.29443 2.68211 3.11776 3.32155 3.01752C3.53922 2.9834 4.456 3.43414 4.09285 3.51316" stroke="white" stroke-opacity="0.5" stroke-width="0.556411" stroke-linecap="round"/>
</svg>
