<svg width="21" height="26" viewBox="0 0 21 26" fill="none" xmlns="http://www.w3.org/2000/svg">
<path d="M19.7671 0.709609C14.7391 1.19299 10.9003 1.6914 8.35104 6.41014C7.13426 8.66246 7.41224 11.1312 9.29417 12.9694C12.7188 16.3143 15.1382 9.01422 11.4571 8.00128C4.70863 6.14432 1.75402 14.7309 2.41971 19.9077C2.61371 21.4163 2.86249 23.1288 3.21706 24.5935C3.52462 25.864 2.75268 24.4768 2.45885 24.0681C1.91451 23.311 1.22056 22.7808 0.688466 22.0407C-0.242628 20.7456 0.770585 21.8843 1.16391 22.5002C2.29218 24.2666 2.86448 26.0501 4.27404 23.6014C4.5577 23.1087 6.20853 20.7067 5.79925 20.7782C4.63887 20.9809 3.17153 20.6149 2.10447 20.8663C0.643799 21.2103 -0.293446 20.9528 1.90719 21.3386C2.62522 21.4645 3.30105 21.485 4.00774 21.5761C5.17236 21.7261 3.60329 21.8007 3.45556 21.7409C3.02645 21.5672 2.03734 21.7204 3.07594 21.8542C3.34333 21.8887 4.43442 21.8622 4.12106 21.9557C3.13164 22.2511 1.53472 21.6515 2.09571 22.222C2.56714 22.7014 2.98431 22.673 3.59258 22.4517C3.79963 22.3764 4.38446 21.5388 4.02834 21.6451" stroke="white" stroke-opacity="0.5" stroke-width="0.556411" stroke-linecap="round"/>
</svg>
