<svg width="125" height="23" viewBox="0 0 125 23" fill="none" xmlns="http://www.w3.org/2000/svg">
<path d="M6.63936 19.6381C6.72706 19.6309 6.81373 19.6599 6.89935 19.7252C6.98497 19.7904 7.03433 19.9027 7.04742 20.0622C7.05789 20.1897 6.97465 20.3491 6.7977 20.5402C6.62009 20.7233 6.38634 20.9071 6.09645 21.0914C5.81453 21.2751 5.5064 21.4328 5.17207 21.5646C4.83838 21.7044 4.52005 21.7867 4.21707 21.8116C3.78652 21.847 3.37072 21.7687 2.96968 21.5769C2.57662 21.3844 2.24314 21.0867 1.96925 20.6837C1.69471 20.2728 1.53224 19.7604 1.48184 19.1465C1.43733 18.6043 1.49248 18.0539 1.6473 17.4954C1.80212 16.9369 2.02236 16.393 2.30803 15.8639C2.60166 15.3341 2.93014 14.8375 3.29345 14.3742C3.66474 13.9103 4.0406 13.5022 4.42105 13.1499C4.8015 12.7976 5.15994 12.5193 5.49636 12.3151C5.8401 12.1023 6.12758 11.9864 6.3588 11.9674C6.51826 11.9543 6.65074 12.0036 6.75624 12.1153C6.86905 12.2185 6.93103 12.3378 6.94215 12.4733C6.9487 12.5531 6.93132 12.6348 6.89003 12.7184C6.85671 12.8014 6.79019 12.8711 6.69047 12.9275C6.19315 13.2251 5.69376 13.5952 5.19229 14.0378C4.69081 14.4803 4.23378 14.9753 3.8212 15.5229C3.40797 16.0625 3.08604 16.6388 2.85542 17.2517C2.62414 17.8567 2.53501 18.4821 2.58803 19.1279C2.63385 19.686 2.80042 20.1018 3.08776 20.3752C3.37444 20.6406 3.74501 20.7547 4.19948 20.7174C4.43868 20.6977 4.68224 20.6336 4.93019 20.525C5.1861 20.4156 5.42509 20.2957 5.64715 20.1651C5.87652 20.0258 6.07532 19.9052 6.24353 19.8031C6.41971 19.7003 6.55165 19.6453 6.63936 19.6381ZM11.4669 21.5054C10.853 21.5558 10.3542 21.3961 9.97068 21.0262C9.59445 20.6477 9.37655 20.0957 9.31699 19.3702C9.28033 18.9237 9.29726 18.3965 9.36777 17.7887C9.44559 17.1723 9.55269 16.5213 9.68906 15.8359C9.83276 15.1418 9.99305 14.4544 10.1699 13.7736C10.3468 13.0928 10.5197 12.4606 10.6885 11.8768C10.8646 11.2844 11.0207 10.79 11.1567 10.3935C11.2347 10.1704 11.3614 10.0516 11.5368 10.0372C11.776 10.0176 11.9077 10.1553 11.9319 10.4503C11.9398 10.546 11.912 10.7449 11.8485 11.0471C11.785 11.3493 11.6995 11.7256 11.592 12.1759C11.4838 12.6182 11.3676 13.1094 11.2434 13.6494C11.1191 14.1893 10.9922 14.7456 10.8626 15.3181C10.7404 15.882 10.6297 16.4409 10.5307 16.9949C10.4311 17.5409 10.3567 18.0527 10.3076 18.5303C10.2585 19.0079 10.2477 19.4141 10.2752 19.749C10.2929 19.9643 10.3628 20.1311 10.4849 20.2495C10.6143 20.3593 10.7786 20.406 10.978 20.3897C11.3447 20.3596 11.7056 20.2577 12.0606 20.0841C12.4229 19.9018 12.7666 19.689 13.0918 19.4456C13.4163 19.1942 13.7093 18.9494 13.9707 18.7112C14.2394 18.4644 14.4675 18.261 14.6551 18.1011C14.842 17.9333 14.9753 17.8461 15.055 17.8395C15.2304 17.8251 15.326 17.9136 15.3417 18.105C15.3469 18.1688 15.2929 18.2936 15.1798 18.4795C15.0659 18.6574 14.9109 18.8708 14.7146 19.1197C14.5183 19.3686 14.2868 19.6284 14.02 19.8991C13.7606 20.1612 13.4843 20.4127 13.191 20.6535C12.905 20.8857 12.6118 21.0783 12.3113 21.2314C12.0195 21.3918 11.738 21.4832 11.4669 21.5054ZM15.2121 20.7765C15.0606 20.789 14.9204 20.7443 14.7917 20.6425C14.6623 20.5327 14.5874 20.3542 14.5671 20.1071C14.5527 19.9316 14.5567 19.6865 14.579 19.3716C14.6006 19.0488 14.636 18.6967 14.6849 18.3154C14.7339 17.9341 14.7872 17.5565 14.8448 17.1825C14.9097 16.7999 14.9779 16.4572 15.0493 16.1544C15.1208 15.8515 15.1865 15.6254 15.2465 15.4759C15.3011 15.3591 15.355 15.2824 15.4082 15.2459C15.4694 15.2088 15.5279 15.188 15.5837 15.1834C15.6953 15.1742 15.7939 15.2022 15.8795 15.2675C15.9731 15.332 16.0285 15.4679 16.0455 15.6752C16.0553 15.7948 16.0477 15.9961 16.0228 16.2791C16.0052 16.5535 15.9756 16.877 15.9339 17.2496C15.8996 17.6137 15.8583 17.9903 15.8099 18.3796C15.769 18.7602 15.7266 19.1249 15.683 19.4736C15.6394 19.8224 15.6072 20.114 15.5863 20.3485C15.5649 20.4787 15.5172 20.5829 15.4434 20.6612C15.3769 20.7309 15.2998 20.7693 15.2121 20.7765ZM15.8412 14.0666C15.6578 14.0816 15.4778 14.0402 15.3012 13.9423C15.1326 13.8438 15.0381 13.6709 15.0178 13.4238C15.0008 13.2165 15.0349 13.0451 15.1201 12.9097C15.2133 12.7736 15.3253 12.6721 15.4563 12.6052C15.5946 12.5296 15.7155 12.4875 15.8192 12.479C15.9228 12.4705 16.0404 12.485 16.1719 12.5223C16.3107 12.5511 16.4329 12.6213 16.5384 12.733C16.6432 12.8368 16.7048 13.0003 16.7231 13.2236C16.7356 13.3751 16.6949 13.5149 16.6011 13.643C16.5066 13.7631 16.3862 13.8613 16.2399 13.9375C16.1017 14.0131 15.9687 14.0561 15.8412 14.0666ZM19.6638 20.5194C19.2731 20.5515 18.9271 20.4916 18.6256 20.3398C18.3315 20.1793 18.0969 19.9618 17.9219 19.6872C17.7468 19.4126 17.6469 19.1238 17.622 18.8208C17.5696 18.1829 17.6335 17.5917 17.8135 17.0472C17.9929 16.4947 18.2333 16.0013 18.5348 15.5672C18.8436 15.1244 19.1657 14.7448 19.5009 14.4283C19.8441 14.1112 20.1573 13.8688 20.4405 13.701C20.7311 13.5247 20.9401 13.4312 21.0677 13.4208C21.3229 13.3998 21.4609 13.5169 21.4818 13.7721C21.4917 13.8917 21.4234 14.0377 21.277 14.2103C21.13 14.3749 20.9414 14.571 20.7112 14.7986C20.4811 15.0261 20.2373 15.283 19.9798 15.569C19.7217 15.847 19.4825 16.1597 19.2622 16.5068C19.0412 16.8461 18.8673 17.2215 18.7406 17.6333C18.6132 18.0371 18.5688 18.4742 18.6074 18.9446C18.6467 19.423 18.8617 19.6461 19.2524 19.6141C19.6111 19.5846 19.9724 19.4867 20.336 19.3204C20.7075 19.1535 21.0679 18.9473 21.417 18.7019C21.7734 18.4479 22.1132 18.1872 22.4364 17.9199C22.7596 17.6525 23.0519 17.3998 23.3133 17.1616C23.574 16.9154 23.7945 16.7167 23.9748 16.5655C24.155 16.4142 24.285 16.3353 24.3647 16.3288C24.5242 16.3157 24.6111 16.3968 24.6255 16.5722C24.6366 16.7078 24.5597 16.8947 24.3946 17.133C24.2295 17.3713 24.0023 17.6348 23.713 17.9234C23.4236 18.2121 23.0987 18.5076 22.7383 18.8102C22.3772 19.1047 22.0104 19.3796 21.6381 19.6349C21.2651 19.8823 20.9047 20.0885 20.557 20.2535C20.2167 20.4098 19.919 20.4985 19.6638 20.5194ZM29.752 20.1608C29.2337 20.2034 28.7452 20.1191 28.2864 19.9079C27.8355 19.6961 27.4187 19.4092 27.0358 19.0473C26.6609 18.6848 26.3195 18.2914 26.0118 17.8672C25.7114 17.4343 25.4491 17.0264 25.225 16.6434C25.1425 17.3004 25.0777 17.8315 25.0307 18.2367C24.9917 18.6412 24.9568 18.9491 24.926 19.1603C24.9031 19.3709 24.8747 19.5137 24.8407 19.5887C24.8067 19.6638 24.7579 19.7039 24.6941 19.7091C24.5187 19.7235 24.3434 19.6416 24.1682 19.4633C23.993 19.2851 23.893 19.0445 23.8681 18.7415C23.842 18.4225 23.8631 17.9954 23.9315 17.46C23.9993 16.9166 24.0983 16.3145 24.2287 15.6536C24.3664 14.9841 24.5303 14.2924 24.7206 13.5784C24.9101 12.8565 25.1093 12.1538 25.3181 11.4705C25.5342 10.7785 25.7552 10.1463 25.9811 9.57385C26.0944 9.29164 26.1956 9.10674 26.2848 9.01915C26.3819 8.93091 26.5022 8.8809 26.6457 8.86912C26.8769 8.85013 27.0014 8.94828 27.019 9.16356C27.0256 9.24329 27.0089 9.33296 26.9689 9.43256C26.9369 9.53151 26.9019 9.64275 26.8638 9.76628C26.7491 10.1289 26.6221 10.5366 26.4826 10.9896C26.3512 11.4418 26.2174 11.9144 26.0813 12.4072C25.9531 12.8993 25.8326 13.3868 25.7197 13.8696C25.6069 14.3525 25.511 14.7978 25.4321 15.2057C25.7553 14.9383 26.1383 14.6661 26.5811 14.3889C27.0239 14.1117 27.4846 13.8572 27.9633 13.6253C28.4412 13.3853 28.8946 13.1876 29.3233 13.032C29.752 12.8764 30.1099 12.7868 30.3969 12.7633C30.5484 12.7508 30.6679 12.7892 30.7555 12.8783C30.8504 12.9588 30.9024 13.0549 30.9116 13.1665C30.9188 13.2542 30.8981 13.3442 30.8495 13.4365C30.8082 13.5201 30.7104 13.6004 30.5562 13.6773C30.045 13.9039 29.5382 14.1341 29.0356 14.368C28.5324 14.5939 28.0066 14.8378 27.4582 15.0995C26.9171 15.3526 26.3274 15.6499 25.6892 15.9913C25.9253 16.3251 26.1996 16.6838 26.512 17.0675C26.8238 17.4433 27.1539 17.7975 27.5023 18.1301C27.85 18.4547 28.2008 18.7189 28.5547 18.9226C28.9079 19.1184 29.2519 19.2025 29.5868 19.175C30.0253 19.139 30.4404 19.0126 30.8319 18.7959C31.2235 18.5791 31.5799 18.3251 31.9012 18.0338C32.2304 17.7419 32.5164 17.4616 32.7592 17.1928C33.0014 16.9161 33.1923 16.6997 33.3321 16.5438C33.4059 16.4655 33.4737 16.4117 33.5356 16.3826C33.6047 16.3448 33.6672 16.3236 33.723 16.319C33.8346 16.3099 33.9153 16.3635 33.9649 16.4798C34.0219 16.5875 33.9922 16.7143 33.8758 16.8603C33.7893 16.9798 33.6558 17.1634 33.4755 17.4109C33.2951 17.6585 33.0729 17.9336 32.8088 18.2363C32.552 18.5303 32.2626 18.8189 31.9407 19.1022C31.6268 19.3848 31.281 19.6219 30.9034 19.8134C30.5345 20.0123 30.1507 20.1281 29.752 20.1608ZM36.813 15.0901C36.5964 15.0918 36.4853 14.9605 36.4796 14.696C36.4824 14.6316 36.52 14.5523 36.5925 14.458C36.6644 14.3558 36.7518 14.2964 36.8548 14.28C37.1 14.2357 37.4001 14.175 37.7549 14.0977C38.1171 14.0118 38.5145 13.9149 38.9472 13.8072C38.9948 13.4099 39.0568 12.9915 39.1331 12.5518C39.2094 12.112 39.2986 11.6833 39.4007 11.2655C39.5022 10.8398 39.615 10.4533 39.739 10.106C39.863 9.75867 40.0009 9.48246 40.1526 9.27736C40.2331 9.18245 40.3079 9.11611 40.3771 9.07832C40.4455 9.03257 40.5077 9.0074 40.5635 9.00282C40.6751 8.99365 40.7668 9.03429 40.8384 9.12473C40.918 9.21452 40.9627 9.31921 40.9725 9.43881C40.9778 9.5026 40.9711 9.56736 40.9524 9.63311C40.8296 10.0927 40.7033 10.6569 40.5736 11.3258C40.4439 11.9946 40.3071 12.7243 40.1633 13.5147C40.887 13.3349 41.6101 13.1471 42.3325 12.9513C43.0549 12.7556 43.6746 12.5803 44.1917 12.4254C44.338 12.3492 44.4545 12.3517 44.5415 12.4328C44.6364 12.5133 44.6874 12.5974 44.6946 12.6852C44.7038 12.7968 44.6788 12.8831 44.6196 12.9442C44.5683 13.0046 44.5125 13.0573 44.452 13.1024L44.441 13.1154C44.2868 13.1922 44.0538 13.2876 43.7421 13.4015C43.4297 13.5074 43.0701 13.6252 42.6634 13.7549C42.256 13.8767 41.8206 14.0007 41.3574 14.127C40.9022 14.2527 40.4503 14.3701 40.0017 14.4791C39.8759 15.1958 39.7478 15.9328 39.6173 16.69C39.4941 17.4386 39.37 18.1752 39.2449 18.8999C39.1887 19.1935 39.1117 19.3804 39.014 19.4607C38.9248 19.5482 38.8244 19.5966 38.7128 19.6058C38.5853 19.6163 38.4697 19.5776 38.3662 19.4898C38.2706 19.4013 38.2426 19.2069 38.2822 18.9067L38.8204 14.7567C38.3479 14.8678 37.9296 14.9543 37.5655 15.0163C37.2093 15.0776 36.9585 15.1022 36.813 15.0901ZM45.1097 18.3823C44.6393 18.4209 44.2538 18.272 43.9533 17.9354C43.6527 17.5989 43.4789 17.1436 43.4318 16.5695C43.4147 16.3622 43.4247 16.1407 43.4615 15.9048C43.5056 15.6604 43.5677 15.4386 43.6477 15.2394C43.5873 15.1882 43.5372 15.116 43.4974 15.0229C43.457 14.9219 43.4306 14.7957 43.4182 14.6442C43.3796 14.1737 43.424 13.7366 43.5513 13.3329C43.6787 12.9291 43.8622 12.5729 44.1018 12.2643C44.3407 11.9476 44.613 11.6965 44.9189 11.5109C45.2327 11.3246 45.557 11.2177 45.8919 11.1902C46.442 11.145 46.9049 11.3077 47.2805 11.6782C47.6554 12.0407 47.8759 12.6247 47.942 13.43C47.9767 13.8525 47.9483 14.2883 47.8567 14.7373C47.7731 15.1857 47.6403 15.622 47.4585 16.0463C47.2845 16.4699 47.0711 16.8527 46.8183 17.1945C46.5733 17.5357 46.3033 17.8147 46.008 18.0316C45.7201 18.2399 45.4207 18.3568 45.1097 18.3823ZM44.4036 14.7679C44.4567 14.8278 44.4875 14.9096 44.496 15.0132C44.5058 15.1328 44.4917 15.2544 44.4537 15.3779C44.4236 15.5008 44.3932 15.6678 44.3624 15.879C44.3316 16.0903 44.3319 16.3872 44.3633 16.77C44.3947 17.1527 44.5619 17.3316 44.8649 17.3067C45.1998 17.2792 45.4999 17.1221 45.7653 16.8355C46.0301 16.5408 46.2568 16.173 46.4454 15.7321C46.6339 15.2912 46.7684 14.8267 46.8487 14.3385C46.9363 13.8416 46.9625 13.3779 46.9271 12.9474C46.9042 12.6683 46.8363 12.4772 46.7235 12.3741C46.6101 12.263 46.4178 12.2186 46.1467 12.2409C45.8676 12.2638 45.5845 12.3833 45.2972 12.5996C45.0172 12.8072 44.7907 13.0786 44.6175 13.4139C44.4444 13.7492 44.3742 14.1162 44.4069 14.5148C44.4141 14.6025 44.413 14.6869 44.4036 14.7679ZM60.8892 17.6046C60.371 17.6472 59.8824 17.5629 59.4236 17.3517C58.9728 17.1399 58.5559 16.853 58.173 16.4911C57.7981 16.1286 57.4567 15.7352 57.149 15.3109C56.8486 14.8781 56.5863 14.4702 56.3622 14.0872C56.2797 14.7442 56.215 15.2753 56.1679 15.6805C56.1289 16.085 56.094 16.3929 56.0632 16.6041C56.0403 16.8147 56.0119 16.9575 55.9779 17.0325C55.944 17.1076 55.8951 17.1477 55.8313 17.1529C55.6559 17.1673 55.4806 17.0854 55.3054 16.9071C55.1302 16.7289 55.0302 16.4883 55.0054 16.1853C54.9792 15.8663 55.0003 15.4392 55.0687 14.9038C55.1365 14.3604 55.2356 13.7583 55.3659 13.0974C55.5036 12.4279 55.6675 11.7362 55.8578 11.0222C56.0473 10.3003 56.2465 9.59763 56.4553 8.91426C56.6714 8.22226 56.8924 7.59005 57.1183 7.01765C57.2316 6.73543 57.3328 6.55053 57.422 6.46295C57.5191 6.37471 57.6394 6.32469 57.7829 6.31291C58.0141 6.29393 58.1386 6.39208 58.1563 6.60735C58.1628 6.68708 58.1461 6.77675 58.1061 6.87636C58.0741 6.97531 58.0391 7.08655 58.001 7.21007C57.8863 7.57267 57.7593 7.98044 57.6199 8.43336C57.4884 8.88563 57.3546 9.35816 57.2185 9.85095C57.0903 10.3431 56.9698 10.8306 56.8569 11.3134C56.7441 11.7963 56.6482 12.2416 56.5693 12.6495C56.8925 12.3821 57.2755 12.1099 57.7183 11.8327C58.1611 11.5555 58.6218 11.301 59.1005 11.0691C59.5784 10.8291 60.0318 10.6314 60.4605 10.4758C60.8892 10.3202 61.2471 10.2306 61.5341 10.207C61.6856 10.1946 61.8051 10.233 61.8927 10.3221C61.9876 10.4026 62.0397 10.4987 62.0488 10.6103C62.056 10.698 62.0353 10.788 61.9867 10.8803C61.9454 10.9639 61.8477 11.0442 61.6934 11.1211C61.1823 11.3477 60.6754 11.5779 60.1728 11.8118C59.6696 12.0377 59.1438 12.2816 58.5954 12.5433C58.0543 12.7964 57.4646 13.0937 56.8264 13.4351C57.0625 13.7689 57.3368 14.1276 57.6493 14.5113C57.961 14.8871 58.2911 15.2413 58.6395 15.5739C58.9872 15.8985 59.338 16.1627 59.6919 16.3664C60.0451 16.5622 60.3891 16.6463 60.724 16.6188C61.1625 16.5828 61.5776 16.4564 61.9692 16.2397C62.3607 16.0229 62.7171 15.7689 63.0384 15.4776C63.3676 15.1857 63.6536 14.9054 63.8965 14.6366C64.1386 14.3599 64.3296 14.1435 64.4693 13.9876C64.5431 13.9093 64.6109 13.8555 64.6728 13.8264C64.7419 13.7886 64.8044 13.7674 64.8602 13.7628C64.9718 13.7537 65.0525 13.8072 65.1022 13.9236C65.1592 14.0313 65.1294 14.1581 65.013 14.3041C64.9265 14.4236 64.793 14.6072 64.6127 14.8547C64.4324 15.1023 64.2101 15.3774 63.946 15.6801C63.6892 15.9741 63.3998 16.2627 63.0779 16.546C62.764 16.8286 62.4182 17.0657 62.0406 17.2572C61.6717 17.4561 61.2879 17.5719 60.8892 17.6046ZM65.1886 16.3366C64.9574 16.3556 64.7393 16.241 64.5343 15.993C64.3294 15.7449 64.2098 15.4136 64.1758 14.999C64.1385 14.5445 64.1584 14.0532 64.2354 13.5252C64.3204 12.9964 64.4327 12.4574 64.5722 11.9082C64.7111 11.3509 64.8476 10.814 64.9818 10.2973C65.0132 10.1903 65.0628 10.11 65.1306 10.0563C65.2057 9.99392 65.3231 9.9562 65.4825 9.94311C65.7696 9.91954 65.9245 10.0473 65.9474 10.3264C65.9527 10.3901 65.9326 10.5363 65.8871 10.7648C65.8416 10.9932 65.7805 11.2752 65.7037 11.6106C65.6349 11.9454 65.5643 12.3083 65.4921 12.6996C65.4192 13.0828 65.3586 13.4691 65.3103 13.8583C65.262 14.2476 65.2353 14.607 65.2302 14.9365C65.3467 14.7905 65.4732 14.5714 65.6097 14.2792C65.7543 13.9864 65.9078 13.6568 66.0703 13.2902C66.2322 12.9157 66.4021 12.5406 66.58 12.1648C66.7572 11.781 66.937 11.4291 67.1194 11.1091C67.3092 10.7805 67.4962 10.5163 67.6804 10.3165C67.872 10.1081 68.0555 9.99676 68.2309 9.98236C68.4861 9.96142 68.7079 10.0235 68.8964 10.1685C69.0922 10.305 69.254 10.5646 69.3818 10.9474C69.5168 11.3216 69.6132 11.8596 69.6708 12.5612C69.7015 12.9359 69.7662 13.2838 69.8648 13.6048C69.9714 13.9252 70.1166 14.1781 70.3004 14.3637C70.4915 14.5407 70.7226 14.618 70.9937 14.5958C71.4003 14.5624 71.7572 14.4609 72.0643 14.2912C72.3708 14.1135 72.6322 13.9235 72.8483 13.7211C73.0718 13.5101 73.2574 13.3263 73.4051 13.1697C73.5521 13.0051 73.6695 12.9192 73.7572 12.912C73.9406 12.897 74.0401 12.9851 74.0558 13.1765C74.0624 13.2562 74.013 13.3887 73.9078 13.5739C73.81 13.7505 73.6662 13.955 73.4766 14.1873C73.2943 14.4109 73.0797 14.6332 72.833 14.8542C72.5936 15.0665 72.3316 15.2485 72.047 15.4003C71.7705 15.5514 71.4847 15.6391 71.1897 15.6633C70.6395 15.7085 70.1802 15.6378 69.8117 15.4514C69.4512 15.2642 69.1669 14.9304 68.9589 14.4498C68.7589 13.9685 68.6248 13.3133 68.5567 12.4841C68.5194 12.0296 68.4643 11.701 68.3915 11.4983C68.326 11.287 68.2225 11.151 68.0811 11.0903C67.9992 11.2656 67.8952 11.515 67.7693 11.8384C67.6426 12.1538 67.495 12.507 67.3265 12.8981C67.1659 13.2886 66.9937 13.684 66.8098 14.0844C66.6333 14.4762 66.4505 14.8403 66.2614 15.1769C66.0723 15.5135 65.8862 15.7897 65.7033 16.0054C65.5196 16.2131 65.3481 16.3235 65.1886 16.3366ZM74.6539 15.9569C74.1835 15.9955 73.798 15.8465 73.4974 15.51C73.1969 15.1735 73.0231 14.7182 72.9759 14.1441C72.9589 13.9368 72.9688 13.7152 73.0057 13.4794C73.0498 13.235 73.1119 13.0132 73.1918 12.814C73.1314 12.7627 73.0814 12.6906 73.0416 12.5975C73.0012 12.4965 72.9748 12.3702 72.9624 12.2187C72.9237 11.7483 72.9681 11.3112 73.0955 10.9074C73.2229 10.5037 73.4064 10.1475 73.6459 9.83883C73.8848 9.52222 74.1572 9.27109 74.463 9.08545C74.7768 8.89915 75.1012 8.79225 75.4361 8.76476C75.9862 8.7196 76.4491 8.88227 76.8246 9.25278C77.1996 9.61532 77.4201 10.1992 77.4862 11.0045C77.5209 11.4271 77.4924 11.8629 77.4009 12.3119C77.3173 12.7602 77.1845 13.1966 77.0026 13.6209C76.8287 14.0445 76.6153 14.4273 76.3624 14.7691C76.1175 15.1103 75.8475 15.3893 75.5522 15.6062C75.2643 15.8145 74.9648 15.9313 74.6539 15.9569ZM73.9478 12.3425C74.0009 12.4024 74.0317 12.4841 74.0402 12.5878C74.05 12.7074 74.0359 12.8289 73.9979 12.9525C73.9678 13.0753 73.9374 13.2424 73.9066 13.4536C73.8757 13.6649 73.876 13.9618 73.9075 14.3445C73.9389 14.7273 74.1061 14.9062 74.4091 14.8813C74.7439 14.8538 75.0441 14.6967 75.3095 14.41C75.5743 14.1154 75.801 13.7476 75.9895 13.3067C76.1781 12.8658 76.3125 12.4012 76.3929 11.913C76.4805 11.4162 76.5066 10.9525 76.4713 10.5219C76.4484 10.2429 76.3805 10.0518 76.2677 9.94868C76.1542 9.8376 75.962 9.79318 75.6909 9.81543C75.4118 9.83834 75.1287 9.95791 74.8414 10.1741C74.5614 10.3817 74.3349 10.6532 74.1617 10.9885C73.9886 11.3238 73.9184 11.6907 73.9511 12.0894C73.9583 12.1771 73.9572 12.2615 73.9478 12.3425ZM80.3478 15.7182C80.0687 15.7411 79.8274 15.6365 79.6237 15.4044C79.4273 15.1637 79.3026 14.7204 79.2496 14.0745C79.194 13.3968 79.1519 12.7381 79.1235 12.0982C79.0944 11.4504 79.0908 10.8688 79.1127 10.3533C79.1426 9.83709 79.2049 9.42261 79.2996 9.10981C79.3943 8.79701 79.5373 8.63275 79.7287 8.61704C79.8642 8.60592 79.9901 8.67184 80.1061 8.81482C80.2216 8.94983 80.2891 9.13693 80.3088 9.37613C80.329 9.6233 80.3323 9.95615 80.3185 10.3747C80.3047 10.7932 80.2815 11.2446 80.2491 11.7289C80.2239 12.2046 80.2057 12.6676 80.1945 13.118C80.1827 13.5605 80.1892 13.9332 80.2141 14.2362C80.2246 14.3637 80.237 14.4671 80.2516 14.5461C80.2734 14.6166 80.3003 14.6505 80.3322 14.6479C80.4518 14.6381 80.5708 14.5239 80.6893 14.3055C80.8152 14.0785 80.9438 13.787 81.0751 13.431C81.2058 13.0671 81.3418 12.6707 81.4831 12.2416C81.6239 11.8047 81.7689 11.3714 81.9182 10.9417C82.0676 10.512 82.2239 10.1179 82.3871 9.75937C82.5496 9.39284 82.7181 9.09807 82.8924 8.87505C83.0661 8.64407 83.2446 8.52105 83.428 8.50599C83.6433 8.48832 83.8511 8.57561 84.0515 8.76786C84.2593 8.95148 84.3785 9.23066 84.4093 9.6054C84.4184 9.71702 84.4185 9.91367 84.4095 10.1954C84.3999 10.4691 84.3856 10.7833 84.3665 11.138C84.3475 11.4928 84.3284 11.8475 84.3094 12.2023C84.2897 12.549 84.275 12.8593 84.2654 13.133C84.2551 13.3987 84.2545 13.5874 84.2637 13.699C84.2977 14.1136 84.3546 14.3177 84.4344 14.3111C84.6576 14.2928 84.8814 14.134 85.1056 13.8346C85.3372 13.5266 85.5622 13.1389 85.7807 12.6715C86.0065 12.1954 86.2254 11.6838 86.4373 11.1366C86.6566 10.5808 86.8659 10.0499 87.0651 9.54389C87.1558 9.27958 87.2334 9.10063 87.298 9.00704C87.3699 8.90481 87.4457 8.85043 87.5254 8.84388C87.637 8.83472 87.7456 8.88601 87.8511 8.99775C87.9646 9.10884 88.0298 9.26803 88.0468 9.47534C88.0527 9.5471 88.0546 9.61918 88.0525 9.69159C88.0498 9.75603 88.0357 9.82943 88.0104 9.91178C87.7982 10.6516 87.5619 11.3413 87.3013 11.9807C87.0401 12.6122 86.7647 13.1686 86.4751 13.6499C86.1928 14.1226 85.9067 14.4993 85.6167 14.78C85.326 15.0527 85.0491 15.1998 84.786 15.2214C84.3315 15.2587 83.9663 15.1603 83.6902 14.9261C83.4214 14.6832 83.269 14.3426 83.233 13.904C83.218 13.7207 83.2103 13.4805 83.21 13.1835C83.2177 12.8859 83.2274 12.564 83.2391 12.2179C83.2588 11.8711 83.2795 11.5363 83.3011 11.2135C83.3228 10.8906 83.3397 10.6083 83.352 10.3665C83.3722 10.124 83.3827 9.95857 83.3835 9.87021C83.3823 9.75793 83.3658 9.7031 83.3339 9.70572C83.302 9.70834 83.2467 9.81723 83.168 10.0324C83.0967 10.2389 83.01 10.5029 82.908 10.8243C82.8132 11.1371 82.7115 11.4625 82.6028 11.8006C82.4808 12.1718 82.3378 12.5809 82.1738 13.0278C82.0171 13.4661 81.8429 13.8857 81.651 14.2868C81.4672 14.6872 81.2658 15.0207 81.0469 15.2876C80.828 15.5544 80.595 15.6979 80.3478 15.7182ZM104.435 13.0304C104.437 13.1586 104.394 13.2665 104.305 13.3541C104.215 13.4417 104.107 13.4908 103.98 13.5012C103.836 13.513 103.713 13.475 103.609 13.3872C103.505 13.2993 103.446 13.1558 103.429 12.9564C103.387 12.4382 103.364 11.8741 103.362 11.2642C103.36 10.6464 103.37 10.0355 103.393 9.4316C103.415 8.81975 103.441 8.25574 103.47 7.73956C103.238 8.1359 102.985 8.57407 102.711 9.05407C102.446 9.53341 102.172 10.0094 101.89 10.4821C101.607 10.9548 101.33 11.3909 101.058 11.7905C100.785 12.1822 100.534 12.5038 100.306 12.7553C100.077 12.9988 99.8832 13.1271 99.7238 13.1402C99.4287 13.1644 99.1641 13.0698 98.9299 12.8562C98.6949 12.6347 98.5628 12.3445 98.5333 11.9858C98.5215 11.8422 98.5214 11.6456 98.533 11.3958C98.544 11.138 98.5579 10.868 98.5749 10.5857C98.5918 10.3033 98.6065 10.0412 98.6187 9.79944C98.6303 9.54965 98.6312 9.36496 98.6214 9.24536C98.6122 9.13373 98.5924 9.03904 98.5619 8.96127C98.5388 8.87487 98.4953 8.83429 98.4315 8.83953C98.3359 8.84739 98.2131 8.96582 98.0634 9.19485C97.913 9.41589 97.7475 9.69838 97.5671 10.0423C97.3946 10.3856 97.2157 10.7494 97.0306 11.1339C96.8534 11.5176 96.6865 11.8805 96.53 12.2225C96.3728 12.5564 96.2379 12.8204 96.1254 13.0142C96.0361 13.1981 95.9509 13.3336 95.8698 13.4205C95.7886 13.5074 95.6842 13.5561 95.5567 13.5666C95.4052 13.579 95.2591 13.5108 95.1184 13.3618C94.9858 13.2121 94.9099 13.0217 94.8909 12.7905C94.8798 12.6549 94.8864 12.4417 94.9107 12.1507C94.9343 11.8518 94.9676 11.524 95.0105 11.1672C95.0615 10.8099 95.1091 10.4608 95.1533 10.12C95.2049 9.77065 95.2488 9.47407 95.285 9.23029C95.3265 8.95397 95.3912 8.76404 95.479 8.66051C95.5668 8.55697 95.6665 8.50063 95.7782 8.49146C95.9297 8.47903 96.0538 8.52502 96.1507 8.62944C96.2549 8.72524 96.3162 8.88476 96.3345 9.10801C96.3378 9.14788 96.3227 9.25748 96.2892 9.43682C96.2551 9.60818 96.2124 9.82039 96.1609 10.0735C96.1167 10.3179 96.0656 10.5749 96.0075 10.8446C95.9573 11.1136 95.9175 11.3617 95.888 11.5889C96.0392 11.2795 96.1964 10.9455 96.3596 10.5869C96.5308 10.2277 96.7023 9.87248 96.8741 9.52125C97.0453 9.16204 97.2191 8.83472 97.3955 8.53929C97.5713 8.23589 97.748 7.99262 97.9256 7.80948C98.1032 7.62633 98.2797 7.52756 98.4551 7.51316C98.6624 7.49614 98.859 7.54421 99.0449 7.65738C99.2387 7.7699 99.4003 7.92921 99.5296 8.13533C99.6589 8.34144 99.7344 8.57605 99.756 8.83917C99.771 9.02255 99.7604 9.2843 99.7241 9.62441C99.6871 9.95654 99.6485 10.3169 99.6082 10.7055C99.5758 11.0935 99.5657 11.4595 99.5779 11.8037C99.5845 11.8834 99.6117 11.9213 99.6595 11.9174C99.6994 11.9141 99.7449 11.8823 99.7961 11.8219C100.006 11.5478 100.236 11.2198 100.486 10.8381C100.735 10.4485 100.986 10.0385 101.24 9.60833C101.501 9.17748 101.76 8.75493 102.015 8.34068C102.269 7.91846 102.507 7.53774 102.728 7.19852C102.956 6.85067 103.158 6.57322 103.334 6.36615C103.517 6.15843 103.665 6.04999 103.776 6.04083C104.016 6.02119 104.205 6.07391 104.343 6.19898C104.482 6.32405 104.564 6.54605 104.591 6.86498C104.612 7.12012 104.619 7.45264 104.612 7.86255C104.614 8.2718 104.606 8.71791 104.59 9.20088C104.581 9.6832 104.565 10.1702 104.541 10.6618C104.525 11.1447 104.505 11.5958 104.484 12.015C104.461 12.4262 104.445 12.7647 104.435 13.0304ZM108.134 13.2083C107.664 13.2469 107.278 13.098 106.978 12.7614C106.677 12.4249 106.503 11.9696 106.456 11.3955C106.439 11.1882 106.449 10.9667 106.486 10.7309C106.53 10.4864 106.592 10.2646 106.672 10.0654C106.612 10.0142 106.562 9.94204 106.522 9.84898C106.481 9.74794 106.455 9.62168 106.443 9.47019C106.404 8.99977 106.448 8.56268 106.576 8.1589C106.703 7.75512 106.887 7.39892 107.126 7.09028C107.365 6.77367 107.637 6.52255 107.943 6.3369C108.257 6.1506 108.581 6.04371 108.916 6.01621C109.466 5.97105 109.929 6.13372 110.305 6.50424C110.68 6.86678 110.9 7.45069 110.966 8.25598C111.001 8.67856 110.973 9.11435 110.881 9.56335C110.797 10.0117 110.665 10.448 110.483 10.8723C110.309 11.296 110.095 11.6787 109.843 12.0205C109.598 12.3617 109.328 12.6408 109.032 12.8576C108.744 13.0659 108.445 13.1828 108.134 13.2083ZM107.428 9.59398C107.481 9.65384 107.512 9.73559 107.52 9.83924C107.53 9.95884 107.516 10.0804 107.478 10.2039C107.448 10.3268 107.418 10.4938 107.387 10.7051C107.356 10.9163 107.356 11.2133 107.388 11.596C107.419 11.9787 107.586 12.1576 107.889 12.1327C108.224 12.1053 108.524 11.9482 108.79 11.6615C109.054 11.3668 109.281 10.9991 109.47 10.5582C109.658 10.1173 109.793 9.65269 109.873 9.16448C109.961 8.66765 109.987 8.20395 109.951 7.7734C109.929 7.49434 109.861 7.30325 109.748 7.20014C109.634 7.08905 109.442 7.04463 109.171 7.06689C108.892 7.0898 108.609 7.20937 108.322 7.4256C108.042 7.6332 107.815 7.90464 107.642 8.23993C107.469 8.57523 107.399 8.9422 107.431 9.34086C107.438 9.42856 107.437 9.51294 107.428 9.59398ZM112.737 12.9388C112.609 12.9493 112.498 12.9063 112.401 12.8098C112.305 12.7134 112.25 12.5735 112.234 12.3901C112.223 12.2545 112.233 12.029 112.263 11.7135C112.301 11.3893 112.338 11.013 112.375 10.5845C112.42 10.1554 112.452 9.7113 112.471 9.25225C112.488 8.78522 112.48 8.34042 112.445 7.91784C112.428 7.71054 112.468 7.5548 112.563 7.45061C112.667 7.33779 112.786 7.27582 112.921 7.26469C113.049 7.25422 113.151 7.3261 113.228 7.48033C113.305 7.63455 113.343 7.9525 113.343 8.43416C113.643 7.59079 113.992 6.90393 114.389 6.37359C114.795 5.83463 115.208 5.43951 115.629 5.18823C116.049 4.92898 116.434 4.78496 116.785 4.75616C117.016 4.73717 117.188 4.77127 117.299 4.85844C117.418 4.93698 117.482 5.03206 117.491 5.14369C117.504 5.29518 117.45 5.42001 117.329 5.51819C117.216 5.60774 117.013 5.72076 116.719 5.85726C116.379 6.0216 116.069 6.20758 115.79 6.41518C115.517 6.61415 115.261 6.86796 115.021 7.17659C114.79 7.48457 114.569 7.87196 114.358 8.33875C114.147 8.79756 113.944 9.36003 113.75 10.0261C113.556 10.6923 113.357 11.4913 113.152 12.4231C113.119 12.6024 113.065 12.7313 112.991 12.8096C112.925 12.8872 112.841 12.9303 112.737 12.9388ZM121.517 6.79988C121.538 7.05502 121.478 7.31272 121.339 7.57298C121.199 7.82527 121.007 8.07384 120.762 8.31869C120.517 8.55556 120.243 8.78277 119.939 9.00031C119.636 9.21785 119.331 9.41146 119.024 9.58116C118.717 9.75086 118.435 9.89037 118.179 9.99967C118.141 10.3159 118.132 10.5936 118.151 10.8327C118.164 10.9842 118.208 11.0889 118.285 11.1468C118.362 11.2047 118.477 11.2275 118.628 11.215C118.963 11.1875 119.313 11.0986 119.678 10.9482C120.043 10.7979 120.413 10.611 120.788 10.3875C121.163 10.1641 121.521 9.93004 121.862 9.68531C122.203 9.44058 122.513 9.21042 122.793 8.99485C123.08 8.77862 123.318 8.60252 123.508 8.46656C123.697 8.3306 123.824 8.26 123.888 8.25476C123.983 8.24691 124.058 8.27291 124.111 8.33277C124.171 8.384 124.205 8.44948 124.211 8.52921C124.216 8.593 124.127 8.72476 123.943 8.92451C123.766 9.1236 123.525 9.36015 123.218 9.63416C122.911 9.90019 122.565 10.1775 122.179 10.466C121.793 10.7545 121.39 11.0284 120.97 11.2877C120.558 11.5462 120.154 11.76 119.758 11.9289C119.371 12.0972 119.018 12.1944 118.699 12.2206C118.284 12.2547 117.948 12.1257 117.692 11.8337C117.435 11.5417 117.28 11.0689 117.226 10.4151C117.19 9.97653 117.21 9.52944 117.285 9.07378C117.367 8.61746 117.492 8.1778 117.658 7.75481C117.831 7.32318 118.028 6.93776 118.249 6.59854C118.478 6.2507 118.724 5.97363 118.988 5.76734C119.251 5.55307 119.514 5.43514 119.777 5.41354C120.28 5.3723 120.686 5.47943 120.996 5.73493C121.306 5.99042 121.479 6.34541 121.517 6.79988ZM118.355 9.05815C118.59 8.88637 118.832 8.70596 119.081 8.51692C119.33 8.32789 119.559 8.1365 119.768 7.94276C119.977 7.74902 120.141 7.55091 120.261 7.34843C120.388 7.13732 120.444 6.92811 120.427 6.72081C120.402 6.4258 120.231 6.29139 119.912 6.31757C119.712 6.33393 119.512 6.47885 119.309 6.75232C119.114 7.01716 118.934 7.35709 118.767 7.77212C118.6 8.18714 118.463 8.61582 118.355 9.05815Z" fill="white" fill-opacity="0.5"/>
</svg>
