<svg width="180" height="44" viewBox="0 0 180 44" fill="none" xmlns="http://www.w3.org/2000/svg">
<path d="M2.98796 18.6308C2.64511 18.659 2.40996 18.6301 2.28251 18.5442C2.16303 18.4577 2.09969 18.3706 2.09249 18.2829C2.08202 18.1553 2.13631 18.0345 2.25537 17.9204C2.38241 17.8056 2.53997 17.7204 2.72805 17.6648C2.95534 17.598 3.23048 17.5273 3.55345 17.4526C3.88374 17.3693 4.22665 17.293 4.58217 17.2237C4.93703 17.1464 5.28491 17.0817 5.62579 17.0296C5.96667 16.9776 6.26469 16.941 6.51983 16.9201C6.8547 16.8926 7.11508 16.9355 7.30096 17.0486C7.49416 17.1532 7.59502 17.2573 7.60353 17.3609C7.60418 17.3689 7.60549 17.3848 7.60746 17.4088C7.61269 17.4725 7.60531 17.5293 7.58532 17.5791C7.56533 17.6289 7.48953 17.6833 7.35791 17.7423C7.23361 17.7926 7.01795 17.8545 6.71092 17.9278C6.41121 17.9926 5.98426 18.0718 5.43007 18.1654C5.3191 18.1826 5.1965 18.2047 5.06226 18.2318C5.04804 18.4497 5.02344 18.7366 4.98845 19.0927C4.95347 19.4487 4.91378 19.8453 4.8694 20.2824C4.82501 20.7195 4.77762 21.1689 4.72723 21.6306C4.67618 22.0843 4.62349 22.518 4.56917 22.9319C4.52282 23.345 4.48051 23.7097 4.44226 24.0259C4.41197 24.3414 4.38743 24.5803 4.36863 24.7423C4.77865 24.6525 5.14247 24.5865 5.46009 24.5444C5.78503 24.4936 6.00331 24.4637 6.11493 24.4545C6.40994 24.4303 6.56661 24.5298 6.58493 24.753C6.59017 24.8168 6.46215 24.9196 6.20088 25.0615C5.93961 25.2033 5.60293 25.3554 5.19082 25.5177C4.77872 25.6799 4.35001 25.8355 3.9047 25.9845C3.53716 26.1029 3.17197 26.2011 2.80913 26.2791C2.45427 26.3564 2.1971 26.4016 2.03764 26.4147C1.86223 26.4291 1.73603 26.4073 1.65903 26.3494C1.58269 26.2995 1.53994 26.2187 1.53078 26.1071C1.52161 25.9955 1.54434 25.8812 1.59896 25.7644C1.66156 25.6469 1.75069 25.5593 1.86636 25.5016C2.07509 25.4042 2.3084 25.3128 2.56627 25.2274C2.8235 25.1341 3.08536 25.0484 3.35187 24.9703C3.3486 24.9304 3.34467 24.8826 3.34009 24.8268C3.33092 24.7152 3.33351 24.5022 3.34785 24.188C3.37016 23.8731 3.39952 23.4975 3.43594 23.061C3.47169 22.6166 3.51412 22.1556 3.5632 21.678C3.61163 21.1924 3.65804 20.731 3.70243 20.2939C3.74616 19.8489 3.78683 19.4642 3.82443 19.1401C3.86138 18.8079 3.89122 18.5848 3.91395 18.4705C3.71658 18.5108 3.53882 18.5455 3.38066 18.5745C3.22251 18.6035 3.09161 18.6223 2.98796 18.6308ZM9.14616 20.2323C8.96277 20.2474 8.8629 20.1552 8.84654 19.9559C8.83672 19.8363 8.86147 19.6978 8.92079 19.5404C8.98809 19.3824 9.06106 19.1958 9.13972 18.9807C9.21838 18.7655 9.28246 18.5194 9.33197 18.2424C9.38945 17.9648 9.40411 17.6546 9.37596 17.3117C9.3668 17.2001 9.34966 17.0891 9.32455 16.9788C9.30676 16.8599 9.29361 16.7486 9.2851 16.6449C9.25041 16.2223 9.276 15.9473 9.36185 15.8199C9.44706 15.6845 9.57737 15.6095 9.75278 15.5951C9.91224 15.582 10.0537 15.6427 10.1771 15.777C10.3005 15.9114 10.3782 16.1739 10.4103 16.5646C10.4496 17.043 10.4271 17.5024 10.3428 17.9427C10.2579 18.3751 10.1412 18.762 9.99262 19.1033C9.84404 19.4446 9.68991 19.7181 9.53021 19.9239C9.37782 20.121 9.24981 20.2238 9.14616 20.2323ZM20.7599 23.7459C20.7624 23.8741 20.7191 23.982 20.63 24.0696C20.5409 24.1572 20.4325 24.2062 20.3049 24.2167C20.1614 24.2285 20.0379 24.1904 19.9344 24.1026C19.8308 24.0148 19.7709 23.8712 19.7545 23.6719C19.712 23.1536 19.6897 22.5896 19.6878 21.9797C19.6853 21.3618 19.6953 20.7509 19.718 20.1471C19.74 19.5352 19.7659 18.9712 19.7958 18.455C19.5635 18.8514 19.3105 19.2895 19.0368 19.7695C18.7711 20.2489 18.4972 20.7249 18.2149 21.1976C17.9326 21.6702 17.6554 22.1064 17.3832 22.506C17.1103 22.8976 16.8598 23.2192 16.6316 23.4707C16.4027 23.7143 16.2086 23.8426 16.0491 23.8557C15.7541 23.8799 15.4895 23.7852 15.2552 23.5717C15.0203 23.3502 14.8881 23.06 14.8587 22.7012C14.8469 22.5577 14.8468 22.361 14.8584 22.1112C14.8693 21.8535 14.8833 21.5834 14.9003 21.3011C14.9172 21.0188 14.9318 20.7567 14.9441 20.5149C14.9557 20.2651 14.9566 20.0804 14.9467 19.9608C14.9376 19.8492 14.9178 19.7545 14.8873 19.6767C14.8642 19.5903 14.8207 19.5497 14.7569 19.555C14.6612 19.5628 14.5385 19.6813 14.3887 19.9103C14.2383 20.1313 14.0729 20.4138 13.8924 20.7577C13.7199 21.101 13.5411 21.4649 13.3559 21.8493C13.1787 22.2331 13.0119 22.596 12.8553 22.9379C12.6981 23.2719 12.5633 23.5358 12.4507 23.7297C12.3615 23.9136 12.2763 24.049 12.1951 24.1359C12.114 24.2229 12.0096 24.2716 11.882 24.2821C11.7305 24.2945 11.5845 24.2262 11.4438 24.0772C11.3111 23.9276 11.2353 23.7371 11.2163 23.5059C11.2052 23.3704 11.2117 23.1571 11.236 22.8662C11.2596 22.5672 11.2929 22.2394 11.3359 21.8827C11.3868 21.5253 11.4344 21.1763 11.4787 20.8355C11.5303 20.4861 11.5742 20.1895 11.6103 19.9457C11.6519 19.6694 11.7165 19.4795 11.8044 19.376C11.8922 19.2724 11.9919 19.2161 12.1035 19.2069C12.255 19.1945 12.3792 19.2405 12.4761 19.3449C12.5803 19.4407 12.6415 19.6002 12.6598 19.8235C12.6631 19.8633 12.648 19.9729 12.6146 20.1523C12.5805 20.3236 12.5377 20.5358 12.4863 20.7889C12.4421 21.0333 12.391 21.2904 12.3328 21.56C12.2827 21.829 12.2428 22.0771 12.2133 22.3043C12.3645 21.9949 12.5217 21.6609 12.6849 21.3024C12.8561 20.9432 13.0276 20.5879 13.1995 20.2367C13.3706 19.8775 13.5444 19.5502 13.7209 19.2547C13.8966 18.9513 14.0733 18.7081 14.2509 18.5249C14.4285 18.3418 14.6051 18.243 14.7805 18.2286C14.9878 18.2116 15.1844 18.2597 15.3702 18.3728C15.5641 18.4854 15.7257 18.6447 15.855 18.8508C15.9843 19.0569 16.0597 19.2915 16.0813 19.5546C16.0964 19.738 16.0858 19.9997 16.0495 20.3399C16.0125 20.672 15.9739 21.0324 15.9335 21.421C15.9012 21.8089 15.8911 22.175 15.9033 22.5191C15.9098 22.5989 15.937 22.6368 15.9849 22.6328C16.0247 22.6296 16.0703 22.5977 16.1215 22.5373C16.3318 22.2632 16.5617 21.9353 16.8113 21.5536C17.0603 21.1639 17.3116 20.754 17.5652 20.3238C17.8269 19.8929 18.0851 19.4704 18.3401 19.0561C18.5944 18.6339 18.8321 18.2532 19.053 17.914C19.2814 17.5661 19.4833 17.2887 19.659 17.0816C19.8426 16.8739 19.9902 16.7654 20.1018 16.7563C20.341 16.7366 20.53 16.7894 20.6687 16.9144C20.8074 17.0395 20.8898 17.2615 20.916 17.5804C20.9369 17.8356 20.9442 18.1681 20.9377 18.578C20.9392 18.9872 20.9317 19.4334 20.9151 19.9163C20.9066 20.3986 20.8903 20.8856 20.8665 21.3772C20.8499 21.8602 20.8308 22.3113 20.809 22.7304C20.7866 23.1417 20.7702 23.4801 20.7599 23.7459ZM29.2629 23.7221C28.9599 23.747 28.6973 23.628 28.4751 23.3653C28.2602 23.094 28.134 22.7311 28.0967 22.2766C28.062 21.8541 28.1313 21.427 28.3046 20.9953C28.4858 20.5631 28.7362 20.1412 29.0556 19.7297C29.375 19.3181 29.7289 18.9359 30.1173 18.5829C30.5051 18.222 30.8964 17.9049 31.2914 17.6317C31.6943 17.3578 32.0657 17.1387 32.4053 16.9743C32.745 16.81 33.0185 16.7193 33.2258 16.7023C33.3375 16.6931 33.4311 16.7095 33.5068 16.7515C33.5818 16.7854 33.6239 16.8582 33.6331 16.9699C33.639 17.0416 33.6166 17.1117 33.5661 17.1801C33.574 17.1794 33.582 17.1788 33.59 17.1781C33.7654 17.1637 33.8616 17.2601 33.8786 17.4675C33.8845 17.5392 33.8687 17.689 33.8312 17.9168C33.7931 18.1367 33.7516 18.413 33.7066 18.7458C33.6617 19.0786 33.6277 19.4466 33.6046 19.8499C33.5809 20.2451 33.5857 20.6461 33.6191 21.0527C33.6473 21.3956 33.7929 21.5562 34.056 21.5346C34.351 21.5104 34.6444 21.418 34.9363 21.2576C35.2281 21.0972 35.5097 20.9095 35.7811 20.6946C36.0517 20.4717 36.2988 20.2548 36.5223 20.0438C36.7451 19.8248 36.9347 19.6407 37.091 19.4914C37.2473 19.3421 37.3613 19.2645 37.4331 19.2586C37.4969 19.2534 37.5543 19.2687 37.6054 19.3047C37.6566 19.3406 37.6857 19.4024 37.6929 19.4902C37.6995 19.5699 37.6315 19.7199 37.4891 19.9403C37.3466 20.1607 37.1546 20.4133 36.9131 20.698C36.6716 20.9827 36.3976 21.2621 36.0909 21.5361C35.7843 21.8101 35.4662 22.0409 35.1364 22.2285C34.8066 22.4161 34.4863 22.5227 34.1753 22.5482C33.9361 22.5678 33.711 22.5141 33.4999 22.3869C33.2961 22.2512 33.1197 22.0088 32.9706 21.6598C32.8295 21.3102 32.7331 20.8204 32.6814 20.1905L32.6569 19.8915C32.3192 20.5694 31.957 21.1932 31.5703 21.7627C31.1916 22.3316 30.804 22.7929 30.4076 23.1465C30.0192 23.4995 29.6376 23.6913 29.2629 23.7221ZM33.0693 17.5821C33.0307 17.6013 32.9769 17.6298 32.9077 17.6676C32.5547 17.8651 32.189 18.1038 31.8107 18.3837C31.4403 18.663 31.0801 18.9695 30.7303 19.3032C30.3884 19.6363 30.0834 19.9784 29.8152 20.3295C29.547 20.6806 29.339 21.0308 29.191 21.3801C29.0431 21.7294 28.9823 22.0635 29.0084 22.3824C29.017 22.4861 29.0434 22.5642 29.0879 22.6167C29.1403 22.6686 29.2223 22.6899 29.3339 22.6808C29.4934 22.6677 29.6925 22.551 29.9313 22.3307C30.1694 22.1025 30.4262 21.8085 30.7017 21.4487C30.9852 21.0883 31.2657 20.6921 31.5433 20.2599C31.8208 19.8277 32.0821 19.3929 32.3272 18.9554C32.5802 18.5172 32.7959 18.1142 32.9744 17.7464C33.0017 17.6879 33.0334 17.6332 33.0693 17.5821ZM49.0331 13.9236C49.0756 14.4419 49.0889 14.9947 49.0729 15.5819C49.0569 16.1692 49.0013 16.7638 48.9062 17.3656C48.8105 17.9594 48.6686 18.5289 48.4806 19.0741C48.2999 19.6107 48.0631 20.0997 47.7703 20.5412C47.4767 20.9746 47.1205 21.329 46.7017 21.6041C46.2907 21.8787 45.8062 22.0389 45.2481 22.0847C44.4827 22.1475 43.8567 21.9541 43.3703 21.5044C42.8839 21.0547 42.6008 20.3435 42.5209 19.3707C42.4757 18.8206 42.4874 18.2778 42.5558 17.7424C42.6236 17.199 42.7152 16.7019 42.8307 16.2509C42.9462 15.8 43.0479 15.4264 43.136 15.1302C43.0989 15.069 43.0767 14.9946 43.0695 14.9069C43.0499 14.6677 43.0874 14.4398 43.182 14.2234C43.2759 13.9989 43.3971 13.8124 43.5454 13.6638C43.7017 13.5145 43.8556 13.4336 44.0071 13.4212C44.1267 13.4114 44.226 13.4474 44.3049 13.5292C44.3919 13.6103 44.4429 13.7426 44.4579 13.926C44.4743 14.1253 44.4288 14.402 44.3214 14.7559C44.2219 15.1093 44.1078 15.528 43.979 16.0122C43.8495 16.4884 43.7409 17.023 43.6531 17.6162C43.5727 18.2007 43.5596 18.8239 43.614 19.4857C43.6559 19.996 43.8235 20.3755 44.1168 20.6244C44.4095 20.8652 44.823 20.9637 45.3572 20.9199C45.7957 20.8839 46.1669 20.7129 46.4709 20.407C46.7749 20.1011 47.0189 19.6998 47.2029 19.2031C47.3942 18.6977 47.5364 18.1322 47.6295 17.5065C47.7306 16.8801 47.7935 16.2288 47.8183 15.5525C47.851 14.8756 47.8608 14.2125 47.8476 13.5634C47.8465 13.3548 47.8939 13.1984 47.9897 13.0942C48.0928 12.9814 48.2241 12.9185 48.3836 12.9054C48.5032 12.8956 48.6048 12.9113 48.6884 12.9526C48.7794 12.9852 48.8511 13.0757 48.9034 13.2239C48.9636 13.3715 49.0069 13.6047 49.0331 13.9236ZM57.3246 20.9729C57.221 20.9814 57.0795 20.9207 56.9003 20.791C56.7284 20.6526 56.5188 20.3969 56.2714 20.0239C56.0592 19.6881 55.8617 19.3351 55.6788 18.9648C55.4959 18.5945 55.3163 18.2159 55.1401 17.8291C54.7407 18.4398 54.3633 19.0246 54.0078 19.5836C53.6603 20.1419 53.3594 20.6322 53.1051 21.0544C52.8581 21.468 52.6907 21.7747 52.6027 21.9746C52.5694 22.0576 52.5128 22.1505 52.433 22.2534C52.3531 22.3563 52.2574 22.4123 52.1458 22.4215C52.0182 22.4319 51.9066 22.3929 51.8111 22.3044C51.7235 22.2153 51.6735 22.095 51.661 21.9435C51.6479 21.784 51.7233 21.529 51.8872 21.1784C52.0584 20.8192 52.2848 20.3993 52.5664 19.9186C52.856 19.4373 53.1785 18.9172 53.534 18.3582C53.8974 17.7986 54.2648 17.2387 54.6362 16.6784C54.4156 16.1427 54.2087 15.6259 54.0153 15.128C53.8292 14.6216 53.6667 14.1573 53.5277 13.7353C53.388 13.3052 53.2782 12.945 53.1982 12.6546C53.1181 12.3642 53.0739 12.1671 53.0654 12.0635C53.049 11.8642 53.0734 11.7217 53.1386 11.6361C53.2118 11.5498 53.3122 11.5014 53.4398 11.4909C53.6949 11.47 53.8881 11.6227 54.0192 11.9491C54.0782 12.0807 54.1556 12.291 54.2516 12.5802C54.3476 12.8693 54.484 13.2594 54.6607 13.7506C54.8375 14.2418 55.0686 14.8569 55.3541 15.5961C55.6603 15.1214 55.9512 14.6561 56.2268 14.2C56.5103 13.7432 56.7736 13.3323 57.0166 12.9672C57.2588 12.5942 57.4715 12.2998 57.6544 12.0841C57.8367 11.8604 57.9837 11.744 58.0953 11.7348C58.4143 11.7086 58.5868 11.855 58.613 12.1739C58.6202 12.2617 58.6088 12.3669 58.5787 12.4898C58.5487 12.6127 58.4884 12.7581 58.3978 12.9261C58.2533 13.2189 58.0409 13.5654 57.7607 13.9657C57.4806 14.366 57.1674 14.805 56.8214 15.283C56.4833 15.7602 56.1468 16.2574 55.812 16.7745C56.0995 17.4413 56.3802 18.0243 56.6539 18.5235C56.9277 19.0228 57.1547 19.4416 57.335 19.78C57.5226 20.1098 57.6237 20.3624 57.6381 20.5378C57.6603 20.8088 57.5558 20.9539 57.3246 20.9729ZM60.8859 22.8117C60.7583 22.8221 60.6544 22.7785 60.5741 22.6807C60.4938 22.583 60.4439 22.4145 60.4242 22.1753C60.4177 22.0956 60.4654 21.895 60.5675 21.5735C60.6695 21.2521 60.8125 20.8431 60.9965 20.3463C61.1878 19.841 61.4024 19.2775 61.6404 18.656C61.8863 18.0338 62.1465 17.3903 62.421 16.7256C62.6949 16.053 62.9731 15.384 63.2556 14.7186C63.5381 14.0533 63.8116 13.4248 64.0761 12.8332C64.3399 12.2336 64.5818 11.708 64.8016 11.2565C64.8994 11.0799 64.9866 10.9684 65.0631 10.922C65.1468 10.867 65.2485 10.8345 65.3681 10.8247C65.4877 10.8149 65.5837 10.8592 65.656 10.9576C65.7356 11.0474 65.7809 11.1601 65.7921 11.2956C65.798 11.3674 65.7389 11.5769 65.6149 11.9242C65.4903 12.2636 65.3183 12.7111 65.099 13.2669C64.8791 13.8148 64.6216 14.4419 64.3264 15.1485C64.0385 15.8463 63.7267 16.5944 63.3909 17.3925C63.0624 18.182 62.7275 18.9922 62.3863 19.8229C62.0445 20.6456 61.714 21.4594 61.3948 22.2642C61.3221 22.4548 61.2489 22.5892 61.175 22.6675C61.1018 22.7538 61.0055 22.8018 60.8859 22.8117ZM75.1388 11.7805C75.1814 12.2987 75.1947 12.8515 75.1787 13.4388C75.1627 14.0261 75.1071 14.6206 75.012 15.2224C74.9163 15.8162 74.7744 16.3858 74.5864 16.931C74.4057 17.4675 74.1689 17.9566 73.8761 18.398C73.5825 18.8315 73.2263 19.1858 72.8074 19.461C72.3965 19.7355 71.912 19.8957 71.3539 19.9415C70.5885 20.0044 69.9625 19.8109 69.4761 19.3612C68.9897 18.9115 68.7065 18.2003 68.6267 17.2276C68.5815 16.6774 68.5932 16.1347 68.6616 15.5993C68.7293 15.0559 68.821 14.5587 68.9365 14.1078C69.052 13.6568 69.1537 13.2832 69.2418 12.987C69.2047 12.9259 69.1825 12.8514 69.1753 12.7637C69.1557 12.5245 69.1931 12.2967 69.2878 12.0802C69.3817 11.8558 69.5028 11.6693 69.6512 11.5206C69.8075 11.3713 69.9614 11.2905 70.1129 11.278C70.2325 11.2682 70.3318 11.3042 70.4107 11.386C70.4976 11.4672 70.5486 11.5995 70.5637 11.7828C70.5801 11.9822 70.5345 12.2588 70.4271 12.6128C70.3277 12.9661 70.2136 13.3849 70.0848 13.869C69.9553 14.3452 69.8467 14.8799 69.7589 15.4731C69.6785 16.0576 69.6654 16.6808 69.7198 17.3425C69.7616 17.8528 69.9293 18.2324 70.2226 18.4812C70.5153 18.7221 70.9287 18.8206 71.4629 18.7767C71.9015 18.7407 72.2727 18.5698 72.5767 18.2639C72.8807 17.958 73.1247 17.5567 73.3087 17.0599C73.5 16.5546 73.6422 15.9891 73.7353 15.3633C73.8364 14.737 73.8993 14.0856 73.924 13.4093C73.9568 12.7324 73.9665 12.0694 73.9534 11.4203C73.9523 11.2117 73.9997 11.0553 74.0955 10.9511C74.1986 10.8383 74.3299 10.7753 74.4894 10.7622C74.6089 10.7524 74.7106 10.7681 74.7942 10.8094C74.8852 10.8421 74.9569 10.9325 75.0092 11.0808C75.0694 11.2283 75.1127 11.4616 75.1388 11.7805ZM79.4179 12.3563C79.075 12.3845 78.8399 12.3556 78.7124 12.2697C78.593 12.1832 78.5296 12.0961 78.5224 12.0084C78.5119 11.8808 78.5662 11.76 78.6853 11.6459C78.8123 11.5311 78.9699 11.4459 79.158 11.3903C79.3853 11.3235 79.6604 11.2528 79.9834 11.1781C80.3137 11.0948 80.6566 11.0185 81.0121 10.9492C81.367 10.8719 81.7148 10.8072 82.0557 10.7551C82.3966 10.7031 82.6946 10.6665 82.9498 10.6456C83.2846 10.6181 83.545 10.661 83.7309 10.7741C83.9241 10.8787 84.025 10.9828 84.0335 11.0864C84.0341 11.0944 84.0354 11.1103 84.0374 11.1343C84.0426 11.198 84.0352 11.2548 84.0153 11.3046C83.9953 11.3544 83.9195 11.4088 83.7878 11.4678C83.6635 11.5181 83.4479 11.58 83.1409 11.6533C82.8411 11.7181 82.4142 11.7973 81.86 11.8909C81.749 11.9081 81.6264 11.9302 81.4922 11.9573C81.478 12.1752 81.4534 12.4621 81.4184 12.8182C81.3834 13.1742 81.3437 13.5708 81.2993 14.0079C81.2549 14.445 81.2076 14.8944 81.1572 15.3561C81.1061 15.8098 81.0534 16.2435 80.9991 16.6574C80.9527 17.0705 80.9104 17.4352 80.8722 17.7514C80.8419 18.0669 80.8174 18.3058 80.7986 18.4678C81.2086 18.378 81.5724 18.312 81.89 18.2699C82.215 18.2191 82.4332 18.1892 82.5449 18.18C82.8399 18.1558 82.9965 18.2553 83.0149 18.4785C83.0201 18.5423 82.8921 18.6451 82.6308 18.787C82.3695 18.9288 82.0329 19.0809 81.6208 19.2432C81.2086 19.4054 80.7799 19.561 80.3346 19.71C79.9671 19.8284 79.6019 19.9266 79.2391 20.0046C78.8842 20.0819 78.627 20.1271 78.4676 20.1402C78.2922 20.1546 78.166 20.1328 78.089 20.0749C78.0126 20.025 77.9699 19.9442 77.9607 19.8326C77.9515 19.721 77.9743 19.6067 78.0289 19.4899C78.0915 19.3724 78.1806 19.2848 78.2963 19.2271C78.505 19.1297 78.7383 19.0383 78.9962 18.9529C79.2534 18.8596 79.5153 18.7739 79.7818 18.6958C79.7785 18.6559 79.7746 18.6081 79.77 18.5523C79.7609 18.4407 79.7634 18.2277 79.7778 17.9135C79.8001 17.5986 79.8295 17.223 79.8659 16.7865C79.9016 16.3421 79.944 15.8811 79.9931 15.4035C80.0416 14.9179 80.088 14.4565 80.1324 14.0194C80.1761 13.5744 80.2168 13.1897 80.2544 12.8656C80.2913 12.5334 80.3211 12.3103 80.3439 12.196C80.1465 12.2363 79.9688 12.271 79.8106 12.3C79.6524 12.329 79.5215 12.3478 79.4179 12.3563ZM95.3283 11.9291C95.501 11.3932 95.6605 10.8423 95.8067 10.2764C95.9609 9.7099 96.0941 9.13307 96.2064 8.54591C96.2412 8.38251 96.3025 8.24905 96.3903 8.14552C96.4854 8.03336 96.6008 7.97172 96.7363 7.96059C96.832 7.95273 96.9147 7.98207 96.9844 8.04859C97.062 8.11446 97.1057 8.20719 97.1156 8.32679C97.128 8.47828 97.0898 8.7463 97.001 9.13086C96.9201 9.51476 96.8155 10.0009 96.6873 10.5894C96.5669 11.1772 96.4499 11.8531 96.336 12.617C96.2294 13.3722 96.1533 14.2052 96.1077 15.116C96.07 16.0261 96.0931 16.9915 96.1769 18.0121C96.1952 18.2353 96.1624 18.4226 96.0785 18.574C95.9953 18.7333 95.8859 18.8186 95.7503 18.8297C95.6706 18.8363 95.5932 18.8225 95.5182 18.7886C95.4432 18.7546 95.3715 18.6641 95.3033 18.5172C95.2436 18.3776 95.1851 18.1537 95.1277 17.8453C95.0696 17.529 95.0183 17.0998 94.9738 16.5576C94.9398 16.143 94.9267 15.6906 94.9346 15.2003C94.6222 15.8922 94.271 16.5029 93.881 17.0326C93.4984 17.5537 93.1185 17.9621 92.7415 18.258C92.3724 18.5532 92.0483 18.7122 91.7692 18.7351C91.4264 18.7633 91.1378 18.6706 90.9036 18.457C90.678 18.2508 90.5468 17.9244 90.5102 17.4779C90.4781 17.0872 90.5367 16.6771 90.6861 16.2474C90.8354 15.8177 91.0452 15.3911 91.3155 14.9676C91.5851 14.5361 91.8885 14.1259 92.2258 13.737C92.5631 13.3481 92.9041 13.003 93.2486 12.7019C93.6004 12.392 93.9296 12.1483 94.236 11.9706C94.5419 11.785 94.7945 11.684 94.9938 11.6676C95.0735 11.661 95.1476 11.6831 95.2159 11.7336C95.2843 11.7842 95.3218 11.8494 95.3283 11.9291ZM95.2033 12.3126C95.152 12.373 95.0889 12.4344 95.0137 12.4967C94.9386 12.5591 94.8558 12.6261 94.7653 12.6977C94.4348 12.9737 94.0717 13.2925 93.6759 13.6541C93.2875 14.007 92.9176 14.3906 92.5663 14.8047C92.2224 15.2102 91.9478 15.6301 91.7426 16.0643C91.5375 16.4986 91.4529 16.935 91.4889 17.3735C91.5046 17.5648 91.6081 17.6527 91.7995 17.637C92.0626 17.6154 92.3395 17.4682 92.6302 17.1955C92.9281 16.9142 93.2262 16.5365 93.5245 16.0625C93.822 15.5806 94.1134 15.0229 94.3985 14.3894C94.683 13.748 94.9512 13.0557 95.2033 12.3126ZM102.455 12.211C102.476 12.4661 102.417 12.7238 102.277 12.9841C102.138 13.2363 101.945 13.4849 101.7 13.7298C101.455 13.9666 101.181 14.1938 100.878 14.4114C100.574 14.6289 100.269 14.8225 99.962 14.9922C99.6548 15.1619 99.3733 15.3014 99.1174 15.4108C99.0791 15.7269 99.0698 16.0046 99.0894 16.2438C99.1019 16.3953 99.1466 16.5 99.2236 16.5579C99.3006 16.6158 99.4148 16.6385 99.5663 16.6261C99.9012 16.5986 100.251 16.5097 100.616 16.3593C100.981 16.209 101.351 16.0221 101.726 15.7986C102.101 15.5752 102.459 15.3411 102.8 15.0964C103.141 14.8517 103.451 14.6215 103.731 14.4059C104.018 14.1897 104.256 14.0136 104.446 13.8776C104.635 13.7417 104.762 13.6711 104.826 13.6658C104.921 13.658 104.996 13.684 105.049 13.7439C105.109 13.7951 105.143 13.8606 105.149 13.9403C105.155 14.0041 105.065 14.1358 104.881 14.3356C104.704 14.5347 104.463 14.7712 104.156 15.0452C103.849 15.3113 103.503 15.5885 103.117 15.8771C102.731 16.1656 102.328 16.4395 101.908 16.6987C101.496 16.9573 101.092 17.1711 100.697 17.34C100.309 17.5083 99.9558 17.6055 99.6368 17.6317C99.2222 17.6657 98.8865 17.5368 98.6298 17.2448C98.373 16.9528 98.2178 16.4799 98.1642 15.8261C98.1282 15.3876 98.1476 14.9405 98.2226 14.4849C98.3056 14.0285 98.43 13.5889 98.5959 13.1659C98.7692 12.7343 98.9663 12.3488 99.1873 12.0096C99.4156 11.6618 99.6618 11.3847 99.9258 11.1784C100.189 10.9642 100.452 10.8462 100.715 10.8246C101.218 10.7834 101.624 10.8905 101.934 11.146C102.244 11.4015 102.417 11.7565 102.455 12.211ZM99.2929 14.4692C99.5277 14.2975 99.7697 14.117 100.019 13.928C100.268 13.739 100.498 13.5476 100.706 13.3538C100.915 13.1601 101.08 12.962 101.199 12.7595C101.327 12.5484 101.382 12.3392 101.365 12.1319C101.34 11.8369 101.169 11.7025 100.85 11.7287C100.651 11.745 100.45 11.8899 100.247 12.1634C100.052 12.4282 99.8717 12.7682 99.7051 13.1832C99.5385 13.5982 99.4011 14.0269 99.2929 14.4692ZM105.891 17.3831C105.716 17.3975 105.576 17.3568 105.472 17.261C105.376 17.1726 105.323 17.0645 105.313 16.937C105.304 16.8253 105.343 16.7178 105.431 16.6142C105.526 16.5021 105.658 16.3989 105.827 16.3048C106.132 16.1112 106.417 15.9192 106.683 15.7288C106.956 15.5378 107.172 15.3395 107.332 15.1337C107.492 14.9279 107.563 14.7174 107.545 14.5022C107.53 14.3188 107.459 14.1841 107.331 14.0983C107.203 14.0045 107.036 13.966 106.828 13.9831C106.709 13.9929 106.543 14.0305 106.332 14.0961C106.12 14.1536 105.889 14.2207 105.638 14.2975C105.395 14.3656 105.155 14.4334 104.92 14.5009C104.684 14.5604 104.483 14.597 104.315 14.6108C104.012 14.6357 103.779 14.5826 103.616 14.4515C103.452 14.3124 103.359 14.1153 103.338 13.8602C103.328 13.7326 103.388 13.535 103.519 13.2675C103.649 12.9999 103.825 12.7005 104.047 12.3692C104.276 12.0294 104.529 11.6875 104.806 11.3437C105.082 10.9999 105.365 10.6797 105.654 10.3831C105.95 10.0858 106.227 9.84234 106.485 9.65265C106.75 9.4623 106.974 9.3596 107.158 9.34455C107.341 9.32949 107.486 9.37784 107.591 9.48958C107.697 9.60132 107.757 9.74888 107.772 9.93227C107.784 10.0758 107.77 10.2013 107.731 10.3089C107.691 10.4085 107.597 10.4924 107.45 10.5607C107.311 10.6283 107.091 10.6785 106.788 10.7114C106.498 10.9841 106.19 11.2943 105.865 11.642C105.548 11.9811 105.26 12.3299 105 12.6883C104.748 13.0381 104.57 13.3697 104.468 13.6832C104.724 13.5739 105.036 13.472 105.406 13.3774C105.783 13.2742 106.166 13.2066 106.557 13.1745C107.171 13.1241 107.637 13.2264 107.955 13.4812C108.28 13.7274 108.461 14.0738 108.498 14.5203C108.521 14.8073 108.454 15.1138 108.296 15.4398C108.146 15.7572 107.938 16.0592 107.672 16.3459C107.407 16.6326 107.117 16.8691 106.804 17.0554C106.49 17.2497 106.186 17.3589 105.891 17.3831ZM110.209 16.824C110.057 16.8364 109.917 16.7918 109.788 16.69C109.659 16.5802 109.584 16.4017 109.564 16.1545C109.549 15.9791 109.553 15.734 109.576 15.4191C109.597 15.0962 109.633 14.7442 109.682 14.3629C109.73 13.9816 109.784 13.604 109.841 13.23C109.906 12.8474 109.974 12.5047 110.046 12.2018C110.117 11.899 110.183 11.6728 110.243 11.5234C110.298 11.4066 110.352 11.3299 110.405 11.2934C110.466 11.2563 110.524 11.2354 110.58 11.2308C110.692 11.2217 110.791 11.2497 110.876 11.3149C110.97 11.3795 111.025 11.5154 111.042 11.7227C111.052 11.8423 111.044 12.0436 111.019 12.3266C111.002 12.601 110.972 12.9245 110.931 13.2971C110.896 13.6611 110.855 14.0378 110.807 14.4271C110.766 14.8077 110.723 15.1724 110.68 15.5211C110.636 15.8698 110.604 16.1615 110.583 16.396C110.561 16.5261 110.514 16.6304 110.44 16.7087C110.373 16.7784 110.296 16.8168 110.209 16.824ZM110.838 10.114C110.654 10.1291 110.474 10.0877 110.298 9.9898C110.129 9.89127 110.035 9.71842 110.014 9.47125C109.997 9.26394 110.031 9.09258 110.117 8.95715C110.21 8.82107 110.322 8.71956 110.453 8.65262C110.591 8.57706 110.712 8.53502 110.816 8.52651C110.919 8.518 111.037 8.53243 111.169 8.5698C111.307 8.59853 111.429 8.66877 111.535 8.78052C111.64 8.88429 111.701 9.0478 111.72 9.27105C111.732 9.42254 111.691 9.56233 111.598 9.69044C111.503 9.81058 111.383 9.90875 111.237 9.98497C111.098 10.0605 110.965 10.1036 110.838 10.114ZM113.635 19.6612C113.021 19.7116 112.566 19.6887 112.269 19.5927C111.972 19.4967 111.816 19.349 111.799 19.1497C111.789 19.0221 111.82 18.9152 111.893 18.8289C111.975 18.742 112.079 18.6933 112.206 18.6828C112.342 18.6716 112.539 18.6755 112.797 18.6945C113.056 18.7214 113.31 18.7247 113.557 18.7044C114.378 18.637 115.032 18.3385 115.518 17.8089C116.004 17.2793 116.346 16.5008 116.542 15.4733C116.738 14.4377 116.82 13.1307 116.786 11.5521C116.587 12.0581 116.356 12.5668 116.093 13.078C115.837 13.5806 115.554 14.0453 115.244 14.4721C114.941 14.8903 114.62 15.2337 114.281 15.5024C113.942 15.771 113.597 15.9197 113.246 15.9485C112.911 15.976 112.657 15.9126 112.484 15.7583C112.319 15.6033 112.221 15.3344 112.189 14.9517C112.161 14.6088 112.227 14.2382 112.387 13.8398C112.546 13.4334 112.769 13.0218 113.056 12.6049C113.343 12.188 113.663 11.7885 114.017 11.4062C114.37 11.016 114.727 10.6697 115.088 10.3672C115.456 10.056 115.8 9.80697 116.122 9.62002C116.444 9.43306 116.708 9.33108 116.916 9.31406C117.123 9.29704 117.288 9.35571 117.412 9.49006C117.535 9.62441 117.613 9.89092 117.646 10.2896C117.723 11.2224 117.765 12.134 117.774 13.0243C117.79 13.9059 117.742 14.7326 117.629 15.5045C117.515 16.2763 117.307 16.9597 117.002 17.5546C116.707 18.1568 116.285 18.641 115.737 19.007C115.189 19.3731 114.488 19.5911 113.635 19.6612ZM116.475 10.3978C116.097 10.6856 115.71 11.0064 115.314 11.36C114.917 11.7136 114.551 12.0849 114.213 12.4738C113.884 12.862 113.623 13.2567 113.431 13.6577C113.24 14.0587 113.159 14.4506 113.191 14.8333C113.201 14.9529 113.281 15.0065 113.433 14.9941C113.552 14.9843 113.708 14.8791 113.901 14.6787C114.1 14.4697 114.319 14.1989 114.556 13.8664C114.793 13.5258 115.032 13.1571 115.272 12.7601C115.52 12.3545 115.747 11.9465 115.954 11.5362C116.161 11.1258 116.335 10.7464 116.475 10.3978ZM120.833 15.6147C120.602 15.6337 120.383 15.5191 120.178 15.2711C119.973 15.023 119.854 14.6917 119.82 14.2771C119.783 13.8226 119.802 13.3313 119.88 12.8033C119.965 12.2745 120.077 11.7355 120.216 11.1863C120.355 10.629 120.492 10.0921 120.626 9.57537C120.657 9.46844 120.707 9.38812 120.775 9.33439C120.85 9.27203 120.967 9.2343 121.127 9.22121C121.414 9.19765 121.569 9.3254 121.592 9.60446C121.597 9.66824 121.577 9.81438 121.531 10.0429C121.486 10.2713 121.425 10.5533 121.348 10.8887C121.279 11.2235 121.208 11.5865 121.136 11.9777C121.063 12.3609 121.003 12.7472 120.954 13.1364C120.906 13.5257 120.879 13.8851 120.874 14.2146C120.991 14.0686 121.117 13.8495 121.254 13.5573C121.398 13.2645 121.552 12.9349 121.714 12.5683C121.876 12.1938 122.046 11.8187 122.224 11.4429C122.401 11.0591 122.581 10.7072 122.764 10.3872C122.953 10.0586 123.14 9.79438 123.325 9.59463C123.516 9.38626 123.7 9.27487 123.875 9.26047C124.13 9.23952 124.352 9.30158 124.541 9.44664C124.736 9.58308 124.898 9.84271 125.026 10.2255C125.161 10.5997 125.257 11.1377 125.315 11.8393C125.346 12.214 125.41 12.5619 125.509 12.8829C125.615 13.2033 125.761 13.4563 125.944 13.6418C126.136 13.8188 126.367 13.8961 126.638 13.8739C127.044 13.8405 127.401 13.739 127.708 13.5693C128.015 13.3916 128.276 13.2016 128.492 12.9992C128.716 12.7882 128.901 12.6044 129.049 12.4478C129.196 12.2832 129.314 12.1973 129.401 12.1901C129.585 12.1751 129.684 12.2632 129.7 12.4546C129.706 12.5343 129.657 12.6668 129.552 12.852C129.454 13.0286 129.31 13.2331 129.121 13.4654C128.938 13.689 128.724 13.9113 128.477 14.1323C128.238 14.3446 127.976 14.5266 127.691 14.6784C127.415 14.8295 127.129 14.9172 126.834 14.9414C126.284 14.9866 125.824 14.9159 125.456 14.7295C125.095 14.5423 124.811 14.2085 124.603 13.7279C124.403 13.2466 124.269 12.5914 124.201 11.7622C124.164 11.3077 124.108 10.9791 124.036 10.7764C123.97 10.5651 123.867 10.4291 123.725 10.3684C123.643 10.5437 123.539 10.7931 123.413 11.1165C123.287 11.4319 123.139 11.7851 122.971 12.1762C122.81 12.5667 122.638 12.9621 122.454 13.3625C122.277 13.7543 122.095 14.1184 121.905 14.455C121.716 14.7916 121.53 15.0678 121.347 15.2835C121.164 15.4912 120.992 15.6016 120.833 15.6147ZM132.722 9.53349C132.764 10.0438 132.562 10.5581 132.115 11.0764C131.668 11.5947 130.962 12.0941 129.998 12.5746C129.983 12.7765 129.98 12.9453 129.992 13.0808C130.018 13.3998 130.077 13.6277 130.168 13.7647C130.268 13.901 130.417 13.961 130.616 13.9446C130.911 13.9204 131.235 13.8015 131.586 13.588C131.937 13.3666 132.296 13.0923 132.663 12.7652C133.028 12.4302 133.385 12.0798 133.732 11.7142C134.087 11.3479 134.412 11.0042 134.707 10.683C135.001 10.3538 135.252 10.0884 135.461 9.88665C135.668 9.67697 135.812 9.56885 135.891 9.56231C136.003 9.55314 136.099 9.59744 136.179 9.6952C136.259 9.78499 136.306 9.9136 136.319 10.081C136.336 10.2883 136.344 10.5285 136.342 10.8016C136.34 11.0666 136.335 11.348 136.327 11.6456C136.487 11.0466 136.704 10.519 136.98 10.0629C137.263 9.59821 137.572 9.20761 137.907 8.89112C138.242 8.57463 138.576 8.33055 138.907 8.15889C139.238 7.98723 139.527 7.89125 139.774 7.87096C140.005 7.85198 140.18 7.88176 140.299 7.9603C140.418 8.03884 140.482 8.13791 140.492 8.25751C140.501 8.36913 140.458 8.47704 140.362 8.58122C140.274 8.67678 140.06 8.81072 139.721 8.98304C139.327 9.17589 138.96 9.39468 138.619 9.63941C138.286 9.88348 137.983 10.2053 137.711 10.6049C137.438 10.9966 137.207 11.5092 137.018 12.1428C136.83 12.7763 136.691 13.5824 136.603 14.5609C136.587 14.7548 136.542 14.895 136.469 14.9812C136.396 15.0755 136.304 15.1272 136.192 15.1364C136.113 15.1429 136.03 15.1136 135.944 15.0484C135.859 14.9911 135.783 14.8409 135.715 14.5976C135.646 14.3464 135.589 13.9497 135.545 13.4076C135.515 13.0408 135.498 12.6408 135.495 12.2076C135.499 11.7738 135.518 11.3188 135.551 10.8425C135.217 11.2712 134.845 11.7232 134.434 12.1984C134.023 12.6656 133.594 13.1062 133.146 13.5202C132.698 13.9262 132.252 14.2639 131.808 14.533C131.365 14.8022 130.944 14.9532 130.545 14.9859C130.123 15.0206 129.772 14.9009 129.492 14.6269C129.213 14.3528 129.049 13.9247 129.002 13.3427C128.947 12.673 128.984 12.0518 129.114 11.4793C129.243 10.9068 129.431 10.4057 129.676 9.9762C129.921 9.53869 130.194 9.19521 130.495 8.94578C130.795 8.69635 131.093 8.55953 131.388 8.53531C131.787 8.50258 132.102 8.58103 132.335 8.77066C132.566 8.95232 132.696 9.20659 132.722 9.53349ZM130.118 11.6858C130.343 11.4987 130.587 11.2901 130.849 11.0599C131.119 10.829 131.345 10.5978 131.527 10.3661C131.716 10.1259 131.802 9.91404 131.787 9.73066C131.778 9.61903 131.744 9.54159 131.684 9.49833C131.624 9.45508 131.527 9.43901 131.391 9.45014C131.176 9.46781 130.985 9.59182 130.82 9.82215C130.653 10.0445 130.512 10.325 130.395 10.6637C130.278 10.9944 130.185 11.3351 130.118 11.6858ZM147.15 14.0803C146.871 14.1032 146.63 13.9986 146.426 13.7664C146.23 13.5257 146.105 13.0824 146.052 12.4366C145.997 11.7589 145.955 11.1001 145.926 10.4603C145.897 9.81249 145.893 9.23084 145.915 8.71532C145.945 8.19914 146.007 7.78466 146.102 7.47186C146.197 7.15906 146.34 6.9948 146.531 6.97909C146.667 6.96797 146.793 7.03389 146.909 7.17688C147.024 7.31188 147.092 7.49898 147.111 7.73818C147.132 7.98535 147.135 8.3182 147.121 8.73673C147.107 9.15526 147.084 9.60667 147.052 10.091C147.026 10.5666 147.008 11.0296 146.997 11.4801C146.985 11.9225 146.992 12.2952 147.017 12.5982C147.027 12.7258 147.04 12.8291 147.054 12.9082C147.076 12.9786 147.103 13.0126 147.135 13.0099C147.254 13.0001 147.373 12.886 147.492 12.6676C147.618 12.4405 147.746 12.149 147.878 11.7931C148.008 11.4292 148.144 11.0327 148.286 10.6037C148.426 10.1667 148.572 9.7334 148.721 9.30374C148.87 8.87408 149.026 8.47997 149.19 8.12142C149.352 7.75489 149.521 7.46012 149.695 7.23711C149.869 7.00612 150.047 6.8831 150.231 6.86805C150.446 6.85037 150.654 6.93766 150.854 7.12991C151.062 7.31353 151.181 7.59271 151.212 7.96745C151.221 8.07907 151.221 8.27572 151.212 8.5574C151.203 8.83111 151.188 9.14534 151.169 9.50008C151.15 9.85483 151.131 10.2096 151.112 10.5643C151.092 10.9111 151.078 11.2213 151.068 11.495C151.058 11.7608 151.057 11.9495 151.066 12.0611C151.1 12.4757 151.157 12.6797 151.237 12.6732C151.46 12.6548 151.684 12.496 151.908 12.1967C152.14 11.8887 152.365 11.501 152.583 11.0335C152.809 10.5574 153.028 10.0458 153.24 9.49864C153.459 8.94284 153.668 8.41194 153.868 7.90594C153.958 7.64163 154.036 7.46268 154.101 7.36909C154.172 7.26686 154.248 7.21248 154.328 7.20593C154.44 7.19677 154.548 7.24806 154.654 7.3598C154.767 7.47089 154.832 7.63009 154.849 7.83739C154.855 7.90915 154.857 7.98123 154.855 8.05365C154.852 8.11809 154.838 8.19148 154.813 8.27383C154.601 9.01367 154.364 9.70332 154.104 10.3428C153.843 10.9743 153.567 11.5307 153.278 12.012C152.995 12.4847 152.709 12.8613 152.419 13.142C152.129 13.4147 151.852 13.5618 151.589 13.5835C151.134 13.6208 150.769 13.5223 150.493 13.2881C150.224 13.0453 150.072 12.7046 150.036 12.2661C150.021 12.0827 150.013 11.8425 150.013 11.5456C150.02 11.2479 150.03 10.9261 150.042 10.5799C150.061 10.2332 150.082 9.89836 150.104 9.57551C150.125 9.25265 150.142 8.97032 150.155 8.7285C150.175 8.48604 150.185 8.32062 150.186 8.23226C150.185 8.11998 150.168 8.06515 150.136 8.06777C150.105 8.07039 150.049 8.17928 149.971 8.39443C149.899 8.60096 149.813 8.86494 149.711 9.18637C149.616 9.49917 149.514 9.82458 149.405 10.1626C149.283 10.5338 149.14 10.9429 148.976 11.3898C148.82 11.8281 148.645 12.2478 148.454 12.6488C148.27 13.0492 148.068 13.3828 147.85 13.6496C147.631 13.9164 147.398 14.06 147.15 14.0803ZM158.284 13.1181C157.925 13.1475 157.598 13.0661 157.301 12.8737C157.012 12.6727 156.775 12.3871 156.592 12.0168C156.41 11.6465 156.297 11.2102 156.256 10.7079C156.213 10.1817 156.229 9.64655 156.305 9.10253C156.381 8.55851 156.492 8.05572 156.639 7.59417C156.785 7.13262 156.944 6.76243 157.113 6.4836C157.283 6.19681 157.443 6.04719 157.594 6.03475C157.706 6.02559 157.801 6.05394 157.878 6.11981C157.956 6.18568 158 6.28638 158.011 6.42193C158.014 6.45382 157.991 6.56806 157.943 6.76466C157.895 6.95327 157.834 7.19902 157.763 7.50188C157.691 7.79677 157.621 8.12355 157.554 8.48222C157.488 8.8409 157.437 9.20624 157.404 9.57824C157.37 9.95024 157.367 10.2997 157.393 10.6266C157.439 11.1847 157.523 11.5751 157.646 11.7978C157.776 12.0119 157.961 12.1092 158.2 12.0895C158.782 12.0417 159.312 11.8457 159.789 11.5015C160.274 11.1487 160.711 10.7034 161.1 10.1658C161.497 9.61948 161.853 9.02432 162.17 8.38027C161.894 8.44305 161.625 8.4972 161.364 8.54272C161.102 8.58026 160.852 8.61284 160.614 8.64045C160.383 8.66741 160.229 8.65194 160.152 8.59404C160.075 8.53615 160.031 8.43943 160.02 8.30388C160.002 8.18494 160.041 8.07338 160.137 7.96919C160.241 7.86435 160.352 7.80303 160.471 7.78524C160.827 7.72389 161.191 7.65392 161.562 7.57531C161.933 7.49671 162.299 7.41046 162.66 7.31656C162.821 6.93409 162.974 6.54828 163.119 6.15914C163.264 5.77 163.394 5.39812 163.509 5.04349C163.634 4.51149 163.77 4.01471 163.917 3.55316C164.063 3.08363 164.216 2.70181 164.376 2.40769C164.536 2.10561 164.696 1.94801 164.855 1.93492C165.126 1.91267 165.273 2.03709 165.295 2.30817C165.3 2.36399 165.277 2.52241 165.226 2.78344C165.175 3.04447 165.103 3.38354 165.008 3.80065C164.922 4.2171 164.821 4.691 164.704 5.22234C164.586 5.74572 164.467 6.29733 164.346 6.87717C165.052 6.67474 165.694 6.48154 166.273 6.29756C166.859 6.10495 167.34 5.94908 167.716 5.82996C168.09 5.70286 168.314 5.63637 168.385 5.63047C168.489 5.62197 168.577 5.66692 168.649 5.76533C168.721 5.85577 168.76 5.94485 168.768 6.03255C168.774 6.10431 168.65 6.21079 168.397 6.35199C168.151 6.49253 167.807 6.65322 167.365 6.83404C166.929 7.00624 166.43 7.18767 165.868 7.37831C165.313 7.56033 164.734 7.73634 164.129 7.90633C163.986 8.60042 163.849 9.28587 163.72 9.9627C163.591 10.6395 163.486 11.2583 163.403 11.8189C163.36 12.1756 163.199 12.3654 162.92 12.3883C162.777 12.4001 162.666 12.373 162.588 12.3072C162.519 12.2407 162.477 12.1197 162.462 11.9443C162.46 11.9204 162.47 11.7991 162.493 11.5806C162.522 11.3534 162.559 11.0734 162.604 10.7406C162.648 10.3999 162.696 10.0468 162.746 9.68148C162.796 9.30816 162.844 8.96308 162.89 8.64624C162.529 9.43041 162.118 10.1504 161.658 10.8062C161.199 11.4621 160.685 11.9979 160.117 12.4138C159.557 12.829 158.946 13.0637 158.284 13.1181ZM157.749 4.84208C157.558 4.85779 157.394 4.81108 157.256 4.70195C157.127 4.59218 157.055 4.44958 157.04 4.27417C157.023 4.05889 157.084 3.87328 157.224 3.71733C157.371 3.55274 157.548 3.46194 157.755 3.44493C157.986 3.42594 158.167 3.47932 158.298 3.60504C158.428 3.72279 158.502 3.88532 158.519 4.09262C158.532 4.26006 158.465 4.42208 158.318 4.57869C158.17 4.7353 157.981 4.8231 157.749 4.84208ZM167.532 12.5997C167.357 12.6141 167.217 12.5734 167.113 12.4776C167.009 12.3897 166.941 12.1505 166.909 11.7598C166.88 11.401 166.905 10.9293 166.986 10.3448C167.066 9.75228 167.184 9.09238 167.341 8.3651C167.498 7.63781 167.681 6.88431 167.89 6.10461C168.098 5.31693 168.32 4.54421 168.555 3.78646C168.797 3.02008 169.032 2.31847 169.261 1.68163C169.346 1.44987 169.441 1.28555 169.545 1.18869C169.65 1.09182 169.778 1.03716 169.929 1.02473C170.033 1.01622 170.123 1.04091 170.2 1.09881C170.284 1.14807 170.332 1.24048 170.343 1.37602C170.347 1.42386 170.308 1.58359 170.226 1.85522C170.152 2.12619 170.045 2.48415 169.905 2.9291C169.773 3.3734 169.625 3.87116 169.462 4.42238C169.298 4.9736 169.133 5.55305 168.966 6.16074C168.799 6.76843 168.645 7.37912 168.503 7.99282C168.36 8.59854 168.243 9.17806 168.152 9.73136C168.061 10.2847 168.009 10.7786 167.996 11.213C168.169 10.9661 168.364 10.6531 168.581 10.274C168.799 9.89493 169.031 9.48663 169.276 9.04911C169.521 8.6116 169.77 8.17774 170.024 7.74755C170.277 7.31735 170.53 6.92336 170.781 6.56558C171.033 6.2078 171.27 5.91942 171.493 5.70045C171.723 5.47286 171.93 5.35154 172.113 5.33648C172.416 5.31161 172.667 5.38732 172.866 5.56362C173.073 5.7313 173.193 6.02642 173.228 6.449C173.248 6.6882 173.223 6.97916 173.155 7.32189C173.095 7.66396 173.02 8.02329 172.931 8.39987C172.841 8.77646 172.762 9.13612 172.694 9.47884C172.634 9.82092 172.614 10.1116 172.633 10.3507C172.66 10.6776 172.797 10.831 173.044 10.8107C173.427 10.7792 173.803 10.6641 174.172 10.4652C174.549 10.2657 174.902 10.028 175.233 9.75203C175.563 9.46809 175.865 9.18644 176.139 8.90708C176.412 8.61974 176.645 8.37588 176.837 8.17548C177.044 7.95782 177.223 7.84277 177.375 7.83033C177.566 7.81463 177.67 7.90644 177.687 8.10576C177.691 8.16158 177.684 8.22634 177.666 8.30007C177.648 8.37379 177.592 8.47072 177.498 8.59085C177.382 8.74484 177.214 8.94727 176.994 9.19812C176.781 9.44833 176.531 9.71775 176.241 10.0064C175.96 10.2944 175.649 10.5687 175.309 10.8294C174.978 11.0894 174.631 11.3106 174.268 11.4928C173.913 11.6664 173.56 11.7676 173.21 11.7964C172.731 11.8357 172.349 11.7306 172.064 11.4811C171.786 11.223 171.627 10.8508 171.587 10.3644C171.562 10.0614 171.58 9.69073 171.64 9.25233C171.7 8.81392 171.783 8.34963 171.887 7.85946C171.999 7.36066 172.111 6.87382 172.225 6.39894C171.984 6.59529 171.726 6.88132 171.452 7.25701C171.185 7.62408 170.906 8.04029 170.616 8.50565C170.324 8.96304 170.033 9.4284 169.743 9.90174C169.461 10.3744 169.184 10.8145 168.912 11.2221C168.648 11.6211 168.398 11.9467 168.161 12.1988C167.925 12.451 167.716 12.5846 167.532 12.5997ZM20.5909 38.9266C20.1046 38.9665 19.6583 38.8105 19.2521 38.4586C18.8466 38.1146 18.5509 37.6412 18.365 37.0384C18.2599 37.1273 18.1794 37.174 18.1236 37.1786C18.0678 37.1832 18.0144 37.1675 17.9632 37.1316C17.9201 37.095 17.8917 36.993 17.8779 36.8255C17.8517 36.5066 17.9482 36.1656 18.1672 35.8024C18.162 35.1527 18.2824 34.5167 18.5283 33.8945C18.7815 33.2637 19.1178 32.6661 19.537 32.1019C19.9556 31.5298 20.414 31.0025 20.9122 30.5201C21.4104 30.0377 21.9055 29.6158 22.3976 29.2543C22.8897 28.8929 23.3318 28.6077 23.7241 28.3989C24.1243 28.1895 24.428 28.0763 24.6353 28.0592C24.8825 28.039 25.0156 28.1444 25.0346 28.3756C25.0411 28.4554 24.935 28.5805 24.7162 28.751C24.4968 28.9135 24.2048 29.122 23.8405 29.3767C23.4754 29.6234 23.0784 29.9209 22.6495 30.2691C22.2199 30.6094 21.7939 30.9936 21.3715 31.4216C20.9571 31.8489 20.5824 32.3211 20.2476 32.8383C19.9128 33.3554 19.662 33.9178 19.4952 34.5255C19.801 34.3398 20.1337 34.1881 20.4933 34.0703C20.8601 33.9439 21.2429 33.8643 21.6416 33.8315C22.112 33.7929 22.4866 33.9067 22.7653 34.1728C23.0519 34.4382 23.2172 34.838 23.2611 35.3722C23.2951 35.7868 23.2408 36.2006 23.0981 36.6137C22.9548 37.0188 22.7487 37.3929 22.4798 37.7361C22.2183 38.0706 21.9197 38.3439 21.5839 38.5561C21.2568 38.7756 20.9258 38.8991 20.5909 38.9266ZM19.305 36.0221C19.3068 36.1423 19.3123 36.2583 19.3215 36.3699C19.3575 36.8084 19.4942 37.1544 19.7318 37.4078C19.9766 37.6526 20.2466 37.7629 20.5416 37.7387C20.7967 37.7177 21.0386 37.6336 21.2674 37.4864C21.5034 37.3306 21.7083 37.1372 21.8819 36.9062C22.0629 36.6666 22.2021 36.4063 22.2995 36.1254C22.3968 35.8445 22.434 35.5645 22.4111 35.2855C22.3751 34.8469 22.1777 34.6424 21.8189 34.6719C21.2767 34.7164 20.7962 34.8762 20.3773 35.1514C19.9664 35.426 19.609 35.7162 19.305 36.0221ZM26.1775 37.89C26.002 37.9044 25.826 37.8627 25.6494 37.7648C25.4808 37.6663 25.386 37.4894 25.3651 37.2343C25.3481 37.027 25.3861 36.8553 25.4793 36.7192C25.5725 36.5831 25.6846 36.4816 25.8155 36.4147C25.9458 36.3398 26.0628 36.2981 26.1665 36.2896C26.2701 36.2811 26.3877 36.2955 26.5192 36.3329C26.6587 36.3696 26.7811 36.4438 26.8866 36.5555C26.9915 36.6593 27.0531 36.8228 27.0714 37.0461C27.0897 37.2693 27.0091 37.4605 26.8295 37.6198C26.65 37.779 26.4326 37.8691 26.1775 37.89ZM31.5184 37.7044C30.6972 37.7718 30.0944 37.6648 29.7101 37.3833C29.3331 37.0932 29.1223 36.677 29.0778 36.1348C29.0484 35.776 29.1339 35.3998 29.3343 35.0061C29.5341 34.6044 29.8097 34.1965 30.161 33.7823C30.5196 33.3596 30.9141 32.9339 31.3445 32.5052C30.8344 32.3544 30.4669 32.1799 30.2419 31.9817C30.017 31.7834 29.8924 31.5368 29.8681 31.2418C29.8518 31.0424 29.9318 30.7951 30.1082 30.4996C30.2846 30.2042 30.5202 29.8959 30.8149 29.5747C31.1096 29.2535 31.4339 28.95 31.7877 28.6641C32.1494 28.3775 32.5072 28.1394 32.8608 27.9499C33.2145 27.7603 33.5309 27.6541 33.8099 27.6312C34.0172 27.6141 34.1693 27.6578 34.2662 27.7623C34.371 27.866 34.4313 28.0136 34.447 28.2049C34.4575 28.3325 34.4185 28.4441 34.33 28.5396C34.2495 28.6345 34.0578 28.6944 33.7548 28.7193C33.699 28.7239 33.6392 28.7288 33.5754 28.734C33.5189 28.7306 33.4545 28.7279 33.3821 28.7258C32.9785 28.9917 32.6041 29.2713 32.2589 29.5645C31.9138 29.8578 31.6251 30.1544 31.3928 30.4544C31.1686 30.7537 31.0234 31.0386 30.9573 31.3089C31.1386 31.3662 31.3322 31.4266 31.538 31.49C31.7512 31.5447 31.9767 31.6025 32.2145 31.6632C32.3781 31.5053 32.5421 31.3514 32.7064 31.2014C32.87 31.0435 33.0296 30.8859 33.1853 30.7286C33.7354 30.1938 34.2409 29.7028 34.7018 29.2556C35.1708 28.8078 35.5585 28.4468 35.8651 28.1728C36.1797 27.8982 36.3729 27.7579 36.4447 27.752C36.5005 27.7474 36.5543 27.7671 36.606 27.811C36.6571 27.8469 36.6873 27.9207 36.6964 28.0323C36.701 28.0881 36.6235 28.2189 36.4638 28.4247C36.3034 28.6225 36.0835 28.8773 35.8041 29.1892C35.524 29.4931 35.2031 29.8366 34.8412 30.2195C34.4873 30.6017 34.1147 31.0015 33.7236 31.4189C33.6497 31.4972 33.5722 31.5798 33.4911 31.6668C33.4092 31.7457 33.3314 31.8244 33.2576 31.9027C33.9071 32.0902 34.4193 32.3652 34.7942 32.7277C35.1771 33.0896 35.3934 33.5735 35.4432 34.1795C35.489 34.7376 35.3684 35.2733 35.0815 35.7865C34.8025 36.299 34.3641 36.7283 33.7664 37.0744C33.1687 37.4204 32.4194 37.6304 31.5184 37.7044ZM32.4364 32.7527C32.0293 33.1714 31.6527 33.5716 31.3068 33.9532C30.9682 34.3261 30.6997 34.6732 30.5013 34.9945C30.3029 35.3159 30.2136 35.5961 30.2332 35.8353C30.2581 36.1383 30.3737 36.3736 30.5801 36.5413C30.7939 36.7003 31.1599 36.7586 31.6781 36.716C32.0449 36.6859 32.3948 36.597 32.7278 36.4493C33.0681 36.2929 33.369 36.0956 33.6304 35.8574C33.8911 35.6113 34.0901 35.3461 34.2273 35.0619C34.3718 34.7691 34.432 34.4752 34.4078 34.1802C34.377 33.8055 34.1837 33.5043 33.8279 33.2766C33.4714 33.041 33.0076 32.8664 32.4364 32.7527ZM40.8321 34.6281C40.7205 34.6372 40.5887 34.5959 40.4366 34.504C40.2926 34.4115 40.2088 34.2217 40.1852 33.9347C40.1662 33.7034 40.1609 33.443 40.1692 33.1534C40.1849 32.8551 40.2118 32.5478 40.2501 32.2316C39.7743 32.3028 39.3251 32.3557 38.9026 32.3904C38.5916 32.416 38.3767 32.3895 38.2579 32.3109C38.1384 32.2244 38.0744 32.1293 38.0659 32.0257C38.0581 31.93 38.1027 31.838 38.1998 31.7498C38.2962 31.6536 38.4558 31.5923 38.6784 31.566C38.9083 31.5311 39.1731 31.4812 39.4728 31.4165C39.7718 31.3438 40.0785 31.2664 40.3929 31.1845C40.4638 30.7773 40.5453 30.4014 40.6374 30.0567C40.7289 29.704 40.8219 29.4194 40.9165 29.203C41.0191 28.9858 41.1142 28.8737 41.2019 28.8665C41.3534 28.854 41.4643 28.8851 41.5347 28.9596C41.605 29.0341 41.6487 29.175 41.6657 29.3823C41.6749 29.4939 41.667 29.6912 41.642 29.9742C41.6244 30.2485 41.5981 30.5638 41.5632 30.9198C41.7133 30.8914 41.8559 30.8677 41.9908 30.8486C42.125 30.8215 42.2479 30.8034 42.3595 30.7942C42.7502 30.7622 43.0136 30.7927 43.1497 30.8859C43.2931 30.9704 43.3707 31.0845 43.3825 31.228C43.389 31.3077 43.3079 31.3947 43.139 31.4888C42.9695 31.5749 42.7358 31.6624 42.4381 31.751C42.1483 31.839 41.822 31.922 41.4592 31.9999C41.4135 32.4211 41.3668 32.8303 41.3191 33.2275C41.2788 33.6161 41.2449 33.936 41.2173 34.1871C41.1966 34.3252 41.1492 34.4335 41.0754 34.5118C41.0009 34.5821 40.9198 34.6209 40.8321 34.6281ZM52.332 38.6567C51.9333 38.6894 51.5643 38.6916 51.2248 38.6633C50.894 38.6423 50.5645 38.589 50.2364 38.5036C49.909 38.4261 49.551 38.3191 49.1625 38.1824C49.0463 38.1357 48.9411 38.0761 48.8469 38.0036C48.7533 37.9391 48.7025 37.8589 48.6947 37.7633C48.6849 37.6437 48.7501 37.5099 48.8905 37.3619C49.0235 37.2225 49.1539 37.1476 49.2814 37.1372C49.417 37.126 49.5883 37.1601 49.7955 37.2394C50.0107 37.3181 50.259 37.4101 50.5406 37.5154C50.8228 37.6287 51.1313 37.7198 51.466 37.7886C51.8088 37.8568 52.1715 37.8752 52.5542 37.8437C52.9688 37.8097 53.3454 37.6062 53.684 37.2333C54.0227 36.8603 54.2811 36.3414 54.4593 35.6766C54.6381 35.0198 54.6906 34.2409 54.6166 33.3399C54.5944 33.0688 54.5618 32.7705 54.5191 32.4449C54.4836 32.1107 54.4389 31.7611 54.3848 31.3963C54.2275 31.8267 54.0459 32.255 53.8401 32.6812C53.6423 33.1068 53.4292 33.4936 53.2009 33.8414C52.9806 34.1886 52.743 34.473 52.4883 34.6946C52.2409 34.9075 51.9817 35.0251 51.7106 35.0474C51.3677 35.0755 51.1134 35.0081 50.9475 34.8452C50.7816 34.6822 50.6836 34.4173 50.6535 34.0505C50.6221 33.6678 50.6159 33.2509 50.6351 32.7999C50.6542 32.3488 50.689 31.8924 50.7394 31.4307C50.7971 30.9604 50.8728 30.5127 50.9663 30.0877C51.0598 29.6626 51.1659 29.2927 51.2846 28.9779C51.3512 28.8119 51.4642 28.7223 51.6237 28.7093C51.7353 28.7001 51.8479 28.751 51.9613 28.8621C52.0821 28.9646 52.1501 29.1075 52.1651 29.2909C52.1769 29.4344 52.1617 29.6404 52.1195 29.9087C52.0773 30.1771 52.0221 30.4826 51.954 30.8253C51.8858 31.1681 51.8189 31.5267 51.7533 31.9013C51.6871 32.268 51.6365 32.6293 51.6015 32.9854C51.5659 33.3335 51.5598 33.651 51.5834 33.9381C51.5932 34.0577 51.6779 34.1109 51.8373 34.0978C51.925 34.0906 52.0421 34.0008 52.1884 33.8282C52.3421 33.647 52.5078 33.4167 52.6856 33.1372C52.8706 32.8491 53.0537 32.5371 53.2348 32.2011C53.4233 31.8566 53.604 31.5166 53.7772 31.1813C53.9497 30.8381 54.0966 30.525 54.2178 30.2421C54.2046 30.179 54.1957 30.1195 54.1911 30.0637C54.1866 30.0079 54.1823 29.9561 54.1784 29.9082C54.1463 29.5176 54.1662 29.2711 54.2381 29.1689C54.3173 29.058 54.4246 28.997 54.5602 28.9859C54.7914 28.9669 54.9591 29.0053 55.0633 29.1011C55.1675 29.1969 55.2301 29.3724 55.251 29.6275C55.2589 29.7232 55.2554 29.8279 55.2407 29.9414C55.2252 30.0471 55.1978 30.2018 55.1584 30.4057C55.2739 31.0304 55.3722 31.5922 55.4533 32.0913C55.5423 32.5896 55.6078 33.094 55.6497 33.6043C55.7289 34.569 55.6422 35.419 55.3895 36.1541C55.1447 36.8886 54.7594 37.4741 54.2333 37.9106C53.7152 38.3464 53.0815 38.5951 52.332 38.6567ZM61.7133 29.6027C61.7342 29.8579 61.6751 30.1156 61.5359 30.3758C61.3961 30.6281 61.2038 30.8767 60.959 31.1215C60.7136 31.3584 60.4393 31.5856 60.136 31.8031C59.8328 32.0207 59.5276 32.2143 59.2205 32.384C58.9133 32.5537 58.6318 32.6932 58.3759 32.8025C58.3376 33.1187 58.3283 33.3964 58.348 33.6356C58.3604 33.7871 58.4051 33.8918 58.4821 33.9497C58.5591 34.0076 58.6734 34.0303 58.8248 34.0179C59.1597 33.9904 59.5096 33.9014 59.8745 33.7511C60.2395 33.6007 60.6094 33.4138 60.9844 33.1904C61.3594 32.967 61.7174 32.7329 62.0585 32.4881C62.3996 32.2434 62.7099 32.0133 62.9892 31.7977C63.2764 31.5815 63.5148 31.4054 63.7043 31.2694C63.8938 31.1334 64.0205 31.0628 64.0843 31.0576C64.1799 31.0498 64.2543 31.0758 64.3074 31.1356C64.3678 31.1868 64.4013 31.2523 64.4078 31.3321C64.413 31.3958 64.3235 31.5276 64.1393 31.7274C63.963 31.9264 63.7215 32.163 63.4149 32.437C63.1076 32.703 62.7611 32.9803 62.3755 33.2688C61.9898 33.5574 61.5868 33.8312 61.1666 34.0905C60.7544 34.3491 60.3505 34.5629 59.955 34.7318C59.5675 34.9 59.2143 34.9973 58.8954 35.0235C58.4808 35.0575 58.1451 34.9285 57.8883 34.6366C57.6316 34.3446 57.4764 33.8717 57.4227 33.2179C57.3867 32.7794 57.4062 32.3323 57.4811 31.8766C57.5641 31.4203 57.6885 30.9806 57.8545 30.5576C58.0277 30.126 58.2249 29.7406 58.4459 29.4014C58.6742 29.0535 58.9203 28.7765 59.1843 28.5702C59.4477 28.3559 59.7109 28.238 59.974 28.2164C60.4763 28.1751 60.8825 28.2823 61.1924 28.5378C61.5023 28.7933 61.676 29.1483 61.7133 29.6027ZM58.5515 31.861C58.7862 31.6892 59.0282 31.5088 59.2776 31.3198C59.527 31.1307 59.7561 30.9393 59.9649 30.7456C60.1738 30.5519 60.3381 30.3538 60.458 30.1513C60.5851 29.9402 60.6402 29.731 60.6232 29.5236C60.5989 29.2286 60.4274 29.0942 60.1084 29.1204C59.9091 29.1368 59.7083 29.2817 59.506 29.5552C59.311 29.82 59.1302 30.1599 58.9636 30.575C58.797 30.99 58.6596 31.4187 58.5515 31.861ZM64.2973 34.893C63.9943 34.9179 63.7317 34.799 63.5095 34.5363C63.2946 34.265 63.1684 33.9021 63.1311 33.4476C63.0964 33.025 63.1657 32.5979 63.339 32.1663C63.5202 31.734 63.7706 31.3121 64.09 30.9006C64.4094 30.4891 64.7633 30.1069 65.1517 29.7539C65.5395 29.393 65.9308 29.0759 66.3258 28.8026C66.7287 28.5288 67.1001 28.3096 67.4398 28.1453C67.7794 27.981 68.0529 27.8903 68.2602 27.8733C68.3719 27.8641 68.4655 27.8805 68.5412 27.9224C68.6162 27.9564 68.6583 28.0292 68.6675 28.1408C68.6734 28.2126 68.6511 28.2827 68.6005 28.351C68.6084 28.3504 68.6164 28.3497 68.6244 28.3491C68.7998 28.3347 68.896 28.4311 68.913 28.6384C68.9189 28.7102 68.9031 28.86 68.8656 29.0878C68.8275 29.3076 68.786 29.584 68.7411 29.9168C68.6961 30.2496 68.6621 30.6176 68.639 31.0208C68.6153 31.4161 68.6201 31.817 68.6535 32.2237C68.6817 32.5665 68.8273 32.7271 69.0904 32.7055C69.3854 32.6813 69.6788 32.589 69.9707 32.4286C70.2625 32.2682 70.5441 32.0805 70.8155 31.8656C71.0861 31.6427 71.3332 31.4257 71.5567 31.2147C71.7795 30.9958 71.9691 30.8116 72.1254 30.6624C72.2817 30.5131 72.3957 30.4355 72.4675 30.4296C72.5313 30.4244 72.5887 30.4397 72.6399 30.4756C72.691 30.5116 72.7201 30.5734 72.7273 30.6611C72.7339 30.7408 72.6659 30.8909 72.5235 31.1113C72.381 31.3317 72.189 31.5842 71.9475 31.869C71.706 32.1537 71.432 32.433 71.1253 32.707C70.8187 32.981 70.5006 33.2119 70.1708 33.3995C69.841 33.5871 69.5207 33.6936 69.2097 33.7192C68.9705 33.7388 68.7454 33.685 68.5343 33.5579C68.3305 33.4221 68.1541 33.1797 68.005 32.8308C67.8639 32.4811 67.7675 31.9914 67.7158 31.3615L67.6913 31.0625C67.3536 31.7404 66.9914 32.3641 66.6047 32.9337C66.226 33.5026 65.8385 33.9638 65.4421 34.3174C65.0536 34.6704 64.6721 34.8623 64.2973 34.893ZM68.1037 28.753C68.0651 28.7722 68.0113 28.8007 67.9422 28.8385C67.5891 29.0361 67.2234 29.2748 66.8451 29.5547C66.4747 29.8339 66.1145 30.1404 65.7647 30.4742C65.4228 30.8072 65.1178 31.1494 64.8496 31.5005C64.5814 31.8516 64.3734 32.2018 64.2255 32.5511C64.0775 32.9003 64.0167 33.2344 64.0428 33.5534C64.0514 33.657 64.0778 33.7351 64.1223 33.7876C64.1747 33.8395 64.2567 33.8609 64.3684 33.8517C64.5278 33.8386 64.7269 33.722 64.9657 33.5017C65.2038 33.2734 65.4606 32.9794 65.7361 32.6197C66.0196 32.2593 66.3001 31.863 66.5777 31.4308C66.8553 30.9987 67.1166 30.5639 67.3616 30.1263C67.6146 29.6882 67.8303 29.2852 68.0088 28.9173C68.0361 28.8589 68.0678 28.8041 68.1037 28.753ZM72.4172 34.1421C72.2897 34.1526 72.1778 34.1096 72.0816 34.0132C71.9854 33.9167 71.9297 33.7768 71.9147 33.5934C71.9035 33.4579 71.9131 33.2323 71.9434 32.9168C71.981 32.5926 72.0183 32.2163 72.0554 31.7879C72.1004 31.3587 72.1322 30.9146 72.1507 30.4556C72.1686 29.9886 72.1601 29.5438 72.1255 29.1212C72.1084 28.9139 72.1478 28.7581 72.2436 28.654C72.3467 28.5411 72.4661 28.4792 72.6016 28.468C72.7292 28.4576 72.8314 28.5294 72.9083 28.6837C72.9852 28.8379 73.0233 29.1558 73.0227 29.6375C73.3227 28.7941 73.6717 28.1073 74.0696 27.5769C74.4749 27.038 74.8879 26.6429 75.3088 26.3916C75.729 26.1323 76.1145 25.9883 76.4653 25.9595C76.6965 25.9405 76.8679 25.9746 76.9794 26.0618C77.0982 26.1403 77.1622 26.2354 77.1714 26.347C77.1838 26.4985 77.1299 26.6234 77.0095 26.7215C76.8964 26.8111 76.693 26.9241 76.3992 27.0606C76.0595 27.2249 75.7497 27.4109 75.4697 27.6185C75.1971 27.8175 74.941 28.0713 74.7014 28.3799C74.4699 28.6879 74.2488 29.0753 74.0383 29.5421C73.8271 30.0009 73.6245 30.5634 73.4303 31.2295C73.2362 31.8956 73.0369 32.6946 72.8324 33.6264C72.799 33.8058 72.7454 33.9346 72.6715 34.0129C72.6057 34.0906 72.5209 34.1336 72.4172 34.1421ZM93.4635 22.9506C92.8028 23.2136 92.2273 23.6341 91.7369 24.2121C91.2539 24.7816 90.9048 25.5647 90.6897 26.5617C91.4857 26.4803 92.1744 26.3635 92.7559 26.2115C93.3374 26.0594 93.8113 25.9161 94.1775 25.7817C94.5438 25.6473 94.7907 25.5748 94.9182 25.5644C94.998 25.5578 95.0644 25.5845 95.1174 25.6443C95.1785 25.7035 95.2126 25.777 95.2198 25.8647C95.2342 26.0401 95.0569 26.2272 94.688 26.4261C94.319 26.625 93.8162 26.8067 93.1795 26.9713C92.5429 27.136 91.8219 27.2514 91.0166 27.3175C90.8731 27.3293 90.7213 27.3377 90.5611 27.3428C90.5498 27.3999 90.5427 27.4607 90.54 27.5252C90.5063 27.8972 90.4629 28.3462 90.4098 28.8723C90.356 29.3905 90.3005 29.9368 90.2433 30.5115C90.1862 31.0861 90.1317 31.6444 90.0798 32.1864C90.0274 32.7205 89.9819 33.1938 89.9435 33.6064C89.9058 34.0269 89.8825 34.3298 89.8737 34.5151C89.8555 34.6852 89.7979 34.8143 89.7008 34.9026C89.6117 34.9902 89.5113 35.0385 89.3997 35.0477C89.288 35.0569 89.1808 35.0215 89.0779 34.9417C88.9757 34.8698 88.917 34.7422 88.902 34.5588C88.8954 34.479 88.902 34.314 88.9215 34.0635C88.9491 33.8124 88.9803 33.5088 89.0153 33.1528C89.0503 32.7967 89.079 32.4131 89.1014 32.0019C89.1319 31.59 89.15 31.1751 89.1558 30.7573C89.1696 30.3387 89.1614 29.9461 89.1313 29.5793C89.1143 29.372 89.091 29.1853 89.0613 29.0192C88.6642 29.3648 88.1985 29.6559 87.664 29.8924C87.1296 30.1289 86.554 30.3046 85.9374 30.4195C85.7947 30.8325 85.6248 31.2077 85.4277 31.5449C85.23 31.8742 85.0111 32.141 84.771 32.3453C84.5389 32.549 84.2913 32.6617 84.0282 32.6833C83.773 32.7042 83.544 32.5544 83.3411 32.234C83.1462 31.9128 83.0209 31.4134 82.9653 30.7357C82.9253 30.2493 82.9206 29.8002 82.951 29.3883C82.8497 29.1318 82.7849 28.8321 82.7568 28.4892C82.7208 28.0507 82.7831 27.6362 82.9437 27.2458C83.1122 26.8547 83.3505 26.5301 83.6584 26.272C83.9743 26.0133 84.3355 25.8673 84.7422 25.8339C85.1568 25.7998 85.5124 25.9272 85.809 26.2159C86.1129 26.4959 86.2891 26.931 86.3376 27.521C86.3644 27.8479 86.364 28.1851 86.3363 28.5325C86.308 28.8719 86.2558 29.2134 86.1796 29.5567C86.7072 29.4332 87.2024 29.256 87.6651 29.0254C88.1278 28.7948 88.5277 28.5332 88.8649 28.2406C88.7722 27.9914 88.6436 27.7932 88.479 27.6462C88.3224 27.4985 88.1232 27.4186 87.8813 27.4063C87.6801 27.3987 87.5702 27.2833 87.5519 27.0601C87.5454 26.9804 87.579 26.9013 87.6529 26.823C87.7347 26.7441 87.8314 26.7 87.943 26.6909C88.1583 26.6732 88.4064 26.6648 88.6875 26.6659C88.9765 26.6662 89.3366 26.6527 89.7678 26.6253C89.9273 26.0263 90.1413 25.4549 90.4097 24.9111C90.686 24.3666 90.9916 23.884 91.3263 23.4632C91.661 23.0424 92.0025 22.7053 92.351 22.452C92.6994 22.1986 93.0291 22.0592 93.3401 22.0337C93.5713 22.0147 93.7214 22.0345 93.7904 22.093C93.8674 22.1509 93.9115 22.2476 93.9226 22.3832C93.9351 22.5347 93.8967 22.6542 93.8076 22.7418C93.7258 22.8207 93.6111 22.8904 93.4635 22.9506ZM83.8154 29.0645C83.9626 29.2933 84.161 29.4616 84.4107 29.5695C84.6597 29.6695 84.9085 29.7173 85.1569 29.7129C85.2331 29.3696 85.284 29.0122 85.3097 28.6408C85.3434 28.2688 85.3465 27.9154 85.319 27.5805C85.3026 27.3812 85.2414 27.2217 85.1352 27.102C85.0284 26.9743 84.8913 26.9173 84.7239 26.931C84.4687 26.952 84.2377 27.0713 84.0308 27.289C83.8319 27.506 83.7054 27.7732 83.6512 28.0907C83.7016 28.1187 83.7454 28.1632 83.7825 28.2244C83.8276 28.2849 83.8554 28.379 83.8659 28.5065C83.8685 28.5384 83.8661 28.6068 83.8587 28.7118C83.8506 28.8088 83.8362 28.9264 83.8154 29.0645ZM84.9128 30.5517C84.7048 30.5608 84.4989 30.5456 84.295 30.5061C84.099 30.466 83.9127 30.397 83.7361 30.2992C83.7346 30.4759 83.7397 30.636 83.7515 30.7795C83.7921 31.2738 83.912 31.5128 84.1114 31.4965C84.2708 31.4834 84.4158 31.3912 84.5462 31.22C84.6846 31.0481 84.8068 30.8253 84.9128 30.5517ZM89.3858 27.6922C89.473 27.5807 89.5518 27.4658 89.6224 27.3476C89.6217 27.3397 89.6211 27.3317 89.6204 27.3237C89.5321 27.323 89.4394 27.3185 89.3424 27.3104C89.2534 27.3017 89.1647 27.2969 89.0763 27.2962C89.1898 27.4072 89.293 27.5392 89.3858 27.6922ZM103.273 26.1909C103.294 26.446 103.235 26.7037 103.096 26.964C102.956 27.2163 102.764 27.4648 102.519 27.7097C102.273 27.9465 101.999 28.1738 101.696 28.3913C101.393 28.6088 101.088 28.8025 100.78 28.9722C100.473 29.1419 100.192 29.2814 99.9358 29.3907C99.8976 29.7069 99.8882 29.9845 99.9079 30.2237C99.9203 30.3752 99.965 30.4799 100.042 30.5378C100.119 30.5957 100.233 30.6184 100.385 30.606C100.72 30.5785 101.07 30.4896 101.434 30.3392C101.799 30.1889 102.169 30.002 102.544 29.7785C102.919 29.5551 103.277 29.321 103.618 29.0763C103.96 28.8316 104.27 28.6014 104.549 28.3858C104.836 28.1696 105.075 27.9935 105.264 27.8575C105.454 27.7216 105.58 27.651 105.644 27.6458C105.74 27.6379 105.814 27.6639 105.867 27.7238C105.928 27.775 105.961 27.8405 105.968 27.9202C105.973 27.984 105.883 28.1158 105.699 28.3155C105.523 28.5146 105.281 28.7511 104.975 29.0251C104.668 29.2912 104.321 29.5685 103.935 29.857C103.55 30.1455 103.147 30.4194 102.727 30.6786C102.314 30.9372 101.91 31.151 101.515 31.3199C101.127 31.4882 100.774 31.5854 100.455 31.6116C100.041 31.6456 99.705 31.5167 99.4482 31.2247C99.1915 30.9327 99.0363 30.4598 98.9826 29.806C98.9466 29.3675 98.9661 28.9204 99.0411 28.4648C99.124 28.0084 99.2484 27.5688 99.4144 27.1458C99.5877 26.7142 99.7848 26.3288 100.006 25.9895C100.234 25.6417 100.48 25.3646 100.744 25.1583C101.008 24.9441 101.271 24.8261 101.534 24.8045C102.036 24.7633 102.442 24.8704 102.752 25.1259C103.062 25.3814 103.236 25.7364 103.273 26.1909ZM100.111 28.4491C100.346 28.2774 100.588 28.0969 100.838 27.9079C101.087 27.7189 101.316 27.5275 101.525 27.3337C101.734 27.14 101.898 26.9419 102.018 26.7394C102.145 26.5283 102.2 26.3191 102.183 26.1118C102.159 25.8168 101.987 25.6824 101.668 25.7086C101.469 25.7249 101.268 25.8698 101.066 26.1433C100.871 26.4081 100.69 26.7481 100.524 27.1631C100.357 27.5781 100.22 28.0068 100.111 28.4491ZM105.6 30.7558C105.481 30.7656 105.389 30.7289 105.326 30.6458C105.263 30.5627 105.226 30.4534 105.215 30.3178C105.206 30.2062 105.265 30.0408 105.391 29.8217C105.525 29.594 105.7 29.3268 105.915 29.0202C106.138 28.7049 106.384 28.3677 106.651 28.0086C106.919 27.6495 107.19 27.2861 107.465 26.9184C107.047 26.3266 106.727 25.8591 106.507 25.516C106.285 25.165 106.166 24.8858 106.149 24.6785C106.137 24.535 106.174 24.3995 106.26 24.2721C106.345 24.1366 106.436 24.065 106.531 24.0571C106.643 24.048 106.756 24.1069 106.871 24.2339C106.993 24.3523 107.147 24.5605 107.332 24.8583C107.516 25.1482 107.766 25.5492 108.081 26.0611C108.476 25.4989 108.803 25.0385 109.063 24.6801C109.33 24.321 109.544 24.0426 109.705 23.8448C109.873 23.6463 110.006 23.507 110.104 23.4267C110.209 23.3378 110.301 23.2901 110.381 23.2836C110.477 23.2757 110.56 23.309 110.63 23.3835C110.7 23.45 110.741 23.567 110.755 23.7345C110.768 23.8939 110.709 24.0955 110.576 24.3391C110.451 24.5822 110.281 24.849 110.064 25.1397C109.847 25.4305 109.611 25.7308 109.355 26.0407C109.107 26.3421 108.87 26.6344 108.645 26.9178C109.099 27.5708 109.531 28.1374 109.94 28.6175C110.348 29.0897 110.677 29.4801 110.927 29.7887C111.185 30.0966 111.32 30.3263 111.333 30.4778C111.341 30.5815 111.324 30.6632 111.281 30.7229C111.237 30.7747 111.147 30.8061 111.012 30.8172C110.916 30.8251 110.801 30.7944 110.667 30.7251C110.533 30.6559 110.356 30.5138 110.138 30.299C109.928 30.0834 109.649 29.7692 109.302 29.3562C108.963 28.9346 108.54 28.3833 108.035 27.7024C107.781 28.0362 107.529 28.382 107.277 28.7398C107.033 29.089 106.799 29.4172 106.575 29.7245C106.359 30.0232 106.166 30.2678 105.997 30.4583C105.828 30.6488 105.696 30.7479 105.6 30.7558ZM112.863 34.169C112.727 34.1801 112.616 34.1411 112.528 34.052C112.449 33.9622 112.398 33.7818 112.375 33.5107C112.343 33.12 112.334 32.6632 112.347 32.1404C112.361 31.6175 112.391 31.0612 112.439 30.4713C112.495 29.8807 112.559 29.2895 112.631 28.6977C112.71 28.1051 112.796 27.5402 112.889 27.0029C112.989 26.4648 113.09 25.987 113.192 25.5692C113.294 25.1435 113.391 24.8064 113.483 24.5581C113.583 24.309 113.676 24.1809 113.764 24.1737C113.916 24.1613 114.039 24.1953 114.134 24.2758C114.237 24.3557 114.295 24.4833 114.31 24.6587C114.328 24.882 114.29 25.2503 114.196 25.7638C114.101 26.2692 113.978 26.9295 113.829 27.7444C113.998 27.3613 114.182 26.9609 114.38 26.5433C114.579 26.1256 114.79 25.719 115.014 25.3233C115.238 24.9196 115.465 24.5558 115.695 24.2319C115.934 23.9073 116.169 23.6432 116.401 23.4395C116.633 23.2359 116.865 23.1245 117.096 23.1056C117.343 23.0853 117.569 23.147 117.773 23.2907C117.977 23.4265 118.142 23.6217 118.267 23.8763C118.4 24.1223 118.479 24.4048 118.505 24.7237C118.559 25.3855 118.5 26.0365 118.328 26.6767C118.155 27.309 117.89 27.8886 117.532 28.4157C117.181 28.9341 116.75 29.3588 116.24 29.6897C115.737 30.0199 115.179 30.2102 114.565 30.2606C114.334 30.2796 114.125 30.2847 113.94 30.2758C113.755 30.2669 113.593 30.2521 113.455 30.2314C113.402 30.7654 113.355 31.3152 113.313 31.8805C113.271 32.4458 113.232 33.047 113.196 33.6841C113.186 33.8535 113.156 33.9724 113.105 34.0407C113.055 34.1171 112.975 34.1598 112.863 34.169ZM117.386 23.9968C117.218 24.0106 117.027 24.1226 116.811 24.3329C116.604 24.5426 116.382 24.8177 116.145 25.1583C115.915 25.4902 115.684 25.8583 115.453 26.2626C115.22 26.6589 114.997 27.0626 114.782 27.4736C114.566 27.8845 114.369 28.266 114.189 28.6179C114.017 28.9691 113.877 29.2616 113.768 29.4953C114.388 29.4283 114.924 29.2599 115.376 28.99C115.826 28.7122 116.204 28.3762 116.509 27.9819C116.813 27.5797 117.051 27.1548 117.223 26.7072C117.402 26.251 117.523 25.8157 117.585 25.4012C117.647 24.9787 117.665 24.616 117.641 24.313C117.622 24.0898 117.537 23.9844 117.386 23.9968ZM124.258 24.2755C124.3 24.7858 124.097 25.3001 123.65 25.8184C123.203 26.3367 122.498 26.8361 121.534 27.3166C121.518 27.5185 121.516 27.6873 121.527 27.8228C121.553 28.1417 121.612 28.3697 121.704 28.5067C121.803 28.643 121.953 28.7029 122.152 28.6866C122.447 28.6624 122.77 28.5435 123.122 28.33C123.473 28.1085 123.832 27.8343 124.198 27.5072C124.564 27.1721 124.921 26.8218 125.268 26.4562C125.623 26.0899 125.948 25.7461 126.243 25.4249C126.537 25.0958 126.788 24.8303 126.996 24.6286C127.204 24.4189 127.347 24.3108 127.427 24.3043C127.539 24.2951 127.635 24.3394 127.715 24.4372C127.795 24.527 127.841 24.6556 127.855 24.823C127.872 25.0303 127.88 25.2705 127.878 25.5435C127.876 25.8086 127.871 26.09 127.863 26.3876C128.023 25.7885 128.24 25.261 128.516 24.8049C128.799 24.3402 129.108 23.9496 129.443 23.6331C129.778 23.3166 130.111 23.0725 130.442 22.9009C130.773 22.7292 131.063 22.6332 131.31 22.6129C131.541 22.594 131.716 22.6237 131.835 22.7023C131.954 22.7808 132.018 22.8799 132.028 22.9995C132.037 23.1111 131.994 23.219 131.898 23.3232C131.809 23.4188 131.596 23.5527 131.257 23.725C130.863 23.9179 130.496 24.1366 130.155 24.3814C129.821 24.6255 129.519 24.9473 129.247 25.3469C128.974 25.7386 128.743 26.2512 128.554 26.8847C128.365 27.5183 128.227 28.3243 128.138 29.3028C128.122 29.4968 128.078 29.6369 128.004 29.7232C127.932 29.8175 127.84 29.8692 127.728 29.8783C127.648 29.8849 127.566 29.8555 127.48 29.7903C127.395 29.7331 127.319 29.5829 127.251 29.3396C127.182 29.0884 127.125 28.6917 127.081 28.1495C127.05 27.7828 127.034 27.3828 127.03 26.9496C127.035 26.5158 127.054 26.0607 127.087 25.5844C126.753 26.0132 126.38 26.4652 125.97 26.9403C125.559 27.4076 125.129 27.8482 124.682 28.2622C124.233 28.6682 123.788 29.0058 123.344 29.275C122.901 29.5442 122.48 29.6952 122.081 29.7279C121.658 29.7626 121.307 29.6429 121.028 29.3688C120.749 29.0948 120.585 28.6667 120.537 28.0847C120.482 27.4149 120.52 26.7938 120.649 26.2213C120.779 25.6487 120.966 25.1477 121.212 24.7182C121.457 24.2807 121.73 23.9372 122.031 23.6878C122.331 23.4383 122.629 23.3015 122.924 23.2773C123.323 23.2446 123.638 23.323 123.87 23.5126C124.102 23.6943 124.231 23.9486 124.258 24.2755ZM121.654 26.4278C121.879 26.2407 122.123 26.0321 122.385 25.8019C122.655 25.571 122.881 25.3397 123.062 25.1081C123.251 24.8678 123.338 24.656 123.323 24.4726C123.314 24.361 123.28 24.2836 123.22 24.2403C123.16 24.1971 123.062 24.181 122.927 24.1921C122.712 24.2098 122.521 24.3338 122.355 24.5641C122.189 24.7865 122.047 25.067 121.931 25.4057C121.813 25.7364 121.721 26.0771 121.654 26.4278ZM132.281 29.0591C132.13 29.0715 131.99 29.0268 131.861 28.925C131.732 28.8152 131.657 28.6367 131.636 28.3896C131.622 28.2142 131.626 27.969 131.648 27.6541C131.67 27.3313 131.705 26.9792 131.754 26.5979C131.803 26.2166 131.856 25.839 131.914 25.4651C131.979 25.0825 132.047 24.7397 132.119 24.4369C132.19 24.134 132.256 23.9079 132.316 23.7585C132.37 23.6416 132.424 23.5649 132.477 23.5285C132.539 23.4913 132.597 23.4705 132.653 23.4659C132.765 23.4567 132.863 23.4848 132.949 23.55C133.042 23.6145 133.098 23.7505 133.115 23.9578C133.125 24.0774 133.117 24.2787 133.092 24.5616C133.074 24.836 133.045 25.1595 133.003 25.5322C132.969 25.8962 132.927 26.2728 132.879 26.6621C132.838 27.0427 132.796 27.4074 132.752 27.7562C132.709 28.1049 132.676 28.3965 132.656 28.631C132.634 28.7612 132.586 28.8654 132.513 28.9437C132.446 29.0134 132.369 29.0519 132.281 29.0591ZM132.91 22.3491C132.727 22.3641 132.547 22.3227 132.37 22.2248C132.202 22.1263 132.107 21.9535 132.087 21.7063C132.07 21.499 132.104 21.3276 132.189 21.1922C132.283 21.0561 132.395 20.9546 132.526 20.8877C132.664 20.8121 132.785 20.7701 132.888 20.7616C132.992 20.753 133.11 20.7675 133.241 20.8048C133.38 20.8336 133.502 20.9038 133.608 21.0156C133.712 21.1193 133.774 21.2828 133.792 21.5061C133.805 21.6576 133.764 21.7974 133.67 21.9255C133.576 22.0456 133.455 22.1438 133.309 22.22C133.171 22.2956 133.038 22.3386 132.91 22.3491ZM139.117 23.2483C139.138 23.5034 139.079 23.7611 138.94 24.0214C138.8 24.2736 138.608 24.5222 138.363 24.7671C138.118 25.0039 137.843 25.2311 137.54 25.4487C137.237 25.6662 136.932 25.8598 136.624 26.0295C136.317 26.1992 136.036 26.3387 135.78 26.4481C135.742 26.7642 135.732 27.0419 135.752 27.2811C135.764 27.4326 135.809 27.5373 135.886 27.5952C135.963 27.6531 136.077 27.6758 136.229 27.6634C136.564 27.6359 136.914 27.547 137.278 27.3966C137.643 27.2463 138.013 27.0594 138.388 26.8359C138.763 26.6125 139.121 26.3784 139.462 26.1337C139.804 25.889 140.114 25.6588 140.393 25.4432C140.68 25.227 140.919 25.0509 141.108 24.9149C141.298 24.779 141.424 24.7084 141.488 24.7031C141.584 24.6953 141.658 24.7213 141.711 24.7811C141.772 24.8324 141.805 24.8979 141.812 24.9776C141.817 25.0414 141.727 25.1731 141.543 25.3729C141.367 25.572 141.125 25.8085 140.819 26.0825C140.512 26.3486 140.165 26.6258 139.779 26.9144C139.394 27.2029 138.991 27.4768 138.571 27.736C138.158 27.9946 137.754 28.2084 137.359 28.3773C136.971 28.5456 136.618 28.6428 136.299 28.669C135.885 28.703 135.549 28.5741 135.292 28.2821C135.036 27.9901 134.88 27.5172 134.827 26.8634C134.791 26.4249 134.81 25.9778 134.885 25.5222C134.968 25.0658 135.092 24.6262 135.258 24.2032C135.432 23.7716 135.629 23.3861 135.85 23.0469C136.078 22.6991 136.324 22.422 136.588 22.2157C136.852 22.0014 137.115 21.8835 137.378 21.8619C137.88 21.8207 138.286 21.9278 138.596 22.1833C138.906 22.4388 139.08 22.7938 139.117 23.2483ZM135.955 25.5065C136.19 25.3347 136.432 25.1543 136.682 24.9653C136.931 24.7763 137.16 24.5849 137.369 24.3911C137.578 24.1974 137.742 23.9993 137.862 23.7968C137.989 23.5857 138.044 23.3765 138.027 23.1692C138.003 22.8742 137.831 22.7398 137.512 22.7659C137.313 22.7823 137.112 22.9272 136.91 23.2007C136.715 23.4655 136.534 23.8055 136.368 24.2205C136.201 24.6355 136.064 25.0642 135.955 25.5065ZM141.878 27.9341C141.646 27.9531 141.428 27.8386 141.223 27.5905C141.018 27.3424 140.899 27.0111 140.865 26.5965C140.827 26.142 140.847 25.6508 140.924 25.1227C141.009 24.594 141.122 24.055 141.261 23.5057C141.4 22.9485 141.537 22.4115 141.671 21.8948C141.702 21.7879 141.752 21.7075 141.82 21.6538C141.895 21.5915 142.012 21.5537 142.171 21.5406C142.458 21.5171 142.613 21.6448 142.636 21.9239C142.642 21.9877 142.621 22.1338 142.576 22.3623C142.531 22.5908 142.469 22.8727 142.393 23.2081C142.324 23.5429 142.253 23.9059 142.181 24.2971C142.108 24.6803 142.048 25.0666 141.999 25.4559C141.951 25.8451 141.924 26.2045 141.919 26.534C142.036 26.388 142.162 26.1689 142.299 25.8768C142.443 25.584 142.597 25.2543 142.759 24.8878C142.921 24.5133 143.091 24.1381 143.269 23.7623C143.446 23.3785 143.626 23.0266 143.808 22.7066C143.998 22.378 144.185 22.1138 144.369 21.9141C144.561 21.7057 144.744 21.5943 144.92 21.5799C145.175 21.5589 145.397 21.621 145.585 21.7661C145.781 21.9025 145.943 22.1621 146.071 22.545C146.206 22.9192 146.302 23.4571 146.36 24.1587C146.39 24.5335 146.455 24.8813 146.554 25.2024C146.66 25.5227 146.806 25.7757 146.989 25.9613C147.18 26.1382 147.412 26.2156 147.683 26.1933C148.089 26.1599 148.446 26.0584 148.753 25.8887C149.06 25.711 149.321 25.521 149.537 25.3186C149.761 25.1076 149.946 24.9238 150.094 24.7672C150.241 24.6027 150.358 24.5168 150.446 24.5096C150.63 24.4945 150.729 24.5827 150.745 24.774C150.751 24.8537 150.702 24.9862 150.597 25.1715C150.499 25.3481 150.355 25.5525 150.166 25.7848C149.983 26.0085 149.769 26.2308 149.522 26.4517C149.282 26.664 149.021 26.846 148.736 26.9978C148.459 27.149 148.174 27.2366 147.879 27.2609C147.328 27.306 146.869 27.2354 146.501 27.0489C146.14 26.8618 145.856 26.5279 145.648 26.0473C145.448 25.5661 145.314 24.9108 145.246 24.0816C145.208 23.6272 145.153 23.2986 145.08 23.0958C145.015 22.8845 144.911 22.7485 144.77 22.6879C144.688 22.8632 144.584 23.1125 144.458 23.4359C144.332 23.7513 144.184 24.1046 144.015 24.4957C143.855 24.8861 143.683 25.2815 143.499 25.6819C143.322 26.0737 143.139 26.4379 142.95 26.7745C142.761 27.1111 142.575 27.3872 142.392 27.6029C142.209 27.8106 142.037 27.921 141.878 27.9341ZM152.007 27.548C151.617 27.5801 151.271 27.5202 150.969 27.3684C150.675 27.2079 150.44 26.9903 150.265 26.7157C150.09 26.4411 149.99 26.1524 149.966 25.8494C149.913 25.2115 149.977 24.6203 150.157 24.0758C150.336 23.5232 150.577 23.0299 150.878 22.5958C151.187 22.153 151.509 21.7734 151.844 21.4569C152.188 21.1398 152.501 20.8973 152.784 20.7296C153.075 20.5532 153.284 20.4598 153.411 20.4493C153.666 20.4284 153.804 20.5455 153.825 20.8006C153.835 20.9202 153.767 21.0663 153.621 21.2389C153.474 21.4034 153.285 21.5995 153.055 21.8271C152.825 22.0547 152.581 22.3115 152.323 22.5976C152.065 22.8756 151.826 23.1882 151.606 23.5354C151.385 23.8746 151.211 24.2501 151.084 24.6619C150.957 25.0657 150.912 25.5027 150.951 25.9732C150.99 26.4516 151.205 26.6747 151.596 26.6426C151.955 26.6132 152.316 26.5153 152.679 26.349C153.051 26.182 153.411 25.9759 153.761 25.7305C154.117 25.4765 154.457 25.2158 154.78 24.9484C155.103 24.6811 155.395 24.4283 155.657 24.1902C155.918 23.944 156.138 23.7453 156.318 23.594C156.499 23.4428 156.628 23.3639 156.708 23.3573C156.868 23.3442 156.955 23.4254 156.969 23.6008C156.98 23.7364 156.903 23.9233 156.738 24.1616C156.573 24.3999 156.346 24.6634 156.057 24.952C155.767 25.2406 155.442 25.5362 155.082 25.8387C154.721 26.1333 154.354 26.4082 153.982 26.6635C153.609 26.9109 153.248 27.117 152.901 27.282C152.56 27.4384 152.262 27.5271 152.007 27.548ZM160.797 21.4685C160.817 21.7236 160.758 21.9813 160.619 22.2416C160.479 22.4939 160.287 22.7425 160.042 22.9873C159.797 23.2242 159.522 23.4514 159.219 23.6689C158.916 23.8865 158.611 24.0801 158.304 24.2498C157.997 24.4195 157.715 24.559 157.459 24.6683C157.421 24.9845 157.412 25.2622 157.431 25.5014C157.444 25.6529 157.488 25.7576 157.565 25.8155C157.642 25.8733 157.757 25.8961 157.908 25.8836C158.243 25.8561 158.593 25.7672 158.958 25.6169C159.323 25.4665 159.693 25.2796 160.068 25.0562C160.443 24.8327 160.801 24.5987 161.142 24.3539C161.483 24.1092 161.793 23.879 162.072 23.6635C162.36 23.4472 162.598 23.2711 162.788 23.1352C162.977 22.9992 163.104 22.9286 163.168 22.9234C163.263 22.9155 163.338 22.9415 163.391 23.0014C163.451 23.0526 163.484 23.1181 163.491 23.1978C163.496 23.2616 163.407 23.3934 163.222 23.5931C163.046 23.7922 162.805 24.0288 162.498 24.3028C162.191 24.5688 161.844 24.8461 161.459 25.1346C161.073 25.4231 160.67 25.697 160.25 25.9563C159.838 26.2149 159.434 26.4286 159.038 26.5976C158.651 26.7658 158.298 26.8631 157.979 26.8892C157.564 26.9233 157.228 26.7943 156.972 26.5023C156.715 26.2104 156.56 25.7375 156.506 25.0837C156.47 24.6452 156.489 24.1981 156.564 23.7424C156.647 23.2861 156.772 22.8464 156.938 22.4234C157.111 21.9918 157.308 21.6064 157.529 21.2672C157.757 20.9193 158.004 20.6423 158.268 20.436C158.531 20.2217 158.794 20.1038 159.057 20.0822C159.56 20.0409 159.966 20.1481 160.276 20.4036C160.586 20.659 160.759 21.014 160.797 21.4685ZM157.635 23.7268C157.869 23.555 158.111 23.3746 158.361 23.1855C158.61 22.9965 158.839 22.8051 159.048 22.6114C159.257 22.4176 159.421 22.2195 159.541 22.0171C159.668 21.8059 159.723 21.5967 159.706 21.3894C159.682 21.0944 159.511 20.96 159.192 20.9862C158.992 21.0026 158.792 21.1475 158.589 21.4209C158.394 21.6858 158.213 22.0257 158.047 22.4407C157.88 22.8558 157.743 23.2844 157.635 23.7268Z" fill="white" fill-opacity="0.5"/>
</svg>
