<svg width="135" height="27" viewBox="0 0 135 27" fill="none" xmlns="http://www.w3.org/2000/svg">
<path d="M1.524 3.387C1.19601 3.38472 0.964128 3.3671 0.828355 3.33415C0.692636 3.29321 0.609001 3.24062 0.577447 3.1764C0.553894 3.11224 0.54234 3.04815 0.542786 2.98416C0.543399 2.89616 0.587955 2.81647 0.676454 2.74508C0.773009 2.66575 0.965451 2.60309 1.25378 2.5571C1.62233 2.47966 2.05487 2.40268 2.55142 2.32613C3.05602 2.24165 3.59256 2.16538 4.16105 2.09734C4.7296 2.0213 5.29808 1.95326 5.86651 1.89322C6.44295 1.83323 6.99127 1.78905 7.51148 1.76067C8.03974 1.72435 8.50787 1.70761 8.91586 1.71045C9.45985 1.71424 9.82751 1.76481 10.0188 1.86214C10.2182 1.95953 10.3174 2.06423 10.3167 2.17622C10.3159 2.28022 10.2593 2.37583 10.1466 2.46305C10.042 2.55032 9.86174 2.59307 9.60574 2.59128C9.50175 2.59056 9.26158 2.61288 8.88526 2.65826C8.50899 2.69564 8.04861 2.74844 7.50412 2.81665C6.96769 2.87691 6.3992 2.94495 5.79866 3.02077C5.75676 3.29249 5.69426 3.65206 5.61114 4.09949C5.52808 4.53892 5.43271 5.02227 5.32503 5.54953C5.22536 6.07685 5.12165 6.60814 5.01392 7.1434C4.91424 7.67072 4.81882 8.16207 4.72764 8.61745C4.64447 9.07288 4.57385 9.44839 4.51579 9.744C4.45773 10.0396 4.42451 10.2154 4.41612 10.2713C4.38239 10.5191 4.30908 10.7066 4.19619 10.8338C4.09136 10.9531 3.97494 11.0123 3.84695 11.0114C3.69495 11.0103 3.5674 10.9454 3.46429 10.8167C3.36924 10.68 3.32289 10.4437 3.32523 10.1077C3.32601 9.99572 3.35151 9.77989 3.40174 9.46023C3.45202 9.13257 3.51873 8.74503 3.60184 8.2976C3.68496 7.85016 3.77628 7.37479 3.87579 6.87147C3.9753 6.36815 4.07472 5.87683 4.17406 5.39751C4.27346 4.91019 4.36452 4.47082 4.44725 4.07938C4.53004 3.67995 4.59221 3.36837 4.63377 3.14466C4.00128 3.21225 3.40485 3.2721 2.84447 3.3242C2.29215 3.36835 1.852 3.38929 1.524 3.387ZM10.002 11.2583C9.53 11.255 9.15926 11.0724 8.88978 10.7105C8.62029 10.3486 8.48755 9.87967 8.49157 9.30368C8.49302 9.09569 8.52255 8.87589 8.58016 8.64428C8.64583 8.40474 8.72734 8.1893 8.82467 7.99797C8.76906 7.94158 8.72559 7.86528 8.69426 7.76906C8.66299 7.66484 8.64788 7.53673 8.64894 7.38473C8.65223 6.91274 8.73523 6.48131 8.89796 6.09044C9.06069 5.69956 9.27505 5.36105 9.54105 5.07489C9.80711 4.78074 10.1007 4.55478 10.4218 4.39701C10.7509 4.2393 11.0835 4.16161 11.4194 4.16395C11.9714 4.1678 12.418 4.37092 12.7592 4.7733C13.1005 5.16769 13.2683 5.76887 13.2627 6.57685C13.2597 7.00084 13.1927 7.43239 13.0617 7.87148C12.9386 8.31064 12.7676 8.73346 12.5488 9.13994C12.338 9.54648 12.0914 9.90878 11.8092 10.2268C11.535 10.5449 11.2412 10.7989 10.9279 10.9887C10.6226 11.1706 10.314 11.2604 10.002 11.2583ZM9.61949 7.5955C9.66705 7.65983 9.69046 7.744 9.68974 7.84799C9.6889 7.96799 9.66406 8.08782 9.61523 8.20748C9.57439 8.3272 9.52925 8.49089 9.47981 8.69855C9.43036 8.90621 9.4043 9.20204 9.40162 9.58603C9.39895 9.97002 9.54961 10.1631 9.8536 10.1652C10.1896 10.1675 10.5025 10.0377 10.7923 9.77572C11.0822 9.50574 11.3406 9.15953 11.5676 8.7371C11.7945 8.31467 11.9697 7.86388 12.093 7.38473C12.2244 6.89763 12.2916 6.43809 12.2946 6.0061C12.2966 5.7261 12.2459 5.52975 12.1427 5.41702C12.0396 5.2963 11.852 5.23499 11.58 5.2331C11.3 5.23115 11.0073 5.32511 10.702 5.51499C10.4047 5.69692 10.155 5.94719 9.95276 6.26579C9.75054 6.58439 9.64803 6.94368 9.64525 7.34367C9.64464 7.43167 9.63605 7.51561 9.61949 7.5955ZM21.9029 11.4852C21.7269 11.4839 21.5913 11.431 21.496 11.3263C21.4087 11.2297 21.3655 11.1174 21.3664 10.9894C21.3671 10.8774 21.4159 10.7738 21.5125 10.6784C21.6172 10.5752 21.7579 10.4841 21.9344 10.4054C22.2556 10.2396 22.5568 10.0737 22.8379 9.90764C23.1271 9.74165 23.3603 9.56327 23.5377 9.3725C23.715 9.18173 23.8044 8.97835 23.8059 8.76235C23.8072 8.57836 23.7482 8.43794 23.6289 8.34111C23.5096 8.23628 23.346 8.18314 23.138 8.18169C23.018 8.18085 22.8498 8.20368 22.6335 8.25017C22.4172 8.28867 22.1809 8.33502 21.9245 8.38924C21.6762 8.43551 21.4318 8.48181 21.1915 8.52814C20.9512 8.56646 20.7471 8.58504 20.5791 8.58387C20.2751 8.58175 20.0476 8.50817 19.8966 8.36311C19.7457 8.21006 19.6711 8.00553 19.6729 7.74954C19.6738 7.62154 19.7511 7.43008 19.9049 7.17514C20.0587 6.92021 20.2606 6.63761 20.5108 6.32734C20.769 6.00913 21.0513 5.69109 21.3575 5.37322C21.6637 5.05534 21.9738 4.76149 22.2876 4.49167C22.6095 4.22191 22.9071 4.00398 23.1802 3.83788C23.4614 3.67183 23.694 3.58945 23.878 3.59073C24.062 3.59201 24.2015 3.65299 24.2967 3.77365C24.3919 3.89432 24.4388 4.04665 24.4375 4.23064C24.4365 4.37464 24.4116 4.49847 24.3629 4.60213C24.3143 4.6978 24.2137 4.7731 24.0613 4.82804C23.917 4.88303 23.6927 4.91347 23.3887 4.91935C23.075 5.16518 22.741 5.44686 22.3868 5.7644C22.0406 6.07399 21.7224 6.39578 21.432 6.72977C21.1498 7.05581 20.9436 7.37038 20.8134 7.67348C21.0781 7.58732 21.3986 7.51355 21.775 7.45217C22.1595 7.38285 22.5477 7.34956 22.9397 7.35229C23.5557 7.35658 24.0107 7.49975 24.3048 7.78181C24.6069 8.05592 24.7564 8.41697 24.7532 8.86496C24.7512 9.15295 24.6571 9.4523 24.471 9.76301C24.2929 10.0658 24.0589 10.3482 23.7691 10.6101C23.4792 10.8721 23.1698 11.082 22.8407 11.2397C22.5115 11.4054 22.1989 11.4872 21.9029 11.4852ZM30.6851 5.5582C30.6824 5.93419 30.5718 6.31743 30.353 6.70791C30.1344 7.0904 29.7838 7.45997 29.3013 7.81661C28.8269 8.16532 28.2047 8.47699 27.4347 8.75163C27.4627 9.32784 27.6079 9.73686 27.8702 9.9787C28.1325 10.2205 28.5717 10.3436 29.1877 10.3479C29.6676 10.3512 30.1322 10.2705 30.5814 10.1056C31.0385 9.94077 31.4601 9.7157 31.8461 9.43038C31.7757 9.20589 31.7214 8.9615 31.6832 8.69723C31.6451 8.43296 31.627 8.15282 31.6291 7.85683C31.6335 7.21685 31.7213 6.67344 31.8924 6.22663C32.0636 5.77981 32.2819 5.44132 32.5475 5.21116C32.8211 4.98107 33.0979 4.86699 33.3779 4.86894C33.7379 4.87145 34.029 5.00148 34.2512 5.25903C34.4815 5.50864 34.5948 5.89344 34.5912 6.41343C34.5871 6.99742 34.4351 7.56837 34.1353 8.1263C33.8354 8.68422 33.4478 9.18953 32.9727 9.64223C33.1149 9.89123 33.2817 10.0764 33.4728 10.1977C33.672 10.3191 33.8875 10.3806 34.1195 10.3822C34.3995 10.3842 34.7041 10.3103 35.0331 10.1606C35.3702 10.0109 35.7155 9.81335 36.0693 9.5678C36.423 9.32226 36.7648 9.05664 37.0948 8.77093C37.4249 8.47722 37.7189 8.19126 37.9768 7.91305C38.0414 7.8335 38.1058 7.78195 38.1699 7.75839C38.2341 7.72684 38.2942 7.71126 38.3502 7.71165C38.5182 7.71282 38.6016 7.8054 38.6003 7.9894C38.5994 8.12539 38.5303 8.27692 38.3931 8.44397C38.127 8.74612 37.8088 9.06791 37.4384 9.40934C37.076 9.75082 36.6898 10.0721 36.2797 10.3733C35.8775 10.6745 35.4758 10.9197 35.0745 11.1089C34.6812 11.2982 34.3165 11.3916 33.9805 11.3893C33.6285 11.3868 33.2972 11.2885 32.9866 11.0944C32.6839 10.9003 32.4258 10.6224 32.2123 10.261C31.73 10.6016 31.2121 10.87 30.6587 11.0661C30.1053 11.2623 29.5606 11.3585 29.0246 11.3548C28.1447 11.3486 27.4984 11.1041 27.0857 10.6212C26.6731 10.1384 26.4696 9.48493 26.4753 8.66095C26.4798 8.02096 26.5719 7.43359 26.7516 6.89883C26.9394 6.35612 27.1787 5.88578 27.4695 5.4878C27.7603 5.08181 28.0785 4.76802 28.4241 4.54642C28.7696 4.32483 29.1064 4.21517 29.4344 4.21745C29.8584 4.22041 30.1735 4.35061 30.3797 4.60805C30.5859 4.86549 30.6877 5.18221 30.6851 5.5582ZM27.4765 7.9239C27.8779 7.7267 28.2556 7.48532 28.6096 7.19978C28.9716 6.9063 29.2617 6.60431 29.4799 6.29382C29.7061 5.98339 29.8201 5.70018 29.8218 5.44418C29.8226 5.33219 29.7992 5.24802 29.7516 5.19169C29.704 5.12735 29.6163 5.09474 29.4883 5.09385C29.2963 5.09251 29.0957 5.17912 28.8864 5.35366C28.6773 5.52021 28.4757 5.74281 28.2818 6.02147C28.0879 6.29212 27.9178 6.59495 27.7714 6.92993C27.6331 7.26498 27.5348 7.5963 27.4765 7.9239ZM32.6552 8.704C32.9858 8.33829 33.2485 7.94411 33.4435 7.52146C33.6384 7.09881 33.7373 6.67949 33.7402 6.2635C33.7427 5.91151 33.6559 5.7349 33.4799 5.73367C33.2319 5.73195 33.0187 5.91046 32.8402 6.26923C32.6697 6.62005 32.5825 7.07545 32.5786 7.63544C32.5759 8.02743 32.6014 8.38362 32.6552 8.704ZM52.0276 11.071C52.0187 11.199 51.966 11.3026 51.8694 11.3819C51.7729 11.4612 51.6606 11.5005 51.5326 11.4996C51.3886 11.4986 51.269 11.4497 51.1736 11.3531C51.0783 11.2564 51.0313 11.1081 51.0327 10.9081C51.0364 10.3881 51.0643 9.82427 51.1165 9.21662C51.1688 8.60097 51.233 7.9934 51.3092 7.39392C51.3854 6.78643 51.4613 6.22695 51.5369 5.71546C51.2703 6.08962 50.9794 6.5036 50.6642 6.95741C50.3571 7.41129 50.0419 7.8611 49.7188 8.30686C49.3957 8.75262 49.0808 9.16244 48.7742 9.53631C48.4677 9.90218 48.1896 10.2003 47.94 10.4305C47.6904 10.6528 47.4857 10.7634 47.3257 10.7622C47.0297 10.7602 46.7745 10.6424 46.5601 10.4089C46.3458 10.1674 46.2399 9.86666 46.2424 9.50667C46.2434 9.36268 46.2607 9.16679 46.2945 8.91902C46.3283 8.66325 46.3661 8.39551 46.4081 8.11579C46.45 7.83608 46.4878 7.57633 46.5215 7.33656C46.5552 7.08879 46.5725 6.90491 46.5733 6.78491C46.5741 6.67291 46.5628 6.57683 46.5394 6.49667C46.524 6.40856 46.4843 6.36428 46.4203 6.36383C46.3243 6.36317 46.1915 6.47024 46.022 6.68507C45.8526 6.89189 45.6627 7.15858 45.4524 7.48512C45.2502 7.81172 45.0397 8.15826 44.8212 8.52475C44.6106 8.89129 44.4122 9.23792 44.2259 9.56463C44.0397 9.88334 43.8819 10.1342 43.7527 10.3173C43.6474 10.4926 43.5506 10.6199 43.462 10.6993C43.3734 10.7787 43.2652 10.818 43.1372 10.8171C42.9852 10.816 42.8457 10.735 42.7189 10.5742C42.6 10.4133 42.5413 10.2169 42.543 9.98491C42.5439 9.84892 42.5694 9.63709 42.6194 9.34943C42.6694 9.05377 42.7317 8.7302 42.8061 8.37871C42.8886 8.02727 42.967 7.68381 43.0413 7.34832C43.1237 7.00489 43.1938 6.71337 43.2514 6.47376C43.3173 6.20221 43.3986 6.01878 43.4953 5.92345C43.5919 5.82812 43.6963 5.78084 43.8083 5.78162C43.9603 5.78268 44.0799 5.83952 44.1671 5.95213C44.2624 6.05679 44.3092 6.22113 44.3077 6.44512C44.3074 6.48512 44.2826 6.59295 44.2334 6.76861C44.1842 6.93627 44.1228 7.14385 44.0491 7.39134C43.9834 7.63089 43.9096 7.88238 43.8278 8.14582C43.754 8.40931 43.6923 8.65289 43.6427 8.87655C43.8208 8.58178 44.007 8.26307 44.2014 7.92042C44.4038 7.57782 44.6061 7.23922 44.8085 6.90462C45.0109 6.56202 45.213 6.25142 45.415 5.97282C45.617 5.68622 45.8146 5.45959 46.0077 5.29294C46.2009 5.12628 46.3855 5.04356 46.5615 5.04479C46.7695 5.04624 46.961 5.11157 47.1361 5.24079C47.3192 5.37007 47.466 5.5431 47.5765 5.75987C47.687 5.97665 47.7413 6.21703 47.7395 6.48103C47.7382 6.66502 47.7044 6.92479 47.6381 7.26034C47.5718 7.58789 47.5013 7.9434 47.4266 8.32689C47.3599 8.71044 47.3174 9.07415 47.299 9.41803C47.2985 9.49803 47.3222 9.5382 47.3702 9.53853C47.4102 9.53881 47.4584 9.51114 47.5148 9.45553C47.7485 9.20116 48.0067 8.89495 48.2892 8.53691C48.5717 8.17087 48.8584 7.78485 49.1493 7.37887C49.4481 6.97294 49.7429 6.57499 50.0336 6.185C50.3244 5.78702 50.5949 5.42889 50.8451 5.11063C51.1034 4.78442 51.3292 4.52599 51.5225 4.33533C51.7239 4.14473 51.8805 4.04982 51.9925 4.0506C52.2325 4.05227 52.416 4.12155 52.5431 4.25844C52.6701 4.39533 52.7325 4.62377 52.7303 4.94376C52.7285 5.19975 52.7062 5.5316 52.6634 5.93932C52.6285 6.34708 52.5814 6.79077 52.5221 7.27036C52.4708 7.75002 52.4114 8.23362 52.344 8.72116C52.2847 9.20076 52.2255 9.64836 52.1666 10.064C52.1078 10.4716 52.0615 10.8072 52.0276 11.071ZM55.8335 14.5416C55.4335 14.5388 55.0657 14.5083 54.7301 14.4499C54.4024 14.3996 54.079 14.3174 53.7598 14.2032C53.4405 14.0969 53.0934 13.9585 52.7186 13.7879C52.607 13.7311 52.5075 13.6624 52.4201 13.5818C52.3326 13.5092 52.2891 13.4249 52.2898 13.3289C52.2907 13.2089 52.3675 13.0814 52.5205 12.9465C52.6654 12.8195 52.8018 12.7564 52.9298 12.7573C53.0658 12.7583 53.2335 12.8075 53.4328 12.9048C53.6401 13.0023 53.8793 13.116 54.1504 13.2459C54.4215 13.3837 54.7207 13.5018 55.048 13.6001C55.3833 13.6985 55.743 13.749 56.127 13.7516C56.543 13.7545 56.9361 13.5853 57.3065 13.2438C57.6769 12.9024 57.9804 12.4085 58.2169 11.7621C58.4533 11.1238 58.5747 10.3526 58.581 9.44863C58.5829 9.17663 58.577 8.87658 58.5633 8.54848C58.5576 8.21243 58.5441 7.86033 58.5226 7.49217C58.3277 7.90682 58.1089 8.31731 57.866 8.72363C57.6312 9.13 57.3846 9.49629 57.1264 9.8225C56.8761 10.1488 56.6142 10.4109 56.3409 10.609C56.0755 10.7992 55.8069 10.8933 55.5349 10.8914C55.1909 10.889 54.9435 10.7993 54.7927 10.6223C54.642 10.4452 54.5679 10.1727 54.5704 9.8047C54.5731 9.4207 54.604 9.00491 54.6631 8.55731C54.7222 8.10971 54.7974 7.65822 54.8886 7.20285C54.9878 6.73953 55.1028 6.30032 55.2337 5.88522C55.3646 5.47012 55.5031 5.11108 55.6493 4.80809C55.7304 4.64865 55.8509 4.56949 56.0109 4.5706C56.1229 4.57138 56.2305 4.63213 56.3337 4.75286C56.4449 4.86563 56.4998 5.01402 56.4986 5.19802C56.4976 5.34201 56.4641 5.54578 56.3983 5.80933C56.3325 6.07288 56.2504 6.37231 56.152 6.70764C56.0537 7.04296 55.9552 7.39428 55.8567 7.76161C55.7582 8.12093 55.6757 8.47636 55.6093 8.82791C55.5429 9.17145 55.5087 9.48722 55.5066 9.77522C55.5058 9.89521 55.5854 9.95577 55.7454 9.95688C55.8334 9.9575 55.9579 9.87836 56.1191 9.71948C56.2882 9.55266 56.4737 9.33794 56.6756 9.07534C56.8854 8.8048 57.0955 8.51025 57.3057 8.19171C57.524 7.86522 57.7343 7.54268 57.9365 7.22408C58.1388 6.89748 58.3128 6.59869 58.4587 6.3277C58.4512 6.26364 58.4476 6.20362 58.448 6.14762C58.4484 6.09162 58.4487 6.03962 58.4491 5.99162C58.4518 5.59963 58.4935 5.35592 58.5742 5.26048C58.6629 5.15709 58.7753 5.10587 58.9113 5.10682C59.1432 5.10844 59.3069 5.16158 59.4022 5.26624C59.4974 5.37091 59.5442 5.55124 59.5424 5.80723C59.5417 5.90323 59.529 6.00715 59.5042 6.11898C59.4795 6.22281 59.4384 6.37452 59.381 6.57413C59.4406 7.20656 59.4887 7.77491 59.5252 8.27917C59.5697 8.7835 59.5901 9.29165 59.5866 9.80364C59.5798 10.7716 59.418 11.6105 59.101 12.3203C58.7921 13.0302 58.3562 13.5792 57.7935 13.9672C57.2388 14.3554 56.5854 14.5468 55.8335 14.5416ZM68.1672 11.8915C67.8872 11.8895 67.6561 11.7639 67.4738 11.5146C67.2996 11.2574 67.2148 10.8048 67.2193 10.1568C67.224 9.47684 67.2406 8.81694 67.2691 8.17712C67.2976 7.5293 67.3456 6.94962 67.4132 6.43808C67.4888 5.92659 67.5876 5.51927 67.7097 5.21612C67.8318 4.91296 67.9889 4.76205 68.1809 4.76339C68.3169 4.76433 68.4363 4.84117 68.5393 4.99389C68.6423 5.13861 68.6929 5.33097 68.6913 5.57096C68.6895 5.81896 68.6632 6.15078 68.6123 6.56644C68.5614 6.98209 68.4983 7.42966 68.423 7.90915C68.3557 8.38069 68.2965 8.84029 68.2454 9.28795C68.1943 9.7276 68.1677 10.0994 68.1656 10.4034C68.1647 10.5314 68.168 10.6354 68.1754 10.7155C68.1909 10.7876 68.2147 10.8238 68.2467 10.824C68.3667 10.8248 68.4954 10.7217 68.6328 10.5147C68.7783 10.2997 68.9323 10.0207 69.0947 9.67787C69.2571 9.327 69.4278 8.94418 69.6067 8.52941C69.7856 8.10665 69.9685 7.68791 70.1554 7.2732C70.3423 6.8585 70.533 6.47981 70.7274 6.13716C70.9218 5.78651 71.1158 5.50785 71.3092 5.30119C71.5027 5.08654 71.6915 4.97985 71.8754 4.98113C72.0914 4.98263 72.2907 5.08803 72.4733 5.2973C72.6639 5.49864 72.7579 5.7873 72.7552 6.16329C72.7545 6.27528 72.7371 6.47117 72.7031 6.75094C72.6692 7.02271 72.6271 7.33442 72.5766 7.68608C72.5262 8.03774 72.4757 8.38939 72.4253 8.74105C72.3749 9.08471 72.3327 9.39242 72.2988 9.66419C72.265 9.92796 72.2477 10.1158 72.2469 10.2278C72.244 10.6438 72.2826 10.8521 72.3626 10.8527C72.5866 10.8542 72.8235 10.7159 73.0735 10.4376C73.3315 10.1514 73.59 9.78519 73.8491 9.33899C74.1163 8.88484 74.3797 8.39466 74.6394 7.86845C74.9071 7.33431 75.1627 6.82407 75.4061 6.33776C75.5199 6.08254 75.6131 5.91119 75.6857 5.82369C75.7663 5.72825 75.8467 5.68081 75.9267 5.68137C76.0387 5.68215 76.1422 5.74287 76.2374 5.86354C76.3406 5.98426 76.3914 6.14862 76.39 6.35661C76.3895 6.42861 76.385 6.50058 76.3765 6.57252C76.368 6.63647 76.3475 6.70833 76.315 6.7881C76.038 7.50619 75.7413 8.17214 75.425 8.78595C75.1088 9.39176 74.7851 9.92152 74.4539 10.3752C74.1308 10.821 73.8124 11.1708 73.4986 11.4246C73.1849 11.6704 72.896 11.7924 72.632 11.7906C72.176 11.7874 71.8209 11.6569 71.5667 11.3991C71.3206 11.1334 71.199 10.7806 71.2021 10.3406C71.2034 10.1566 71.217 9.91666 71.2431 9.62084C71.2772 9.32507 71.3154 9.00533 71.3578 8.66161C71.4082 8.31796 71.4585 7.9863 71.5087 7.66664C71.559 7.34698 71.6009 7.06727 71.6346 6.8275C71.6762 6.58778 71.7014 6.42395 71.71 6.33601C71.7188 6.22407 71.7072 6.16799 71.6752 6.16776C71.6432 6.16754 71.5785 6.27109 71.481 6.47842C71.3916 6.6778 71.2818 6.93304 71.1517 7.24414C71.0295 7.5473 70.8994 7.8624 70.7611 8.18944C70.6066 8.54838 70.4278 8.94314 70.2248 9.37374C70.0299 9.79639 69.819 10.1989 69.5924 10.5814C69.3737 10.9638 69.1435 11.2783 68.9018 11.5246C68.6601 11.7709 68.4152 11.8932 68.1672 11.8915ZM78.6671 11.7366C78.1951 11.7333 77.8244 11.5507 77.5549 11.1888C77.2854 10.827 77.1527 10.358 77.1567 9.78204C77.1581 9.57404 77.1877 9.35424 77.2453 9.12264C77.3109 8.88309 77.3925 8.66765 77.4898 8.47633C77.4342 8.41994 77.3907 8.34363 77.3594 8.24741C77.3281 8.14319 77.313 8.01508 77.3141 7.86309C77.3173 7.3911 77.4004 6.95967 77.5631 6.56879C77.7258 6.17791 77.9402 5.8394 78.2062 5.55325C78.4722 5.25909 78.7658 5.03313 79.0869 4.87536C79.416 4.71765 79.7486 4.63997 80.0846 4.64231C80.6365 4.64615 81.0831 4.84927 81.4243 5.25166C81.7656 5.64604 81.9334 6.24723 81.9278 7.05521C81.9248 7.4792 81.8578 7.91074 81.7268 8.34984C81.6037 8.78899 81.4328 9.21181 81.2139 9.6183C81.0031 10.0248 80.7566 10.3871 80.4743 10.7052C80.2001 11.0233 79.9063 11.2772 79.593 11.4671C79.2877 11.6489 78.9791 11.7388 78.6671 11.7366ZM78.2846 8.07385C78.3322 8.13819 78.3556 8.22235 78.3549 8.32635C78.354 8.44635 78.3292 8.56618 78.2803 8.68584C78.2395 8.80556 78.1944 8.96925 78.1449 9.17691C78.0955 9.38457 78.0694 9.68039 78.0667 10.0644C78.0641 10.4484 78.2147 10.6414 78.5187 10.6435C78.8547 10.6459 79.1676 10.5161 79.4575 10.2541C79.7473 9.98409 80.0058 9.63788 80.2327 9.21545C80.4597 8.79302 80.6348 8.34223 80.7581 7.86308C80.8895 7.37598 80.9567 6.91644 80.9597 6.48445C80.9617 6.20446 80.9111 6.0081 80.8078 5.89538C80.7047 5.77466 80.5171 5.71335 80.2451 5.71145C79.9651 5.7095 79.6725 5.80347 79.3671 5.99334C79.0699 6.17528 78.8201 6.42554 78.6179 6.74414C78.4157 7.06274 78.3132 7.42204 78.3104 7.82203C78.3098 7.91002 78.3012 7.99397 78.2846 8.07385ZM83.2759 11.8767C83.1479 11.8758 83.0402 11.8231 82.953 11.7185C82.8657 11.6139 82.8227 11.4695 82.824 11.2856C82.8249 11.1496 82.8545 10.9258 82.9127 10.6142C82.9789 10.2946 83.0495 9.92309 83.1244 9.4996C83.2074 9.07617 83.2784 8.63666 83.3376 8.18106C83.3969 7.71746 83.4279 7.27366 83.4309 6.84967C83.4324 6.64168 83.4854 6.49005 83.5901 6.39477C83.7028 6.29155 83.8272 6.24042 83.9632 6.24137C84.0911 6.24226 84.1866 6.32293 84.2495 6.48337C84.3124 6.64381 84.3221 6.96389 84.2788 7.4436C84.6525 6.63018 85.061 5.97701 85.5045 5.48409C85.956 4.98322 86.4025 4.62632 86.844 4.41339C87.2855 4.19246 87.6823 4.08322 88.0343 4.08568C88.2663 4.08729 88.4339 4.13646 88.5373 4.23318C88.6486 4.32196 88.7039 4.42235 88.7032 4.53435C88.7021 4.68634 88.6373 4.80589 88.5087 4.893C88.3881 4.97216 88.1754 5.06668 87.8707 5.17656C87.5177 5.31011 87.1926 5.46785 86.8953 5.64978C86.6061 5.82377 86.3285 6.05384 86.0625 6.33999C85.8045 6.6262 85.55 6.99244 85.2988 7.4387C85.0478 7.87696 84.796 8.41922 84.5435 9.06548C84.291 9.71174 84.0216 10.4899 83.7352 11.3999C83.686 11.5756 83.6211 11.6991 83.5406 11.7706C83.4681 11.8421 83.3799 11.8774 83.2759 11.8767ZM93.9495 12.3591C93.4295 12.3555 92.9503 12.2281 92.5121 11.9771C92.0818 11.7261 91.6921 11.4033 91.3428 11.0089C91.0015 10.6145 90.6965 10.1924 90.4276 9.74249C90.1668 9.28466 89.9418 8.85508 89.7526 8.45375C89.612 9.10079 89.5004 9.62402 89.4176 10.0235C89.3428 10.4229 89.2807 10.7265 89.2313 10.9342C89.1898 11.1419 89.1488 11.2816 89.1083 11.3533C89.0678 11.4251 89.0156 11.4607 88.9516 11.4602C88.7756 11.459 88.6083 11.3619 88.4496 11.1687C88.291 10.9756 88.2127 10.7271 88.2148 10.4231C88.217 10.1031 88.276 9.6795 88.3917 9.15229C88.5074 8.61708 88.6595 8.02613 88.848 7.37942C89.0446 6.72478 89.2693 6.05033 89.5221 5.35607C89.775 4.65382 90.0358 3.97162 90.3044 3.30947C90.5811 2.63938 90.8573 2.02929 91.1332 1.4792C91.2711 1.20815 91.3883 1.03297 91.4848 0.953637C91.5894 0.874364 91.7137 0.835229 91.8577 0.836232C92.0897 0.837848 92.2049 0.946653 92.2034 1.16265C92.2029 1.24265 92.1782 1.33048 92.1296 1.42614C92.0889 1.52186 92.0442 1.62955 91.9953 1.74921C91.8489 2.1002 91.6861 2.49508 91.5071 2.93384C91.336 3.37266 91.1608 3.83145 90.9815 4.31021C90.8101 4.78903 90.6468 5.2639 90.4915 5.73483C90.3362 6.20576 90.2012 6.64083 90.0864 7.04004C90.4321 6.80245 90.8377 6.56527 91.3034 6.3285C91.7691 6.09174 92.2506 5.87909 92.7479 5.69055C93.2453 5.49401 93.7144 5.33728 94.1552 5.22034C94.596 5.10341 94.9604 5.04595 95.2484 5.04795C95.4004 5.04901 95.5161 5.09782 95.5954 5.19438C95.6828 5.28299 95.7261 5.38329 95.7253 5.49529C95.7247 5.58329 95.6961 5.67109 95.6395 5.7587C95.5909 5.83836 95.4864 5.90963 95.326 5.97252C94.7967 6.15284 94.2714 6.33718 93.7501 6.52555C93.2288 6.70593 92.6834 6.90213 92.1139 7.11417C91.5525 7.31826 90.9388 7.56199 90.2728 7.84536C90.4784 8.1988 90.7197 8.58049 90.9968 8.99043C91.2741 9.39237 91.5714 9.77445 91.8889 10.1367C92.2064 10.4909 92.5324 10.7852 92.8668 11.0195C93.2012 11.2458 93.5364 11.3602 93.8724 11.3625C94.3124 11.3656 94.737 11.2765 95.1463 11.0954C95.5556 10.9142 95.9331 10.6929 96.2789 10.4313C96.6328 10.1697 96.9425 9.91588 97.2083 9.66972C97.474 9.41557 97.6834 9.21702 97.8364 9.07408C97.9169 9.00264 97.9893 8.95514 98.0534 8.93159C98.1257 8.90009 98.1898 8.88454 98.2458 8.88493C98.3578 8.88571 98.4333 8.94624 98.4725 9.06651C98.5197 9.17884 98.4789 9.30256 98.3499 9.43767C98.2531 9.549 98.1039 9.71996 97.9023 9.95056C97.7007 10.1812 97.4549 10.4355 97.165 10.7134C96.8831 10.9835 96.5693 11.2453 96.2235 11.4989C95.8857 11.7526 95.5203 11.958 95.1272 12.1153C94.742 12.2806 94.3494 12.3619 93.9495 12.3591ZM104.801 11.9667C104.409 11.9639 104.069 11.8736 103.782 11.6956C103.504 11.5096 103.289 11.2721 103.139 10.9831C102.989 10.694 102.916 10.3975 102.918 10.0935C102.922 9.45352 103.038 8.87031 103.266 8.34389C103.494 7.80946 103.777 7.33942 104.116 6.93377C104.463 6.52018 104.817 6.17064 105.179 5.88515C105.549 5.59973 105.883 5.38604 106.179 5.24411C106.485 5.09423 106.701 5.01974 106.829 5.02063C107.085 5.02241 107.212 5.1513 107.21 5.40729C107.21 5.52729 107.129 5.66673 106.967 5.82561C106.806 5.97649 106.601 6.15507 106.352 6.36134C106.102 6.5676 105.837 6.80176 105.555 7.0638C105.273 7.31785 105.007 7.608 104.757 7.93426C104.507 8.25253 104.3 8.6111 104.137 9.00997C103.974 9.40085 103.891 9.83228 103.888 10.3043C103.885 10.7843 104.079 11.0256 104.471 11.0283C104.831 11.0309 105.2 10.9654 105.577 10.832C105.961 10.6987 106.339 10.5253 106.708 10.3119C107.086 10.0905 107.447 9.86105 107.793 9.62346C108.139 9.38586 108.452 9.16004 108.734 8.94599C109.015 8.72395 109.253 8.5456 109.446 8.41094C109.638 8.27628 109.775 8.20923 109.855 8.20979C110.015 8.2109 110.094 8.29946 110.093 8.47545C110.092 8.61145 109.999 8.7908 109.813 9.01352C109.628 9.23623 109.378 9.47849 109.064 9.74031C108.75 10.0021 108.401 10.2677 108.015 10.537C107.629 10.7983 107.239 11.0396 106.846 11.2609C106.452 11.4742 106.075 11.6475 105.714 11.781C105.361 11.9066 105.057 11.9685 104.801 11.9667ZM111.293 12.3239C110.677 12.3196 110.194 12.1162 109.845 11.7138C109.504 11.3034 109.336 10.7342 109.341 10.0062C109.344 9.55826 109.407 9.03469 109.532 8.43554C109.664 7.82845 109.828 7.18958 110.025 6.51893C110.23 5.84034 110.45 5.16986 110.687 4.50749C110.924 3.84512 111.152 3.2307 111.372 2.66422C111.6 2.08979 111.799 1.61117 111.97 1.22835C112.067 1.01302 112.204 0.905973 112.38 0.907199C112.62 0.908871 112.739 1.0577 112.737 1.3537C112.736 1.44969 112.691 1.64538 112.601 1.94076C112.511 2.23614 112.392 2.60333 112.245 3.04231C112.098 3.4733 111.939 3.9522 111.767 4.47902C111.596 5.00583 111.42 5.54862 111.24 6.10738C111.068 6.6582 110.908 7.2051 110.76 7.74808C110.613 8.28307 110.493 8.78625 110.402 9.25762C110.311 9.729 110.264 10.1327 110.262 10.4687C110.26 10.6847 110.315 10.8571 110.426 10.9858C110.545 11.1067 110.705 11.1678 110.905 11.1692C111.273 11.1717 111.641 11.1023 112.01 10.9609C112.387 10.8115 112.748 10.63 113.094 10.4164C113.439 10.1948 113.753 9.97698 114.035 9.76294C114.324 9.54095 114.569 9.35866 114.77 9.21605C114.971 9.06545 115.112 8.99043 115.192 8.99098C115.368 8.99221 115.455 9.08882 115.454 9.28082C115.453 9.34481 115.389 9.46437 115.259 9.63947C115.13 9.80657 114.957 10.0054 114.739 10.2359C114.522 10.4664 114.268 10.7046 113.978 10.9506C113.697 11.1886 113.399 11.4146 113.085 11.6284C112.78 11.8343 112.471 12.0001 112.158 12.1259C111.853 12.2598 111.565 12.3258 111.293 12.3239ZM115.088 11.9303C114.936 11.9293 114.8 11.8723 114.681 11.7595C114.562 11.6387 114.503 11.4542 114.505 11.2063C114.506 11.0303 114.532 10.7864 114.582 10.4748C114.632 10.1551 114.698 9.80757 114.781 9.43213C114.864 9.0567 114.95 8.68529 115.041 8.31791C115.139 7.94259 115.238 7.60727 115.336 7.31195C115.434 7.01662 115.519 6.79721 115.592 6.65372C115.657 6.54217 115.718 6.47059 115.774 6.43898C115.838 6.40742 115.898 6.39184 115.954 6.39223C116.066 6.39301 116.162 6.42968 116.242 6.50224C116.329 6.57485 116.372 6.71515 116.371 6.92314C116.37 7.04314 116.344 7.24297 116.294 7.52263C116.253 7.79434 116.194 8.11395 116.12 8.48143C116.053 8.84098 115.979 9.21247 115.896 9.5959C115.821 9.97139 115.747 10.3309 115.672 10.6744C115.598 11.0179 115.54 11.3055 115.498 11.5372C115.466 11.665 115.409 11.7646 115.328 11.836C115.256 11.8995 115.176 11.9309 115.088 11.9303ZM116.31 5.30268C116.126 5.3014 115.95 5.24418 115.783 5.13101C115.624 5.0179 115.545 4.83734 115.547 4.58935C115.548 4.38135 115.597 4.21369 115.694 4.08636C115.799 3.95909 115.92 3.86793 116.056 3.81288C116.201 3.74988 116.325 3.71875 116.429 3.71947C116.533 3.7202 116.649 3.745 116.776 3.7939C116.912 3.83484 117.028 3.91565 117.123 4.03631C117.218 4.14898 117.265 4.31731 117.263 4.5413C117.262 4.6933 117.209 4.82894 117.104 4.94821C117 5.05948 116.871 5.14659 116.719 5.20953C116.574 5.27252 116.438 5.30357 116.31 5.30268ZM119.545 12.0694C119.153 12.0667 118.813 11.9763 118.527 11.7983C118.248 11.6123 118.033 11.3748 117.883 11.0858C117.733 10.7967 117.66 10.5002 117.662 10.1962C117.666 9.55623 117.782 8.97303 118.01 8.4466C118.238 7.91217 118.521 7.44214 118.86 7.03649C119.207 6.62289 119.561 6.27335 119.923 5.98787C120.293 5.70244 120.627 5.48876 120.924 5.34682C121.229 5.19694 121.445 5.12245 121.573 5.12334C121.829 5.12513 121.956 5.25401 121.954 5.51001C121.954 5.63001 121.873 5.76944 121.712 5.92833C121.55 6.07921 121.345 6.25778 121.096 6.46405C120.846 6.67032 120.581 6.90447 120.299 7.16652C120.017 7.42056 119.751 7.71071 119.501 8.03698C119.251 8.35524 119.044 8.71381 118.881 9.11269C118.719 9.50356 118.636 9.935 118.632 10.407C118.629 10.887 118.823 11.1283 119.215 11.1311C119.575 11.1336 119.944 11.0681 120.321 10.9348C120.706 10.8014 121.083 10.6281 121.452 10.4146C121.83 10.1933 122.191 9.96377 122.537 9.72617C122.883 9.48857 123.196 9.26275 123.478 9.04871C123.759 8.82666 123.997 8.64831 124.19 8.51365C124.383 8.37899 124.519 8.31194 124.599 8.3125C124.759 8.31361 124.838 8.40217 124.837 8.57817C124.836 8.71416 124.743 8.89352 124.557 9.11623C124.372 9.33894 124.122 9.58121 123.808 9.84303C123.494 10.1048 123.145 10.3704 122.759 10.6397C122.373 10.9011 121.983 11.1423 121.59 11.3636C121.196 11.5769 120.819 11.7503 120.458 11.8837C120.105 12.0093 119.801 12.0712 119.545 12.0694ZM129.625 12.6076C129.105 12.604 128.626 12.4767 128.188 12.2256C127.757 11.9746 127.367 11.6519 127.018 11.2574C126.677 10.863 126.372 10.4409 126.103 9.99102C125.842 9.53319 125.617 9.10361 125.428 8.70228C125.287 9.34932 125.176 9.87256 125.093 10.272C125.018 10.6715 124.956 10.9751 124.907 11.1827C124.865 11.3904 124.824 11.5301 124.784 11.6019C124.743 11.6736 124.691 11.7092 124.627 11.7088C124.451 11.7076 124.284 11.6104 124.125 11.4173C123.966 11.2242 123.888 10.9756 123.89 10.6716C123.892 10.3516 123.951 9.92803 124.067 9.40082C124.183 8.86561 124.335 8.27466 124.523 7.62796C124.72 6.97331 124.945 6.29886 125.198 5.6046C125.45 4.90235 125.711 4.22015 125.98 3.558C126.257 2.88791 126.533 2.27782 126.809 1.72773C126.946 1.45669 127.064 1.2815 127.16 1.20217C127.265 1.1229 127.389 1.08376 127.533 1.08476C127.765 1.08638 127.88 1.19519 127.879 1.41118C127.878 1.49118 127.854 1.57901 127.805 1.67467C127.764 1.77039 127.72 1.87808 127.671 1.99774C127.524 2.34873 127.362 2.74361 127.182 3.18237C127.011 3.62119 126.836 4.07998 126.657 4.55874C126.486 5.03756 126.322 5.51244 126.167 5.98337C126.012 6.4543 125.877 6.88937 125.762 7.28858C126.108 7.05098 126.513 6.8138 126.979 6.57704C127.444 6.34027 127.926 6.12762 128.423 5.93908C128.921 5.74254 129.39 5.58581 129.831 5.46888C130.271 5.35194 130.636 5.29448 130.924 5.29649C131.076 5.29755 131.192 5.34635 131.271 5.44291C131.358 5.53152 131.402 5.63182 131.401 5.74382C131.4 5.83182 131.372 5.91962 131.315 6.00723C131.266 6.08689 131.162 6.15817 131.001 6.22105C130.472 6.40137 129.947 6.58571 129.426 6.77409C128.904 6.95446 128.359 7.15066 127.789 7.3627C127.228 7.5668 126.614 7.81053 125.948 8.09389C126.154 8.44733 126.395 8.82902 126.672 9.23897C126.949 9.64091 127.247 10.023 127.564 10.3852C127.882 10.7394 128.208 11.0337 128.542 11.268C128.877 11.4944 129.212 11.6087 129.548 11.6111C129.988 11.6141 130.412 11.5251 130.822 11.3439C131.231 11.1628 131.609 10.9414 131.954 10.6798C132.308 10.4183 132.618 10.1644 132.884 9.91825C133.149 9.6641 133.359 9.46555 133.512 9.32261C133.592 9.25117 133.665 9.20368 133.729 9.18012C133.801 9.14862 133.865 9.13307 133.921 9.13346C134.033 9.13424 134.109 9.19477 134.148 9.31505C134.195 9.42738 134.154 9.5511 134.025 9.6862C133.929 9.79753 133.779 9.96849 133.578 10.1991C133.376 10.4297 133.13 10.684 132.84 10.962C132.559 11.232 132.245 11.4938 131.899 11.7474C131.561 12.0011 131.196 12.2065 130.803 12.3638C130.417 12.5291 130.025 12.6104 129.625 12.6076ZM52.9136 25.9775C52.7376 25.9763 52.602 25.9234 52.5067 25.8187C52.4114 25.722 52.3651 25.4777 52.3678 25.0857C52.3703 24.7257 52.4375 24.2582 52.5696 23.6831C52.7016 23.1 52.8781 22.4532 53.0991 21.7427C53.32 21.0323 53.5692 20.298 53.8465 19.5399C54.1238 18.7738 54.413 18.0238 54.7141 17.2899C55.0233 16.548 55.3201 15.8701 55.6043 15.256C55.7099 15.0328 55.819 14.8775 55.9316 14.7903C56.0442 14.7031 56.1765 14.66 56.3285 14.6611C56.4325 14.6618 56.5203 14.6944 56.5918 14.7589C56.6714 14.8155 56.7108 14.9117 56.7098 15.0477C56.7095 15.0957 56.6564 15.2514 56.5506 15.5146C56.4527 15.778 56.3143 16.125 56.1353 16.5558C55.9643 16.9866 55.7729 17.4693 55.5612 18.0038C55.3495 18.5383 55.1335 19.1008 54.9134 19.6913C54.6933 20.2818 54.4852 20.8764 54.289 21.475C54.0929 22.0657 53.9249 22.6325 53.7851 23.1755C53.6453 23.7186 53.5499 24.2059 53.4989 24.6376C53.6925 24.4069 53.9146 24.1125 54.1651 23.7542C54.4156 23.3959 54.6823 23.0098 54.9652 22.5958C55.2481 22.1817 55.5349 21.7717 55.8258 21.3657C56.1166 20.9597 56.4032 20.5897 56.6855 20.2557C56.9679 19.9216 57.2297 19.6555 57.4711 19.4571C57.7206 19.2509 57.9373 19.1484 58.1213 19.1497C58.4253 19.1518 58.6686 19.2495 58.8513 19.4428C59.042 19.6281 59.1358 19.9327 59.1329 20.3567C59.1312 20.5967 59.0812 20.8844 58.9829 21.2197C58.8925 21.5551 58.7861 21.9064 58.6635 22.2735C58.541 22.6407 58.4305 22.9919 58.3322 23.3272C58.2418 23.6626 58.1958 23.9503 58.1942 24.1903C58.1919 24.5183 58.3147 24.6831 58.5627 24.6849C58.9467 24.6875 59.3313 24.6062 59.7165 24.4409C60.1096 24.2756 60.4831 24.0702 60.8368 23.8247C61.1905 23.5711 61.5163 23.3174 61.8141 23.0635C62.1119 22.8015 62.3655 22.5793 62.5748 22.3968C62.8002 22.1983 62.9888 22.0996 63.1408 22.1007C63.3328 22.102 63.4281 22.2027 63.4267 22.4027C63.4264 22.4587 63.4139 22.5226 63.3894 22.5944C63.3649 22.6663 63.3003 22.7578 63.1955 22.8691C63.0665 23.0122 62.8812 23.1989 62.6396 23.4292C62.406 23.6596 62.1322 23.9057 61.8184 24.1675C61.5126 24.4294 61.1789 24.6751 60.8172 24.9046C60.4636 25.1341 60.0983 25.3236 59.7213 25.473C59.3523 25.6144 58.9918 25.6839 58.6398 25.6814C58.1598 25.6781 57.7888 25.5395 57.5267 25.2657C57.2726 24.9839 57.1473 24.599 57.1507 24.111C57.1528 23.807 57.2034 23.4394 57.3024 23.008C57.4014 22.5767 57.5246 22.1216 57.6719 21.6426C57.8273 21.1557 57.9826 20.6807 58.1378 20.2178C57.8806 20.392 57.5988 20.6541 57.2923 21.0039C56.9939 21.3459 56.6792 21.7357 56.3482 22.1734C56.0172 22.6031 55.6861 23.0408 55.355 23.4865C55.0319 23.9323 54.717 24.3461 54.4103 24.7279C54.1117 25.1019 53.8336 25.4039 53.576 25.6342C53.3184 25.8644 53.0976 25.9788 52.9136 25.9775ZM66.4768 20.1679C66.4733 20.6799 66.2258 21.1742 65.7345 21.6508C65.2432 22.1273 64.4961 22.5622 63.4933 22.9552C63.46 23.1549 63.4428 23.3228 63.4418 23.4588C63.4396 23.7788 63.478 24.0111 63.557 24.1556C63.644 24.3003 63.7875 24.3733 63.9875 24.3747C64.2835 24.3767 64.6161 24.287 64.9854 24.1056C65.3547 23.9162 65.7364 23.6748 66.1304 23.3816C66.5246 23.0803 66.9108 22.763 67.2891 22.4296C67.6754 22.0963 68.0296 21.7827 68.3517 21.489C68.6738 21.1872 68.9475 20.9451 69.1728 20.7627C69.3981 20.5723 69.5508 20.4773 69.6308 20.4779C69.7428 20.4786 69.8344 20.5313 69.9057 20.6358C69.977 20.7323 70.0121 20.8645 70.0109 21.0325C70.0095 21.2405 69.9958 21.4804 69.9699 21.7523C69.944 22.0161 69.9141 22.2959 69.88 22.5917C70.0921 22.0091 70.3556 21.5029 70.6706 21.0731C70.9937 20.6354 71.3362 20.2737 71.6982 19.9883C72.0602 19.7028 72.4137 19.4892 72.7587 19.3476C73.1037 19.206 73.4002 19.1361 73.6482 19.1378C73.8802 19.1394 74.0519 19.1846 74.1633 19.2734C74.2746 19.3622 74.3299 19.4666 74.3291 19.5866C74.3283 19.6986 74.2756 19.8022 74.1709 19.8975C74.0743 19.9848 73.8495 20.0992 73.4965 20.2408C73.0874 20.3979 72.7021 20.5833 72.3406 20.7968C71.9871 21.0103 71.6571 21.304 71.3504 21.6779C71.0439 22.0438 70.7685 22.5338 70.5242 23.1482C70.2799 23.7625 70.0704 24.553 69.8956 25.5198C69.8623 25.7116 69.8054 25.8472 69.7248 25.9267C69.6442 26.0141 69.5479 26.0574 69.4359 26.0566C69.3559 26.0561 69.2761 26.0195 69.1966 25.947C69.1171 25.8824 69.0542 25.726 69.0079 25.4777C68.9617 25.2213 68.9405 24.8212 68.9443 24.2772C68.9468 23.9092 68.9656 23.5093 69.0006 23.0775C69.0436 22.6458 69.1028 22.1942 69.1781 21.7227C68.8073 22.1202 68.3964 22.5373 67.9453 22.9742C67.4943 23.4031 67.0275 23.8038 66.5449 24.1765C66.0624 24.5411 65.5883 24.8378 65.1227 25.0666C64.6571 25.2953 64.2243 25.4083 63.8243 25.4055C63.4003 25.4026 63.0613 25.2522 62.8074 24.9544C62.5535 24.6567 62.4285 24.2158 62.4326 23.6318C62.4373 22.9598 62.5296 22.3444 62.7095 21.7857C62.8894 21.2269 63.1207 20.7445 63.4036 20.3385C63.6865 19.9244 63.9887 19.6065 64.3102 19.3848C64.6318 19.163 64.9406 19.0532 65.2366 19.0552C65.6366 19.058 65.9438 19.1642 66.1584 19.3737C66.373 19.5752 66.4791 19.8399 66.4768 20.1679ZM63.6914 22.0805C63.9326 21.9142 64.1939 21.728 64.4754 21.522C64.7648 21.316 65.0103 21.1057 65.2118 20.8911C65.4213 20.6685 65.5267 20.4653 65.528 20.2813C65.5288 20.1693 65.5014 20.0891 65.4457 20.0407C65.39 19.9923 65.2942 19.9676 65.1582 19.9667C64.9422 19.9652 64.7415 20.0718 64.556 20.2865C64.3705 20.4932 64.2047 20.7601 64.0584 21.0871C63.9122 21.4061 63.7898 21.7372 63.6914 22.0805ZM78.8561 20.4461C78.8543 20.7021 78.7725 20.9536 78.6108 21.2004C78.4491 21.4393 78.2355 21.6698 77.97 21.892C77.7045 22.1062 77.4111 22.3081 77.0897 22.4979C76.7684 22.6876 76.4472 22.8534 76.1262 22.9952C75.8052 23.1369 75.5124 23.2509 75.2478 23.3371C75.1817 23.6486 75.1477 23.9244 75.1461 24.1644C75.145 24.3164 75.1803 24.4246 75.2518 24.4891C75.3234 24.5536 75.4351 24.5864 75.5871 24.5875C75.9231 24.5898 76.2795 24.5323 76.6564 24.4149C77.0332 24.2975 77.4183 24.1442 77.8116 23.9549C78.2049 23.7657 78.5823 23.5643 78.9438 23.3508C79.3053 23.1373 79.6347 22.9356 79.9321 22.7457C80.2374 22.5558 80.4905 22.4016 80.6913 22.283C80.8921 22.1644 81.0246 22.1053 81.0886 22.1057C81.1846 22.1064 81.2563 22.1389 81.3039 22.2032C81.3595 22.2596 81.387 22.3278 81.3865 22.4078C81.386 22.4718 81.2852 22.5951 81.0839 22.7777C80.8906 22.9604 80.6291 23.1746 80.2994 23.4203C79.9697 23.658 79.6 23.9034 79.1902 24.1566C78.7805 24.4097 78.3548 24.6467 77.9132 24.8677C77.4797 25.0887 77.0584 25.2657 76.6495 25.3989C76.2486 25.5321 75.8881 25.5976 75.5681 25.5954C75.1521 25.5925 74.8292 25.4342 74.5994 25.1206C74.3696 24.807 74.257 24.3222 74.2615 23.6662C74.2646 23.2262 74.3237 22.7826 74.4388 22.3354C74.5619 21.8883 74.7249 21.4614 74.9277 21.0548C75.1386 20.6402 75.3692 20.2738 75.6194 19.9556C75.8777 19.6294 76.1475 19.3752 76.4287 19.1932C76.7101 19.0031 76.9827 18.909 77.2467 18.9109C77.7507 18.9144 78.1457 19.0572 78.4318 19.3392C78.7178 19.6212 78.8592 19.9901 78.8561 20.4461ZM75.5063 22.4148C75.7553 22.2646 76.0124 22.1064 76.2776 21.9402C76.5428 21.7741 76.788 21.6038 77.0132 21.4293C77.2384 21.2549 77.4197 21.0721 77.557 20.8811C77.7024 20.6821 77.7758 20.4786 77.7773 20.2706C77.7793 19.9746 77.6204 19.8255 77.3004 19.8233C77.1004 19.8219 76.8875 19.9484 76.6617 20.2028C76.444 20.4493 76.2337 20.7719 76.031 21.1705C75.8282 21.5691 75.6533 21.9839 75.5063 22.4148Z" fill="white" fill-opacity="0.5"/>
</svg>
