<svg width="151" height="13" viewBox="0 0 151 13" fill="none" xmlns="http://www.w3.org/2000/svg">
<path d="M1.28744 11.4185C1.08745 11.4171 0.923843 11.36 0.796626 11.2471C0.677354 11.1422 0.618163 11.0258 0.619055 10.8978C0.620058 10.7538 0.64081 10.646 0.68131 10.5743C0.729867 10.4946 0.830254 10.4393 0.982474 10.4083C1.35908 10.323 1.74779 10.2217 2.14862 10.1045C2.5575 9.97931 2.93841 9.84996 3.29135 9.71642C3.64434 9.57487 3.92931 9.43685 4.14626 9.30236C4.3712 9.16793 4.48403 9.04871 4.48475 8.94471C4.48542 8.84871 4.39807 8.7561 4.22268 8.66688C4.04736 8.56966 3.82409 8.4641 3.55287 8.35021C3.28166 8.23631 2.99053 8.11028 2.67949 7.97211C2.36844 7.83394 2.07754 7.67591 1.80677 7.49802C1.536 7.32013 1.3134 7.11857 1.13896 6.89335C0.964584 6.66013 0.878426 6.39553 0.880488 6.09953C0.88372 5.63555 0.998727 5.20434 1.22551 4.80591C1.46034 4.39953 1.76296 4.02563 2.13334 3.6842C2.50373 3.34277 2.90992 3.0296 3.35192 2.74467C3.80197 2.4518 4.24377 2.19487 4.67732 1.97388C5.11893 1.74495 5.51234 1.54369 5.85756 1.37009C5.97 1.30687 6.0783 1.26363 6.18247 1.24035C6.28663 1.21708 6.37871 1.20572 6.45871 1.20627C6.69071 1.20789 6.85834 1.26106 6.96161 1.36578C7.06489 1.4705 7.11605 1.59086 7.1151 1.72686C7.11432 1.83886 7.0534 1.97044 6.93235 2.1216C6.81135 2.26476 6.63846 2.39156 6.41368 2.50199C6.18891 2.61243 5.92053 2.66656 5.60853 2.66439L5.51254 2.66372C5.23954 2.80582 4.94235 2.97575 4.62096 3.17352C4.29958 3.37129 3.98205 3.58908 3.66839 3.8269C3.35472 4.06472 3.065 4.31071 2.79923 4.56486C2.5415 4.81107 2.33184 5.04962 2.17022 5.2805C2.01661 5.51143 1.93914 5.7229 1.9378 5.91489C1.93618 6.14689 2.02273 6.3555 2.19745 6.54072C2.37216 6.72594 2.59501 6.8915 2.866 7.03739C3.14499 7.18334 3.43601 7.32537 3.73906 7.46348C4.0501 7.60165 4.34112 7.74368 4.61211 7.88957C4.89115 8.02752 5.11809 8.18111 5.29292 8.35033C5.4678 8.51155 5.55448 8.70016 5.55298 8.91615C5.55125 9.16415 5.46161 9.39953 5.28405 9.6223C5.1145 9.84512 4.88905 10.0516 4.60772 10.2416C4.32645 10.4236 4.01729 10.5895 3.68023 10.7392C3.35124 10.8809 3.02638 11.0026 2.70567 11.1044C2.38495 11.2061 2.0964 11.2841 1.84002 11.3383C1.59163 11.3926 1.40744 11.4193 1.28744 11.4185ZM9.48619 11.2476C9.0942 11.2449 8.75483 11.1545 8.46806 10.9765C8.18935 10.7906 7.975 10.5531 7.82501 10.264C7.67502 9.97496 7.60108 9.67844 7.6032 9.37445C7.60766 8.73446 7.72372 8.15126 7.95139 7.62483C8.17912 7.0904 8.4624 6.62036 8.80124 6.21471C9.14813 5.80112 9.50257 5.45158 9.86457 5.1661C10.2346 4.88067 10.5681 4.66699 10.8651 4.52505C11.1701 4.37517 11.3866 4.30068 11.5146 4.30157C11.7706 4.30335 11.8977 4.43224 11.8959 4.68824C11.8951 4.80823 11.8141 4.94767 11.653 5.10655C11.492 5.25744 11.2867 5.43601 11.0373 5.64228C10.7878 5.84855 10.5222 6.0827 10.2404 6.34474C9.95859 6.59879 9.69256 6.88894 9.44228 7.21521C9.19206 7.53347 8.98556 7.89204 8.82278 8.29092C8.66005 8.68179 8.57704 9.11322 8.57375 9.58521C8.57041 10.0652 8.76473 10.3066 9.15672 10.3093C9.51671 10.3118 9.88518 10.2464 10.2621 10.113C10.6471 9.97967 11.0243 9.80629 11.3938 9.59286C11.7713 9.37148 12.1329 9.142 12.4786 8.9044C12.8243 8.6668 13.1378 8.44098 13.4193 8.22694C13.7009 8.00489 13.9381 7.82654 14.1311 7.69188C14.324 7.55722 14.4605 7.49017 14.5405 7.49073C14.7005 7.49184 14.7799 7.5804 14.7786 7.75639C14.7777 7.89239 14.6844 8.07174 14.4989 8.29446C14.3133 8.51717 14.0636 8.75944 13.7498 9.02126C13.436 9.28308 13.0861 9.54865 12.7002 9.81796C12.3144 10.0793 11.9247 10.3206 11.5312 10.5418C11.1377 10.7551 10.7604 10.9285 10.3995 11.062C10.0466 11.1875 9.74219 11.2494 9.48619 11.2476ZM14.1708 11.3402C14.0428 11.3394 13.9351 11.2866 13.8479 11.182C13.7606 11.0774 13.7176 10.9331 13.7189 10.7491C13.7198 10.6131 13.7494 10.3893 13.8076 10.0777C13.8738 9.75814 13.9444 9.38662 14.0193 8.96313C14.1023 8.5397 14.1733 8.10018 14.2325 7.64459C14.2918 7.18099 14.3228 6.73719 14.3258 6.3132C14.3272 6.10521 14.3803 5.95357 14.485 5.8583C14.5977 5.75508 14.7221 5.70395 14.858 5.7049C14.986 5.70579 15.0815 5.78645 15.1444 5.9469C15.2073 6.10734 15.217 6.42741 15.1737 6.90712C15.5474 6.09371 15.9559 5.44054 16.3994 4.94761C16.8509 4.44675 17.2974 4.08985 17.7389 3.87692C18.1804 3.65599 18.5772 3.54675 18.9292 3.5492C19.1612 3.55082 19.3288 3.59999 19.4321 3.69671C19.5435 3.78549 19.5988 3.88588 19.5981 3.99788C19.597 4.14987 19.5322 4.26942 19.4036 4.35653C19.283 4.43569 19.0703 4.53021 18.7656 4.64009C18.4126 4.77364 18.0875 4.93137 17.7902 5.11331C17.501 5.2873 17.2234 5.51737 16.9574 5.80352C16.6994 6.08973 16.4449 6.45597 16.1937 6.90223C15.9427 7.34049 15.6909 7.88275 15.4384 8.52901C15.1859 9.17526 14.9165 9.95341 14.6301 10.8634C14.5809 11.0391 14.516 11.1626 14.4355 11.2341C14.363 11.3056 14.2748 11.341 14.1708 11.3402ZM20.528 11.2765C20.0561 11.2732 19.6853 11.0907 19.4158 10.7288C19.1463 10.3669 19.0136 9.89795 19.0176 9.32196C19.0191 9.11397 19.0486 8.89417 19.1062 8.66256C19.1719 8.42301 19.2534 8.20758 19.3507 8.01625C19.2951 7.95986 19.2517 7.88356 19.2203 7.78734C19.189 7.68312 19.1739 7.55501 19.175 7.40301C19.1783 6.93102 19.2613 6.49959 19.424 6.10871C19.5867 5.71784 19.8011 5.37932 20.0671 5.09317C20.3332 4.79902 20.6267 4.57306 20.9479 4.41529C21.277 4.25758 21.6095 4.17989 21.9455 4.18223C22.4975 4.18608 22.9441 4.38919 23.2853 4.79158C23.6266 5.18597 23.7944 5.78715 23.7887 6.59513C23.7858 7.01912 23.7188 7.45067 23.5877 7.88976C23.4647 8.32892 23.2937 8.75174 23.0749 9.15822C22.864 9.56476 22.6175 9.92705 22.3353 10.2451C22.0611 10.5632 21.7673 10.8172 21.4539 11.007C21.1487 11.1889 20.84 11.2787 20.528 11.2765ZM20.1456 7.61378C20.1931 7.67811 20.2165 7.76228 20.2158 7.86627C20.215 7.98627 20.1901 8.1061 20.1413 8.22576C20.1005 8.34548 20.0553 8.50917 20.0059 8.71683C19.9564 8.92449 19.9304 9.22032 19.9277 9.60431C19.925 9.9883 20.0757 10.1814 20.3797 10.1835C20.7156 10.1858 21.0286 10.056 21.3184 9.794C21.6083 9.52401 21.8667 9.17781 22.0936 8.75538C22.3206 8.33295 22.4957 7.88216 22.6191 7.403C22.7505 6.91591 22.8177 6.45636 22.8207 6.02437C22.8226 5.74438 22.772 5.54802 22.6688 5.4353C22.5656 5.31458 22.3781 5.25327 22.1061 5.25138C21.8261 5.24943 21.5334 5.34339 21.2281 5.53327C20.9308 5.7152 20.681 5.96547 20.4788 6.28407C20.2766 6.60267 20.1741 6.96196 20.1713 7.36195C20.1707 7.44995 20.1621 7.53389 20.1456 7.61378ZM27.0731 11.6821C26.4571 11.6778 25.9745 11.4745 25.6253 11.072C25.2842 10.6616 25.1161 10.0925 25.1212 9.36448C25.1243 8.91649 25.188 8.39292 25.3122 7.79377C25.4444 7.18668 25.6088 6.54781 25.8055 5.87716C26.0103 5.19857 26.2309 4.5281 26.4676 3.86573C26.7042 3.20336 26.9325 2.58893 27.1524 2.02245C27.3804 1.44803 27.5798 0.969405 27.7504 0.586584C27.8479 0.371258 27.9847 0.264208 28.1607 0.265434C28.4007 0.267106 28.5196 0.415938 28.5176 0.711931C28.5169 0.807929 28.4715 1.00362 28.3815 1.299C28.2914 1.59438 28.1729 1.96156 28.0258 2.40055C27.8788 2.83153 27.7194 3.31043 27.5478 3.83725C27.3761 4.36407 27.2003 4.90686 27.0204 5.46562C26.8486 6.01643 26.6888 6.56333 26.541 7.10632C26.3932 7.6413 26.2737 8.14448 26.1825 8.61586C26.0912 9.08723 26.0444 9.49092 26.042 9.82691C26.0405 10.0429 26.0953 10.2153 26.2064 10.3441C26.3256 10.4649 26.4852 10.526 26.6851 10.5274C27.0531 10.53 27.4216 10.4605 27.7906 10.3191C28.1677 10.1697 28.5289 9.98824 28.8744 9.77464C29.22 9.55304 29.5335 9.33522 29.815 9.12117C30.1046 8.89919 30.3499 8.71689 30.5508 8.57429C30.7519 8.42368 30.8924 8.34866 30.9724 8.34922C31.1484 8.35044 31.2358 8.44706 31.2344 8.63905C31.234 8.70305 31.1691 8.8226 31.0399 8.9977C30.9107 9.16481 30.7374 9.36361 30.5197 9.5941C30.3021 9.82458 30.0485 10.0628 29.7587 10.3088C29.4771 10.5469 29.1795 10.7728 28.866 10.9866C28.5606 11.1925 28.2514 11.3583 27.9385 11.4842C27.6336 11.618 27.3451 11.684 27.0731 11.6821ZM32.2808 11.7184C31.6648 11.7141 31.1822 11.5108 30.833 11.1083C30.4918 10.6979 30.3238 10.1287 30.3289 9.40076C30.332 8.95277 30.3956 8.4292 30.5198 7.83005C30.652 7.22296 30.8165 6.58409 31.0132 5.91344C31.2179 5.23485 31.4386 4.56437 31.6752 3.90201C31.9118 3.23964 32.1401 2.62521 32.36 2.05873C32.5881 1.48431 32.7874 1.00568 32.9581 0.622863C33.0556 0.407537 33.1923 0.300487 33.3683 0.301713C33.6083 0.303385 33.7273 0.452217 33.7252 0.74821C33.7245 0.844208 33.6792 1.0399 33.5891 1.33528C33.4991 1.63066 33.3805 1.99784 33.2334 2.43683C33.0864 2.86781 32.9271 3.34671 32.7554 3.87353C32.5837 4.40035 32.408 4.94314 32.2281 5.5019C32.0562 6.05271 31.8964 6.59961 31.7486 7.1426C31.6009 7.67758 31.4814 8.18076 31.3901 8.65214C31.2988 9.12351 31.252 9.52719 31.2497 9.86319C31.2481 10.0792 31.3029 10.2516 31.4141 10.3803C31.5332 10.5012 31.6928 10.5623 31.8928 10.5637C32.2608 10.5662 32.6293 10.4968 32.9983 10.3554C33.3753 10.206 33.7366 10.0245 34.0821 9.81092C34.4276 9.58932 34.7412 9.3715 35.0227 9.15745C35.3122 8.93547 35.5575 8.75317 35.7585 8.61057C35.9595 8.45996 36.1001 8.38494 36.1801 8.3855C36.3561 8.38672 36.4434 8.48333 36.4421 8.67533C36.4416 8.73933 36.3768 8.85888 36.2476 9.03398C36.1184 9.20109 35.945 9.39988 35.7274 9.63037C35.5098 9.86086 35.2561 10.0991 34.9664 10.3451C34.6847 10.5831 34.3871 10.8091 34.0736 11.0229C33.7682 11.2288 33.459 11.3946 33.1462 11.5204C32.8412 11.6543 32.5527 11.7203 32.2808 11.7184ZM41.3221 12.1174C41.1861 12.1165 41.0706 12.0397 40.9757 11.887C40.8807 11.7423 40.8338 11.574 40.8352 11.382C40.8357 11.302 40.8522 11.2301 40.8847 11.1663C40.9251 11.1026 40.9855 11.055 41.0657 11.0236C41.154 10.9842 41.2422 10.9488 41.3304 10.9174C41.4267 10.8781 41.523 10.8388 41.6193 10.7994C41.5957 10.7353 41.5762 10.6591 41.5608 10.571C41.5455 10.4829 41.5382 10.3789 41.539 10.2589C41.5396 10.1709 41.5568 10.003 41.5905 9.75522C41.6323 9.49951 41.6864 9.19588 41.7529 8.84433C41.8193 8.49278 41.8899 8.12127 41.9647 7.72978C42.0474 7.33035 42.1261 6.94288 42.2008 6.5674C42.2834 6.18396 42.3578 5.84047 42.4239 5.53692C42.5725 4.88194 42.7526 4.29518 42.9642 3.77665C43.1838 3.25816 43.4747 2.85218 43.8367 2.55869C44.2068 2.25727 44.6919 2.10864 45.2919 2.11282C45.7479 2.116 46.1951 2.21912 46.6337 2.42218C47.0803 2.62529 47.4823 2.9121 47.8398 3.2826C48.2053 3.64515 48.4943 4.07118 48.7069 4.56067C48.9195 5.05016 49.0238 5.5829 49.0198 6.15889C49.0163 6.65488 48.897 7.12606 48.6619 7.57243C48.4269 8.0108 48.112 8.42462 47.7172 8.81388C47.3225 9.20314 46.872 9.56401 46.3657 9.89649C45.8673 10.229 45.3452 10.5334 44.7993 10.8096C44.2614 11.0779 43.7317 11.3142 43.2103 11.5185C42.6888 11.7309 42.2076 11.9076 41.7666 12.0485C41.7105 12.0641 41.6423 12.0796 41.5622 12.0951C41.4821 12.1105 41.4021 12.118 41.3221 12.1174ZM42.4736 10.4694C43.1716 10.1862 43.8496 9.89496 44.5077 9.59554C45.1738 9.29617 45.7721 8.96433 46.3027 8.60002C46.8333 8.22771 47.2562 7.81064 47.5714 7.34883C47.8867 6.88701 48.0464 6.35611 48.0505 5.75613C48.0527 5.44413 47.9828 5.13964 47.8409 4.84264C47.699 4.54565 47.5008 4.28026 47.2464 4.04648C47.0001 3.80476 46.7174 3.61479 46.3984 3.47656C46.0874 3.33039 45.7599 3.25611 45.4159 3.25371C45.1039 3.25154 44.8234 3.32959 44.5743 3.48785C44.3332 3.63818 44.1233 3.90872 43.9446 4.29949C43.7659 4.69025 43.6101 5.23318 43.4772 5.92827C43.3782 6.35959 43.275 6.82688 43.1675 7.33015C43.06 7.82541 42.9527 8.30068 42.8455 8.75594C42.7464 9.20326 42.6638 9.58269 42.5976 9.89424C42.5315 10.1978 42.4942 10.3735 42.4859 10.4215C42.4858 10.4375 42.4817 10.4534 42.4736 10.4694ZM52.2731 11.4977C51.8012 11.4944 51.4304 11.3118 51.1609 10.9499C50.8914 10.588 50.7587 10.1191 50.7627 9.54311C50.7642 9.33512 50.7937 9.11532 50.8513 8.88371C50.917 8.64417 50.9985 8.42873 51.0958 8.2374C51.0402 8.18101 50.9967 8.10471 50.9654 8.00849C50.9341 7.90427 50.919 7.77616 50.9201 7.62416C50.9234 7.15217 51.0064 6.72074 51.1691 6.32987C51.3318 5.93899 51.5462 5.60048 51.8122 5.31432C52.0783 5.02017 52.3718 4.79421 52.6929 4.63644C53.0221 4.47873 53.3546 4.40104 53.6906 4.40338C54.2426 4.40723 54.6892 4.61035 55.0304 5.01273C55.3716 5.40712 55.5395 6.0083 55.5338 6.81628C55.5309 7.24027 55.4639 7.67182 55.3328 8.11091C55.2097 8.55007 55.0388 8.97289 54.82 9.37937C54.6091 9.78591 54.3626 10.1482 54.0804 10.4662C53.8061 10.7843 53.5124 11.0383 53.199 11.2281C52.8938 11.41 52.5851 11.4999 52.2731 11.4977ZM51.8906 7.83493C51.9382 7.89926 51.9616 7.98343 51.9609 8.08742C51.9601 8.20742 51.9352 8.32725 51.8864 8.44691C51.8455 8.56663 51.8004 8.73032 51.751 8.93798C51.7015 9.14564 51.6755 9.44147 51.6728 9.82546C51.6701 10.2095 51.8208 10.4025 52.1248 10.4046C52.4607 10.407 52.7737 10.2771 53.0635 10.0152C53.3534 9.74517 53.6118 9.39896 53.8387 8.97653C54.0657 8.5541 54.2408 8.10331 54.3642 7.62416C54.4956 7.13706 54.5628 6.67752 54.5658 6.24553C54.5677 5.96553 54.5171 5.76918 54.4139 5.65645C54.3107 5.53573 54.1231 5.47442 53.8512 5.47253C53.5712 5.47058 53.2785 5.56454 52.9732 5.75442C52.6759 5.93635 52.4261 6.18662 52.2239 6.50522C52.0217 6.82382 51.9192 7.18311 51.9164 7.5831C51.9158 7.6711 51.9072 7.75504 51.8906 7.83493ZM57.9657 11.7653C57.6858 11.7634 57.4546 11.6378 57.2724 11.3885C57.0981 11.1313 57.0133 10.6787 57.0178 10.0307C57.0225 9.35072 57.0391 8.69082 57.0676 8.051C57.0961 7.40318 57.1442 6.8235 57.2117 6.31196C57.2873 5.80047 57.3861 5.39315 57.5082 5.09C57.6304 4.78684 57.7874 4.63593 57.9794 4.63727C58.1154 4.63822 58.2349 4.71505 58.3378 4.86777C58.4408 5.01249 58.4915 5.20485 58.4898 5.44484C58.4881 5.69284 58.4617 6.02466 58.4109 6.44032C58.36 6.85597 58.2968 7.30354 58.2215 7.78303C58.1542 8.25457 58.095 8.71417 58.0439 9.16183C57.9928 9.60148 57.9662 9.97331 57.9641 10.2773C57.9632 10.4053 57.9665 10.5093 57.9739 10.5894C57.9894 10.6615 58.0132 10.6976 58.0452 10.6979C58.1652 10.6987 58.2939 10.5956 58.4313 10.3886C58.5768 10.1736 58.7308 9.89463 58.8932 9.55175C59.0556 9.20088 59.2263 8.81806 59.4052 8.40329C59.5841 7.98053 59.7671 7.56179 59.954 7.14708C60.1409 6.73238 60.3315 6.35369 60.5259 6.01104C60.7203 5.66039 60.9143 5.38173 61.1077 5.17507C61.3012 4.96042 61.49 4.85373 61.674 4.85501C61.89 4.85651 62.0892 4.96191 62.2718 5.17118C62.4624 5.37252 62.5564 5.66118 62.5538 6.03717C62.553 6.14917 62.5356 6.34505 62.5017 6.62482C62.4678 6.89659 62.4256 7.2083 62.3751 7.55996C62.3247 7.91162 62.2742 8.26327 62.2238 8.61493C62.1734 8.95859 62.1313 9.2663 62.0974 9.53807C62.0635 9.80184 62.0462 9.98973 62.0454 10.1017C62.0425 10.5177 62.0811 10.726 62.1611 10.7265C62.3851 10.7281 62.622 10.5898 62.872 10.3115C63.13 10.0253 63.3885 9.65907 63.6477 9.21287C63.9148 8.75872 64.1783 8.26854 64.4379 7.74234C64.7057 7.20819 64.9612 6.69795 65.2046 6.21164C65.3184 5.95642 65.4116 5.78507 65.4842 5.69757C65.5649 5.60213 65.6452 5.55469 65.7252 5.55525C65.8372 5.55603 65.9408 5.61675 66.0359 5.73742C66.1391 5.85814 66.19 6.0225 66.1885 6.23049C66.188 6.30249 66.1835 6.37446 66.175 6.4464C66.1666 6.51035 66.1461 6.58221 66.1135 6.66198C65.8365 7.38007 65.5398 8.04602 65.2236 8.65983C64.9073 9.26564 64.5836 9.7954 64.2525 10.2491C63.9293 10.6949 63.6109 11.0447 63.2971 11.2985C62.9834 11.5443 62.6945 11.6663 62.4306 11.6644C61.9746 11.6613 61.6195 11.5308 61.3653 11.273C61.1191 11.0073 60.9976 10.6544 61.0006 10.2144C61.0019 10.0305 61.0156 9.79054 61.0416 9.49472C61.0757 9.19895 61.1139 8.87921 61.1563 8.53549C61.2067 8.19184 61.257 7.86018 61.3073 7.54052C61.3575 7.22086 61.3994 6.94115 61.4331 6.70138C61.4748 6.46166 61.4999 6.29783 61.5085 6.20989C61.5173 6.09795 61.5057 6.04187 61.4737 6.04164C61.4417 6.04142 61.377 6.14497 61.2795 6.3523C61.1901 6.55168 61.0804 6.80692 60.9502 7.11802C60.8281 7.42118 60.6979 7.73628 60.5596 8.06332C60.4051 8.42226 60.2263 8.81702 60.0233 9.24762C59.8284 9.67027 59.6176 10.0728 59.3909 10.4552C59.1722 10.8377 58.942 11.1521 58.7003 11.3985C58.4586 11.6448 58.2137 11.7671 57.9657 11.7653ZM67.7272 11.2093C67.4952 11.2077 67.2881 11.0743 67.106 10.809C66.9238 10.5437 66.8342 10.2031 66.8371 9.7871C66.8403 9.33111 66.9037 8.84354 67.0273 8.32439C67.1589 7.80529 67.3186 7.27839 67.5063 6.74369C67.6941 6.20098 67.8778 5.67825 68.0573 5.17549C68.098 5.07177 68.1545 4.99616 68.2268 4.94866C68.3072 4.89322 68.4274 4.86606 68.5874 4.86717C68.8754 4.86918 69.0184 5.01018 69.0165 5.29017C69.016 5.35417 68.983 5.49794 68.9175 5.72149C68.8519 5.94504 68.766 6.22045 68.6597 6.54772C68.5614 6.87504 68.459 7.23033 68.3523 7.6136C68.2457 7.98887 68.151 8.36822 68.0683 8.75165C67.9857 9.13508 67.9272 9.49068 67.8929 9.81845C68.0219 9.68335 68.1673 9.47636 68.3292 9.19748C68.4992 8.91866 68.6814 8.60392 68.8758 8.25326C69.0703 7.89461 69.2728 7.53601 69.4833 7.17747C69.6939 6.81093 69.9042 6.47638 70.1144 6.17384C70.3325 5.86335 70.5422 5.61681 70.7435 5.43421C70.9529 5.24366 71.1455 5.149 71.3215 5.15023C71.5775 5.15201 71.7929 5.23351 71.9678 5.39473C72.1508 5.54801 72.2889 5.82098 72.3821 6.21364C72.4835 6.59835 72.5317 7.1427 72.5268 7.84669C72.5241 8.22268 72.5577 8.57492 72.6274 8.90341C72.7051 9.23196 72.8273 9.49682 72.9939 9.69799C73.1685 9.89121 73.3919 9.98877 73.6639 9.99066C74.0718 9.9935 74.4363 9.92404 74.7573 9.78227C75.0784 9.63251 75.3555 9.46643 75.5888 9.28405C75.8302 9.09373 76.0313 8.92713 76.1923 8.78425C76.3534 8.63336 76.4779 8.55823 76.5659 8.55884C76.7499 8.56012 76.8412 8.65676 76.8399 8.84876C76.8393 8.92876 76.7784 9.05633 76.6572 9.23149C76.544 9.39871 76.3827 9.58959 76.1732 9.80414C75.9718 10.0107 75.7384 10.2131 75.473 10.4113C75.2156 10.6015 74.9385 10.7596 74.6416 10.8855C74.3528 11.0115 74.0603 11.0734 73.7643 11.0714C73.2123 11.0675 72.7611 10.9564 72.4106 10.7379C72.0681 10.5196 71.8146 10.1618 71.6501 9.66462C71.4935 9.16752 71.4182 8.50298 71.424 7.671C71.4271 7.21501 71.4014 6.88282 71.3469 6.67444C71.3004 6.45811 71.2094 6.31347 71.0739 6.24053C70.9767 6.40785 70.8511 6.64698 70.6969 6.95792C70.5428 7.26085 70.3644 7.59962 70.1618 7.97422C69.9672 8.34887 69.7606 8.72744 69.5419 9.10992C69.3313 9.48447 69.1169 9.83098 68.8986 10.1495C68.6804 10.468 68.4706 10.7265 68.2692 10.9251C68.0679 11.1157 67.8872 11.2104 67.7272 11.2093ZM79.9019 7.73006C79.686 7.71256 79.5869 7.57186 79.6048 7.30798C79.6132 7.24404 79.6578 7.16835 79.7384 7.08091C79.819 6.98547 79.9114 6.93411 80.0154 6.92683C80.2636 6.90456 80.5679 6.87068 80.9282 6.82519C81.2966 6.77175 81.701 6.71057 82.1415 6.64164C82.2242 6.2502 82.3231 5.83888 82.4381 5.40767C82.5531 4.97646 82.68 4.55734 82.8189 4.1503C82.9578 3.73525 83.1044 3.36026 83.2587 3.02533C83.413 2.6904 83.5749 2.42752 83.7442 2.23669C83.8328 2.14931 83.9132 2.08987 83.9855 2.05837C84.0577 2.01887 84.1219 1.99932 84.1779 1.99971C84.2899 2.00049 84.3775 2.0491 84.4409 2.14555C84.5122 2.24204 84.5474 2.35029 84.5466 2.47029C84.5462 2.53429 84.5337 2.5982 84.5093 2.66203C84.3462 3.10891 84.1703 3.6597 83.9817 4.3144C83.7932 4.9691 83.5922 5.68372 83.3788 6.45825C84.1156 6.34338 84.8525 6.22051 85.5894 6.08964C86.3263 5.95877 86.9592 5.83918 87.488 5.73086C87.6404 5.66792 87.7563 5.68073 87.8357 5.76928C87.9231 5.85789 87.9665 5.9462 87.9659 6.0342C87.9651 6.14619 87.9325 6.22997 87.8681 6.28552C87.8117 6.34113 87.7514 6.38871 87.6871 6.42826L87.675 6.44018C87.5146 6.50306 87.2741 6.57739 86.9535 6.66316C86.6329 6.74093 86.2643 6.82636 85.8476 6.91946C85.431 7.00456 84.9864 7.08947 84.5138 7.17418C84.0492 7.25894 83.5887 7.33574 83.1322 7.40456C82.9433 8.10726 82.7503 8.82993 82.5531 9.57258C82.364 10.3073 82.1749 11.03 81.986 11.7407C81.904 12.0281 81.8107 12.2075 81.7062 12.2787C81.6097 12.3581 81.5054 12.3973 81.3934 12.3966C81.2654 12.3957 81.1537 12.3469 81.0584 12.2502C80.9711 12.1536 80.9604 11.9575 81.0265 11.662L81.931 7.57619C81.4505 7.64485 81.0261 7.69389 80.6579 7.72333C80.2977 7.75282 80.0457 7.75506 79.9019 7.73006ZM87.8736 11.7457C87.4016 11.7424 87.0309 11.5598 86.7614 11.1979C86.4919 10.836 86.3592 10.3671 86.3632 9.79112C86.3646 9.58313 86.3942 9.36333 86.4518 9.13172C86.5175 8.89218 86.599 8.67674 86.6963 8.48541C86.6407 8.42902 86.5972 8.35272 86.5659 8.2565C86.5346 8.15228 86.5195 8.02417 86.5206 7.87217C86.5239 7.40018 86.6069 6.96875 86.7696 6.57788C86.9323 6.187 87.1467 5.84849 87.4127 5.56233C87.6787 5.26818 87.9723 5.04222 88.2934 4.88445C88.6225 4.72674 88.9551 4.64905 89.2911 4.65139C89.8431 4.65524 90.2897 4.85836 90.6309 5.26074C90.9721 5.65513 91.1399 6.25631 91.1343 7.06429C91.1314 7.48828 91.0643 7.91983 90.9333 8.35892C90.8102 8.79808 90.6393 9.2209 90.4204 9.62738C90.2096 10.0339 89.9631 10.3962 89.6808 10.7143C89.4066 11.0324 89.1128 11.2863 88.7995 11.4761C88.4942 11.658 88.1856 11.7479 87.8736 11.7457ZM87.4911 8.08294C87.5387 8.14727 87.5621 8.23144 87.5614 8.33543C87.5605 8.45543 87.5357 8.57526 87.4869 8.69492C87.446 8.81464 87.4009 8.97833 87.3514 9.18599C87.302 9.39365 87.2759 9.68948 87.2732 10.0735C87.2706 10.4575 87.4212 10.6505 87.7252 10.6526C88.0612 10.655 88.3741 10.5251 88.664 10.2632C88.9538 9.99318 89.2123 9.64697 89.4392 9.22454C89.6662 8.80211 89.8413 8.35132 89.9646 7.87217C90.096 7.38507 90.1632 6.92553 90.1663 6.49354C90.1682 6.21354 90.1176 6.01719 90.0144 5.90446C89.9112 5.78374 89.7236 5.72243 89.4516 5.72054C89.1716 5.71859 88.879 5.81255 88.5736 6.00243C88.2764 6.18436 88.0266 6.43463 87.8244 6.75323C87.6222 7.07183 87.5197 7.43112 87.5169 7.83111C87.5163 7.91911 87.5077 8.00305 87.4911 8.08294ZM99.7745 11.9726C99.5985 11.9714 99.4629 11.9184 99.3676 11.8138C99.2803 11.7172 99.2371 11.6049 99.238 11.4769C99.2388 11.3649 99.2875 11.2612 99.3842 11.1659C99.4889 11.0626 99.6295 10.9716 99.8061 10.8928C100.127 10.727 100.428 10.5611 100.71 10.3951C100.999 10.2291 101.232 10.0507 101.409 9.85994C101.587 9.66917 101.676 9.46579 101.678 9.24979C101.679 9.0658 101.62 8.92538 101.5 8.82855C101.381 8.72372 101.218 8.67058 101.01 8.66913C100.89 8.66829 100.721 8.69112 100.505 8.73761C100.289 8.77611 100.052 8.82246 99.7961 8.87668C99.5478 8.92295 99.3035 8.96925 99.0631 9.01558C98.8229 9.0539 98.6187 9.07248 98.4507 9.07131C98.1467 9.06919 97.9192 8.99561 97.7682 8.85055C97.6173 8.6975 97.5427 8.49297 97.5445 8.23698C97.5454 8.10898 97.6227 7.91751 97.7765 7.66258C97.9303 7.40764 98.1323 7.12505 98.3824 6.81478C98.6407 6.49657 98.9229 6.17853 99.2291 5.86066C99.5353 5.54278 99.8454 5.24893 100.159 4.97911C100.481 4.70935 100.779 4.49142 101.052 4.32532C101.333 4.15927 101.566 4.07689 101.75 4.07817C101.934 4.07945 102.073 4.14043 102.168 4.26109C102.263 4.38176 102.31 4.53409 102.309 4.71808C102.308 4.86208 102.283 4.98591 102.235 5.08957C102.186 5.18524 102.085 5.26054 101.933 5.31548C101.789 5.37047 101.564 5.40091 101.26 5.40679C100.947 5.65261 100.613 5.9343 100.258 6.25184C99.9122 6.56143 99.594 6.88322 99.3037 7.21721C99.0214 7.54325 98.8152 7.85782 98.6851 8.16092C98.9497 8.07476 99.2702 8.00099 99.6466 7.93961C100.031 7.87029 100.419 7.837 100.811 7.83973C101.427 7.84402 101.882 7.98719 102.176 8.26925C102.479 8.54336 102.628 8.90441 102.625 9.3524C102.623 9.64039 102.529 9.93974 102.343 10.2505C102.164 10.5532 101.931 10.8356 101.641 11.0976C101.351 11.3596 101.041 11.5694 100.712 11.7271C100.383 11.8928 100.071 11.9747 99.7745 11.9726ZM108.557 6.04564C108.554 6.42163 108.443 6.80487 108.225 7.19535C108.006 7.57784 107.655 7.94741 107.173 8.30405C106.698 8.65276 106.076 8.96443 105.306 9.23907C105.334 9.81528 105.48 10.2243 105.742 10.4661C106.004 10.708 106.443 10.831 107.059 10.8353C107.539 10.8387 108.004 10.7579 108.453 10.593C108.91 10.4282 109.332 10.2031 109.718 9.91782C109.647 9.69332 109.593 9.44894 109.555 9.18467C109.517 8.9204 109.499 8.64026 109.501 8.34427C109.505 7.70429 109.593 7.16088 109.764 6.71407C109.935 6.26725 110.154 5.92876 110.419 5.6986C110.693 5.46851 110.97 5.35443 111.25 5.35638C111.61 5.35889 111.901 5.48892 112.123 5.74647C112.353 5.99608 112.466 6.38088 112.463 6.90087C112.459 7.48486 112.307 8.05581 112.007 8.61374C111.707 9.17166 111.319 9.67697 110.844 10.1297C110.987 10.3787 111.153 10.5638 111.344 10.6852C111.544 10.8066 111.759 10.8681 111.991 10.8697C112.271 10.8716 112.576 10.7978 112.905 10.648C113.242 10.4984 113.587 10.3008 113.941 10.0552C114.295 9.8097 114.636 9.54408 114.966 9.25837C115.297 8.96466 115.591 8.6787 115.848 8.40049C115.913 8.32094 115.977 8.26939 116.042 8.24583C116.106 8.21428 116.166 8.1987 116.222 8.19909C116.39 8.20026 116.473 8.29284 116.472 8.47684C116.471 8.61283 116.402 8.76436 116.265 8.93141C115.999 9.23356 115.68 9.55535 115.31 9.89678C114.948 10.2383 114.561 10.5596 114.151 10.8607C113.749 11.1619 113.347 11.4071 112.946 11.5964C112.553 11.7856 112.188 11.8791 111.852 11.8767C111.5 11.8743 111.169 11.776 110.858 11.5818C110.556 11.3877 110.297 11.1099 110.084 10.7484C109.602 11.089 109.084 11.3574 108.53 11.5536C107.977 11.7497 107.432 11.8459 106.896 11.8422C106.016 11.8361 105.37 11.5916 104.957 11.1087C104.545 10.6258 104.341 9.97237 104.347 9.14839C104.351 8.5084 104.444 7.92103 104.623 7.38627C104.811 6.84356 105.05 6.37322 105.341 5.97524C105.632 5.56925 105.95 5.25546 106.296 5.03386C106.641 4.81227 106.978 4.70261 107.306 4.70489C107.73 4.70785 108.045 4.83805 108.251 5.09549C108.458 5.35293 108.559 5.66965 108.557 6.04564ZM105.348 8.41134C105.75 8.21414 106.127 7.97276 106.481 7.68722C106.843 7.39374 107.133 7.09175 107.352 6.78126C107.578 6.47083 107.692 6.18762 107.693 5.93162C107.694 5.81963 107.671 5.73546 107.623 5.67913C107.576 5.61479 107.488 5.58218 107.36 5.58129C107.168 5.57995 106.967 5.66656 106.758 5.8411C106.549 6.00765 106.347 6.23025 106.153 6.50891C105.96 6.77956 105.789 7.08239 105.643 7.41737C105.505 7.75242 105.406 8.08374 105.348 8.41134ZM110.527 9.19144C110.857 8.82573 111.12 8.43155 111.315 8.0089C111.51 7.58625 111.609 7.16693 111.612 6.75094C111.614 6.39895 111.528 6.22234 111.352 6.22111C111.104 6.21939 110.89 6.3979 110.712 6.75667C110.541 7.10749 110.454 7.56289 110.45 8.12288C110.448 8.51487 110.473 8.87106 110.527 9.19144ZM129.899 11.5585C129.89 11.6864 129.838 11.79 129.741 11.8694C129.645 11.9487 129.532 11.9879 129.404 11.987C129.26 11.986 129.141 11.9372 129.045 11.8405C128.95 11.7438 128.903 11.5955 128.904 11.3955C128.908 10.8755 128.936 10.3117 128.988 9.70406C129.04 9.08841 129.105 8.48084 129.181 7.88136C129.257 7.27387 129.333 6.71439 129.409 6.2029C129.142 6.57705 128.851 6.99104 128.536 7.44485C128.229 7.89873 127.914 8.34854 127.59 8.7943C127.267 9.24006 126.952 9.64988 126.646 10.0238C126.339 10.3896 126.061 10.6877 125.812 10.918C125.562 11.1402 125.357 11.2508 125.197 11.2497C124.901 11.2476 124.646 11.1298 124.432 10.8963C124.217 10.6548 124.111 10.3541 124.114 9.99411C124.115 9.85012 124.132 9.65423 124.166 9.40646C124.2 9.15069 124.238 8.88295 124.28 8.60323C124.322 8.32352 124.359 8.06377 124.393 7.824C124.427 7.57623 124.444 7.39235 124.445 7.27235C124.446 7.16035 124.434 7.06427 124.411 6.98411C124.396 6.896 124.356 6.85172 124.292 6.85127C124.196 6.85061 124.063 6.95768 123.894 7.17251C123.724 7.37933 123.534 7.64602 123.324 7.97256C123.122 8.29916 122.911 8.6457 122.693 9.01219C122.482 9.37873 122.284 9.72536 122.098 10.0521C121.911 10.3708 121.754 10.6217 121.624 10.8048C121.519 10.9801 121.422 11.1074 121.334 11.1868C121.245 11.2662 121.137 11.3054 121.009 11.3045C120.857 11.3035 120.717 11.2225 120.59 11.0616C120.472 10.9008 120.413 10.7043 120.415 10.4724C120.416 10.3364 120.441 10.1245 120.491 9.83687C120.541 9.54121 120.603 9.21764 120.678 8.86615C120.76 8.51471 120.839 8.17125 120.913 7.83576C120.995 7.49233 121.065 7.20081 121.123 6.9612C121.189 6.68965 121.27 6.50622 121.367 6.41089C121.464 6.31556 121.568 6.26828 121.68 6.26906C121.832 6.27012 121.951 6.32696 122.039 6.43957C122.134 6.54423 122.181 6.70857 122.179 6.93256C122.179 6.97256 122.154 7.08039 122.105 7.25605C122.056 7.42371 121.994 7.63129 121.921 7.87878C121.855 8.11833 121.781 8.36982 121.699 8.63326C121.626 8.89675 121.564 9.14033 121.514 9.36399C121.692 9.06922 121.879 8.75051 122.073 8.40785C122.275 8.06526 122.478 7.72666 122.68 7.39206C122.882 7.04946 123.085 6.73886 123.287 6.46026C123.489 6.17366 123.686 5.94703 123.879 5.78037C124.073 5.61372 124.257 5.531 124.433 5.53223C124.641 5.53368 124.833 5.59901 125.008 5.72823C125.191 5.85751 125.338 6.03054 125.448 6.24731C125.559 6.46409 125.613 6.70447 125.611 6.96847C125.61 7.15246 125.576 7.41223 125.51 7.74778C125.443 8.07533 125.373 8.43084 125.298 8.81433C125.232 9.19788 125.189 9.56159 125.171 9.90547C125.17 9.98547 125.194 10.0256 125.242 10.026C125.282 10.0262 125.33 9.99858 125.386 9.94297C125.62 9.6886 125.878 9.38239 126.161 9.02435C126.443 8.65831 126.73 8.27229 127.021 7.86631C127.32 7.46038 127.615 7.06243 127.905 6.67244C128.196 6.27446 128.467 5.91633 128.717 5.59807C128.975 5.27186 129.201 5.01343 129.394 4.82277C129.595 4.63217 129.752 4.53726 129.864 4.53804C130.104 4.53971 130.288 4.60899 130.415 4.74588C130.542 4.88277 130.604 5.11121 130.602 5.4312C130.6 5.68719 130.578 6.01904 130.535 6.42676C130.5 6.83452 130.453 7.27821 130.394 7.7578C130.342 8.23746 130.283 8.72106 130.216 9.2086C130.156 9.6882 130.097 10.1358 130.038 10.5514C129.979 10.959 129.933 11.2947 129.899 11.5585ZM133.568 12.064C133.096 12.0607 132.726 11.8781 132.456 11.5163C132.187 11.1544 132.054 10.6854 132.058 10.1095C132.059 9.90146 132.089 9.68166 132.146 9.45006C132.212 9.21051 132.294 8.99507 132.391 8.80374C132.335 8.74735 132.292 8.67105 132.261 8.57483C132.229 8.47061 132.214 8.3425 132.215 8.1905C132.219 7.71852 132.302 7.28708 132.464 6.89621C132.627 6.50533 132.841 6.16682 133.107 5.88066C133.373 5.58651 133.667 5.36055 133.988 5.20278C134.317 5.04507 134.65 4.96739 134.986 4.96973C135.538 4.97357 135.984 5.17669 136.326 5.57907C136.667 5.97346 136.835 6.57464 136.829 7.38262C136.826 7.80661 136.759 8.23816 136.628 8.67726C136.505 9.11641 136.334 9.53923 136.115 9.94571C135.904 10.3523 135.658 10.7145 135.376 11.0326C135.101 11.3507 134.808 11.6046 134.494 11.7945C134.189 11.9763 133.88 12.0662 133.568 12.064ZM133.186 8.40127C133.233 8.4656 133.257 8.54977 133.256 8.65377C133.255 8.77376 133.23 8.89359 133.182 9.01326C133.141 9.13297 133.096 9.29666 133.046 9.50432C132.997 9.71198 132.971 10.0078 132.968 10.3918C132.965 10.7758 133.116 10.9688 133.42 10.971C133.756 10.9733 134.069 10.8435 134.359 10.5815C134.649 10.3115 134.907 9.9653 135.134 9.54287C135.361 9.12044 135.536 8.66965 135.659 8.1905C135.791 7.7034 135.858 7.24386 135.861 6.81187C135.863 6.53187 135.812 6.33552 135.709 6.2228C135.606 6.10207 135.418 6.04077 135.146 6.03887C134.866 6.03692 134.574 6.13088 134.268 6.32076C133.971 6.50269 133.721 6.75296 133.519 7.07156C133.317 7.39016 133.214 7.74945 133.212 8.14944C133.211 8.23744 133.202 8.32138 133.186 8.40127ZM138.177 12.2041C138.049 12.2032 137.941 12.1505 137.854 12.0459C137.767 11.9413 137.724 11.797 137.725 11.613C137.726 11.477 137.756 11.2532 137.814 10.9416C137.88 10.622 137.951 10.2505 138.026 9.82702C138.109 9.40359 138.18 8.96407 138.239 8.50847C138.298 8.04488 138.329 7.60108 138.332 7.17709C138.334 6.9691 138.387 6.81746 138.491 6.72219C138.604 6.61897 138.728 6.56784 138.864 6.56878C138.992 6.56968 139.088 6.65034 139.151 6.81078C139.214 6.97123 139.223 7.2913 139.18 7.77101C139.554 6.9576 139.962 6.30443 140.406 5.8115C140.857 5.31064 141.304 4.95374 141.745 4.74081C142.187 4.51988 142.584 4.41064 142.936 4.41309C143.167 4.41471 143.335 4.46388 143.438 4.5606C143.55 4.64938 143.605 4.74977 143.604 4.86176C143.603 5.01376 143.538 5.13331 143.41 5.22042C143.289 5.29958 143.077 5.3941 142.772 5.50398C142.419 5.63752 142.094 5.79526 141.797 5.9772C141.507 6.15119 141.23 6.38126 140.964 6.66741C140.706 6.95362 140.451 7.31986 140.2 7.76612C139.949 8.20438 139.697 8.74664 139.445 9.3929C139.192 10.0392 138.923 10.8173 138.636 11.7273C138.587 11.903 138.522 12.0265 138.442 12.098C138.369 12.1695 138.281 12.2049 138.177 12.2041ZM147.467 6.86872C147.465 7.12471 147.383 7.37615 147.222 7.62303C147.06 7.86191 146.846 8.09243 146.581 8.31458C146.315 8.52874 146.022 8.7307 145.701 8.92046C145.379 9.11023 145.058 9.276 144.737 9.41776C144.416 9.55953 144.123 9.6735 143.859 9.75965C143.793 10.0712 143.759 10.347 143.757 10.587C143.756 10.739 143.791 10.8472 143.863 10.9117C143.934 10.9762 144.046 11.009 144.198 11.01C144.534 11.0124 144.89 10.9549 145.267 10.8375C145.644 10.7201 146.029 10.5668 146.422 10.3775C146.816 10.1883 147.193 9.98689 147.555 9.7734C147.916 9.55991 148.246 9.3582 148.543 9.16827C148.848 8.97839 149.101 8.82415 149.302 8.70555C149.503 8.58695 149.635 8.52787 149.699 8.52831C149.795 8.52898 149.867 8.56148 149.915 8.62581C149.97 8.6822 149.998 8.7504 149.997 8.83039C149.997 8.89439 149.896 9.01769 149.695 9.2003C149.501 9.38295 149.24 9.59714 148.91 9.84285C148.581 10.0806 148.211 10.326 147.801 10.5791C147.391 10.8323 146.966 11.0693 146.524 11.2903C146.091 11.5112 145.669 11.6883 145.26 11.8215C144.859 11.9547 144.499 12.0202 144.179 12.0179C143.763 12.015 143.44 11.8568 143.21 11.5432C142.98 11.2296 142.868 10.7448 142.872 10.0888C142.875 9.6488 142.935 9.2052 143.05 8.75799C143.173 8.31084 143.336 7.88397 143.539 7.47737C143.749 7.06283 143.98 6.69642 144.23 6.37816C144.489 6.05195 144.758 5.79782 145.04 5.61578C145.321 5.42573 145.594 5.33163 145.858 5.33347C146.362 5.33698 146.757 5.47974 147.043 5.76174C147.329 6.04374 147.47 6.41273 147.467 6.86872ZM144.117 8.83743C144.366 8.68716 144.623 8.52895 144.888 8.36279C145.154 8.19664 145.399 8.02634 145.624 7.85191C145.849 7.67747 146.031 7.49473 146.168 7.30368C146.313 7.10469 146.387 6.90119 146.388 6.6932C146.39 6.39721 146.231 6.2481 145.911 6.24587C145.711 6.24447 145.498 6.37099 145.273 6.62543C145.055 6.87192 144.845 7.19446 144.642 7.59306C144.439 7.99165 144.264 8.40645 144.117 8.83743Z" fill="white" fill-opacity="0.5"/>
</svg>
